<svg width="155" height="154" viewBox="0 0 155 154" fill="none" xmlns="http://www.w3.org/2000/svg">
<path d="M64.4054 13.0017L61.9174 13.4732L62.9119 18.7218L61.2419 19.0383L58.9818 7.10966L60.6518 6.79317L61.6333 11.9736L64.1553 11.4956L66.9228 5.60471L68.7461 5.25916L65.5805 11.8434L71.2108 17.1491L69.2681 17.5172L64.4054 13.0017Z" fill="white"/>
<path d="M83.7921 5.06893L78.2208 14.9789C77.7788 15.769 77.2653 16.3554 76.6803 16.7382C76.0952 17.121 75.4617 17.3063 74.7796 17.2941C74.2478 17.2847 73.7066 17.1536 73.156 16.9009L73.6316 15.5216C74.0566 15.6796 74.4368 15.7615 74.7721 15.7675C75.5351 15.7811 76.1724 15.3876 76.6839 14.5872L76.9691 14.1586L72.2427 4.86328L74.0983 4.89632L77.8977 12.666L82.0753 5.03836L83.7921 5.06893Z" fill="white"/>
<path d="M98.9934 8.19918L96.0791 19.9851L94.4291 19.577L96.9812 9.25593L90.1454 7.56533L87.5934 17.8865L85.9265 17.4742L88.8407 5.68827L98.9934 8.19918Z" fill="white"/>
<path d="M106.04 10.7686L107.553 11.5814L103.12 19.8319L113.878 14.9803L115.284 15.7357L109.537 26.4307L108.04 25.6261L112.465 17.3909L101.7 22.219L100.294 21.4637L106.04 10.7686Z" fill="white"/>
<path d="M126.458 26.4385L123.299 23.7283L116.377 31.7988L115.087 30.6922L122.009 22.6217L118.862 19.9228L119.845 18.7774L127.441 25.2931L126.458 26.4385Z" fill="white"/>
<path d="M131.102 29.0321L132.132 30.4059L124.639 36.0257L136.44 36.1505L137.397 37.427L127.685 44.7121L126.665 43.3522L134.143 37.7428L122.347 37.5938L121.389 36.3172L131.102 29.0321Z" fill="white"/>
<path d="M141.264 65.4876L140.841 62.9909L135.574 63.8828L135.291 62.2069L147.261 60.1799L147.545 61.8558L142.346 62.7361L142.775 65.267L148.61 68.1489L148.92 69.9786L142.399 66.6851L136.984 72.2109L136.654 70.2614L141.264 65.4876Z" fill="white"/>
<path d="M148.81 85.0405L139.01 79.2783C138.229 78.8211 137.652 78.2963 137.281 77.704C136.909 77.1116 136.736 76.4746 136.762 75.7928C136.782 75.2613 136.923 74.7227 137.186 74.1771L138.556 74.6794C138.39 75.1013 138.301 75.4798 138.288 75.8149C138.26 76.5775 138.641 77.2223 139.431 77.7492L139.854 78.0427L149.239 73.4973L149.17 75.3519L141.329 79L148.874 83.3247L148.81 85.0405Z" fill="white"/>
<path d="M145.503 100.233L133.727 97.0756L134.169 95.4269L144.482 98.1915L146.312 91.361L135.999 88.5964L136.446 86.9308L148.222 90.0878L145.503 100.233Z" fill="white"/>
<path d="M142.641 107.128L141.799 108.622L133.651 104.032L138.281 114.869L137.499 116.257L126.937 110.308L127.77 108.829L135.903 113.41L131.296 102.567L132.078 101.178L142.641 107.128Z" fill="white"/>
<path d="M126.702 127.403L129.491 124.281L121.517 117.157L122.656 115.882L130.63 123.006L133.407 119.897L134.539 120.908L127.834 128.414L126.702 127.403Z" fill="white"/>
<path d="M123.993 131.838L122.603 132.846L117.105 125.264L116.791 137.062L115.499 137.998L108.372 128.17L109.748 127.172L115.236 134.74L115.574 122.946L116.866 122.009L123.993 131.838Z" fill="white"/>
<path d="M87.3098 141.313L89.8142 140.938L89.0237 135.655L90.7047 135.404L92.5012 147.411L90.8202 147.662L90.04 142.448L87.5013 142.828L84.5078 148.607L82.6724 148.882L86.0907 142.425L80.6701 136.905L82.6256 136.613L87.3098 141.313Z" fill="white"/>
<path d="M67.625 148.484L73.5726 138.795C74.0445 138.023 74.5802 137.456 75.1795 137.096C75.7788 136.736 76.419 136.576 77.1001 136.614C77.6312 136.644 78.1669 136.796 78.7074 137.069L78.1793 138.429C77.7606 138.255 77.3838 138.159 77.049 138.14C76.2871 138.097 75.6352 138.466 75.0933 139.246L74.7919 139.663L79.1579 149.133L77.3051 149.029L73.8067 141.119L69.3394 148.581L67.625 148.484Z" fill="white"/>
<path d="M52.5445 144.74L55.9436 133.084L57.5753 133.56L54.5987 143.767L61.3587 145.739L64.3353 135.532L65.9837 136.013L62.5846 147.668L52.5445 144.74Z" fill="white"/>
<path d="M45.582 141.893L44.1053 141.017L48.8815 132.962L37.9303 137.355L36.5581 136.541L42.7494 126.1L44.2112 126.966L39.4438 135.006L50.4011 130.638L51.7733 131.451L45.582 141.893Z" fill="white"/>
<path d="M25.8368 125.49L28.8899 128.319L36.1159 120.521L37.3626 121.676L30.1365 129.475L33.1769 132.293L32.1513 133.399L24.8112 126.597L25.8368 125.49Z" fill="white"/>
<path d="M21.3201 122.774L20.3387 121.365L28.0236 116.011L16.2349 115.473L15.3229 114.163L25.2848 107.223L26.2562 108.618L18.5856 113.962L30.37 114.524L31.282 115.834L21.3201 122.774Z" fill="white"/>
<path d="M12.5459 85.8963L12.872 88.4075L18.1695 87.7194L18.3884 89.405L6.34861 90.9688L6.12971 89.2832L11.3584 88.6041L11.0278 86.0585L5.30775 82.9538L5.06875 81.1134L11.4578 84.656L17.0817 79.3431L17.3363 81.3039L12.5459 85.8963Z" fill="white"/>
<path d="M5.7514 66.0624L15.3232 72.1967C16.0864 72.6836 16.6422 73.2301 16.9906 73.8363C17.339 74.4424 17.4874 75.0857 17.4359 75.7659C17.3958 76.2963 17.2337 76.829 16.9496 77.3641L15.6001 76.8097C15.7823 76.3944 15.8861 76.0196 15.9114 75.6852C15.969 74.9243 15.613 74.2654 14.8435 73.7085L14.432 73.399L4.87937 77.5807L5.01947 75.7301L12.9955 72.3857L5.62178 67.7746L5.7514 66.0624Z" fill="white"/>
<path d="M9.74872 51.0998L21.3447 54.6964L20.8412 56.3199L10.6865 53.1703L8.6009 59.8961L18.7556 63.0456L18.2471 64.6857L6.65113 61.0891L9.74872 51.0998Z" fill="white"/>
<path d="M12.74 44.202L13.6394 42.7393L21.6172 47.6459L17.4005 36.6227L18.2363 35.2634L28.5778 41.6238L27.6875 43.0717L19.7246 38.1742L23.9174 49.2031L23.0816 50.5624L12.74 44.202Z" fill="white"/>
<path d="M29.5625 24.7247L26.6747 27.7227L34.3313 35.0993L33.1521 36.3235L25.4955 28.9469L22.6198 31.9324L21.5332 30.8855L28.4758 23.6778L29.5625 24.7247Z" fill="white"/>
<path d="M32.3688 20.2597L33.7967 19.306L38.9983 27.0945L39.7675 15.3174L41.0943 14.4311L47.8372 24.5274L46.4238 25.4716L41.2318 17.6974L40.4385 29.4697L39.1117 30.356L32.3688 20.2597Z" fill="white"/>
</svg>
