<svg width="243" height="243" viewBox="0 0 243 243" fill="none" xmlns="http://www.w3.org/2000/svg">
<path d="M103.561 27.085C102.235 27.3424 100.958 27.3585 99.7287 27.1333C98.5161 26.9048 97.4193 26.4735 96.4383 25.8392C95.454 25.1884 94.6266 24.3696 93.956 23.3829C93.2854 22.3962 92.8277 21.265 92.5829 19.9894C92.3381 18.7138 92.3443 17.4925 92.6016 16.3256C92.8588 15.1586 93.3254 14.0971 94.0012 13.141C94.6739 12.1683 95.5306 11.3489 96.5715 10.6828C97.6123 10.0167 98.8038 9.55326 100.146 9.29258C101.471 9.03512 102.732 9.02223 103.928 9.2539C105.137 9.46579 106.234 9.89716 107.219 10.548C108.216 11.1791 109.042 11.9896 109.696 12.9795C110.367 13.9662 110.826 15.1056 111.074 16.3978C111.322 17.69 111.317 18.9196 111.06 20.0865C110.819 21.2502 110.354 22.32 109.665 23.2959C108.989 24.252 108.131 25.0631 107.09 25.7293C106.063 26.3756 104.886 26.8275 103.561 27.085ZM103.136 24.8733C104.097 24.6867 104.952 24.3488 105.7 23.8598C106.465 23.3676 107.088 22.7653 107.57 22.0531C108.066 21.3211 108.401 20.517 108.577 19.6409C108.769 18.7615 108.773 17.8414 108.589 16.8806C108.404 15.9197 108.06 15.0672 107.556 14.323C107.069 13.5756 106.462 12.9633 105.734 12.486C105.02 11.9888 104.217 11.6551 103.325 11.4847C102.45 11.311 101.531 11.3175 100.57 11.5042C99.5928 11.6941 98.7215 12.0351 97.9567 12.5274C97.2084 13.0164 96.5865 13.6269 96.0911 14.359C95.5925 15.0744 95.2472 15.8718 95.055 16.7512C94.8794 17.6273 94.8838 18.5458 95.0682 19.5066C95.2526 20.4675 95.5884 21.3216 96.0756 22.069C96.5793 22.8132 97.1966 23.4322 97.9273 23.9261C98.6548 24.4034 99.4563 24.7289 100.332 24.9025C101.224 25.0729 102.159 25.0632 103.136 24.8733Z" fill="white"/>
<path d="M116.024 25.0994L116.339 7.35325L129.725 7.57046L129.686 9.72535L118.811 9.54887L118.721 14.6192L124.247 14.7089C126.36 14.7432 127.957 15.2086 129.04 16.1053C130.123 17.002 130.65 18.2869 130.62 19.9602C130.589 21.6841 129.966 23.0011 128.749 23.9111C127.55 24.8215 125.843 25.2587 123.629 25.2228L116.024 25.0994ZM118.569 23.1373L123.563 23.2184C125.034 23.2422 126.146 22.9813 126.899 22.4357C127.67 21.8903 128.065 21.0683 128.084 19.9697C128.122 17.8402 126.654 16.7513 123.679 16.703L118.685 16.622L118.569 23.1373Z" fill="white"/>
<path d="M133.722 25.7921L137.144 8.37128L143.935 9.70062C145.461 9.99927 146.715 10.4947 147.699 11.1868C148.682 11.879 149.374 12.7381 149.775 13.7643C150.177 14.7904 150.253 15.9339 150.006 17.1949C149.758 18.4558 149.254 19.4857 148.495 20.2846C147.738 21.0669 146.772 21.6014 145.597 21.8882C144.424 22.1583 143.075 22.144 141.549 21.8454L136.126 20.7839L137.476 19.8333L136.21 26.279L133.722 25.7921ZM137.427 20.0822L136.552 18.6187L141.9 19.6656C143.492 19.9773 144.761 19.8725 145.707 19.3513C146.67 18.8334 147.274 17.9523 147.518 16.7079C147.763 15.4636 147.537 14.4201 146.841 13.5776C146.162 12.7383 145.027 12.1628 143.435 11.8512L138.087 10.8043L139.451 9.77903L137.427 20.0822Z" fill="white"/>
<path d="M147.248 28.2856L161.155 14.6334L163.494 15.5408L164.59 35.0127L162.109 34.0504L161.327 16.2238L162.272 16.5904L149.681 29.2296L147.248 28.2856ZM152.042 25.3835L153.413 23.7387L162.722 27.3497L162.674 29.5078L152.042 25.3835Z" fill="white"/>
<path d="M168.84 37.8457L177.111 23.9044L177.319 24.7954L171.571 21.3763L172.697 19.4782L185.26 26.951L184.134 28.8491L178.386 25.43L179.245 25.1736L170.973 39.1149L168.84 37.8457Z" fill="white"/>
<path d="M178.122 43.5174L189.665 30.0162L191.569 31.6498L182.664 42.065L199.528 38.4812L201.297 39.9993L189.754 53.5005L187.87 51.8834L196.758 41.4875L179.891 45.0354L178.122 43.5174Z" fill="white"/>
<path d="M201.243 68.8034C200.489 67.6802 199.973 66.5181 199.697 65.317C199.444 64.1204 199.419 62.9436 199.621 61.7866C199.847 60.6342 200.284 59.5533 200.932 58.544C201.58 57.5347 202.452 56.6604 203.546 55.921C204.641 55.1815 205.777 54.7002 206.953 54.4771C208.129 54.254 209.29 54.266 210.435 54.5129C211.594 54.7503 212.672 55.2161 213.669 55.9102C214.689 56.6089 215.577 57.5199 216.331 58.643C217.095 59.7802 217.601 60.9588 217.849 62.1789C218.121 63.4035 218.104 64.6088 217.799 65.7946L215.553 65.3216C215.765 64.3619 215.776 63.4362 215.585 62.5447C215.409 61.6437 215.051 60.793 214.514 59.9928C213.958 59.1645 213.299 58.4871 212.537 57.9607C211.785 57.4484 210.982 57.1031 210.127 56.925C209.273 56.7468 208.396 56.7473 207.496 56.9265C206.62 57.1102 205.775 57.477 204.961 58.0268C204.147 58.5766 203.483 59.229 202.97 59.9837C202.48 60.7431 202.157 61.5531 202.001 62.4138C201.845 63.2745 201.862 64.1507 202.053 65.0422C202.253 65.9478 202.631 66.8148 203.188 67.6431C203.725 68.4433 204.37 69.0996 205.122 69.612C205.888 70.1148 206.762 70.4432 207.743 70.5972L207.336 72.8618C206.125 72.6999 204.998 72.2673 203.954 71.564C202.92 70.8748 202.017 69.9546 201.243 68.8034Z" fill="white"/>
<path d="M206.317 76.7212L222.599 69.6313L225.626 76.6324C226.39 78.4002 226.634 79.9433 226.356 81.2619C226.079 82.5804 225.257 83.5367 223.893 84.1309C222.559 84.7116 221.328 84.6766 220.199 84.0258C219.086 83.3682 218.19 82.2564 217.513 80.6902L218.392 80.8051C219.176 82.6193 219.412 84.1658 219.099 85.4446C218.808 86.7321 217.972 87.6763 216.592 88.2773C215.197 88.885 213.882 88.8493 212.649 88.1703C211.438 87.5 210.4 86.1646 209.535 84.1643L206.317 76.7212ZM209.15 78.2237L211.353 83.3176C211.889 84.5581 212.516 85.3906 213.234 85.8151C213.974 86.2483 214.817 86.2589 215.763 85.847C216.709 85.4351 217.261 84.8168 217.421 83.992C217.587 83.1826 217.401 82.1577 216.865 80.9172L214.663 75.8233L209.15 78.2237ZM216.431 75.0535L218.392 79.5892C218.881 80.7212 219.478 81.4839 220.182 81.8773C220.893 82.2862 221.683 82.3016 222.552 81.9235C223.435 81.5386 223.972 80.9459 224.16 80.1453C224.355 79.3603 224.207 78.4018 223.718 77.2698L221.757 72.7341L216.431 75.0535Z" fill="white"/>
<path d="M212.919 93.7786L230.009 88.9605L230.684 91.3772L213.595 96.1952L212.919 93.7786Z" fill="white"/>
<path d="M214.978 100.905L232.552 98.593L232.874 101.078L219.317 102.862L234.22 111.47L234.519 113.78L216.945 116.092L216.626 113.632L230.158 111.852L215.277 103.215L214.978 100.905ZM234.761 105.987C234.583 104.615 234.747 103.512 235.252 102.68C235.759 101.864 236.556 101.377 237.641 101.217L237.872 102.999C237.222 103.102 236.741 103.403 236.432 103.903C236.139 104.401 236.042 105.035 236.142 105.805C236.239 106.558 236.493 107.138 236.903 107.543C237.332 107.963 237.874 108.139 238.529 108.07L238.756 109.827C237.666 109.953 236.771 109.68 236.071 109.006C235.373 108.349 234.936 107.342 234.761 105.987Z" fill="white"/>
<path d="M222.434 139.255C222.149 138.21 221.962 137.204 221.871 136.236C221.795 135.288 221.816 134.378 221.934 133.507C222.225 131.362 222.97 129.765 224.17 128.715C225.367 127.682 226.929 127.296 228.855 127.555L234.558 128.323L234.224 130.785L228.798 130.055C227.491 129.879 226.432 130.146 225.619 130.855C224.807 131.565 224.303 132.64 224.107 134.081C223.992 134.935 223.982 135.821 224.08 136.738C224.175 137.672 224.374 138.595 224.677 139.505L222.434 139.255ZM215.357 137.867L232.943 140.234L232.606 142.722L215.019 140.355L215.357 137.867Z" fill="white"/>
<path d="M214.757 142.615L229.01 155.891L228.209 158.271L208.824 160.263L209.673 157.739L227.43 156.136L227.107 157.098L213.925 145.092L214.757 142.615ZM217.87 147.274L219.573 148.57L216.388 158.043L214.232 158.094L217.87 147.274Z" fill="white"/>
<path d="M207.742 162.236L223.08 171.144L221.82 173.317L209.988 166.446L216.555 182.406L215.385 184.426L200.047 175.519L201.294 173.367L213.104 180.226L206.572 164.256L207.742 162.236ZM220.325 178.375C221.02 177.175 221.822 176.398 222.729 176.045C223.628 175.707 224.556 175.806 225.514 176.342L224.611 177.901C224.033 177.585 223.469 177.531 222.919 177.74C222.383 177.957 221.92 178.402 221.53 179.075C221.149 179.734 220.997 180.35 221.075 180.923C221.159 181.519 221.481 181.99 222.042 182.336L221.152 183.873C220.211 183.307 219.668 182.542 219.524 181.578C219.371 180.628 219.638 179.561 220.325 178.375Z" fill="white"/>
<path d="M148.413 212.532C149.709 212.144 150.981 212.002 152.228 212.105C153.459 212.212 154.595 212.534 155.636 213.069C156.681 213.62 157.587 214.355 158.353 215.272C159.119 216.189 159.687 217.271 160.056 218.519C160.426 219.766 160.54 220.984 160.399 222.173C160.258 223.361 159.897 224.466 159.318 225.486C158.743 226.522 157.97 227.423 156.998 228.19C156.026 228.957 154.883 229.537 153.571 229.93C152.275 230.317 151.019 230.455 149.804 230.342C148.578 230.251 147.442 229.929 146.396 229.378C145.34 228.847 144.436 228.121 143.687 227.199C142.921 226.282 142.351 225.192 141.976 223.928C141.601 222.664 141.485 221.438 141.626 220.25C141.751 219.066 142.11 217.954 142.7 216.913C143.28 215.893 144.056 214.999 145.028 214.232C145.988 213.486 147.117 212.92 148.413 212.532ZM149.054 214.694C148.114 214.975 147.296 215.397 146.598 215.958C145.884 216.525 145.322 217.187 144.911 217.944C144.49 218.723 144.234 219.558 144.146 220.448C144.041 221.344 144.128 222.261 144.406 223.201C144.685 224.141 145.112 224.956 145.687 225.648C146.247 226.345 146.913 226.895 147.685 227.299C148.446 227.724 149.28 227.977 150.186 228.059C151.076 228.145 151.99 228.048 152.93 227.767C153.886 227.481 154.721 227.055 155.435 226.488C156.133 225.927 156.692 225.257 157.114 224.478C157.541 223.716 157.806 222.887 157.911 221.991C158 221.1 157.905 220.185 157.626 219.246C157.348 218.306 156.929 217.488 156.369 216.791C155.794 216.099 155.117 215.543 154.34 215.123C153.568 214.719 152.737 214.474 151.847 214.388C150.941 214.306 150.01 214.408 149.054 214.694Z" fill="white"/>
<path d="M136.227 215.738L137.787 233.415L124.451 234.617L124.262 232.471L135.097 231.494L134.651 226.443L129.146 226.94C127.041 227.129 125.403 226.836 124.231 226.059C123.059 225.282 122.4 224.06 122.253 222.394C122.102 220.677 122.583 219.301 123.697 218.267C124.793 217.235 126.445 216.62 128.651 216.421L136.227 215.738ZM133.903 217.958L128.928 218.407C127.463 218.539 126.384 218.916 125.692 219.538C124.984 220.162 124.678 221.021 124.774 222.116C124.961 224.237 126.537 225.164 129.5 224.897L134.475 224.448L133.903 217.958Z" fill="white"/>
<path d="M118.539 216.872L116.903 234.548L110.011 233.918C108.463 233.776 107.164 233.411 106.115 232.823C105.066 232.235 104.29 231.451 103.787 230.472C103.283 229.492 103.091 228.362 103.209 227.083C103.328 225.804 103.724 224.728 104.399 223.856C105.072 223.001 105.979 222.371 107.12 221.966C108.259 221.577 109.603 221.454 111.151 221.595L116.655 222.098L115.409 223.181L116.014 216.641L118.539 216.872ZM115.433 222.929L116.452 224.295L111.024 223.799C109.408 223.652 108.156 223.885 107.267 224.5C106.362 225.113 105.851 226.051 105.734 227.314C105.617 228.576 105.948 229.591 106.725 230.358C107.486 231.124 108.674 231.58 110.29 231.728L115.718 232.224L114.465 233.383L115.433 222.929Z" fill="white"/>
<path d="M104.843 215.772L92.4072 230.78L89.9868 230.118L86.8981 210.867L89.4652 211.569L92.073 229.216L91.0951 228.948L102.325 215.083L104.843 215.772ZM100.371 219.151L99.1755 220.928L89.5429 218.295L89.3694 216.144L100.371 219.151Z" fill="white"/>
<path d="M82.3834 208.495L75.6072 223.222L75.3076 222.358L81.3833 225.158L80.4607 227.163L67.1816 221.043L68.1042 219.038L74.1799 221.838L73.3519 222.183L80.128 207.456L82.3834 208.495Z" fill="white"/>
<path d="M72.5951 203.768L62.3994 218.312L60.3476 216.869L68.2129 205.65L51.7676 210.835L49.8609 209.494L60.0566 194.951L62.0876 196.379L54.2369 207.577L70.6884 202.427L72.5951 203.768Z" fill="white"/>
<path d="M47.0354 180.989C47.8981 182.031 48.5268 183.136 48.9216 184.304C49.2926 185.469 49.4352 186.637 49.3494 187.808C49.2398 188.978 48.9128 190.097 48.3684 191.165C47.824 192.234 47.0439 193.191 46.0283 194.036C45.0127 194.881 43.9307 195.473 42.7824 195.812C41.6341 196.152 40.4779 196.256 39.3137 196.124C38.1365 196.004 37.0173 195.648 35.9563 195.057C34.8714 194.463 33.8976 193.645 33.0349 192.603C32.1614 191.548 31.5403 190.426 31.1715 189.237C30.779 188.045 30.6755 186.845 30.861 185.634L33.1429 185.881C33.0274 186.857 33.109 187.779 33.3878 188.647C33.6535 189.526 34.0938 190.337 34.7084 191.079C35.3447 191.848 36.068 192.456 36.8784 192.904C37.678 193.338 38.5117 193.602 39.3795 193.694C40.2472 193.786 41.1199 193.698 41.9974 193.43C42.8511 193.159 43.6555 192.71 44.4107 192.082C45.1659 191.454 45.7612 190.738 46.1966 189.936C46.6081 189.132 46.8488 188.294 46.9185 187.422C46.9883 186.55 46.8837 185.68 46.605 184.812C46.3154 183.931 45.8525 183.106 45.2162 182.338C44.6015 181.595 43.8944 181.006 43.0948 180.572C42.2821 180.148 41.3802 179.908 40.3889 179.853L40.568 177.559C41.7887 177.599 42.9534 177.917 44.0621 178.513C45.16 179.096 46.1511 179.921 47.0354 180.989Z" fill="white"/>
<path d="M41.185 173.607L25.7382 182.318L22.015 175.675C21.0749 173.998 20.6752 172.49 20.8159 171.152C20.9566 169.814 21.6742 168.78 22.9688 168.05C24.234 167.337 25.4605 167.245 26.6485 167.776C27.8218 168.315 28.8249 169.327 29.6578 170.813L28.7731 170.789C27.8083 169.068 27.416 167.556 27.5961 166.254C27.7533 164.945 28.4865 163.922 29.7958 163.183C31.1199 162.437 32.4291 162.337 33.7237 162.885C34.9952 163.427 36.1629 164.647 37.2267 166.545L41.185 173.607ZM38.2171 172.405L35.5082 167.572C34.8484 166.395 34.1404 165.632 33.3839 165.285C32.6044 164.93 31.766 165.006 30.8686 165.512C29.9713 166.018 29.4857 166.689 29.4118 167.524C29.3298 168.345 29.6186 169.344 30.2783 170.521L32.9873 175.355L38.2171 172.405ZM31.3102 176.3L28.8981 171.997C28.2961 170.923 27.6251 170.226 26.8852 169.908C26.1369 169.575 25.3509 169.64 24.5271 170.105C23.6885 170.578 23.2167 171.221 23.1117 172.036C22.9985 172.836 23.2428 173.772 23.8448 174.846L26.2569 179.15L31.3102 176.3Z" fill="white"/>
<path d="M32.8323 157.339L16.3258 163.887L15.4066 161.553L31.9131 155.005L32.8323 157.339Z" fill="white"/>
<path d="M30.0125 150.425L12.7335 154.507L12.1622 152.064L25.4918 148.914L9.77342 141.846L9.24257 139.575L26.5216 135.493L27.087 137.912L13.7822 141.055L29.4816 148.154L30.0125 150.425ZM9.78715 147.364C10.1026 148.713 10.0506 149.828 9.63132 150.708C9.20816 151.572 8.46367 152.139 7.39786 152.408L6.98818 150.656C7.62613 150.487 8.07419 150.138 8.33236 149.609C8.57408 149.083 8.60647 148.441 8.42952 147.685C8.25641 146.944 7.94514 146.393 7.4957 146.03C7.02595 145.655 6.46826 145.535 5.82262 145.67L5.41871 143.942C6.49221 143.706 7.41173 143.888 8.17725 144.489C8.93893 145.073 9.47557 146.031 9.78715 147.364Z" fill="white"/>
<path d="M18.7271 113.044C19.1182 114.054 19.4088 115.036 19.5987 115.989C19.7723 116.925 19.8452 117.832 19.8175 118.711C19.7494 120.875 19.1725 122.541 18.0867 123.71C17.0015 124.861 15.487 125.408 13.5432 125.35L7.78791 125.177L7.86615 122.692L13.3426 122.856C14.661 122.896 15.6879 122.521 16.4233 121.731C17.1588 120.941 17.5494 119.819 17.5952 118.365C17.6223 117.503 17.5401 116.621 17.3486 115.718C17.1576 114.799 16.8644 113.902 16.469 113.027L18.7271 113.044ZM25.914 113.692L8.16634 113.158L8.24537 110.648L25.993 111.182L25.914 113.692Z" fill="white"/>
<path d="M26.0786 108.921L10.5396 97.1804L11.0924 94.731L30.1774 90.7609L29.591 93.3587L12.0863 96.7747L12.3096 95.7851L26.6538 106.373L26.0786 108.921ZM22.5052 104.606L20.6777 103.493L22.8779 93.745L25.018 93.4729L22.5052 104.606Z" fill="white"/>
<path d="M31.0412 88.7281L14.8695 81.4399L15.9003 79.1495L28.3756 84.7719L20.2105 69.5716L21.1683 67.4432L37.34 74.7314L36.3197 76.9986L23.8675 71.3867L31.9991 86.5997L31.0412 88.7281ZM16.8713 73.9661C16.3022 75.2308 15.5842 76.0852 14.7174 76.5294C13.8575 76.9582 12.9236 76.9547 11.9155 76.5189L12.6547 74.8763C13.2623 75.1316 13.8293 75.1274 14.3555 74.8637C14.8663 74.593 15.2814 74.1029 15.6007 73.3934C15.913 72.6994 16.0012 72.0713 15.8651 71.5091C15.7206 70.9245 15.3515 70.4892 14.7578 70.2031L15.4866 68.5836C16.4808 69.0502 17.0989 69.7555 17.341 70.6994C17.5901 71.6279 17.4335 72.7168 16.8713 73.9661Z" fill="white"/>
<ellipse cx="9.79556" cy="9.49977" rx="9.79556" ry="9.49977" transform="matrix(0.641395 0.767211 -0.764875 0.644179 186.602 190.02)" fill="#B3A155"/>
<ellipse cx="9.79556" cy="9.49977" rx="9.79556" ry="9.49977" transform="matrix(0.641395 0.767211 -0.764875 0.644179 59.1284 25.0684)" fill="#B3A155"/>
</svg>
