<svg width="74" height="74" viewBox="0 0 74 74" fill="none" xmlns="http://www.w3.org/2000/svg">
<path d="M44.082 37C44.082 40.9114 40.9114 44.082 37 44.082C33.0886 44.082 29.918 40.9114 29.918 37C29.918 33.0886 33.0886 29.918 37 29.918C40.9114 29.918 44.082 33.0886 44.082 37Z" fill="#B3A155"/>
<path d="M53.5622 24.4698C53.2218 23.5473 52.6786 22.7123 51.9729 22.0269C51.2875 21.3212 50.4531 20.778 49.53 20.4376C48.7814 20.1469 47.6567 19.8008 45.5853 19.7065C43.3445 19.6043 42.6727 19.5823 36.9998 19.5823C31.3264 19.5823 30.6546 19.6037 28.4143 19.7059C26.3429 19.8008 25.2177 20.1469 24.4696 20.4376C23.5466 20.778 22.7115 21.3212 22.0267 22.0269C21.321 22.7123 20.7779 23.5467 20.4369 24.4698C20.1461 25.2184 19.8 26.3436 19.7057 28.4151C19.6036 30.6553 19.5815 31.3271 19.5815 37.0005C19.5815 42.6734 19.6036 43.3452 19.7057 45.586C19.8 47.6575 20.1461 48.7821 20.4369 49.5307C20.7779 50.4538 21.3204 51.2883 22.0262 51.9736C22.7115 52.6794 23.546 53.2225 24.4691 53.5629C25.2177 53.8542 26.3429 54.2003 28.4143 54.2946C30.6546 54.3968 31.3258 54.4183 36.9993 54.4183C42.6732 54.4183 43.3451 54.3968 45.5847 54.2946C47.6562 54.2003 48.7814 53.8542 49.53 53.5629C51.3829 52.8482 52.8474 51.3837 53.5622 49.5307C53.853 48.7821 54.199 47.6575 54.2939 45.586C54.3961 43.3452 54.4175 42.6734 54.4175 37.0005C54.4175 31.3271 54.3961 30.6553 54.2939 28.4151C54.1996 26.3436 53.8535 25.2184 53.5622 24.4698ZM36.9998 47.9098C30.9741 47.9098 26.0894 43.0257 26.0894 37C26.0894 30.9743 30.9741 26.0901 36.9998 26.0901C43.025 26.0901 47.9097 30.9743 47.9097 37C47.9097 43.0257 43.025 47.9098 36.9998 47.9098ZM48.341 28.2084C46.933 28.2084 45.7914 27.0668 45.7914 25.6588C45.7914 24.2507 46.933 23.1092 48.341 23.1092C49.7491 23.1092 50.8906 24.2507 50.8906 25.6588C50.8901 27.0668 49.7491 28.2084 48.341 28.2084Z" fill="#B3A155"/>
<path d="M37 0C16.5686 0 0 16.5686 0 37C0 57.4314 16.5686 74 37 74C57.4314 74 74 57.4314 74 37C74 16.5686 57.4314 0 37 0ZM58.1179 45.7594C58.0152 48.0211 57.6555 49.5652 57.1305 50.9168C56.0267 53.7707 53.7707 56.0267 50.9168 57.1305C49.5658 57.6555 48.0211 58.0146 45.7599 58.1179C43.4943 58.2213 42.7705 58.2461 37.0006 58.2461C31.23 58.2461 30.5068 58.2213 28.2406 58.1179C25.9795 58.0146 24.4348 57.6555 23.0838 57.1305C21.6656 56.597 20.3817 55.7608 19.3203 54.6797C18.2397 53.6188 17.4036 52.3344 16.8701 50.9168C16.345 49.5658 15.9854 48.0211 15.8826 45.7599C15.7782 43.4937 15.7539 42.77 15.7539 37C15.7539 31.23 15.7782 30.5063 15.8821 28.2406C15.9848 25.9789 16.3439 24.4348 16.8689 23.0832C17.4025 21.6656 18.2392 20.3812 19.3203 19.3203C20.3812 18.2392 21.6656 17.403 23.0832 16.8695C24.4348 16.3445 25.9789 15.9854 28.2406 15.8821C30.5063 15.7787 31.23 15.7539 37 15.7539C42.77 15.7539 43.4937 15.7787 45.7594 15.8826C48.0211 15.9854 49.5652 16.3445 50.9168 16.8689C52.3344 17.4025 53.6188 18.2392 54.6802 19.3203C55.7608 20.3817 56.5975 21.6656 57.1305 23.0832C57.6561 24.4348 58.0152 25.9789 58.1185 28.2406C58.2218 30.5063 58.2461 31.23 58.2461 37C58.2461 42.77 58.2218 43.4937 58.1179 45.7594Z" fill="#B3A155"/>
</svg>
