<svg width="731" height="121" viewBox="0 0 731 121" fill="none" xmlns="http://www.w3.org/2000/svg">
<path d="M0 89.216C0.298088 88.7688 0.638757 88.1299 1.02201 87.2781C1.40527 86.405 1.70336 85.3403 1.91628 84.0199C2.21437 82.1033 2.55503 79.9737 2.91699 77.5886C3.27895 75.2035 3.66221 72.712 4.06676 70.0926C4.47131 67.4732 4.85456 64.79 5.25911 62.0642C5.66365 59.317 6.04692 56.6338 6.40888 53.9718C6.77084 51.3099 7.13281 48.7544 7.47348 46.2841C7.81415 43.8138 8.11223 41.5565 8.38903 39.5122C8.66583 37.4678 8.87875 35.679 9.07038 34.1883C9.24071 32.6763 9.36846 31.5263 9.45363 30.7597H14.6489L40.3696 78.8451L65.8774 30.7597H69.7525L76.4595 79.3349C76.6511 80.8682 76.864 82.1672 77.0769 83.2533C77.2899 84.3394 77.5028 85.2763 77.737 86.0643C77.9499 86.8309 78.1628 87.4911 78.3758 87.9809C78.5887 88.492 78.7803 88.8966 78.9719 89.2374V89.4077H68.6666V89.2374C68.7944 88.9392 68.9221 88.4494 69.0499 87.7679C69.1776 87.0865 69.2415 86.2772 69.2415 85.3189C69.2415 84.9569 69.2202 84.5949 69.1989 84.2329C69.1776 83.8709 69.135 83.4662 69.0712 83.019L63.8759 43.8564L39.7308 89.216L36.9203 88.8966L12.6261 43.4305C11.668 49.8831 10.8376 55.8672 10.135 61.3401C9.83689 63.6827 9.5388 66.0251 9.24071 68.3464C8.94262 70.6676 8.66582 72.8398 8.4529 74.8628C8.21869 76.8859 8.02707 78.6535 7.89932 80.1867C7.77157 81.72 7.6864 82.87 7.6864 83.594C7.6864 84.531 7.70769 85.3403 7.77157 86.043C7.83545 86.7458 7.87803 87.3633 7.9419 87.8318C8.02707 88.4068 8.11223 88.9179 8.17611 89.3438H0V89.216Z" fill="url(#paint0_linear_41_2488)"/>
<path d="M128.71 89.3864V89.216C128.774 89.067 128.795 88.8753 128.838 88.5985C128.859 88.3216 128.88 88.0874 128.88 87.8531C128.88 87.0013 128.774 86.0855 128.54 85.0421C128.305 84.0199 127.858 82.7421 127.22 81.2089L122.28 70.0926C120.747 70.0287 118.724 70.0074 116.19 70.0074C113.657 70.0074 110.91 70.0074 107.972 70.0074C105.821 70.0074 103.734 70.0074 101.733 70.0074C99.7316 70.0074 97.9218 70.0287 96.3249 70.0926L91.5768 80.9107C91.1722 81.9116 90.7251 83.019 90.278 84.2329C89.8095 85.4254 89.5753 86.6392 89.5753 87.8744C89.5753 88.2364 89.5966 88.5133 89.6605 88.7475C89.7031 88.9818 89.767 89.1308 89.8308 89.216V89.3864H81.4844V89.216C81.9741 88.7049 82.5916 87.7679 83.3155 86.4476C84.0607 85.1273 84.8485 83.4662 85.7215 81.4857L109.143 29.5245H112.422L134.629 79.4839C135.14 80.6552 135.694 81.8052 136.247 82.8912C136.801 83.9986 137.333 84.9782 137.823 85.8513C138.313 86.7244 138.76 87.4485 139.122 88.0661C139.505 88.6624 139.761 89.0457 139.91 89.216V89.3864H128.71ZM102.223 66.5149C103.798 66.5149 105.417 66.5149 107.077 66.4936C108.738 66.4723 110.378 66.4724 111.953 66.4511C113.55 66.4298 115.083 66.4297 116.552 66.4084C118.021 66.4084 119.363 66.3659 120.555 66.3446L109.057 40.3852L97.7727 66.5149H102.223Z" fill="url(#paint1_linear_41_2488)"/>
<path d="M196.546 82.5078C196.546 82.8059 196.504 83.1253 196.44 83.4448C196.376 83.7642 196.206 84.0411 195.971 84.254C194.736 85.191 193.416 86.0428 191.99 86.8095C190.563 87.5761 189.009 88.2576 187.348 88.8326C185.687 89.4075 183.899 89.8547 181.961 90.1529C180.045 90.4723 177.98 90.6214 175.765 90.6214C170.804 90.6214 166.29 89.8974 162.181 88.428C158.093 86.9799 154.58 84.8929 151.663 82.2309C148.724 79.569 146.468 76.3534 144.849 72.6053C143.231 68.8573 142.443 64.6834 142.443 60.1048C142.443 57.5068 142.784 54.9726 143.444 52.4597C144.104 49.9468 145.084 47.5617 146.361 45.3044C147.639 43.0471 149.214 40.9601 151.109 39.0648C152.983 37.1695 155.133 35.5297 157.539 34.1455C159.945 32.7613 162.607 31.6752 165.503 30.8873C168.398 30.1207 171.549 29.716 174.935 29.716C176.234 29.716 177.575 29.7799 178.938 29.9077C180.3 30.0355 181.642 30.2058 182.983 30.4401C184.325 30.6743 185.602 30.9512 186.837 31.2706C188.072 31.59 189.264 31.9521 190.372 32.378L193.161 39.9379L192.841 40.1083C191.777 39.15 190.542 38.2768 189.158 37.4463C187.774 36.6371 186.284 35.913 184.708 35.3167C183.132 34.7205 181.472 34.252 179.747 33.9113C178.022 33.5705 176.255 33.4001 174.488 33.4001C171.06 33.4001 167.909 33.9326 165.034 35.0186C162.181 36.0834 159.711 37.6593 157.646 39.7037C155.581 41.748 153.984 44.2609 152.834 47.221C151.684 50.2024 151.109 53.5671 151.109 57.3577C151.109 61.5316 151.663 65.4074 152.749 68.9638C153.835 72.5414 155.453 75.6293 157.625 78.2487C159.775 80.868 162.458 82.9124 165.694 84.4031C168.931 85.8938 172.699 86.6391 177 86.6391C178.916 86.6391 180.62 86.4901 182.11 86.1919C183.601 85.8938 184.878 85.5105 185.922 85.0633C186.965 84.616 187.731 84.1263 188.264 83.5939C188.796 83.0615 189.051 82.5717 189.051 82.1458V80.5486C189.051 78.6533 189.03 76.9922 188.966 75.608C188.924 74.2238 188.839 73.01 188.732 71.9878C188.626 70.9656 188.498 70.0924 188.37 69.3471C188.221 68.6018 188.072 67.9203 187.88 67.3028V67.1324H197.696V67.3028C197.526 67.8777 197.377 68.5379 197.228 69.3258C197.079 70.0925 196.951 71.0295 196.844 72.0943C196.738 73.159 196.653 74.4155 196.589 75.8423C196.546 77.2691 196.504 78.9301 196.504 80.8041V82.5078H196.546Z" fill="url(#paint2_linear_41_2488)"/>
<path d="M207.448 89.2159C207.619 88.6409 207.768 87.9382 207.895 87.0864C208.023 86.2345 208.151 85.191 208.257 83.9346C208.364 82.6782 208.449 81.1875 208.492 79.4625C208.555 77.7376 208.577 75.7145 208.577 73.3933V46.7738C208.577 44.4526 208.555 42.4295 208.492 40.7046C208.428 38.9796 208.364 37.4677 208.257 36.2112C208.151 34.9335 208.023 33.89 207.895 33.0382C207.768 32.1863 207.619 31.4836 207.448 30.9086V30.7382H217.221V30.9086C217.051 31.4836 216.902 32.1863 216.753 33.0382C216.604 33.89 216.476 34.9335 216.391 36.2112C216.306 37.4677 216.221 38.9796 216.157 40.7046C216.093 42.4295 216.05 44.4526 216.05 46.7738V73.3933C216.05 75.7145 216.093 77.7376 216.157 79.4625C216.221 81.1875 216.306 82.6782 216.391 83.9346C216.497 85.191 216.604 86.2345 216.753 87.0864C216.902 87.9382 217.051 88.6409 217.221 89.2159V89.3863H207.448V89.2159Z" fill="url(#paint3_linear_41_2488)"/>
<path d="M276.711 39.7461L276.349 39.9165C274.22 37.9573 271.665 36.3814 268.684 35.2101C265.703 34.0388 262.424 33.4426 258.847 33.4426C255.419 33.4426 252.268 33.975 249.393 35.061C246.54 36.1258 244.07 37.7017 242.005 39.7461C239.939 41.7905 238.343 44.3033 237.193 47.2634C236.043 50.2448 235.468 53.6095 235.468 57.4001C235.468 61.5741 236.022 65.4711 237.108 69.0701C238.194 72.669 239.812 75.8208 241.984 78.4615C244.134 81.1021 246.817 83.1891 250.053 84.7011C253.29 86.2131 257.058 86.9797 261.359 86.9797C262.914 86.9797 264.468 86.8093 266.022 86.4899C267.576 86.1705 269.067 85.6806 270.493 85.0418C271.92 84.4029 273.283 83.615 274.539 82.7206C275.816 81.8049 276.966 80.7614 277.988 79.5901L278.435 79.867L275.156 88.2148C273.112 89.0028 270.855 89.6204 268.386 90.025C265.916 90.4509 263.425 90.6638 260.933 90.6638C255.887 90.6638 251.288 89.9398 247.094 88.4704C242.899 87.0223 239.301 84.9353 236.299 82.2733C233.296 79.6114 230.933 76.3958 229.272 72.6478C227.59 68.8997 226.76 64.7258 226.76 60.1473C226.76 57.5492 227.1 55.015 227.76 52.5022C228.421 49.9893 229.4 47.6042 230.677 45.3468C231.955 43.0895 233.531 41.0025 235.426 39.1072C237.299 37.2119 239.45 35.5722 241.856 34.188C244.262 32.8037 246.923 31.7177 249.819 30.9297C252.715 30.1631 255.866 29.7585 259.251 29.7585C264.51 29.7585 269.386 30.5677 273.879 32.1649L276.711 39.7461Z" fill="url(#paint4_linear_41_2488)"/>
<path d="M456.516 89.2166C456.814 88.7694 457.154 88.1305 457.538 87.2787C457.921 86.4056 458.219 85.3408 458.432 84.0205C458.73 82.1039 459.071 79.9743 459.433 77.5892C459.795 75.2041 460.178 72.7125 460.582 70.0931C460.987 67.4738 461.37 64.7906 461.775 62.0647C462.179 59.3176 462.563 56.6343 462.925 53.9724C463.286 51.3104 463.648 48.755 463.989 46.2847C464.33 43.8144 464.628 41.5571 464.905 39.5127C465.181 37.4683 465.394 35.6795 465.586 34.1888C465.756 32.6768 465.884 31.5268 465.969 30.7602H471.165L496.885 78.8457L522.393 30.7602H526.268L532.975 79.3355C533.167 80.8687 533.38 82.1678 533.593 83.2538C533.805 84.3399 534.018 85.2769 534.253 86.0648C534.466 86.8315 534.678 87.4916 534.891 87.9814C535.104 88.4925 535.296 88.8972 535.488 89.2379V89.4082H525.182V89.2379C525.31 88.9398 525.438 88.4499 525.566 87.7685C525.693 87.087 525.757 86.2778 525.757 85.3195C525.757 84.9575 525.736 84.5955 525.715 84.2334C525.693 83.8714 525.651 83.4668 525.587 83.0196L520.392 43.857L496.268 89.2166L493.457 88.8972L469.163 43.4311C468.205 49.8836 467.375 55.8677 466.672 61.3407C466.374 63.6832 466.076 66.0257 465.778 68.3469C465.48 70.6681 465.203 72.8403 464.99 74.8634C464.756 76.8865 464.564 78.654 464.436 80.1873C464.308 81.7206 464.223 82.8705 464.223 83.5946C464.223 84.5316 464.245 85.3408 464.309 86.0436C464.372 86.7463 464.415 87.3639 464.479 87.8324C464.564 88.4074 464.649 88.9185 464.713 89.3444H456.537V89.2166H456.516Z" fill="url(#paint5_linear_41_2488)"/>
<path d="M571.407 29.759C575.963 29.759 580.158 30.5044 584.012 31.9951C587.865 33.4857 591.208 35.5727 594.019 38.2559C596.829 40.9392 599.022 44.1761 600.598 47.9242C602.174 51.6935 602.961 55.8461 602.961 60.4033C602.961 63.0014 602.663 65.5356 602.067 68.0485C601.471 70.5614 600.577 72.9252 599.427 75.1612C598.277 77.3972 596.851 79.4629 595.147 81.3582C593.465 83.2535 591.528 84.8933 589.356 86.2775C587.184 87.6617 584.799 88.7265 582.18 89.5144C579.562 90.3023 576.751 90.6857 573.728 90.6857C569.171 90.6857 564.977 89.9616 561.123 88.4922C557.269 87.0441 553.926 84.9572 551.115 82.2952C548.305 79.6333 546.112 76.4176 544.536 72.6696C542.961 68.9216 542.173 64.7477 542.173 60.1691C542.173 57.5711 542.471 55.0369 543.067 52.524C543.663 50.0111 544.536 47.626 545.707 45.3687C546.857 43.1114 548.284 41.0244 549.966 39.1291C551.648 37.2338 553.564 35.594 555.736 34.2098C557.908 32.8256 560.292 31.7395 562.933 30.9515C565.551 30.1423 568.383 29.759 571.407 29.759ZM573.728 86.9589C576.751 86.9589 579.519 86.4052 582.031 85.3192C584.544 84.2331 586.694 82.6572 588.504 80.5702C590.314 78.5046 591.719 75.9704 592.741 72.9891C593.742 70.0077 594.253 66.6217 594.253 62.8311C594.253 58.6358 593.763 54.7387 592.805 51.1611C591.847 47.5834 590.399 44.4743 588.483 41.8336C586.588 39.2142 584.203 37.1486 581.35 35.6579C578.497 34.1672 575.175 33.4218 571.385 33.4218C568.362 33.4218 565.594 33.9543 563.082 35.0403C560.569 36.1051 558.419 37.681 556.609 39.7254C554.799 41.7697 553.394 44.2826 552.372 47.2427C551.371 50.224 550.86 53.5888 550.86 57.3794C550.86 61.5533 551.328 65.4504 552.287 69.0494C553.245 72.6696 554.671 75.8 556.588 78.4407C558.504 81.0813 560.889 83.1683 563.742 84.6803C566.616 86.2136 569.938 86.9589 573.728 86.9589Z" fill="url(#paint6_linear_41_2488)"/>
<path d="M638.902 29.759C643.458 29.759 647.653 30.5044 651.507 31.9951C655.361 33.4857 658.703 35.5727 661.514 38.2559C664.324 40.9392 666.518 44.1761 668.093 47.9242C669.669 51.6935 670.457 55.8461 670.457 60.4033C670.457 63.0014 670.158 65.5356 669.562 68.0485C668.966 70.5614 668.072 72.9252 666.922 75.1612C665.772 77.3972 664.346 79.4629 662.642 81.3582C660.96 83.2535 659.023 84.8933 656.851 86.2775C654.679 87.6617 652.294 88.7265 649.676 89.5144C647.057 90.3023 644.246 90.6857 641.223 90.6857C636.666 90.6857 632.472 89.9616 628.618 88.4922C624.764 87.0441 621.421 84.9572 618.611 82.2952C615.8 79.6333 613.607 76.4176 612.031 72.6696C610.456 68.9216 609.668 64.7477 609.668 60.1691C609.668 57.5711 609.966 55.0369 610.562 52.524C611.158 50.0111 612.031 47.626 613.202 45.3687C614.352 43.1114 615.779 41.0244 617.461 39.1291C619.143 37.2338 621.059 35.594 623.231 34.2098C625.403 32.8256 627.787 31.7395 630.428 30.9515C633.047 30.1423 635.878 29.759 638.902 29.759ZM641.244 86.9589C644.267 86.9589 647.035 86.4052 649.548 85.3192C652.06 84.2331 654.211 82.6572 656.021 80.5702C657.83 78.5046 659.236 75.9704 660.258 72.9891C661.258 70.0077 661.769 66.6217 661.769 62.8311C661.769 58.6358 661.28 54.7387 660.322 51.1611C659.363 47.5834 657.916 44.4743 655.999 41.8336C654.104 39.2142 651.72 37.1486 648.867 35.6579C646.013 34.1672 642.692 33.4218 638.902 33.4218C635.878 33.4218 633.11 33.9543 630.598 35.0403C628.086 36.1051 625.935 37.681 624.125 39.7254C622.315 41.7697 620.91 44.2826 619.888 47.2427C618.887 50.224 618.376 53.5888 618.376 57.3794C618.376 61.5533 618.866 65.4504 619.803 69.0494C620.761 72.6696 622.188 75.8 624.083 78.4407C625.999 81.0813 628.384 83.1683 631.237 84.6803C634.132 86.2136 637.454 86.9589 641.244 86.9589Z" fill="url(#paint7_linear_41_2488)"/>
<path d="M681.955 30.7388L724.071 75.566V46.7744C724.071 44.4531 724.049 42.4301 723.985 40.7051C723.921 38.9802 723.836 37.4682 723.73 36.2118C723.623 34.934 723.496 33.8905 723.347 33.0387C723.198 32.1869 723.049 31.4841 722.878 30.9091V30.7388H730.16V30.9091C729.99 31.4841 729.841 32.1869 729.713 33.0387C729.585 33.8905 729.457 34.934 729.351 36.2118C729.245 37.4682 729.159 38.9802 729.117 40.7051C729.053 42.4301 729.032 44.4531 729.032 46.7744V90.1961H727.605L685.49 45.4115V73.3938C685.49 75.7151 685.511 77.7381 685.575 79.4631C685.639 81.188 685.702 82.6787 685.83 83.9352C685.937 85.1916 686.064 86.2351 686.192 87.0869C686.32 87.9387 686.469 88.6415 686.639 89.2165V89.3868H679.357V89.2165C679.528 88.6415 679.677 87.9387 679.826 87.0869C679.975 86.2351 680.103 85.1916 680.209 83.9352C680.316 82.6787 680.401 81.188 680.465 79.4631C680.507 77.7381 680.55 75.7151 680.55 73.3938V46.7744C680.55 44.4531 680.528 42.4301 680.465 40.7051C680.401 38.9802 680.337 37.4682 680.209 36.2118C680.103 34.934 679.975 33.8905 679.826 33.0387C679.677 32.1869 679.528 31.4841 679.357 30.9091V30.7388H681.955Z" fill="url(#paint8_linear_41_2488)"/>
<path d="M417.442 89.7172L417.178 112.973L416.908 89.7172H417.442Z" fill="url(#paint9_linear_41_2488)"/>
<path d="M326.048 100.453C327.022 98.2025 328.216 96.1346 329.536 94.1421C331.773 90.7542 334.764 88.1646 338.29 86.1847C343.204 83.4317 348.464 83.1489 353.894 84.0037C358.745 84.7642 362.604 87.2092 365.853 90.8108C366.865 91.9359 367.826 93.105 368.863 94.2049C369.152 94.5129 369.372 94.8272 369.467 95.4432C361.862 91.5462 353.982 89.9811 345.617 91.7033C348.672 91.4582 351.713 91.6656 354.723 92.2062C359.921 93.1364 364.678 95.198 369.096 98.0579C370.56 99.0007 370.591 99.315 369.448 100.578C365.589 104.846 360.668 106.455 355.038 106.33C351.223 106.248 347.698 105.047 344.26 103.551C338.837 101.182 333.174 100.245 327.286 100.553C326.991 100.566 326.695 100.572 326.4 100.566C326.337 100.572 326.274 100.528 326.048 100.453Z" fill="white"/>
<path d="M313.498 47.5107C312.926 49.9557 312.649 52.3882 312.517 54.8332C312.291 58.9879 313.171 62.9477 314.874 66.7253C317.243 71.9925 321.404 75.4306 326.393 78.0453C330.855 80.3772 335.525 80.7167 340.395 79.7361C341.916 79.4281 343.418 79.051 344.945 78.7807C345.366 78.7053 345.743 78.5796 346.202 78.1333C337.561 76.7065 330.12 73.1804 324.282 66.6561C326.651 68.724 329.284 70.4085 332.087 71.7976C336.932 74.1987 342.111 75.4055 347.496 75.7512C349.275 75.8643 349.495 75.6254 349.325 73.8907C348.753 68.0201 345.68 63.6957 340.967 60.3581C337.774 58.1016 334.142 56.9326 330.396 56.0714C324.483 54.7075 319.254 52.0299 314.591 48.1832C314.359 47.9884 314.114 47.8061 313.869 47.6301C313.812 47.5924 313.73 47.5861 313.498 47.5107Z" fill="white"/>
<path d="M387.169 97.5109C387.854 99.0132 388.3 100.528 388.634 102.062C389.199 104.67 388.86 107.241 387.842 109.768C386.428 113.287 383.405 115.795 379.634 117.844C376.266 119.673 372.552 120.264 368.542 120.032C367.292 119.963 366.047 119.843 364.797 119.793C364.451 119.78 364.137 119.73 363.729 119.485C370.535 117.895 376.19 115.072 380.275 110.478C378.566 111.974 376.605 113.25 374.481 114.35C370.811 116.254 366.764 117.43 362.472 118.077C361.051 118.291 360.857 118.159 360.831 117.046C360.75 113.287 362.817 110.308 366.293 107.825C368.649 106.141 371.458 105.116 374.387 104.268C379.012 102.935 382.965 100.823 386.352 98.0201C386.522 97.8818 386.704 97.7435 386.88 97.6115C386.924 97.5864 386.993 97.5738 387.169 97.5109Z" fill="white"/>
<path d="M331.402 86.499C331.352 87.1778 330.981 87.7121 330.654 88.0703C329.831 88.3092 327.845 88.7617 325.457 88.0892C322.906 87.3727 321.391 85.7824 320.838 85.1413C321.228 85.7887 322.648 87.9572 325.488 88.9189C327.493 89.5977 329.228 89.3463 330.038 89.1703C327.807 91.6656 324.759 92.885 322.126 92.1496C319.374 91.3765 318.092 88.7554 317.206 86.9452C315.377 83.2117 315.71 79.5913 316.012 77.8125C316.829 78.397 318.186 79.277 320.015 80.0124C323.792 81.5398 325.677 80.8861 328.593 82.8094C329.441 83.3625 331.54 84.7453 331.402 86.499Z" fill="white"/>
<path d="M396.275 105.023C397.18 102.898 398.525 101.119 400.215 99.5605C401.328 98.536 402.566 97.7126 403.854 96.9521C403.992 96.8704 404.219 96.8138 404.193 96.6127C404.175 96.4618 403.967 96.4241 403.829 96.3612C401.9 95.5567 399.977 95.7138 398.135 96.5875C396.25 97.4801 394.987 99.0388 393.9 100.78C392.234 103.464 391.813 106.437 391.782 109.51C391.769 111.176 391.958 112.804 392.611 114.356C392.693 114.545 392.731 114.828 392.932 114.866C393.19 114.916 393.227 114.608 393.322 114.438C394.453 112.358 396.388 111.409 398.5 110.686C400.102 110.139 401.629 109.473 402.981 108.392C405.186 106.619 406.248 104.319 406.399 101.559C406.468 100.327 406.355 99.1017 405.802 97.9578C405.532 97.3921 405.369 97.3355 404.778 97.5932C403.307 98.2343 401.925 99.0326 400.687 100.026C398.946 101.427 397.394 103.049 396.275 105.023Z" fill="white"/>
<path d="M412.124 92.401C411.006 93.0861 410.12 93.9912 409.378 95.0723C408.894 95.7826 408.536 96.5494 408.215 97.3414C408.184 97.4231 408.165 97.5613 408.052 97.5613C407.964 97.5613 407.926 97.4545 407.882 97.3791C407.273 96.3608 407.197 95.2672 407.537 94.1546C407.882 93.017 408.655 92.1747 409.541 91.4205C410.911 90.2577 412.552 89.7737 414.273 89.5034C415.21 89.3589 416.14 89.3274 417.064 89.5663C417.177 89.5977 417.34 89.5977 417.378 89.7045C417.428 89.8428 417.259 89.8931 417.171 89.9622C416.096 90.7731 415.725 91.9359 415.493 93.1867C415.317 94.1358 415.072 95.0472 414.575 95.902C413.764 97.2911 412.558 98.0768 411.018 98.3973C410.333 98.5419 409.636 98.5796 408.944 98.3659C408.605 98.259 408.561 98.171 408.655 97.819C408.894 96.9391 409.227 96.0968 409.68 95.3112C410.327 94.2049 411.106 93.1992 412.124 92.401Z" fill="white"/>
<path d="M328.731 20.2696C328.309 21.5141 327.618 22.5763 326.726 23.538C326.135 24.1665 325.475 24.6882 324.771 25.1722C324.696 25.2225 324.57 25.2665 324.595 25.3796C324.614 25.4676 324.727 25.4802 324.809 25.5053C325.94 25.8762 327.021 25.7065 328.027 25.1345C329.057 24.5499 329.711 23.6071 330.245 22.5763C331.075 20.9798 331.188 19.2827 331.075 17.5354C331.012 16.5926 330.836 15.6749 330.396 14.8264C330.339 14.7195 330.308 14.5687 330.188 14.5498C330.038 14.5309 330.031 14.7069 329.987 14.8075C329.434 16.0332 328.379 16.6554 327.21 17.1583C326.324 17.5354 325.488 17.9817 324.765 18.6542C323.59 19.7541 323.087 21.1055 323.119 22.6706C323.131 23.3683 323.251 24.0597 323.609 24.6882C323.785 24.9962 323.885 25.0213 324.206 24.8516C325.01 24.4242 325.764 23.9151 326.424 23.2991C327.367 22.4255 328.177 21.4386 328.731 20.2696Z" fill="white"/>
<path d="M359.166 112.345C359.097 112.622 358.5 112.697 358.318 112.722C356.319 112.999 355.37 114.168 351.085 114.941C349.199 115.28 347.666 115.563 345.818 115.412C344.304 115.293 340.929 114.759 337.24 111.641C338.246 111.358 339.383 111.107 340.634 110.943C343.757 110.535 346.459 110.805 348.477 111.195C346.799 110.642 344.367 110.064 341.419 110.089C339.565 110.108 337.957 110.353 336.668 110.654C336.103 108.454 336.58 107.392 336.964 106.87C338.359 104.96 342.921 105.236 351.474 107.908C354.057 108.712 356.477 109.806 358.544 111.578C358.808 111.811 359.229 112.094 359.166 112.345Z" fill="white"/>
<path d="M339.759 16.4732C338.867 19.1194 338.71 21.753 339.012 24.4431C339.213 26.2533 339.665 28.0007 340.338 29.6852C340.589 30.32 340.312 30.3514 339.841 30.2572C338.126 29.9303 336.825 28.8995 335.744 27.6298C332.369 23.6826 331.766 19.3142 333.833 14.5436C335.568 10.546 338.484 7.62957 342.066 5.29139C342.939 4.71942 343.166 4.78856 343.291 5.60566C343.794 8.88038 345.177 11.8157 346.691 14.7195C347.904 17.0389 348.809 19.4713 348.602 22.1678C348.457 24.066 348.074 25.9076 346.855 27.435C345.717 28.8681 344.215 29.7857 342.424 30.2257C342.022 30.3263 341.902 30.1252 341.745 29.8172C339.678 25.6814 338.961 21.3381 339.747 16.7686C339.766 16.7058 339.759 16.6303 339.759 16.4732Z" fill="white"/>
<path d="M357.74 7.2333C356.37 8.76066 354.736 9.80404 352.907 10.5772C351.675 11.0988 350.393 11.4383 349.073 11.6142C348.577 11.6834 348.652 11.8657 348.885 12.1422C349.714 13.1228 350.839 13.5879 352.04 13.8267C355.785 14.5684 358.802 13.3805 361.108 10.3383C363.044 7.78641 363.861 4.86997 364.068 1.73354C364.118 0.966712 363.992 0.847288 363.427 1.06099C361.146 1.91581 358.77 2.09181 356.363 2.16095C354.44 2.21751 352.555 2.51293 350.902 3.61917C349.74 4.39856 348.696 5.30366 348.156 6.62989C347.647 7.87441 347.597 9.16921 347.967 10.4766C348.049 10.772 348.219 10.7783 348.47 10.7657C351.864 10.6023 354.905 9.50234 357.545 7.34643C357.589 7.31501 357.639 7.28987 357.74 7.2333Z" fill="white"/>
<path d="M331.767 41.8598C330.164 38.4593 327.845 35.7692 325.042 33.4499C323.157 31.8911 321.09 30.6151 318.859 29.6157C318.016 29.2386 318.262 28.9495 318.802 28.5975C320.769 27.3153 322.987 27.0953 325.225 27.309C332.181 27.9752 336.844 31.6459 339.295 38.1891C341.35 43.6763 341.25 49.2326 339.968 54.8392C339.654 56.2031 339.377 56.354 338.485 55.6752C334.934 52.9787 330.862 51.4262 326.683 50.0371C323.346 48.9246 320.191 47.4161 317.872 44.6128C316.238 42.6392 314.887 40.4958 314.635 37.8811C314.403 35.4298 314.994 33.1356 316.32 31.0362C316.615 30.5648 316.923 30.6465 317.357 30.7974C323.226 32.8716 327.971 36.3977 331.478 41.5581C331.54 41.6461 331.622 41.7089 331.767 41.8598Z" fill="white"/>
<path d="M326.048 100.453C327.022 98.2025 328.216 96.1346 329.536 94.1421C331.773 90.7542 334.764 88.1646 338.29 86.1847C343.204 83.4317 348.464 83.1489 353.894 84.0037C358.745 84.7642 362.604 87.2092 365.853 90.8108C366.865 91.9359 367.826 93.105 368.863 94.2049C369.152 94.5129 369.372 94.8272 369.467 95.4432C361.862 91.5462 353.982 89.9811 345.617 91.7033C348.672 91.4582 351.713 91.6656 354.723 92.2062C359.921 93.1364 364.678 95.198 369.096 98.0579C370.56 99.0007 370.591 99.315 369.448 100.578C365.589 104.846 360.668 106.455 355.038 106.33C351.223 106.248 347.698 105.047 344.26 103.551C338.837 101.182 333.174 100.245 327.286 100.553C326.991 100.566 326.695 100.572 326.4 100.566C326.337 100.572 326.274 100.528 326.048 100.453Z" fill="url(#paint10_linear_41_2488)"/>
<path d="M313.498 47.5107C312.926 49.9557 312.649 52.3882 312.517 54.8332C312.291 58.9879 313.171 62.9477 314.874 66.7253C317.243 71.9925 321.404 75.4306 326.393 78.0453C330.855 80.3772 335.525 80.7167 340.395 79.7361C341.916 79.4281 343.418 79.051 344.945 78.7807C345.366 78.7053 345.743 78.5796 346.202 78.1333C337.561 76.7065 330.12 73.1804 324.282 66.6561C326.651 68.724 329.284 70.4085 332.087 71.7976C336.932 74.1987 342.111 75.4055 347.496 75.7512C349.275 75.8643 349.495 75.6254 349.325 73.8907C348.753 68.0201 345.68 63.6957 340.967 60.3581C337.774 58.1016 334.142 56.9326 330.396 56.0714C324.483 54.7075 319.254 52.0299 314.591 48.1832C314.359 47.9884 314.114 47.8061 313.869 47.6301C313.812 47.5924 313.73 47.5861 313.498 47.5107Z" fill="url(#paint11_linear_41_2488)"/>
<path d="M387.169 97.5109C387.854 99.0132 388.3 100.528 388.634 102.062C389.199 104.67 388.86 107.241 387.842 109.768C386.428 113.287 383.405 115.795 379.634 117.844C376.266 119.673 372.552 120.264 368.542 120.032C367.292 119.963 366.047 119.843 364.797 119.793C364.451 119.78 364.137 119.73 363.729 119.485C370.535 117.895 376.19 115.072 380.275 110.478C378.566 111.974 376.605 113.25 374.481 114.35C370.811 116.254 366.764 117.43 362.472 118.077C361.051 118.291 360.857 118.159 360.831 117.046C360.75 113.287 362.817 110.308 366.293 107.825C368.649 106.141 371.458 105.116 374.387 104.268C379.012 102.935 382.965 100.823 386.352 98.0201C386.522 97.8818 386.704 97.7435 386.88 97.6115C386.924 97.5864 386.993 97.5738 387.169 97.5109Z" fill="url(#paint12_linear_41_2488)"/>
<path d="M331.402 86.499C331.352 87.1778 330.981 87.7121 330.654 88.0703C329.831 88.3092 327.845 88.7617 325.457 88.0892C322.906 87.3727 321.391 85.7824 320.838 85.1413C321.228 85.7887 322.648 87.9572 325.488 88.9189C327.493 89.5977 329.228 89.3463 330.038 89.1703C327.807 91.6656 324.759 92.885 322.126 92.1496C319.374 91.3765 318.092 88.7554 317.206 86.9452C315.377 83.2117 315.71 79.5913 316.012 77.8125C316.829 78.397 318.186 79.277 320.015 80.0124C323.792 81.5398 325.677 80.8861 328.593 82.8094C329.441 83.3625 331.54 84.7453 331.402 86.499Z" fill="url(#paint13_linear_41_2488)"/>
<path d="M396.275 105.023C397.18 102.898 398.525 101.119 400.215 99.5605C401.328 98.536 402.566 97.7126 403.854 96.9521C403.992 96.8704 404.219 96.8138 404.193 96.6127C404.175 96.4618 403.967 96.4241 403.829 96.3612C401.9 95.5567 399.977 95.7138 398.135 96.5875C396.25 97.4801 394.987 99.0388 393.9 100.78C392.234 103.464 391.813 106.437 391.782 109.51C391.769 111.176 391.958 112.804 392.611 114.356C392.693 114.545 392.731 114.828 392.932 114.866C393.19 114.916 393.227 114.608 393.322 114.438C394.453 112.358 396.388 111.409 398.5 110.686C400.102 110.139 401.629 109.473 402.981 108.392C405.186 106.619 406.248 104.319 406.399 101.559C406.468 100.327 406.355 99.1017 405.802 97.9578C405.532 97.3921 405.369 97.3355 404.778 97.5932C403.307 98.2343 401.925 99.0326 400.687 100.026C398.946 101.427 397.394 103.049 396.275 105.023Z" fill="url(#paint14_linear_41_2488)"/>
<path d="M412.124 92.401C411.006 93.0861 410.12 93.9912 409.378 95.0723C408.894 95.7826 408.536 96.5494 408.215 97.3414C408.184 97.4231 408.165 97.5613 408.052 97.5613C407.964 97.5613 407.926 97.4545 407.882 97.3791C407.273 96.3608 407.197 95.2672 407.537 94.1546C407.882 93.017 408.655 92.1747 409.541 91.4205C410.911 90.2577 412.552 89.7737 414.273 89.5034C415.21 89.3589 416.14 89.3274 417.064 89.5663C417.177 89.5977 417.34 89.5977 417.378 89.7045C417.428 89.8428 417.259 89.8931 417.171 89.9622C416.096 90.7731 415.725 91.9359 415.493 93.1867C415.317 94.1358 415.072 95.0472 414.575 95.902C413.764 97.2911 412.558 98.0768 411.018 98.3973C410.333 98.5419 409.636 98.5796 408.944 98.3659C408.605 98.259 408.561 98.171 408.655 97.819C408.894 96.9391 409.227 96.0968 409.68 95.3112C410.327 94.2049 411.106 93.1992 412.124 92.401Z" fill="url(#paint15_linear_41_2488)"/>
<path d="M328.731 20.2696C328.309 21.5141 327.618 22.5763 326.726 23.538C326.135 24.1665 325.475 24.6882 324.771 25.1722C324.696 25.2225 324.57 25.2665 324.595 25.3796C324.614 25.4676 324.727 25.4802 324.809 25.5053C325.94 25.8762 327.021 25.7065 328.027 25.1345C329.057 24.5499 329.711 23.6071 330.245 22.5763C331.075 20.9798 331.188 19.2827 331.075 17.5354C331.012 16.5926 330.836 15.6749 330.396 14.8264C330.339 14.7195 330.308 14.5687 330.188 14.5498C330.038 14.5309 330.031 14.7069 329.987 14.8075C329.434 16.0332 328.379 16.6554 327.21 17.1583C326.324 17.5354 325.488 17.9817 324.765 18.6542C323.59 19.7541 323.087 21.1055 323.119 22.6706C323.131 23.3683 323.251 24.0597 323.609 24.6882C323.785 24.9962 323.885 25.0213 324.206 24.8516C325.01 24.4242 325.764 23.9151 326.424 23.2991C327.367 22.4255 328.177 21.4386 328.731 20.2696Z" fill="url(#paint16_linear_41_2488)"/>
<path d="M359.166 112.345C359.097 112.622 358.5 112.697 358.318 112.722C356.319 112.999 355.37 114.168 351.085 114.941C349.199 115.28 347.666 115.563 345.818 115.412C344.304 115.293 340.929 114.759 337.24 111.641C338.246 111.358 339.383 111.107 340.634 110.943C343.757 110.535 346.459 110.805 348.477 111.195C346.799 110.642 344.367 110.064 341.419 110.089C339.565 110.108 337.957 110.353 336.668 110.654C336.103 108.454 336.58 107.392 336.964 106.87C338.359 104.96 342.921 105.236 351.474 107.908C354.057 108.712 356.477 109.806 358.544 111.578C358.808 111.811 359.229 112.094 359.166 112.345Z" fill="url(#paint17_linear_41_2488)"/>
<path d="M339.759 16.4732C338.867 19.1194 338.71 21.753 339.012 24.4431C339.213 26.2533 339.665 28.0007 340.338 29.6852C340.589 30.32 340.312 30.3514 339.841 30.2572C338.126 29.9303 336.825 28.8995 335.744 27.6298C332.369 23.6826 331.766 19.3142 333.833 14.5436C335.568 10.546 338.484 7.62957 342.066 5.29139C342.939 4.71942 343.166 4.78856 343.291 5.60566C343.794 8.88038 345.177 11.8157 346.691 14.7195C347.904 17.0389 348.809 19.4713 348.602 22.1678C348.457 24.066 348.074 25.9076 346.855 27.435C345.717 28.8681 344.215 29.7857 342.424 30.2257C342.022 30.3263 341.902 30.1252 341.745 29.8172C339.678 25.6814 338.961 21.3381 339.747 16.7686C339.766 16.7058 339.759 16.6303 339.759 16.4732Z" fill="url(#paint18_linear_41_2488)"/>
<path d="M357.74 7.2333C356.37 8.76066 354.736 9.80404 352.907 10.5772C351.675 11.0988 350.393 11.4383 349.073 11.6142C348.577 11.6834 348.652 11.8657 348.885 12.1422C349.714 13.1228 350.839 13.5879 352.04 13.8267C355.785 14.5684 358.802 13.3805 361.108 10.3383C363.044 7.78641 363.861 4.86997 364.068 1.73354C364.118 0.966712 363.992 0.847288 363.427 1.06099C361.146 1.91581 358.77 2.09181 356.363 2.16095C354.44 2.21751 352.555 2.51293 350.902 3.61917C349.74 4.39856 348.696 5.30366 348.156 6.62989C347.647 7.87441 347.597 9.16921 347.967 10.4766C348.049 10.772 348.219 10.7783 348.47 10.7657C351.864 10.6023 354.905 9.50234 357.545 7.34643C357.589 7.31501 357.639 7.28987 357.74 7.2333Z" fill="url(#paint19_linear_41_2488)"/>
<path d="M331.767 41.8598C330.164 38.4593 327.845 35.7692 325.042 33.4499C323.157 31.8911 321.09 30.6151 318.859 29.6157C318.016 29.2386 318.262 28.9495 318.802 28.5975C320.769 27.3153 322.987 27.0953 325.225 27.309C332.181 27.9752 336.844 31.6459 339.295 38.1891C341.35 43.6763 341.25 49.2326 339.968 54.8392C339.654 56.2031 339.377 56.354 338.485 55.6752C334.934 52.9787 330.862 51.4262 326.683 50.0371C323.346 48.9246 320.191 47.4161 317.872 44.6128C316.238 42.6392 314.887 40.4958 314.635 37.8811C314.403 35.4298 314.994 33.1356 316.32 31.0362C316.615 30.5648 316.923 30.6465 317.357 30.7974C323.226 32.8716 327.971 36.3977 331.478 41.5581C331.54 41.6461 331.622 41.7089 331.767 41.8598Z" fill="url(#paint20_linear_41_2488)"/>
<path d="M421.715 120.516C421.715 120.893 421.614 120.981 421.25 120.987C418.704 120.987 416.153 120.994 413.608 120.994C413.168 120.994 413.093 120.918 413.093 120.497C413.08 117.662 413.08 114.827 413.067 111.999C413.067 111.836 413.137 111.722 413.243 111.616C413.759 111.113 414.274 110.597 414.783 110.088C414.877 109.988 414.984 109.95 415.116 109.95C415.663 109.956 416.222 109.912 416.775 109.944C417.115 109.963 417.416 109.981 417.831 109.969C418.409 109.95 418.994 109.975 419.572 109.969C419.76 109.963 419.899 110.032 420.03 110.164C420.521 110.667 421.017 111.163 421.52 111.653C421.639 111.773 421.702 111.898 421.702 112.068C421.702 114.884 421.708 117.7 421.715 120.516Z" fill="url(#paint21_linear_41_2488)"/>
<defs>
<linearGradient id="paint0_linear_41_2488" x1="-0.0015969" y1="60.084" x2="581.811" y2="60.084" gradientUnits="userSpaceOnUse">
<stop stop-color="#F9F4BF"/>
<stop offset="0.2279" stop-color="#BA9B57"/>
<stop offset="0.414" stop-color="#F9C46E"/>
<stop offset="0.586" stop-color="#F0B963"/>
<stop offset="0.7721" stop-color="#F9F3BB"/>
<stop offset="1" stop-color="#C1A059"/>
</linearGradient>
<linearGradient id="paint1_linear_41_2488" x1="-0.0016047" y1="60.084" x2="581.811" y2="60.084" gradientUnits="userSpaceOnUse">
<stop stop-color="#F9F4BF"/>
<stop offset="0.2279" stop-color="#BA9B57"/>
<stop offset="0.414" stop-color="#F9C46E"/>
<stop offset="0.586" stop-color="#F0B963"/>
<stop offset="0.7721" stop-color="#F9F3BB"/>
<stop offset="1" stop-color="#C1A059"/>
</linearGradient>
<linearGradient id="paint2_linear_41_2488" x1="-0.0015457" y1="60.0838" x2="581.811" y2="60.0838" gradientUnits="userSpaceOnUse">
<stop stop-color="#F9F4BF"/>
<stop offset="0.2279" stop-color="#BA9B57"/>
<stop offset="0.414" stop-color="#F9C46E"/>
<stop offset="0.586" stop-color="#F0B963"/>
<stop offset="0.7721" stop-color="#F9F3BB"/>
<stop offset="1" stop-color="#C1A059"/>
</linearGradient>
<linearGradient id="paint3_linear_41_2488" x1="-0.00117778" y1="60.0839" x2="581.812" y2="60.0839" gradientUnits="userSpaceOnUse">
<stop stop-color="#F9F4BF"/>
<stop offset="0.2279" stop-color="#BA9B57"/>
<stop offset="0.414" stop-color="#F9C46E"/>
<stop offset="0.586" stop-color="#F0B963"/>
<stop offset="0.7721" stop-color="#F9F3BB"/>
<stop offset="1" stop-color="#C1A059"/>
</linearGradient>
<linearGradient id="paint4_linear_41_2488" x1="-0.00143894" y1="60.0837" x2="581.812" y2="60.0837" gradientUnits="userSpaceOnUse">
<stop stop-color="#F9F4BF"/>
<stop offset="0.2279" stop-color="#BA9B57"/>
<stop offset="0.414" stop-color="#F9C46E"/>
<stop offset="0.586" stop-color="#F0B963"/>
<stop offset="0.7721" stop-color="#F9F3BB"/>
<stop offset="1" stop-color="#C1A059"/>
</linearGradient>
<linearGradient id="paint5_linear_41_2488" x1="148.355" y1="60.0845" x2="730.168" y2="60.0845" gradientUnits="userSpaceOnUse">
<stop stop-color="#F9F4BF"/>
<stop offset="0.2279" stop-color="#BA9B57"/>
<stop offset="0.414" stop-color="#F9C46E"/>
<stop offset="0.586" stop-color="#F0B963"/>
<stop offset="0.7721" stop-color="#F9F3BB"/>
<stop offset="1" stop-color="#C1A059"/>
</linearGradient>
<linearGradient id="paint6_linear_41_2488" x1="148.355" y1="60.0842" x2="730.168" y2="60.0842" gradientUnits="userSpaceOnUse">
<stop stop-color="#F9F4BF"/>
<stop offset="0.2279" stop-color="#BA9B57"/>
<stop offset="0.414" stop-color="#F9C46E"/>
<stop offset="0.586" stop-color="#F0B963"/>
<stop offset="0.7721" stop-color="#F9F3BB"/>
<stop offset="1" stop-color="#C1A059"/>
</linearGradient>
<linearGradient id="paint7_linear_41_2488" x1="148.354" y1="60.0842" x2="730.167" y2="60.0842" gradientUnits="userSpaceOnUse">
<stop stop-color="#F9F4BF"/>
<stop offset="0.2279" stop-color="#BA9B57"/>
<stop offset="0.414" stop-color="#F9C46E"/>
<stop offset="0.586" stop-color="#F0B963"/>
<stop offset="0.7721" stop-color="#F9F3BB"/>
<stop offset="1" stop-color="#C1A059"/>
</linearGradient>
<linearGradient id="paint8_linear_41_2488" x1="148.356" y1="60.0844" x2="730.168" y2="60.0844" gradientUnits="userSpaceOnUse">
<stop stop-color="#F9F4BF"/>
<stop offset="0.2279" stop-color="#BA9B57"/>
<stop offset="0.414" stop-color="#F9C46E"/>
<stop offset="0.586" stop-color="#F0B963"/>
<stop offset="0.7721" stop-color="#F9F3BB"/>
<stop offset="1" stop-color="#C1A059"/>
</linearGradient>
<linearGradient id="paint9_linear_41_2488" x1="416.908" y1="101.344" x2="417.443" y2="101.344" gradientUnits="userSpaceOnUse">
<stop stop-color="#F9F4BF"/>
<stop offset="0.2279" stop-color="#BA9B57"/>
<stop offset="0.414" stop-color="#F9C46E"/>
<stop offset="0.586" stop-color="#F0B963"/>
<stop offset="0.7721" stop-color="#F9F3BB"/>
<stop offset="1" stop-color="#C1A059"/>
</linearGradient>
<linearGradient id="paint10_linear_41_2488" x1="312.487" y1="60.5252" x2="417.392" y2="60.5252" gradientUnits="userSpaceOnUse">
<stop stop-color="#F9F4BF"/>
<stop offset="0.2279" stop-color="#BA9B57"/>
<stop offset="0.414" stop-color="#F9C46E"/>
<stop offset="0.586" stop-color="#F0B963"/>
<stop offset="0.7721" stop-color="#F9F3BB"/>
<stop offset="1" stop-color="#C1A059"/>
</linearGradient>
<linearGradient id="paint11_linear_41_2488" x1="312.487" y1="60.5254" x2="417.392" y2="60.5254" gradientUnits="userSpaceOnUse">
<stop stop-color="#F9F4BF"/>
<stop offset="0.2279" stop-color="#BA9B57"/>
<stop offset="0.414" stop-color="#F9C46E"/>
<stop offset="0.586" stop-color="#F0B963"/>
<stop offset="0.7721" stop-color="#F9F3BB"/>
<stop offset="1" stop-color="#C1A059"/>
</linearGradient>
<linearGradient id="paint12_linear_41_2488" x1="312.487" y1="60.525" x2="417.392" y2="60.525" gradientUnits="userSpaceOnUse">
<stop stop-color="#F9F4BF"/>
<stop offset="0.2279" stop-color="#BA9B57"/>
<stop offset="0.414" stop-color="#F9C46E"/>
<stop offset="0.586" stop-color="#F0B963"/>
<stop offset="0.7721" stop-color="#F9F3BB"/>
<stop offset="1" stop-color="#C1A059"/>
</linearGradient>
<linearGradient id="paint13_linear_41_2488" x1="312.487" y1="60.5251" x2="417.392" y2="60.5251" gradientUnits="userSpaceOnUse">
<stop stop-color="#F9F4BF"/>
<stop offset="0.2279" stop-color="#BA9B57"/>
<stop offset="0.414" stop-color="#F9C46E"/>
<stop offset="0.586" stop-color="#F0B963"/>
<stop offset="0.7721" stop-color="#F9F3BB"/>
<stop offset="1" stop-color="#C1A059"/>
</linearGradient>
<linearGradient id="paint14_linear_41_2488" x1="312.487" y1="60.5255" x2="417.392" y2="60.5255" gradientUnits="userSpaceOnUse">
<stop stop-color="#F9F4BF"/>
<stop offset="0.2279" stop-color="#BA9B57"/>
<stop offset="0.414" stop-color="#F9C46E"/>
<stop offset="0.586" stop-color="#F0B963"/>
<stop offset="0.7721" stop-color="#F9F3BB"/>
<stop offset="1" stop-color="#C1A059"/>
</linearGradient>
<linearGradient id="paint15_linear_41_2488" x1="312.486" y1="60.5251" x2="417.392" y2="60.5251" gradientUnits="userSpaceOnUse">
<stop stop-color="#F9F4BF"/>
<stop offset="0.2279" stop-color="#BA9B57"/>
<stop offset="0.414" stop-color="#F9C46E"/>
<stop offset="0.586" stop-color="#F0B963"/>
<stop offset="0.7721" stop-color="#F9F3BB"/>
<stop offset="1" stop-color="#C1A059"/>
</linearGradient>
<linearGradient id="paint16_linear_41_2488" x1="312.486" y1="60.5254" x2="417.392" y2="60.5254" gradientUnits="userSpaceOnUse">
<stop stop-color="#F9F4BF"/>
<stop offset="0.2279" stop-color="#BA9B57"/>
<stop offset="0.414" stop-color="#F9C46E"/>
<stop offset="0.586" stop-color="#F0B963"/>
<stop offset="0.7721" stop-color="#F9F3BB"/>
<stop offset="1" stop-color="#C1A059"/>
</linearGradient>
<linearGradient id="paint17_linear_41_2488" x1="312.487" y1="60.5255" x2="417.392" y2="60.5255" gradientUnits="userSpaceOnUse">
<stop stop-color="#F9F4BF"/>
<stop offset="0.2279" stop-color="#BA9B57"/>
<stop offset="0.414" stop-color="#F9C46E"/>
<stop offset="0.586" stop-color="#F0B963"/>
<stop offset="0.7721" stop-color="#F9F3BB"/>
<stop offset="1" stop-color="#C1A059"/>
</linearGradient>
<linearGradient id="paint18_linear_41_2488" x1="312.486" y1="60.5254" x2="417.392" y2="60.5254" gradientUnits="userSpaceOnUse">
<stop stop-color="#F9F4BF"/>
<stop offset="0.2279" stop-color="#BA9B57"/>
<stop offset="0.414" stop-color="#F9C46E"/>
<stop offset="0.586" stop-color="#F0B963"/>
<stop offset="0.7721" stop-color="#F9F3BB"/>
<stop offset="1" stop-color="#C1A059"/>
</linearGradient>
<linearGradient id="paint19_linear_41_2488" x1="312.487" y1="60.5251" x2="417.392" y2="60.5251" gradientUnits="userSpaceOnUse">
<stop stop-color="#F9F4BF"/>
<stop offset="0.2279" stop-color="#BA9B57"/>
<stop offset="0.414" stop-color="#F9C46E"/>
<stop offset="0.586" stop-color="#F0B963"/>
<stop offset="0.7721" stop-color="#F9F3BB"/>
<stop offset="1" stop-color="#C1A059"/>
</linearGradient>
<linearGradient id="paint20_linear_41_2488" x1="312.487" y1="60.5251" x2="417.392" y2="60.5251" gradientUnits="userSpaceOnUse">
<stop stop-color="#F9F4BF"/>
<stop offset="0.2279" stop-color="#BA9B57"/>
<stop offset="0.414" stop-color="#F9C46E"/>
<stop offset="0.586" stop-color="#F0B963"/>
<stop offset="0.7721" stop-color="#F9F3BB"/>
<stop offset="1" stop-color="#C1A059"/>
</linearGradient>
<linearGradient id="paint21_linear_41_2488" x1="413.07" y1="115.459" x2="421.715" y2="115.459" gradientUnits="userSpaceOnUse">
<stop stop-color="#F9F4BF"/>
<stop offset="0.2279" stop-color="#BA9B57"/>
<stop offset="0.414" stop-color="#F9C46E"/>
<stop offset="0.586" stop-color="#F0B963"/>
<stop offset="0.7721" stop-color="#F9F3BB"/>
<stop offset="1" stop-color="#C1A059"/>
</linearGradient>
</defs>
</svg>
