<svg width="190" height="156" viewBox="0 0 190 156" fill="none" xmlns="http://www.w3.org/2000/svg">
<g clip-path="url(#clip0_24_5235)">
<path d="M24.1984 28.0275C32.4164 14.046 72.2927 22.2332 113.258 46.3116C154.223 70.39 180.774 101.248 172.556 115.229L164.595 128.773C156.377 142.754 116.501 134.567 75.5357 110.489C34.5707 86.4104 8.01956 55.5528 16.2376 41.5714L24.1984 28.0275Z" fill="url(#paint0_linear_24_5235)"/>
<path d="M24.1984 28.0275C32.4164 14.046 72.2927 22.2332 113.258 46.3116C154.223 70.39 180.774 101.248 172.556 115.229L164.595 128.773C156.377 142.754 116.501 134.567 75.5357 110.489C34.5707 86.4104 8.01956 55.5528 16.2376 41.5714L24.1984 28.0275Z" fill="url(#paint1_linear_24_5235)"/>
<path d="M75.0336 111.343C117.103 136.071 156.827 143.944 165.449 129.275L173.41 115.731C182.032 101.062 155.829 70.1848 113.76 45.4573C71.6905 20.7298 31.9663 12.8563 23.3441 27.5253L15.3833 41.0692C6.76109 55.7383 32.9642 86.6155 75.0336 111.343ZM112.768 47.1451C153.212 70.9173 179.659 101.237 171.722 114.739L163.762 128.283C155.825 141.785 116.47 133.428 76.0256 109.655C35.5815 85.8831 9.1347 55.5634 17.071 42.0612L25.0318 28.5174C32.9682 15.0152 72.3238 23.3729 112.768 47.1451Z" fill="#AB6004"/>
<path d="M83.4966 96.9449C42.5288 72.8648 15.9801 42.0095 24.1984 28.0275C32.4167 14.0455 72.29 22.2316 113.258 46.3116C154.226 70.3917 180.774 101.247 172.556 115.229C164.338 129.211 124.464 121.025 83.4966 96.9449Z" fill="url(#paint2_linear_24_5235)"/>
<path d="M83.4966 96.9449C42.5288 72.8648 15.9801 42.0095 24.1984 28.0275C32.4167 14.0455 72.29 22.2316 113.258 46.3116C154.226 70.3917 180.774 101.247 172.556 115.229C164.338 129.211 124.464 121.025 83.4966 96.9449Z" fill="url(#paint3_linear_24_5235)"/>
<path d="M82.9944 97.7992C125.064 122.527 164.788 130.4 173.41 115.731C182.032 101.062 155.829 70.1848 113.76 45.4573C71.6905 20.7298 31.9663 12.8563 23.3441 27.5253C14.7219 42.1944 40.925 73.0717 82.9944 97.7992ZM112.768 47.1451C153.212 70.9173 179.659 101.237 171.722 114.739C163.786 128.241 124.431 119.884 83.9864 96.1114C43.5423 72.3392 17.0955 42.0196 25.0318 28.5174C32.9682 15.0152 72.3238 23.3729 112.768 47.1451Z" fill="#FFED8B"/>
<path d="M26.0102 25.7561C37.1888 15.0848 74.7431 23.6453 113.27 46.2908C151.797 68.9362 177.545 97.5834 173.659 112.541L26.0102 25.7561Z" fill="url(#paint4_linear_24_5235)"/>
<path d="M26.0102 25.7561C37.1888 15.0848 74.7431 23.6453 113.27 46.2908C151.797 68.9362 177.545 97.5834 173.659 112.541L26.0102 25.7561Z" fill="url(#paint5_linear_24_5235)"/>
<path d="M111.273 49.6872C145.862 70.0179 168.18 96.2005 161.15 108.161C158.493 112.682 152.03 114.519 143.13 113.969C149.998 113.97 154.973 112.184 157.153 108.475C163.779 97.202 142.38 72.3168 109.375 52.9169C76.3696 33.517 44.2178 26.9264 37.5919 38.199C35.3997 41.9288 36.2923 47.1354 39.6337 53.1365C34.8237 45.6274 33.264 39.0755 35.9216 34.5539C42.9517 22.5936 76.6721 29.3773 111.261 49.708L111.273 49.6872Z" fill="#CA7A11"/>
<path d="M160.575 108.187C160.575 108.187 160.245 108.749 159.461 109.606C158.677 110.463 157.281 111.549 155.215 112.298C151.088 113.881 144.668 113.976 137.27 112.683C129.856 111.465 121.413 108.802 112.713 105.286C103.981 101.78 94.9697 97.2682 86.3469 92.1438C77.6666 87.0698 69.3623 81.4037 62.0174 75.4885C54.7056 69.5647 48.2798 63.5168 43.6089 57.6314C38.9012 51.8084 35.8405 46.1405 35.2165 41.7647C34.8653 39.5957 35.1356 37.8482 35.5028 36.7464C35.6386 36.1814 35.8713 35.7855 36.0097 35.5024C36.1481 35.2192 36.2007 35.082 36.2007 35.082C36.2007 35.082 36.115 35.2278 35.9889 35.4901C35.8505 35.7733 35.597 36.1569 35.4403 36.7096C35.0191 37.8078 34.6827 39.5725 34.9433 41.8003C35.4313 46.2644 38.1918 52.2045 42.8762 58.21C47.5154 64.245 53.7697 70.5846 61.1073 76.6076C68.4449 82.6306 76.7835 88.4291 85.481 93.5693C94.2239 98.6802 103.346 103.145 112.178 106.626C121.01 110.107 129.612 112.5 137.121 113.605C144.626 114.764 151.179 114.299 155.317 112.554C157.378 111.718 158.768 110.545 159.523 109.643C159.942 109.216 160.154 108.808 160.322 108.57C160.481 108.3 160.575 108.187 160.575 108.187Z" fill="#FFC747"/>
<path d="M80.7423 94.4287C81.9433 94.7702 83.0672 95.2907 84.1667 95.8528C86.8239 97.2464 84.6905 101.067 82.1802 99.4232C81.0084 98.6503 79.9604 97.81 78.965 96.8324C77.7354 95.6331 79.4579 94.0382 80.7545 94.4079L80.7423 94.4287Z" fill="white"/>
<path d="M112.751 43.883C113.379 43.7198 113.948 43.8017 114.564 44.136C117.529 45.6264 115.106 49.893 112.382 48.0398C112.09 47.8683 111.823 47.6552 111.593 47.3795C111.593 47.3795 110.733 45.837 111.258 46.566C110.447 45.4168 111.257 43.7058 112.751 43.883Z" fill="white"/>
</g>
<defs>
<linearGradient id="paint0_linear_24_5235" x1="169.138" y1="122.332" x2="20.1971" y2="34.7872" gradientUnits="userSpaceOnUse">
<stop stop-color="#CD7D0A"/>
<stop offset="0.26" stop-color="#AF5203"/>
<stop offset="0.5" stop-color="#974B00"/>
<stop offset="0.74" stop-color="#BC6D07"/>
<stop offset="1" stop-color="#D0800A"/>
</linearGradient>
<linearGradient id="paint1_linear_24_5235" x1="1719.49" y1="1033.04" x2="20.4377" y2="34.3723" gradientUnits="userSpaceOnUse">
<stop stop-color="#F9F4BF"/>
<stop offset="0.2279" stop-color="#BA9B57"/>
<stop offset="0.414" stop-color="#F9C46E"/>
<stop offset="0.586" stop-color="#F0B963"/>
<stop offset="0.7721" stop-color="#F9F3BB"/>
<stop offset="1" stop-color="#C1A059"/>
</linearGradient>
<linearGradient id="paint2_linear_24_5235" x1="116.095" y1="51.1193" x2="89.3479" y2="82.077" gradientUnits="userSpaceOnUse">
<stop stop-color="#FFDD40"/>
<stop offset="1" stop-color="#E29A0A"/>
</linearGradient>
<linearGradient id="paint3_linear_24_5235" x1="1723.42" y1="1026.36" x2="24.3668" y2="27.6876" gradientUnits="userSpaceOnUse">
<stop stop-color="#F9F4BF"/>
<stop offset="0.2279" stop-color="#BA9B57"/>
<stop offset="0.414" stop-color="#F9C46E"/>
<stop offset="0.586" stop-color="#F0B963"/>
<stop offset="0.7721" stop-color="#F9F3BB"/>
<stop offset="1" stop-color="#C1A059"/>
</linearGradient>
<linearGradient id="paint4_linear_24_5235" x1="144.094" y1="26.1401" x2="81.6931" y2="86.8012" gradientUnits="userSpaceOnUse">
<stop offset="0.2" stop-color="#FFFF9F"/>
<stop offset="1" stop-color="#FFFA6D"/>
</linearGradient>
<linearGradient id="paint5_linear_24_5235" x1="1723.73" y1="1008.07" x2="32.7913" y2="14.1663" gradientUnits="userSpaceOnUse">
<stop offset="0.924" stop-color="#F9F3BB"/>
<stop offset="1" stop-color="#C1A059"/>
</linearGradient>
<clipPath id="clip0_24_5235">
<rect width="174.069" height="77.9952" fill="white" transform="matrix(-0.862106 -0.506728 -0.506728 0.862106 189.589 88.2058)"/>
</clipPath>
</defs>
</svg>
