<svg width="78" height="175" viewBox="0 0 78 175" fill="none" xmlns="http://www.w3.org/2000/svg">
<path d="M46.8639 1.67969C63.0817 1.67969 76.23 40.206 76.23 87.7234C76.23 135.241 63.0817 173.767 46.8639 173.767H31.1537C14.9359 173.767 1.78768 135.241 1.78768 87.7234C1.78768 40.206 14.9359 1.67969 31.1537 1.67969H46.8639Z" fill="url(#paint0_linear_47_568)"/>
<path d="M46.8639 1.67969C63.0817 1.67969 76.23 40.206 76.23 87.7234C76.23 135.241 63.0817 173.767 46.8639 173.767H31.1537C14.9359 173.767 1.78768 135.241 1.78768 87.7234C1.78768 40.206 14.9359 1.67969 31.1537 1.67969H46.8639Z" fill="url(#paint1_linear_47_568)"/>
<path d="M0.7965 87.7232C0.7965 136.522 14.1381 174.758 31.1535 174.758H46.8637C63.8791 174.758 77.2207 136.522 77.2207 87.7232C77.2207 38.9248 63.8791 0.688512 46.8637 0.688512H31.1535C14.1381 0.688512 0.7965 38.9248 0.7965 87.7232ZM75.263 87.7232C75.263 134.636 62.5256 172.8 46.8637 172.8H31.1535C15.4916 172.8 2.75424 134.636 2.75424 87.7232C2.75424 40.81 15.4916 2.64624 31.1535 2.64624H46.8637C62.5256 2.64624 75.263 40.81 75.263 87.7232Z" fill="#AB6004"/>
<path d="M17.4979 87.7234C17.4979 40.2028 30.6455 1.6797 46.8639 1.6797C63.0824 1.6797 76.23 40.2028 76.23 87.7234C76.23 135.244 63.0824 173.767 46.8639 173.767C30.6455 173.767 17.4979 135.244 17.4979 87.7234Z" fill="url(#paint2_linear_47_568)"/>
<path d="M17.4979 87.7234C17.4979 40.2028 30.6455 1.6797 46.8639 1.6797C63.0824 1.6797 76.23 40.2028 76.23 87.7234C76.23 135.244 63.0824 173.767 46.8639 173.767C30.6455 173.767 17.4979 135.244 17.4979 87.7234Z" fill="url(#paint3_linear_47_568)"/>
<path d="M16.5067 87.7232C16.5067 136.522 29.8483 174.758 46.8637 174.758C63.8791 174.758 77.2207 136.522 77.2207 87.7232C77.2207 38.9248 63.8791 0.688512 46.8637 0.688512C29.8483 0.688512 16.5067 38.9248 16.5067 87.7232ZM75.263 87.7232C75.263 134.636 62.5256 172.8 46.8637 172.8C31.2018 172.8 18.4645 134.636 18.4645 87.7232C18.4645 40.81 31.2018 2.64624 46.8637 2.64624C62.5256 2.64624 75.263 40.81 75.263 87.7232Z" fill="#FFED8B"/>
<path d="M49.7399 2.09034C64.6042 6.32001 76.2539 43.0336 76.2539 87.7232C76.2539 132.413 64.6042 169.126 49.7399 173.356L49.7399 2.09034Z" fill="url(#paint4_linear_47_568)"/>
<path d="M49.7399 2.09034C64.6042 6.32001 76.2539 43.0336 76.2539 87.7232C76.2539 132.413 64.6042 169.126 49.7399 173.356L49.7399 2.09034Z" fill="url(#paint5_linear_47_568)"/>
<path d="M72.3145 87.723C72.3145 127.844 61.0514 160.353 47.1781 160.353C41.9333 160.353 37.0752 155.712 33.0389 147.76C36.5193 153.682 40.5798 157.065 44.882 157.065C57.9577 157.065 68.5682 126.008 68.5682 87.723C68.5682 49.4384 57.9577 18.3805 44.882 18.3805C40.5556 18.3805 36.5193 21.7884 33.0389 27.7099C37.0752 19.7581 41.9333 15.0934 47.1781 15.0934C61.0514 15.0934 72.2903 47.6015 72.2903 87.723H72.3145Z" fill="#CA7A11"/>
<path d="M46.8638 159.869C46.8638 159.869 46.2112 159.869 45.0752 159.627C43.9393 159.386 42.2957 158.733 40.6038 157.331C37.1476 154.576 33.8122 149.09 31.1777 142.056C28.4707 135.047 26.4888 126.418 25.1112 117.137C23.7093 107.832 23.0326 97.7775 23.0809 87.7471C23.0567 77.6926 23.7335 67.6622 25.1112 58.3328C26.513 49.0275 28.4707 40.4231 31.1777 33.4139C33.8122 26.4047 37.1476 20.8941 40.6038 18.1387C42.2957 16.7369 43.9393 16.0843 45.0752 15.8426C45.6311 15.6734 46.0903 15.6734 46.4045 15.6493C46.7188 15.6251 46.8638 15.6009 46.8638 15.6009C46.8638 15.6009 46.6946 15.6009 46.4045 15.6251C46.0903 15.6493 45.6311 15.6251 45.0752 15.7701C43.9151 15.9635 42.2232 16.5677 40.4347 17.9212C36.8334 20.604 33.1113 25.9939 30.3076 33.0755C27.4556 40.1331 25.1595 48.7374 23.6851 58.1152C22.2108 67.493 21.4374 77.6201 21.4132 87.723C21.4374 97.85 22.2108 107.977 23.6851 117.355C25.1595 126.733 27.4556 135.361 30.3076 142.395C33.1113 149.452 36.8334 154.866 40.4347 157.549C42.199 158.902 43.9151 159.507 45.0752 159.7C45.6553 159.845 46.1145 159.821 46.4045 159.845C46.7188 159.845 46.8638 159.869 46.8638 159.869Z" fill="#FFC747"/>
<defs>
<linearGradient id="paint0_linear_47_568" x1="39.0088" y1="174.42" x2="39.0088" y2="1.65553" gradientUnits="userSpaceOnUse">
<stop stop-color="#CD7D0A"/>
<stop offset="0.26" stop-color="#AF5203"/>
<stop offset="0.5" stop-color="#974B00"/>
<stop offset="0.74" stop-color="#BC6D07"/>
<stop offset="1" stop-color="#D0800A"/>
</linearGradient>
<linearGradient id="paint1_linear_47_568" x1="39.4884" y1="1972.47" x2="39.4884" y2="1.65265" gradientUnits="userSpaceOnUse">
<stop stop-color="#F9F4BF"/>
<stop offset="0.2279" stop-color="#BA9B57"/>
<stop offset="0.414" stop-color="#F9C46E"/>
<stop offset="0.586" stop-color="#F0B963"/>
<stop offset="0.7721" stop-color="#F9F3BB"/>
<stop offset="1" stop-color="#C1A059"/>
</linearGradient>
<linearGradient id="paint2_linear_47_568" x1="73.523" y1="92.6056" x2="33.2806" y2="85.2339" gradientUnits="userSpaceOnUse">
<stop stop-color="#FFDD40"/>
<stop offset="1" stop-color="#E29A0A"/>
</linearGradient>
<linearGradient id="paint3_linear_47_568" x1="47.2423" y1="1972.47" x2="47.2423" y2="1.65265" gradientUnits="userSpaceOnUse">
<stop stop-color="#F9F4BF"/>
<stop offset="0.2279" stop-color="#BA9B57"/>
<stop offset="0.414" stop-color="#F9C46E"/>
<stop offset="0.586" stop-color="#F0B963"/>
<stop offset="0.7721" stop-color="#F9F3BB"/>
<stop offset="1" stop-color="#C1A059"/>
</linearGradient>
<linearGradient id="paint4_linear_47_568" x1="109.245" y1="104.086" x2="25.3286" y2="81.0282" gradientUnits="userSpaceOnUse">
<stop offset="0.2" stop-color="#FFFF9F"/>
<stop offset="1" stop-color="#FFFA6D"/>
</linearGradient>
<linearGradient id="paint5_linear_47_568" x1="63.1677" y1="1963.47" x2="63.1677" y2="2.06341" gradientUnits="userSpaceOnUse">
<stop offset="0.924" stop-color="#F9F3BB"/>
<stop offset="1" stop-color="#C1A059"/>
</linearGradient>
</defs>
</svg>
