<svg width="264" height="290" viewBox="0 0 264 290" fill="none" xmlns="http://www.w3.org/2000/svg">
<path d="M253.594 214.432L252.957 270.622L252.304 214.432H253.594Z" fill="url(#paint0_linear_58_12482)"/>
<path d="M32.7749 240.371C35.1284 234.934 38.0133 229.938 41.2019 225.124C46.6074 216.938 53.8349 210.681 62.353 205.898C74.2268 199.246 86.9357 198.563 100.055 200.628C111.776 202.465 121.099 208.373 128.949 217.075C131.394 219.793 133.717 222.618 136.222 225.275C136.921 226.02 137.452 226.779 137.68 228.267C119.308 218.852 100.267 215.07 80.0574 219.231C87.4367 218.639 94.7857 219.14 102.059 220.446C114.616 222.694 126.11 227.675 136.784 234.585C140.322 236.863 140.398 237.622 137.635 240.674C128.312 250.986 116.423 254.874 102.818 254.57C93.6014 254.373 85.0832 251.472 76.7777 247.858C63.674 242.132 49.9934 239.87 35.7661 240.614C35.0525 240.644 34.3388 240.659 33.6252 240.644C33.4734 240.659 33.3215 240.553 32.7749 240.371Z" fill="white"/>
<path d="M2.45328 112.456C1.07155 118.363 0.403463 124.24 0.0846019 130.148C-0.462017 140.186 1.66372 149.753 5.77854 158.88C11.5029 171.607 21.5546 179.914 33.6105 186.231C44.3911 191.865 55.6727 192.685 67.4401 190.316C71.1146 189.572 74.7436 188.661 78.4333 188.008C79.4506 187.826 80.3616 187.522 81.47 186.444C60.5922 182.996 42.6146 174.477 28.5088 158.713C34.2331 163.71 40.5951 167.78 47.3671 171.136C59.0739 176.937 71.5853 179.853 84.5979 180.688C88.8949 180.962 89.4264 180.384 89.0164 176.193C87.6347 162.009 80.2098 151.561 68.8219 143.497C61.1085 138.045 52.3322 135.22 43.2826 133.139C28.9946 129.844 16.3617 123.375 5.09527 114.081C4.53347 113.61 3.9413 113.169 3.34913 112.744C3.21247 112.653 3.01508 112.638 2.45328 112.456Z" fill="white"/>
<path d="M180.453 233.263C182.108 236.893 183.186 240.553 183.991 244.258C185.358 250.561 184.538 256.772 182.078 262.877C178.661 271.381 171.358 277.441 162.248 282.392C154.109 286.811 145.136 288.238 135.448 287.676C132.427 287.509 129.42 287.221 126.399 287.099C125.564 287.069 124.804 286.947 123.817 286.355C140.261 282.513 153.927 275.694 163.796 264.593C159.666 268.207 154.929 271.29 149.797 273.948C140.93 278.549 131.151 281.389 120.781 282.953C117.349 283.47 116.878 283.151 116.818 280.463C116.62 271.381 121.616 264.183 130.012 258.184C135.706 254.114 142.494 251.639 149.569 249.589C160.745 246.369 170.295 241.267 178.479 234.494C178.889 234.159 179.33 233.825 179.755 233.506C179.861 233.446 180.028 233.415 180.453 233.263Z" fill="white"/>
<path d="M45.712 206.657C45.5905 208.297 44.6947 209.588 43.9051 210.453C41.916 211.031 37.118 212.124 31.3481 210.499C25.1834 208.768 21.5241 204.926 20.188 203.377C21.1294 204.941 24.5609 210.18 31.424 212.504C36.2677 214.144 40.4584 213.536 42.4171 213.111C37.0269 219.14 29.6627 222.086 23.3007 220.309C16.6501 218.441 13.5526 212.109 11.4117 207.735C6.99319 198.714 7.79794 189.967 8.52676 185.669C10.5007 187.082 13.7804 189.208 18.1989 190.984C27.3244 194.675 31.8795 193.095 38.9248 197.742C40.9747 199.079 46.0461 202.42 45.712 206.657Z" fill="white"/>
<path d="M202.455 251.411C204.641 246.278 207.891 241.981 211.975 238.214C214.663 235.739 217.654 233.75 220.767 231.912C221.101 231.715 221.647 231.578 221.587 231.092C221.541 230.727 221.04 230.636 220.706 230.484C216.045 228.541 211.398 228.92 206.949 231.031C202.394 233.188 199.342 236.954 196.716 241.161C192.692 247.645 191.674 254.828 191.599 262.254C191.568 266.279 192.024 270.212 193.603 273.963C193.8 274.419 193.891 275.102 194.377 275.193C195 275.315 195.091 274.571 195.319 274.161C198.052 269.134 202.728 266.841 207.83 265.094C211.702 263.773 215.392 262.163 218.656 259.551C223.986 255.269 226.552 249.71 226.916 243.044C227.083 240.067 226.81 237.106 225.474 234.342C224.821 232.975 224.426 232.838 222.999 233.461C219.446 235.01 216.105 236.939 213.114 239.338C208.908 242.725 205.158 246.643 202.455 251.411Z" fill="white"/>
<path d="M240.748 220.917C238.045 222.572 235.904 224.759 234.113 227.371C232.943 229.087 232.078 230.94 231.304 232.853C231.228 233.051 231.182 233.385 230.909 233.385C230.696 233.385 230.605 233.127 230.499 232.944C229.026 230.484 228.844 227.842 229.664 225.154C230.499 222.405 232.366 220.37 234.507 218.548C237.817 215.738 241.78 214.569 245.941 213.916C248.203 213.567 250.45 213.491 252.682 214.068C252.956 214.144 253.35 214.144 253.442 214.402C253.563 214.736 253.153 214.857 252.941 215.024C250.344 216.983 249.448 219.793 248.886 222.815C248.461 225.108 247.869 227.31 246.67 229.376C244.711 232.732 241.796 234.63 238.075 235.405C236.42 235.754 234.735 235.845 233.065 235.329C232.245 235.071 232.139 234.858 232.366 234.007C232.943 231.881 233.748 229.846 234.841 227.948C236.405 225.275 238.288 222.845 240.748 220.917Z" fill="white"/>
<path d="M39.2583 46.6372C38.241 49.6441 36.5708 52.2107 34.4147 54.5342C32.9874 56.0528 31.3931 57.3133 29.6925 58.4826C29.5103 58.6041 29.2066 58.7105 29.2673 58.9838C29.3129 59.1964 29.5862 59.2268 29.7836 59.2875C32.5167 60.1835 35.1283 59.7735 37.5577 58.3915C40.0479 56.9792 41.627 54.7012 42.9176 52.2107C44.9219 48.3533 45.1952 44.253 44.9219 40.0311C44.7701 37.7532 44.3449 35.536 43.282 33.4858C43.1454 33.2276 43.0695 32.8632 42.781 32.8176C42.4166 32.772 42.4014 33.1973 42.2951 33.4402C40.9589 36.4016 38.408 37.905 35.5838 39.12C33.4429 40.0311 31.4235 41.1094 29.6773 42.7343C26.8379 45.392 25.6232 48.657 25.6991 52.4385C25.7295 54.1242 26.018 55.7947 26.8835 57.3133C27.3086 58.0574 27.5516 58.1182 28.326 57.7081C30.2695 56.6755 32.0916 55.4454 33.6859 53.9571C35.9634 51.8462 37.9221 49.4619 39.2583 46.6372Z" fill="white"/>
<path d="M112.794 269.103C112.627 269.772 111.184 269.954 110.744 270.015C105.916 270.683 103.623 273.508 93.2675 275.375C88.7124 276.196 85.0075 276.879 80.5435 276.514C76.8842 276.226 68.7305 274.935 59.8175 267.403C62.247 266.719 64.9952 266.112 68.0168 265.717C75.5632 264.73 82.0922 265.383 86.9662 266.324C82.9122 264.988 77.036 263.591 69.9148 263.652C65.4356 263.697 61.5485 264.289 58.4358 265.018C57.0693 259.703 58.2232 257.137 59.1494 255.876C62.5203 251.259 73.5437 251.928 94.2089 258.382C100.449 260.326 106.295 262.968 111.291 267.251C111.928 267.813 112.946 268.496 112.794 269.103Z" fill="white"/>
<path d="M65.9064 37.465C63.7503 43.8585 63.3707 50.2216 64.0995 56.7214C64.5854 61.0951 65.6787 65.3169 67.3033 69.3869C67.9107 70.9207 67.2426 70.9966 66.1038 70.7688C61.9586 69.9792 58.8156 67.4886 56.2039 64.4209C48.0502 54.8838 46.5926 44.3293 51.588 32.8028C55.7788 23.1442 62.8241 16.0977 71.4789 10.4484C73.5894 9.06642 74.1361 9.23347 74.4397 11.2077C75.6544 19.1198 78.9949 26.2119 82.6542 33.228C85.5847 38.8318 87.7711 44.709 87.2701 51.2239C86.9209 55.8102 85.9946 60.2598 83.049 63.9501C80.3007 67.4126 76.6718 69.6299 72.3444 70.6929C71.3726 70.9359 71.0841 70.4499 70.7045 69.7058C65.709 59.7131 63.9781 49.2193 65.8761 38.1788C65.9216 38.0269 65.9064 37.8447 65.9064 37.465Z" fill="white"/>
<path d="M109.347 15.1408C106.037 18.8311 102.089 21.3521 97.6709 23.22C94.6949 24.4805 91.5974 25.3006 88.4088 25.7258C87.2093 25.8928 87.3915 26.3332 87.9533 27.0014C89.9576 29.3705 92.6755 30.4943 95.5756 31.0714C104.625 32.8634 111.913 29.9932 117.486 22.6429C122.162 16.4772 124.136 9.43075 124.637 1.85272C124.759 -1.98416e-05 124.455 -0.288564 123.089 0.227775C117.577 2.29313 111.837 2.71835 106.022 2.8854C101.376 3.02208 96.8207 3.73584 92.8273 6.40865C90.0183 8.29177 87.4978 10.4786 86.192 13.6829C84.9621 16.6899 84.8406 19.8183 85.7364 22.977C85.9338 23.6908 86.3438 23.706 86.9512 23.6756C95.1505 23.2808 102.499 20.6231 108.877 15.4142C108.983 15.3383 109.104 15.2775 109.347 15.1408Z" fill="white"/>
<path d="M46.5928 98.8028C42.7209 90.587 37.1181 84.0872 30.3461 78.4834C25.791 74.7172 20.7955 71.6343 15.4052 69.2197C13.3706 68.3085 13.9627 67.6099 15.2685 66.7595C20.0211 63.6615 25.381 63.1299 30.7864 63.6463C47.5949 65.256 58.8614 74.1249 64.7831 89.934C69.7482 103.192 69.5052 116.617 66.4077 130.163C65.6486 133.458 64.9804 133.823 62.8243 132.183C54.2455 125.668 44.4063 121.917 34.3091 118.56C26.2465 115.872 18.6242 112.228 13.0213 105.455C9.07353 100.686 5.809 95.5074 5.20164 89.1898C4.63984 83.2671 6.06713 77.7241 9.27092 72.6518C9.98456 71.5129 10.7286 71.7103 11.7763 72.0747C25.958 77.0863 37.4218 85.6059 45.8944 98.0739C46.0462 98.2865 46.2436 98.4384 46.5928 98.8028Z" fill="white"/>
<path d="M32.7749 240.371C35.1284 234.934 38.0133 229.938 41.2019 225.124C46.6074 216.938 53.8349 210.681 62.353 205.898C74.2268 199.246 86.9357 198.563 100.055 200.628C111.776 202.465 121.099 208.373 128.949 217.075C131.394 219.793 133.717 222.618 136.222 225.275C136.921 226.02 137.452 226.779 137.68 228.267C119.308 218.852 100.267 215.07 80.0574 219.231C87.4367 218.639 94.7857 219.14 102.059 220.446C114.616 222.694 126.11 227.675 136.784 234.585C140.322 236.863 140.398 237.622 137.635 240.674C128.312 250.986 116.423 254.874 102.818 254.57C93.6014 254.373 85.0832 251.472 76.7777 247.858C63.674 242.132 49.9934 239.87 35.7661 240.614C35.0525 240.644 34.3388 240.659 33.6252 240.644C33.4734 240.659 33.3215 240.553 32.7749 240.371Z" fill="url(#paint1_linear_58_12482)"/>
<path d="M2.45328 112.456C1.07155 118.363 0.403463 124.24 0.0846019 130.148C-0.462017 140.186 1.66372 149.753 5.77854 158.88C11.5029 171.607 21.5546 179.914 33.6105 186.231C44.3911 191.865 55.6727 192.685 67.4401 190.316C71.1146 189.572 74.7436 188.661 78.4333 188.008C79.4506 187.826 80.3616 187.522 81.47 186.444C60.5922 182.996 42.6146 174.477 28.5088 158.713C34.2331 163.71 40.5951 167.78 47.3671 171.136C59.0739 176.937 71.5853 179.853 84.5979 180.688C88.8949 180.962 89.4264 180.384 89.0164 176.193C87.6347 162.009 80.2098 151.561 68.8219 143.497C61.1085 138.045 52.3322 135.22 43.2826 133.139C28.9946 129.844 16.3617 123.375 5.09527 114.081C4.53347 113.61 3.9413 113.169 3.34913 112.744C3.21247 112.653 3.01508 112.638 2.45328 112.456Z" fill="url(#paint2_linear_58_12482)"/>
<path d="M180.453 233.263C182.108 236.893 183.186 240.553 183.991 244.258C185.358 250.561 184.538 256.772 182.078 262.877C178.661 271.381 171.358 277.441 162.248 282.392C154.109 286.811 145.136 288.238 135.448 287.676C132.427 287.509 129.42 287.221 126.399 287.099C125.564 287.069 124.804 286.947 123.817 286.355C140.261 282.513 153.927 275.694 163.796 264.593C159.666 268.207 154.929 271.29 149.797 273.948C140.93 278.549 131.151 281.389 120.781 282.953C117.349 283.47 116.878 283.151 116.818 280.463C116.62 271.381 121.616 264.183 130.012 258.184C135.706 254.114 142.494 251.639 149.569 249.589C160.745 246.369 170.295 241.267 178.479 234.494C178.889 234.159 179.33 233.825 179.755 233.506C179.861 233.446 180.028 233.415 180.453 233.263Z" fill="url(#paint3_linear_58_12482)"/>
<path d="M45.712 206.657C45.5905 208.297 44.6947 209.588 43.9051 210.453C41.916 211.031 37.118 212.124 31.3481 210.499C25.1834 208.768 21.5241 204.926 20.188 203.377C21.1294 204.941 24.5609 210.18 31.424 212.504C36.2677 214.144 40.4584 213.536 42.4171 213.111C37.0269 219.14 29.6627 222.086 23.3007 220.309C16.6501 218.441 13.5526 212.109 11.4117 207.735C6.99319 198.714 7.79794 189.967 8.52676 185.669C10.5007 187.082 13.7804 189.208 18.1989 190.984C27.3244 194.675 31.8795 193.095 38.9248 197.742C40.9747 199.079 46.0461 202.42 45.712 206.657Z" fill="url(#paint4_linear_58_12482)"/>
<path d="M202.455 251.411C204.641 246.278 207.891 241.981 211.975 238.214C214.663 235.739 217.654 233.75 220.767 231.912C221.101 231.715 221.647 231.578 221.587 231.092C221.541 230.727 221.04 230.636 220.706 230.484C216.045 228.541 211.398 228.92 206.949 231.031C202.394 233.188 199.342 236.954 196.716 241.161C192.692 247.645 191.674 254.828 191.599 262.254C191.568 266.279 192.024 270.212 193.603 273.963C193.8 274.419 193.891 275.102 194.377 275.193C195 275.315 195.091 274.571 195.319 274.161C198.052 269.134 202.728 266.841 207.83 265.094C211.702 263.773 215.392 262.163 218.656 259.551C223.986 255.269 226.552 249.71 226.916 243.044C227.083 240.067 226.81 237.106 225.474 234.342C224.821 232.975 224.426 232.838 222.999 233.461C219.446 235.01 216.105 236.939 213.114 239.338C208.908 242.725 205.158 246.643 202.455 251.411Z" fill="url(#paint5_linear_58_12482)"/>
<path d="M240.748 220.917C238.045 222.572 235.904 224.759 234.113 227.371C232.943 229.087 232.078 230.94 231.304 232.853C231.228 233.051 231.182 233.385 230.909 233.385C230.696 233.385 230.605 233.127 230.499 232.944C229.026 230.484 228.844 227.842 229.664 225.154C230.499 222.405 232.366 220.37 234.507 218.548C237.817 215.738 241.78 214.569 245.941 213.916C248.203 213.567 250.45 213.491 252.682 214.068C252.956 214.144 253.35 214.144 253.442 214.402C253.563 214.736 253.153 214.857 252.941 215.024C250.344 216.983 249.448 219.793 248.886 222.815C248.461 225.108 247.869 227.31 246.67 229.376C244.711 232.732 241.796 234.63 238.075 235.405C236.42 235.754 234.735 235.845 233.065 235.329C232.245 235.071 232.139 234.858 232.366 234.007C232.943 231.881 233.748 229.846 234.841 227.948C236.405 225.275 238.288 222.845 240.748 220.917Z" fill="url(#paint6_linear_58_12482)"/>
<path d="M39.2583 46.6372C38.241 49.6441 36.5708 52.2107 34.4147 54.5342C32.9874 56.0528 31.3931 57.3133 29.6925 58.4826C29.5103 58.6041 29.2066 58.7105 29.2673 58.9838C29.3129 59.1964 29.5862 59.2268 29.7836 59.2875C32.5167 60.1835 35.1283 59.7735 37.5577 58.3915C40.0479 56.9792 41.627 54.7012 42.9176 52.2107C44.9219 48.3533 45.1952 44.253 44.9219 40.0311C44.7701 37.7532 44.3449 35.536 43.282 33.4858C43.1454 33.2276 43.0695 32.8632 42.781 32.8176C42.4166 32.772 42.4014 33.1973 42.2951 33.4402C40.9589 36.4016 38.408 37.905 35.5838 39.12C33.4429 40.0311 31.4235 41.1094 29.6773 42.7343C26.8379 45.392 25.6232 48.657 25.6991 52.4385C25.7295 54.1242 26.018 55.7947 26.8835 57.3133C27.3086 58.0574 27.5516 58.1182 28.326 57.7081C30.2695 56.6755 32.0916 55.4454 33.6859 53.9571C35.9634 51.8462 37.9221 49.4619 39.2583 46.6372Z" fill="url(#paint7_linear_58_12482)"/>
<path d="M112.794 269.103C112.627 269.772 111.184 269.954 110.744 270.015C105.916 270.683 103.623 273.508 93.2675 275.375C88.7124 276.196 85.0075 276.879 80.5435 276.514C76.8842 276.226 68.7305 274.935 59.8175 267.403C62.247 266.719 64.9952 266.112 68.0168 265.717C75.5632 264.73 82.0922 265.383 86.9662 266.324C82.9122 264.988 77.036 263.591 69.9148 263.652C65.4356 263.697 61.5485 264.289 58.4358 265.018C57.0693 259.703 58.2232 257.137 59.1494 255.876C62.5203 251.259 73.5437 251.928 94.2089 258.382C100.449 260.326 106.295 262.968 111.291 267.251C111.928 267.813 112.946 268.496 112.794 269.103Z" fill="url(#paint8_linear_58_12482)"/>
<path d="M65.9064 37.465C63.7503 43.8585 63.3707 50.2216 64.0995 56.7214C64.5854 61.0951 65.6787 65.3169 67.3033 69.3869C67.9107 70.9207 67.2426 70.9966 66.1038 70.7688C61.9586 69.9792 58.8156 67.4886 56.2039 64.4209C48.0502 54.8838 46.5926 44.3293 51.588 32.8028C55.7788 23.1442 62.8241 16.0977 71.4789 10.4484C73.5894 9.06642 74.1361 9.23347 74.4397 11.2077C75.6544 19.1198 78.9949 26.2119 82.6542 33.228C85.5847 38.8318 87.7711 44.709 87.2701 51.2239C86.9209 55.8102 85.9946 60.2598 83.049 63.9501C80.3007 67.4126 76.6718 69.6299 72.3444 70.6929C71.3726 70.9359 71.0841 70.4499 70.7045 69.7058C65.709 59.7131 63.9781 49.2193 65.8761 38.1788C65.9216 38.0269 65.9064 37.8447 65.9064 37.465Z" fill="url(#paint9_linear_58_12482)"/>
<path d="M109.347 15.1408C106.037 18.8311 102.089 21.3521 97.6709 23.22C94.6949 24.4805 91.5974 25.3006 88.4088 25.7258C87.2093 25.8928 87.3915 26.3332 87.9533 27.0014C89.9576 29.3705 92.6755 30.4943 95.5756 31.0714C104.625 32.8634 111.913 29.9932 117.486 22.6429C122.162 16.4772 124.136 9.43075 124.637 1.85272C124.759 -1.98416e-05 124.455 -0.288564 123.089 0.227775C117.577 2.29313 111.837 2.71835 106.022 2.8854C101.376 3.02208 96.8207 3.73584 92.8273 6.40865C90.0183 8.29177 87.4978 10.4786 86.192 13.6829C84.9621 16.6899 84.8406 19.8183 85.7364 22.977C85.9338 23.6908 86.3438 23.706 86.9512 23.6756C95.1505 23.2808 102.499 20.6231 108.877 15.4142C108.983 15.3383 109.104 15.2775 109.347 15.1408Z" fill="url(#paint10_linear_58_12482)"/>
<path d="M46.5928 98.8028C42.7209 90.587 37.1181 84.0872 30.3461 78.4834C25.791 74.7172 20.7955 71.6343 15.4052 69.2197C13.3706 68.3085 13.9627 67.6099 15.2685 66.7595C20.0211 63.6615 25.381 63.1299 30.7864 63.6463C47.5949 65.256 58.8614 74.1249 64.7831 89.934C69.7482 103.192 69.5052 116.617 66.4077 130.163C65.6486 133.458 64.9804 133.823 62.8243 132.183C54.2455 125.668 44.4063 121.917 34.3091 118.56C26.2465 115.872 18.6242 112.228 13.0213 105.455C9.07353 100.686 5.809 95.5074 5.20164 89.1898C4.63984 83.2671 6.06713 77.7241 9.27092 72.6518C9.98456 71.5129 10.7286 71.7103 11.7763 72.0747C25.958 77.0863 37.4218 85.6059 45.8944 98.0739C46.0462 98.2865 46.2436 98.4384 46.5928 98.8028Z" fill="url(#paint11_linear_58_12482)"/>
<path d="M263.918 288.846C263.918 289.757 263.675 289.97 262.795 289.985C256.645 289.985 250.481 290 244.331 290C243.268 290 243.086 289.818 243.086 288.8C243.056 281.951 243.056 275.102 243.025 268.268C243.025 267.873 243.192 267.6 243.451 267.342C244.696 266.127 245.941 264.882 247.171 263.652C247.398 263.409 247.656 263.317 247.975 263.317C249.296 263.333 250.648 263.226 251.984 263.302C252.804 263.348 253.533 263.393 254.535 263.363C255.932 263.317 257.344 263.378 258.741 263.363C259.196 263.348 259.53 263.515 259.849 263.834C261.033 265.049 262.233 266.248 263.448 267.433C263.736 267.722 263.888 268.025 263.888 268.435C263.888 275.239 263.903 282.042 263.918 288.846Z" fill="url(#paint12_linear_58_12482)"/>
<defs>
<linearGradient id="paint0_linear_58_12482" x1="252.304" y1="242.524" x2="253.595" y2="242.524" gradientUnits="userSpaceOnUse">
<stop stop-color="#F9F4BF"/>
<stop offset="0.2279" stop-color="#BA9B57"/>
<stop offset="0.414" stop-color="#F9C46E"/>
<stop offset="0.586" stop-color="#F0B963"/>
<stop offset="0.7721" stop-color="#F9F3BB"/>
<stop offset="1" stop-color="#C1A059"/>
</linearGradient>
<linearGradient id="paint1_linear_58_12482" x1="0.0103223" y1="143.901" x2="253.475" y2="143.901" gradientUnits="userSpaceOnUse">
<stop stop-color="#F9F4BF"/>
<stop offset="0.2279" stop-color="#BA9B57"/>
<stop offset="0.414" stop-color="#F9C46E"/>
<stop offset="0.586" stop-color="#F0B963"/>
<stop offset="0.7721" stop-color="#F9F3BB"/>
<stop offset="1" stop-color="#C1A059"/>
</linearGradient>
<linearGradient id="paint2_linear_58_12482" x1="0.0108388" y1="143.901" x2="253.475" y2="143.901" gradientUnits="userSpaceOnUse">
<stop stop-color="#F9F4BF"/>
<stop offset="0.2279" stop-color="#BA9B57"/>
<stop offset="0.414" stop-color="#F9C46E"/>
<stop offset="0.586" stop-color="#F0B963"/>
<stop offset="0.7721" stop-color="#F9F3BB"/>
<stop offset="1" stop-color="#C1A059"/>
</linearGradient>
<linearGradient id="paint3_linear_58_12482" x1="0.0104805" y1="143.901" x2="253.475" y2="143.901" gradientUnits="userSpaceOnUse">
<stop stop-color="#F9F4BF"/>
<stop offset="0.2279" stop-color="#BA9B57"/>
<stop offset="0.414" stop-color="#F9C46E"/>
<stop offset="0.586" stop-color="#F0B963"/>
<stop offset="0.7721" stop-color="#F9F3BB"/>
<stop offset="1" stop-color="#C1A059"/>
</linearGradient>
<linearGradient id="paint4_linear_58_12482" x1="0.0107783" y1="143.901" x2="253.475" y2="143.901" gradientUnits="userSpaceOnUse">
<stop stop-color="#F9F4BF"/>
<stop offset="0.2279" stop-color="#BA9B57"/>
<stop offset="0.414" stop-color="#F9C46E"/>
<stop offset="0.586" stop-color="#F0B963"/>
<stop offset="0.7721" stop-color="#F9F3BB"/>
<stop offset="1" stop-color="#C1A059"/>
</linearGradient>
<linearGradient id="paint5_linear_58_12482" x1="0.0110838" y1="143.901" x2="253.476" y2="143.901" gradientUnits="userSpaceOnUse">
<stop stop-color="#F9F4BF"/>
<stop offset="0.2279" stop-color="#BA9B57"/>
<stop offset="0.414" stop-color="#F9C46E"/>
<stop offset="0.586" stop-color="#F0B963"/>
<stop offset="0.7721" stop-color="#F9F3BB"/>
<stop offset="1" stop-color="#C1A059"/>
</linearGradient>
<linearGradient id="paint6_linear_58_12482" x1="0.0100105" y1="143.901" x2="253.475" y2="143.901" gradientUnits="userSpaceOnUse">
<stop stop-color="#F9F4BF"/>
<stop offset="0.2279" stop-color="#BA9B57"/>
<stop offset="0.414" stop-color="#F9C46E"/>
<stop offset="0.586" stop-color="#F0B963"/>
<stop offset="0.7721" stop-color="#F9F3BB"/>
<stop offset="1" stop-color="#C1A059"/>
</linearGradient>
<linearGradient id="paint7_linear_58_12482" x1="0.0102093" y1="143.9" x2="253.475" y2="143.9" gradientUnits="userSpaceOnUse">
<stop stop-color="#F9F4BF"/>
<stop offset="0.2279" stop-color="#BA9B57"/>
<stop offset="0.414" stop-color="#F9C46E"/>
<stop offset="0.586" stop-color="#F0B963"/>
<stop offset="0.7721" stop-color="#F9F3BB"/>
<stop offset="1" stop-color="#C1A059"/>
</linearGradient>
<linearGradient id="paint8_linear_58_12482" x1="0.0105215" y1="143.901" x2="253.475" y2="143.901" gradientUnits="userSpaceOnUse">
<stop stop-color="#F9F4BF"/>
<stop offset="0.2279" stop-color="#BA9B57"/>
<stop offset="0.414" stop-color="#F9C46E"/>
<stop offset="0.586" stop-color="#F0B963"/>
<stop offset="0.7721" stop-color="#F9F3BB"/>
<stop offset="1" stop-color="#C1A059"/>
</linearGradient>
<linearGradient id="paint9_linear_58_12482" x1="0.0106783" y1="143.901" x2="253.475" y2="143.901" gradientUnits="userSpaceOnUse">
<stop stop-color="#F9F4BF"/>
<stop offset="0.2279" stop-color="#BA9B57"/>
<stop offset="0.414" stop-color="#F9C46E"/>
<stop offset="0.586" stop-color="#F0B963"/>
<stop offset="0.7721" stop-color="#F9F3BB"/>
<stop offset="1" stop-color="#C1A059"/>
</linearGradient>
<linearGradient id="paint10_linear_58_12482" x1="0.0105829" y1="143.901" x2="253.475" y2="143.901" gradientUnits="userSpaceOnUse">
<stop stop-color="#F9F4BF"/>
<stop offset="0.2279" stop-color="#BA9B57"/>
<stop offset="0.414" stop-color="#F9C46E"/>
<stop offset="0.586" stop-color="#F0B963"/>
<stop offset="0.7721" stop-color="#F9F3BB"/>
<stop offset="1" stop-color="#C1A059"/>
</linearGradient>
<linearGradient id="paint11_linear_58_12482" x1="0.0109238" y1="143.901" x2="253.476" y2="143.901" gradientUnits="userSpaceOnUse">
<stop stop-color="#F9F4BF"/>
<stop offset="0.2279" stop-color="#BA9B57"/>
<stop offset="0.414" stop-color="#F9C46E"/>
<stop offset="0.586" stop-color="#F0B963"/>
<stop offset="0.7721" stop-color="#F9F3BB"/>
<stop offset="1" stop-color="#C1A059"/>
</linearGradient>
<linearGradient id="paint12_linear_58_12482" x1="243.031" y1="276.628" x2="263.919" y2="276.628" gradientUnits="userSpaceOnUse">
<stop stop-color="#F9F4BF"/>
<stop offset="0.2279" stop-color="#BA9B57"/>
<stop offset="0.414" stop-color="#F9C46E"/>
<stop offset="0.586" stop-color="#F0B963"/>
<stop offset="0.7721" stop-color="#F9F3BB"/>
<stop offset="1" stop-color="#C1A059"/>
</linearGradient>
</defs>
</svg>
