<svg width="673" height="148" viewBox="0 0 673 148" fill="none" xmlns="http://www.w3.org/2000/svg">
<path d="M0 144.222C0.720218 143.142 1.54332 141.598 2.46931 139.54C3.39531 137.431 4.11553 134.858 4.62997 131.668C5.35019 127.037 6.17327 121.892 7.04782 116.129C7.92237 110.366 8.84838 104.346 9.82581 98.0178C10.8033 91.6891 11.7292 85.206 12.7067 78.6201C13.6841 71.9826 14.6101 65.4996 15.4847 59.068C16.3592 52.6364 17.2338 46.462 18.0569 40.4935C18.88 34.5249 19.6002 29.071 20.269 24.1315C20.9377 19.1921 21.4522 14.87 21.9152 11.2683C22.3267 7.61518 22.6354 4.83668 22.8412 2.98438H35.3935L97.538 119.165L159.168 2.98438H168.531L184.736 120.348C185.199 124.053 185.713 127.192 186.228 129.816C186.742 132.44 187.257 134.704 187.822 136.607C188.337 138.46 188.851 140.055 189.366 141.238C189.88 142.473 190.343 143.451 190.806 144.274V144.685H165.907V144.274C166.216 143.554 166.525 142.37 166.833 140.724C167.142 139.077 167.296 137.122 167.296 134.807C167.296 133.932 167.245 133.057 167.193 132.183C167.142 131.308 167.039 130.33 166.885 129.25L154.332 34.6279L95.9947 144.222L89.2041 143.451L30.5064 33.5988C28.1914 49.189 26.185 63.6473 24.4874 76.8707C23.7672 82.5305 23.0469 88.1903 22.3267 93.7986C21.6065 99.407 20.9377 104.655 20.4233 109.543C19.8574 114.431 19.3944 118.702 19.0858 122.406C18.7771 126.111 18.5713 128.89 18.5713 130.639C18.5713 132.903 18.6228 134.858 18.7771 136.556C18.9314 138.254 19.0343 139.746 19.1887 140.878C19.3944 142.267 19.6002 143.502 19.7545 144.531H0V144.222Z" fill="url(#paint0_linear_58_12524)"/>
<path d="M310.98 144.634V144.222C311.134 143.862 311.185 143.399 311.288 142.73C311.34 142.061 311.391 141.495 311.391 140.929C311.391 138.871 311.134 136.659 310.568 134.138C310.002 131.668 308.922 128.581 307.378 124.876L295.443 98.0177C291.739 97.8633 286.852 97.8119 280.73 97.8119C274.609 97.8119 267.972 97.8119 260.873 97.8119C255.677 97.8119 250.636 97.8119 245.8 97.8119C240.964 97.8119 236.591 97.8633 232.733 98.0177L221.261 124.156C220.284 126.574 219.203 129.25 218.123 132.182C216.991 135.064 216.425 137.997 216.425 140.981C216.425 141.855 216.477 142.524 216.631 143.09C216.734 143.656 216.888 144.017 217.043 144.222V144.634H196.876V144.222C198.06 142.987 199.552 140.724 201.301 137.533C203.101 134.343 205.005 130.33 207.114 125.545L263.702 0H271.625L325.281 120.708C326.516 123.538 327.853 126.317 329.191 128.941C330.528 131.616 331.814 133.983 332.998 136.093C334.181 138.202 335.261 139.952 336.136 141.444C337.062 142.885 337.679 143.811 338.039 144.222V144.634H310.98ZM246.983 89.3736C250.79 89.3736 254.7 89.3736 258.712 89.3222C262.725 89.2707 266.686 89.2708 270.493 89.2193C274.351 89.1678 278.055 89.1677 281.605 89.1163C285.155 89.1163 288.396 89.0135 291.276 88.962L263.497 26.2409L236.231 89.3736H246.983Z" fill="url(#paint1_linear_58_12524)"/>
<path d="M474.881 128.015C474.881 128.735 474.778 129.507 474.623 130.279C474.469 131.05 474.058 131.719 473.492 132.234C470.508 134.498 467.318 136.556 463.872 138.408C460.425 140.26 456.669 141.907 452.657 143.296C448.644 144.685 444.323 145.766 439.641 146.486C435.011 147.258 430.021 147.618 424.671 147.618C412.685 147.618 401.779 145.869 391.85 142.319C381.973 138.82 373.484 133.777 366.436 127.346C359.337 120.914 353.884 113.145 349.974 104.089C346.065 95.0334 344.161 84.9487 344.161 73.8863C344.161 67.6091 344.984 61.4861 346.579 55.4147C348.174 49.3432 350.54 43.5806 353.627 38.1266C356.714 32.6726 360.52 27.6302 365.099 23.0509C369.626 18.4716 374.822 14.5097 380.635 11.1652C386.448 7.82079 392.879 5.1968 399.875 3.29304C406.871 1.44074 414.485 0.463135 422.665 0.463135C425.803 0.463135 429.044 0.617443 432.336 0.92616C435.629 1.23488 438.87 1.6465 442.111 2.21248C445.352 2.77846 448.438 3.4473 451.422 4.21909C454.406 4.99088 457.287 5.86568 459.962 6.89474L466.701 25.1605L465.929 25.572C463.357 23.2566 460.373 21.1471 457.03 19.1404C453.686 17.1852 450.085 15.4358 446.278 13.9951C442.471 12.5545 438.458 11.4226 434.291 10.5993C430.124 9.77607 425.854 9.36438 421.585 9.36438C413.302 9.36438 405.688 10.6507 398.743 13.2748C391.85 15.8475 385.882 19.655 380.892 24.5945C375.902 29.5339 372.044 35.6054 369.266 42.7573C366.488 49.9607 365.099 58.0902 365.099 67.2488C365.099 77.3336 366.436 86.698 369.06 95.2906C371.684 103.935 375.593 111.395 380.841 117.724C386.037 124.053 392.519 128.992 400.338 132.594C408.158 136.196 417.263 137.996 427.655 137.996C432.285 137.996 436.4 137.636 440.001 136.916C443.603 136.196 446.689 135.27 449.21 134.189C451.731 133.109 453.583 131.925 454.869 130.639C456.155 129.352 456.772 128.169 456.772 127.14V123.281C456.772 118.702 456.721 114.688 456.567 111.344C456.464 108 456.258 105.067 456.001 102.597C455.743 100.127 455.435 98.0176 455.126 96.2168C454.766 94.4159 454.406 92.7695 453.943 91.2774V90.8657H477.659V91.2774C477.247 92.6666 476.887 94.2617 476.527 96.1654C476.167 98.0177 475.858 100.282 475.601 102.854C475.344 105.427 475.138 108.463 474.983 111.91C474.881 115.357 474.778 119.371 474.778 123.898V128.015H474.881Z" fill="url(#paint2_linear_58_12524)"/>
<path d="M501.22 144.222C501.632 142.833 501.992 141.135 502.301 139.077C502.609 137.019 502.918 134.498 503.175 131.462C503.432 128.426 503.638 124.825 503.741 120.657C503.895 116.489 503.947 111.601 503.947 105.993V41.6769C503.947 36.0685 503.895 31.1805 503.741 27.0128C503.587 22.8451 503.432 19.1921 503.175 16.1563C502.918 13.0692 502.609 10.5479 502.301 8.48979C501.992 6.43168 501.632 4.73374 501.22 3.34451V2.93286H524.833V3.34451C524.422 4.73374 524.061 6.43168 523.701 8.48979C523.341 10.5479 523.033 13.0692 522.827 16.1563C522.621 19.1921 522.415 22.8451 522.261 27.0128C522.107 31.1805 522.004 36.0685 522.004 41.6769V105.993C522.004 111.601 522.107 116.489 522.261 120.657C522.415 124.825 522.621 128.426 522.827 131.462C523.084 134.498 523.341 137.019 523.701 139.077C524.061 141.135 524.422 142.833 524.833 144.222V144.634H501.22V144.222Z" fill="url(#paint3_linear_58_12524)"/>
<path d="M668.568 24.6972L667.693 25.1089C662.549 20.3752 656.376 16.5677 649.173 13.7378C641.971 10.9079 634.049 9.46728 625.406 9.46728C617.124 9.46728 609.51 10.7535 602.565 13.3776C595.671 15.9503 589.704 19.7578 584.714 24.6972C579.724 29.6367 575.865 35.7082 573.087 42.8601C570.309 50.0635 568.921 58.1931 568.921 67.3517C568.921 77.4365 570.258 86.8523 572.882 95.5478C575.505 104.243 579.415 111.858 584.662 118.239C589.858 124.619 596.34 129.661 604.16 133.314C611.979 136.967 621.085 138.82 631.477 138.82C635.232 138.82 638.987 138.408 642.743 137.636C646.498 136.864 650.099 135.681 653.546 134.137C656.993 132.594 660.285 130.69 663.32 128.529C666.407 126.317 669.185 123.795 671.654 120.966L672.735 121.634L664.812 141.804C659.874 143.708 654.421 145.2 648.453 146.177C642.486 147.207 636.467 147.721 630.448 147.721C618.255 147.721 607.143 145.972 597.009 142.421C586.874 138.923 578.18 133.88 570.927 127.449C563.673 121.017 557.963 113.248 553.95 104.192C549.886 95.1362 547.88 85.0515 547.88 73.9891C547.88 67.7118 548.703 61.589 550.298 55.5176C551.892 49.4461 554.259 43.6834 557.346 38.2294C560.432 32.7754 564.239 27.733 568.818 23.1537C573.345 18.5744 578.541 14.6126 584.354 11.2681C590.167 7.9237 596.597 5.29958 603.594 3.39582C610.59 1.54352 618.204 0.565918 626.384 0.565918C639.09 0.565918 650.871 2.52115 661.726 6.38011L668.568 24.6972Z" fill="url(#paint4_linear_58_12524)"/>
<defs>
<linearGradient id="paint0_linear_58_12524" x1="-0.00385831" y1="73.8356" x2="1405.73" y2="73.8356" gradientUnits="userSpaceOnUse">
<stop stop-color="#F9F4BF"/>
<stop offset="0.2279" stop-color="#BA9B57"/>
<stop offset="0.414" stop-color="#F9C46E"/>
<stop offset="0.586" stop-color="#F0B963"/>
<stop offset="0.7721" stop-color="#F9F3BB"/>
<stop offset="1" stop-color="#C1A059"/>
</linearGradient>
<linearGradient id="paint1_linear_58_12524" x1="-0.00404239" y1="73.8356" x2="1405.73" y2="73.8356" gradientUnits="userSpaceOnUse">
<stop stop-color="#F9F4BF"/>
<stop offset="0.2279" stop-color="#BA9B57"/>
<stop offset="0.414" stop-color="#F9C46E"/>
<stop offset="0.586" stop-color="#F0B963"/>
<stop offset="0.7721" stop-color="#F9F3BB"/>
<stop offset="1" stop-color="#C1A059"/>
</linearGradient>
<linearGradient id="paint2_linear_58_12524" x1="-0.00388391" y1="73.8356" x2="1405.73" y2="73.8356" gradientUnits="userSpaceOnUse">
<stop stop-color="#F9F4BF"/>
<stop offset="0.2279" stop-color="#BA9B57"/>
<stop offset="0.414" stop-color="#F9C46E"/>
<stop offset="0.586" stop-color="#F0B963"/>
<stop offset="0.7721" stop-color="#F9F3BB"/>
<stop offset="1" stop-color="#C1A059"/>
</linearGradient>
<linearGradient id="paint3_linear_58_12524" x1="-0.00397114" y1="73.8357" x2="1405.73" y2="73.8357" gradientUnits="userSpaceOnUse">
<stop stop-color="#F9F4BF"/>
<stop offset="0.2279" stop-color="#BA9B57"/>
<stop offset="0.414" stop-color="#F9C46E"/>
<stop offset="0.586" stop-color="#F0B963"/>
<stop offset="0.7721" stop-color="#F9F3BB"/>
<stop offset="1" stop-color="#C1A059"/>
</linearGradient>
<linearGradient id="paint4_linear_58_12524" x1="-0.00399706" y1="73.8355" x2="1405.73" y2="73.8355" gradientUnits="userSpaceOnUse">
<stop stop-color="#F9F4BF"/>
<stop offset="0.2279" stop-color="#BA9B57"/>
<stop offset="0.414" stop-color="#F9C46E"/>
<stop offset="0.586" stop-color="#F0B963"/>
<stop offset="0.7721" stop-color="#F9F3BB"/>
<stop offset="1" stop-color="#C1A059"/>
</linearGradient>
</defs>
</svg>
