<svg width="83" height="70" viewBox="0 0 83 70" fill="none" xmlns="http://www.w3.org/2000/svg">
<path d="M22.5791 47.7656C23.0472 46.7066 23.6088 45.6916 24.2574 44.7324C25.3289 43.1378 26.7719 41.8271 28.4623 40.9132C30.8218 39.5947 33.3485 39.4585 35.9557 39.8671C38.1983 40.2413 40.2351 41.3996 41.7027 43.1354C42.1919 43.674 42.6502 44.2372 43.1518 44.7634C43.3151 44.9316 43.4175 45.1494 43.4429 45.3824C39.7891 43.5254 36.0114 42.764 31.9861 43.5873C33.4481 43.4837 34.9173 43.5669 36.3582 43.8349C38.8241 44.2997 41.1719 45.2531 43.2633 46.639C43.9631 47.097 43.9817 47.258 43.4305 47.877C41.5726 49.9259 39.2132 50.6996 36.5069 50.6377C34.7122 50.5394 32.9548 50.0871 31.3358 49.3069C28.7691 48.1895 25.9743 47.6952 23.1798 47.8646H22.7525C22.6912 47.8381 22.633 47.8049 22.5791 47.7656Z" fill="white"/>
<path d="M16.535 22.3425C16.2747 23.5025 16.1172 24.6832 16.0643 25.8708C15.9748 27.8389 16.3637 29.7992 17.1976 31.5842C18.3309 34.0974 20.3312 35.7749 22.7279 37.0129C24.8059 38.0686 27.1911 38.3537 29.4595 37.8176C30.1841 37.6752 30.9087 37.4895 31.6456 37.3595C31.8809 37.3286 32.099 37.2196 32.2649 37.05C28.1157 36.3629 24.5362 34.6731 21.737 31.5409C22.8621 32.5249 24.1113 33.3573 25.4527 34.0169C27.7768 35.1436 30.3044 35.79 32.8842 35.9173C33.7388 35.973 33.8441 35.8554 33.7636 35.0259C33.4849 32.2032 32.011 30.1296 29.7506 28.5264C28.2031 27.5173 26.4708 26.8252 24.6539 26.4898C21.8602 25.8416 19.2589 24.5436 17.0614 22.7016C16.9499 22.6087 16.8323 22.522 16.7146 22.4354C16.6574 22.3996 16.5973 22.3685 16.535 22.3425Z" fill="white"/>
<path d="M51.9268 46.3477C52.2371 47.0491 52.4717 47.7816 52.6266 48.5327C52.8861 49.7801 52.7542 51.0771 52.2489 52.2468C51.5677 53.9366 50.1185 55.1437 48.304 56.1279C46.6644 56.9759 44.8168 57.3388 42.9781 57.174C42.3588 57.174 41.7829 57.0874 41.1822 57.0626C41.0003 57.0624 40.8221 57.0109 40.6682 56.914C43.938 56.1465 46.6505 54.7909 48.6137 52.581C47.7624 53.3062 46.8292 53.9295 45.8331 54.438C44.0187 55.3377 42.0688 55.9337 40.0613 56.2022C39.3801 56.3012 39.2872 56.2393 39.2748 55.707C39.2314 53.8995 40.2285 52.4696 41.8944 51.2811C43.0839 50.4944 44.3992 49.9166 45.7835 49.5727C47.8881 48.9847 49.846 47.9619 51.5305 46.5705C51.611 46.5024 51.6977 46.4405 51.7844 46.3786C51.8305 46.3627 51.8783 46.3523 51.9268 46.3477Z" fill="white"/>
<path d="M25.1371 41.0611C25.1057 41.346 24.9792 41.612 24.7779 41.8163C23.9682 42.0458 23.1105 42.0458 22.3008 41.8163C21.4375 41.57 20.6649 41.0774 20.0776 40.3987C20.592 41.2422 21.3815 41.8828 22.3132 42.2124C23.0181 42.4471 23.7732 42.4878 24.4993 42.33C23.4279 43.5309 21.9664 44.1189 20.703 43.7599C19.4397 43.4009 18.7647 42.1319 18.3374 41.2839C17.694 39.9185 17.4926 38.3865 17.7614 36.9014C18.3613 37.3259 19.0074 37.681 19.6874 37.9599C21.5019 38.6903 22.4061 38.3746 23.8119 39.3031C24.1896 39.5569 25.1991 40.2254 25.1371 41.0611Z" fill="white"/>
<path d="M56.2994 49.9564C56.7342 48.9551 57.3807 48.0598 58.1944 47.3318C58.7315 46.8591 59.3169 46.4441 59.9408 46.0938C60.0089 46.0567 60.1204 46.0257 60.108 45.9329C60.0956 45.84 59.9966 45.84 59.9284 45.8153C59.4933 45.6315 59.0231 45.5457 58.5512 45.5639C58.0792 45.5821 57.617 45.7038 57.1974 45.9205C56.3349 46.376 55.6261 47.0758 55.1599 47.9322C54.4439 49.2069 54.0986 50.6563 54.1629 52.1167C54.1346 52.91 54.2717 53.7005 54.5654 54.438C54.6026 54.5308 54.6211 54.667 54.7202 54.6856C54.8193 54.7041 54.8627 54.5618 54.906 54.4751C55.4659 53.5755 56.3545 52.9294 57.3832 52.6738C58.1584 52.435 58.8858 52.062 59.5321 51.572C60.0302 51.179 60.4358 50.6815 60.7205 50.1146C61.0051 49.5477 61.1618 48.9253 61.1794 48.2913C61.2305 47.7008 61.1326 47.107 60.8945 46.5643C60.7645 46.2919 60.684 46.2671 60.3991 46.3847C59.695 46.6806 59.0329 47.0677 58.4298 47.5361C57.5701 48.1979 56.8467 49.0198 56.2994 49.9564Z" fill="white"/>
<path d="M63.9171 43.896C63.3901 44.2256 62.9402 44.6647 62.598 45.1835C62.3697 45.5233 62.1826 45.889 62.0406 46.2729C62.0406 46.3101 62.0406 46.372 61.9601 46.3782C61.8796 46.3843 61.8982 46.3225 61.8796 46.2853C61.7414 46.0548 61.6548 45.7971 61.626 45.5299C61.5971 45.2627 61.6266 44.9925 61.7124 44.7378C61.8944 44.2163 62.2288 43.7613 62.6723 43.4317C63.3292 42.9188 64.1164 42.5994 64.9451 42.5094C65.3901 42.4236 65.8484 42.4341 66.2889 42.5403C66.3447 42.5403 66.419 42.5403 66.4376 42.6084C66.4562 42.6765 66.3818 42.6951 66.3385 42.726C65.8801 43.1185 65.5916 43.6731 65.5334 44.2736C65.4621 44.7307 65.3134 45.1724 65.0937 45.5796C64.9148 45.8927 64.6688 46.1622 64.3732 46.3687C64.0777 46.5753 63.74 46.7138 63.3845 46.7743C63.0574 46.8579 62.7145 46.8579 62.3874 46.7743C62.2264 46.7248 62.2016 46.6815 62.245 46.5081C62.3595 46.0888 62.526 45.6854 62.7404 45.3073C63.0366 44.7645 63.4363 44.285 63.9171 43.896Z" fill="white"/>
<path d="M23.8483 9.26952C23.6458 9.85494 23.3182 10.3893 22.8884 10.8356C22.6083 11.1343 22.2969 11.402 21.9595 11.6341C21.9595 11.6341 21.8666 11.6774 21.879 11.7331C21.8914 11.7889 21.9409 11.7827 21.9781 11.795C22.2337 11.879 22.5046 11.9064 22.7719 11.8754C23.0392 11.8444 23.2966 11.7558 23.5263 11.6155C23.9971 11.3185 24.3681 10.8873 24.5915 10.3775C24.9519 9.62726 25.0916 8.79 24.994 7.96342C24.9689 7.51759 24.853 7.08158 24.6534 6.68209C24.6534 6.63256 24.61 6.55829 24.5543 6.55209C24.4986 6.5459 24.48 6.62637 24.4614 6.67589C24.1816 7.21303 23.7008 7.61793 23.1237 7.80248C22.6995 7.96383 22.3058 8.19618 21.9595 8.48957C21.6938 8.72869 21.4843 9.02367 21.3462 9.35331C21.2081 9.68295 21.1447 10.0391 21.1606 10.3961C21.1546 10.7329 21.2356 11.0655 21.3959 11.3617C21.4764 11.5103 21.526 11.5227 21.6808 11.4422C22.0673 11.2405 22.4254 10.9887 22.746 10.6932C23.2038 10.296 23.5784 9.81212 23.8483 9.26952Z" fill="white"/>
<path d="M38.4701 53.4722C38.4701 53.6084 38.1543 53.6394 38.0614 53.6518C37.1015 53.7879 36.6494 54.345 34.5872 54.7226C33.7591 54.912 32.909 54.987 32.0605 54.9455C30.5274 54.8004 29.0815 54.1668 27.936 53.138C29.6943 52.6443 31.544 52.5701 33.3362 52.9213C32.2406 52.565 31.0947 52.3873 29.9425 52.3952C29.1754 52.4007 28.4112 52.4899 27.6636 52.6614C27.3911 51.6091 27.6202 51.1015 27.806 50.8477C28.4748 49.9316 30.6671 50.0615 34.7792 51.3491C36.0194 51.6953 37.1748 52.2937 38.1729 53.107C38.2967 53.2185 38.5011 53.3484 38.4701 53.4722Z" fill="white"/>
<path d="M29.1503 7.44256C28.7367 8.67278 28.6076 9.9807 28.7725 11.268C28.8661 12.1315 29.0744 12.9788 29.3918 13.7873C29.5157 14.0906 29.3918 14.1092 29.1503 14.0597C28.37 13.8879 27.6738 13.4502 27.181 12.8217C26.4074 11.9873 25.9078 10.9363 25.7495 9.80978C25.5912 8.68328 25.7817 7.53533 26.2954 6.52024C27.1396 4.67779 28.5183 3.13148 30.2526 2.08199C30.6737 1.80963 30.779 1.84058 30.8409 2.23055C31.1419 3.771 31.6987 5.25022 32.4883 6.6069C33.1289 7.68774 33.4469 8.92916 33.4048 10.1847C33.391 11.0922 33.0992 11.9737 32.5688 12.7103C32.0306 13.3855 31.2798 13.8588 30.4384 14.0535C30.2464 14.0968 30.1845 14.004 30.1164 13.8554C29.1146 11.9301 28.7772 9.7279 29.1565 7.59112C29.1576 7.54152 29.1556 7.49189 29.1503 7.44256Z" fill="white"/>
<path d="M37.7889 3.01112C37.1422 3.7098 36.3492 4.25722 35.4665 4.61434C34.8729 4.86508 34.2479 5.03376 33.6087 5.11573C33.3672 5.14668 33.4105 5.23334 33.5158 5.36333C33.9139 5.79904 34.4494 6.08523 35.033 6.17423C35.8406 6.36612 36.6874 6.3085 37.4614 6.00897C38.2355 5.70943 38.9003 5.18211 39.3681 4.49673C40.2438 3.29352 40.7379 1.85514 40.7862 0.367979C40.7862 0.00276749 40.7862 -0.0591319 40.4766 0.0460986C39.3847 0.409304 38.2397 0.587147 37.0891 0.57225C36.1653 0.553227 35.2551 0.795717 34.4633 1.27172C33.8875 1.61056 33.4277 2.11547 33.1442 2.72019C32.9038 3.31084 32.8711 3.96553 33.0513 4.5772C33.0947 4.71957 33.1752 4.71957 33.299 4.71957C34.8836 4.65615 36.4047 4.08055 37.6341 3.07921C37.6794 3.04431 37.7325 3.02094 37.7889 3.01112Z" fill="white"/>
<path d="M25.3103 19.6312C24.5474 18.0635 23.4453 16.6849 22.0838 15.5953C21.1819 14.8443 20.1818 14.2195 19.1112 13.7383C18.7087 13.5526 18.8202 13.4164 19.1112 13.2492C20.0384 12.6853 21.1348 12.4661 22.2077 12.6302C25.5456 12.9459 27.7813 14.7101 28.9641 17.8484C29.8633 20.4332 29.9626 23.2288 29.249 25.8707C29.1004 26.5269 28.9641 26.5949 28.5368 26.2731C26.8125 25.0598 24.8972 24.1434 22.8703 23.5618C21.2379 23.1165 19.7676 22.212 18.6344 20.9558C17.8003 20.0638 17.258 18.9388 17.08 17.7308C16.9691 16.5749 17.2553 15.4157 17.8913 14.4439C18.0337 14.2149 18.1823 14.252 18.3867 14.3263C21.1632 15.2556 23.5569 17.0718 25.1988 19.495C25.2327 19.543 25.27 19.5885 25.3103 19.6312Z" fill="white"/>
<path d="M22.5791 47.7656C23.0472 46.7066 23.6088 45.6916 24.2574 44.7324C25.3289 43.1378 26.7719 41.8271 28.4623 40.9132C30.8218 39.5947 33.3485 39.4585 35.9557 39.8671C38.1983 40.2413 40.2351 41.3996 41.7027 43.1354C42.1919 43.674 42.6502 44.2372 43.1518 44.7634C43.3151 44.9316 43.4175 45.1494 43.4429 45.3824C39.7891 43.5254 36.0114 42.764 31.9861 43.5873C33.4481 43.4837 34.9173 43.5669 36.3582 43.8349C38.8241 44.2997 41.1719 45.2531 43.2633 46.639C43.9631 47.097 43.9817 47.258 43.4305 47.877C41.5726 49.9259 39.2132 50.6996 36.5069 50.6377C34.7122 50.5394 32.9548 50.0871 31.3358 49.3069C28.7691 48.1895 25.9743 47.6952 23.1798 47.8646H22.7525C22.6912 47.8381 22.633 47.8049 22.5791 47.7656Z" fill="white"/>
<path d="M16.535 22.3425C16.2747 23.5025 16.1172 24.6832 16.0643 25.8708C15.9748 27.8389 16.3637 29.7992 17.1976 31.5842C18.3309 34.0974 20.3312 35.7749 22.7279 37.0129C24.8059 38.0686 27.1911 38.3537 29.4595 37.8176C30.1841 37.6752 30.9087 37.4895 31.6456 37.3595C31.8809 37.3286 32.099 37.2196 32.2649 37.05C28.1157 36.3629 24.5362 34.6731 21.737 31.5409C22.8621 32.5249 24.1113 33.3573 25.4527 34.0169C27.7768 35.1436 30.3044 35.79 32.8842 35.9173C33.7388 35.973 33.8441 35.8554 33.7636 35.0259C33.4849 32.2032 32.011 30.1296 29.7506 28.5264C28.2031 27.5173 26.4708 26.8252 24.6539 26.4898C21.8602 25.8416 19.2589 24.5436 17.0614 22.7016C16.9499 22.6087 16.8323 22.522 16.7146 22.4354C16.6574 22.3996 16.5973 22.3685 16.535 22.3425Z" fill="white"/>
<path d="M51.9268 46.3477C52.2371 47.0491 52.4717 47.7816 52.6266 48.5327C52.8861 49.7801 52.7542 51.0771 52.2489 52.2468C51.5677 53.9366 50.1185 55.1437 48.304 56.1279C46.6644 56.9759 44.8168 57.3388 42.9781 57.174C42.3588 57.174 41.7829 57.0874 41.1822 57.0626C41.0003 57.0624 40.8221 57.0109 40.6682 56.914C43.938 56.1465 46.6505 54.7909 48.6137 52.581C47.7624 53.3062 46.8292 53.9295 45.8331 54.438C44.0187 55.3377 42.0688 55.9337 40.0613 56.2022C39.3801 56.3012 39.2872 56.2393 39.2748 55.707C39.2314 53.8995 40.2285 52.4696 41.8944 51.2811C43.0839 50.4944 44.3992 49.9166 45.7835 49.5727C47.8881 48.9847 49.846 47.9619 51.5305 46.5705C51.611 46.5024 51.6977 46.4405 51.7844 46.3786C51.8305 46.3627 51.8783 46.3523 51.9268 46.3477Z" fill="white"/>
<path d="M25.1371 41.0611C25.1057 41.346 24.9792 41.612 24.7779 41.8163C23.9682 42.0458 23.1105 42.0458 22.3008 41.8163C21.4375 41.57 20.6649 41.0774 20.0776 40.3987C20.592 41.2422 21.3815 41.8828 22.3132 42.2124C23.0181 42.4471 23.7732 42.4878 24.4993 42.33C23.4279 43.5309 21.9664 44.1189 20.703 43.7599C19.4397 43.4009 18.7647 42.1319 18.3374 41.2839C17.694 39.9185 17.4926 38.3865 17.7614 36.9014C18.3613 37.3259 19.0074 37.681 19.6874 37.9599C21.5019 38.6903 22.4061 38.3746 23.8119 39.3031C24.1896 39.5569 25.1991 40.2254 25.1371 41.0611Z" fill="white"/>
<path d="M56.2994 49.9564C56.7342 48.9551 57.3807 48.0598 58.1944 47.3318C58.7315 46.8591 59.3169 46.4441 59.9408 46.0938C60.0089 46.0567 60.1204 46.0257 60.108 45.9329C60.0956 45.84 59.9966 45.84 59.9284 45.8153C59.4933 45.6315 59.0231 45.5457 58.5512 45.5639C58.0792 45.5821 57.617 45.7038 57.1974 45.9205C56.3349 46.376 55.6261 47.0758 55.1599 47.9322C54.4439 49.2069 54.0986 50.6563 54.1629 52.1167C54.1346 52.91 54.2717 53.7005 54.5654 54.438C54.6026 54.5308 54.6211 54.667 54.7202 54.6856C54.8193 54.7041 54.8627 54.5618 54.906 54.4751C55.4659 53.5755 56.3545 52.9294 57.3832 52.6738C58.1584 52.435 58.8858 52.062 59.5321 51.572C60.0302 51.179 60.4358 50.6815 60.7205 50.1146C61.0051 49.5477 61.1618 48.9253 61.1794 48.2913C61.2305 47.7008 61.1326 47.107 60.8945 46.5643C60.7645 46.2919 60.684 46.2671 60.3991 46.3847C59.695 46.6806 59.0329 47.0677 58.4298 47.5361C57.5701 48.1979 56.8467 49.0198 56.2994 49.9564Z" fill="white"/>
<path d="M63.9171 43.896C63.3901 44.2256 62.9402 44.6647 62.598 45.1835C62.3697 45.5233 62.1826 45.889 62.0406 46.2729C62.0406 46.3101 62.0406 46.372 61.9601 46.3782C61.8796 46.3843 61.8982 46.3225 61.8796 46.2853C61.7414 46.0548 61.6548 45.7971 61.626 45.5299C61.5971 45.2627 61.6266 44.9925 61.7124 44.7378C61.8944 44.2163 62.2288 43.7613 62.6723 43.4317C63.3292 42.9188 64.1164 42.5994 64.9451 42.5094C65.3901 42.4236 65.8484 42.4341 66.2889 42.5403C66.3447 42.5403 66.419 42.5403 66.4376 42.6084C66.4562 42.6765 66.3818 42.6951 66.3385 42.726C65.8801 43.1185 65.5916 43.6731 65.5334 44.2736C65.4621 44.7307 65.3134 45.1724 65.0937 45.5796C64.9148 45.8927 64.6688 46.1622 64.3732 46.3687C64.0777 46.5753 63.74 46.7138 63.3845 46.7743C63.0574 46.8579 62.7145 46.8579 62.3874 46.7743C62.2264 46.7248 62.2016 46.6815 62.245 46.5081C62.3595 46.0888 62.526 45.6854 62.7404 45.3073C63.0366 44.7645 63.4363 44.285 63.9171 43.896Z" fill="white"/>
<path d="M23.8483 9.26952C23.6458 9.85494 23.3182 10.3893 22.8884 10.8356C22.6083 11.1343 22.2969 11.402 21.9595 11.6341C21.9595 11.6341 21.8666 11.6774 21.879 11.7331C21.8914 11.7889 21.9409 11.7827 21.9781 11.795C22.2337 11.879 22.5046 11.9064 22.7719 11.8754C23.0392 11.8444 23.2966 11.7558 23.5263 11.6155C23.9971 11.3185 24.3681 10.8873 24.5915 10.3775C24.9519 9.62726 25.0916 8.79 24.994 7.96342C24.9689 7.51759 24.853 7.08158 24.6534 6.68209C24.6534 6.63256 24.61 6.55829 24.5543 6.55209C24.4986 6.5459 24.48 6.62637 24.4614 6.67589C24.1816 7.21303 23.7008 7.61793 23.1237 7.80248C22.6995 7.96383 22.3058 8.19618 21.9595 8.48957C21.6938 8.72869 21.4843 9.02367 21.3462 9.35331C21.2081 9.68295 21.1447 10.0391 21.1606 10.3961C21.1546 10.7329 21.2356 11.0655 21.3959 11.3617C21.4764 11.5103 21.526 11.5227 21.6808 11.4422C22.0673 11.2405 22.4254 10.9887 22.746 10.6932C23.2038 10.296 23.5784 9.81212 23.8483 9.26952Z" fill="white"/>
<path d="M38.4701 53.4722C38.4701 53.6084 38.1543 53.6394 38.0614 53.6518C37.1015 53.7879 36.6494 54.345 34.5872 54.7226C33.7591 54.912 32.909 54.987 32.0605 54.9455C30.5274 54.8004 29.0815 54.1668 27.936 53.138C29.6943 52.6443 31.544 52.5701 33.3362 52.9213C32.2406 52.565 31.0947 52.3873 29.9425 52.3952C29.1754 52.4007 28.4112 52.4899 27.6636 52.6614C27.3911 51.6091 27.6202 51.1015 27.806 50.8477C28.4748 49.9316 30.6671 50.0615 34.7792 51.3491C36.0194 51.6953 37.1748 52.2937 38.1729 53.107C38.2967 53.2185 38.5011 53.3484 38.4701 53.4722Z" fill="white"/>
<path d="M29.1503 7.44256C28.7367 8.67278 28.6076 9.9807 28.7725 11.268C28.8661 12.1315 29.0744 12.9788 29.3918 13.7873C29.5157 14.0906 29.3918 14.1092 29.1503 14.0597C28.37 13.8879 27.6738 13.4502 27.181 12.8217C26.4074 11.9873 25.9078 10.9363 25.7495 9.80978C25.5912 8.68328 25.7817 7.53533 26.2954 6.52024C27.1396 4.67779 28.5183 3.13148 30.2526 2.08199C30.6737 1.80963 30.779 1.84058 30.8409 2.23055C31.1419 3.771 31.6987 5.25022 32.4883 6.6069C33.1289 7.68774 33.4469 8.92916 33.4048 10.1847C33.391 11.0922 33.0992 11.9737 32.5688 12.7103C32.0306 13.3855 31.2798 13.8588 30.4384 14.0535C30.2464 14.0968 30.1845 14.004 30.1164 13.8554C29.1146 11.9301 28.7772 9.7279 29.1565 7.59112C29.1576 7.54152 29.1556 7.49189 29.1503 7.44256Z" fill="white"/>
<path d="M37.7889 3.01112C37.1422 3.7098 36.3492 4.25722 35.4665 4.61434C34.8729 4.86508 34.2479 5.03376 33.6087 5.11573C33.3672 5.14668 33.4105 5.23334 33.5158 5.36333C33.9139 5.79904 34.4494 6.08523 35.033 6.17423C35.8406 6.36612 36.6874 6.3085 37.4614 6.00897C38.2355 5.70943 38.9003 5.18211 39.3681 4.49673C40.2438 3.29352 40.7379 1.85514 40.7862 0.367979C40.7862 0.00276749 40.7862 -0.0591319 40.4766 0.0460986C39.3847 0.409304 38.2397 0.587147 37.0891 0.57225C36.1653 0.553227 35.2551 0.795717 34.4633 1.27172C33.8875 1.61056 33.4277 2.11547 33.1442 2.72019C32.9038 3.31084 32.8711 3.96553 33.0513 4.5772C33.0947 4.71957 33.1752 4.71957 33.299 4.71957C34.8836 4.65615 36.4047 4.08055 37.6341 3.07921C37.6794 3.04431 37.7325 3.02094 37.7889 3.01112Z" fill="white"/>
<path d="M25.3103 19.6312C24.5474 18.0635 23.4453 16.6849 22.0838 15.5953C21.1819 14.8443 20.1818 14.2195 19.1112 13.7383C18.7087 13.5526 18.8202 13.4164 19.1112 13.2492C20.0384 12.6853 21.1348 12.4661 22.2077 12.6302C25.5456 12.9459 27.7813 14.7101 28.9641 17.8484C29.8633 20.4332 29.9626 23.2288 29.249 25.8707C29.1004 26.5269 28.9641 26.5949 28.5368 26.2731C26.8125 25.0598 24.8972 24.1434 22.8703 23.5618C21.2379 23.1165 19.7676 22.212 18.6344 20.9558C17.8003 20.0638 17.258 18.9388 17.08 17.7308C16.9691 16.5749 17.2553 15.4157 17.8913 14.4439C18.0337 14.2149 18.1823 14.252 18.3867 14.3263C21.1632 15.2556 23.5569 17.0718 25.1988 19.495C25.2327 19.543 25.27 19.5885 25.3103 19.6312Z" fill="white"/>
<path d="M0 69.8194C0.0371572 69.7575 0.0867 69.6646 0.142436 69.547C0.205265 69.3984 0.248964 69.2424 0.272486 69.0828C0.315836 68.8166 0.359186 68.5133 0.414921 68.1728C0.470657 67.8324 0.5202 67.4795 0.575936 67.1081C0.631672 66.7367 0.687408 66.3591 0.743144 65.9692C0.79888 65.5792 0.854616 65.2016 0.904159 64.824C0.953702 64.4464 1.00944 64.0812 1.05898 63.7346C1.10852 63.3879 1.14568 63.066 1.18903 62.7751C1.23238 62.4842 1.25715 62.2304 1.28192 62.0199L1.33766 61.5371H2.07461L5.72222 68.3461L9.33885 61.5371H9.89002L10.8128 68.3957C10.8437 68.6123 10.8685 68.798 10.8995 68.9528C10.9304 69.1075 10.9614 69.2375 10.9924 69.3489C11.0176 69.4416 11.0486 69.5325 11.0852 69.6213C11.1073 69.6812 11.1342 69.7392 11.1658 69.7946H9.72901C9.75694 69.7294 9.77569 69.6607 9.78474 69.5903C9.79558 69.473 9.79558 69.3549 9.78474 69.2375C9.78474 69.188 9.78474 69.1385 9.78474 69.0889V68.9156L9.04779 63.3446L5.63552 69.8194L5.23298 69.776L1.78974 63.3322C1.6535 64.2483 1.53583 65.0902 1.43675 65.8701L1.3067 66.8605C1.26128 67.1948 1.22412 67.5043 1.19522 67.789C1.19522 68.0738 1.1333 68.3276 1.11472 68.5442C1.09614 68.7609 1.11472 68.9218 1.11472 69.027C1.11472 69.1323 1.11472 69.2746 1.11472 69.3737C1.11472 69.4727 1.11472 69.5594 1.11472 69.6275C1.11472 69.6956 1.11472 69.7822 1.15187 69.8441H0V69.8194Z" fill="white"/>
<path d="M18.2443 69.8205C18.2493 69.7918 18.2493 69.7625 18.2443 69.7339C18.2473 69.6988 18.2473 69.6636 18.2443 69.6286C18.2633 69.4869 18.2633 69.3432 18.2443 69.2015C18.1991 69.0167 18.1369 68.8364 18.0585 68.663L17.3587 67.0845H16.4917H14.4171H13.6492L12.9866 68.6135C12.9246 68.7558 12.8627 68.9168 12.8008 69.0839C12.7351 69.2472 12.7015 69.4217 12.7017 69.5977C12.6981 69.6409 12.6981 69.6844 12.7017 69.7277V69.7896H11.5498C11.6538 69.6719 11.7413 69.5408 11.8099 69.3996C11.9377 69.1705 12.0534 68.935 12.1567 68.6939L15.4761 61.334H15.9406L19.0865 68.4154C19.1608 68.5763 19.2352 68.7373 19.3157 68.8982L19.5386 69.3191L19.7244 69.6286C19.7578 69.6848 19.795 69.7385 19.8359 69.7896L18.2443 69.8205ZM14.4852 66.5831H17.0862L15.4575 62.9063L13.8597 66.6203L14.4852 66.5831Z" fill="white"/>
<path d="M27.8678 68.8488C27.8738 68.8919 27.8738 68.9356 27.8678 68.9788C27.8614 69.0254 27.8369 69.0676 27.7997 69.0964C27.6209 69.2316 27.4325 69.3536 27.2361 69.4616C27.0246 69.5725 26.8052 69.6676 26.5797 69.7463C26.3316 69.8299 26.0767 69.8921 25.8179 69.932C25.5271 69.9779 25.233 70.0007 24.9386 70.0001C24.2836 70.007 23.6323 69.9024 23.0126 69.6906C22.4613 69.5002 21.9539 69.2013 21.5201 68.8116C21.1035 68.4327 20.7739 67.9682 20.554 67.4498C20.3202 66.8893 20.2042 66.2867 20.2134 65.6795C20.2153 64.9437 20.4072 64.2209 20.7708 63.5811C20.9518 63.2549 21.1791 62.9568 21.4458 62.6959C21.7177 62.4244 22.0237 62.1893 22.3561 61.9964C22.7103 61.7953 23.0892 61.6413 23.4832 61.5384C23.9198 61.4242 24.3696 61.368 24.8209 61.3712C25.0067 61.3712 25.1987 61.3712 25.3906 61.3712C25.5826 61.3712 25.7746 61.4146 25.9666 61.4517C26.1503 61.4807 26.3322 61.52 26.5115 61.5693C26.6815 61.6117 26.8489 61.6634 27.0132 61.7241L27.4095 62.7949H27.36C27.2002 62.6514 27.0258 62.5248 26.8398 62.4173C26.6419 62.2996 26.4348 62.1982 26.2205 62.114C25.9904 62.0305 25.7544 61.9643 25.5145 61.916C25.2699 61.8663 25.0209 61.8414 24.7714 61.8417C24.3154 61.8379 23.8624 61.9154 23.4337 62.0707C23.0373 62.2172 22.6774 62.4481 22.3791 62.7474C22.0807 63.0466 21.851 63.4071 21.7059 63.8039C21.5357 64.2633 21.4518 64.7502 21.4582 65.24C21.4547 65.7975 21.534 66.3524 21.6935 66.8865C21.834 67.3649 22.0676 67.8109 22.3809 68.1988C22.6918 68.5727 23.0835 68.8711 23.5266 69.0716C24.032 69.2918 24.5793 69.3996 25.1305 69.3873C25.3735 69.3909 25.6163 69.3702 25.8551 69.3254C26.0394 69.289 26.2198 69.2351 26.3939 69.1645C26.5174 69.1183 26.6309 69.049 26.7283 68.9602C26.79 68.9061 26.8297 68.8312 26.8398 68.7497V68.5826C26.8398 68.3102 26.8398 68.075 26.8398 67.8831C26.8398 67.6912 26.8398 67.5117 26.8398 67.3694C26.8398 67.227 26.8026 67.097 26.784 66.9918C26.7655 66.8865 26.7407 66.7937 26.7159 66.7008H28.1093C28.0809 66.7964 28.0582 66.8935 28.0412 66.9918C28.0412 67.1032 28.0226 67.2332 27.9855 67.3817C27.9855 67.5303 27.9855 67.7098 27.9483 67.9141C27.9111 68.1184 27.9483 68.3474 27.9483 68.6136L27.8678 68.8488Z" fill="white"/>
<path d="M29.3916 69.8193C29.4213 69.722 29.4441 69.6227 29.4597 69.5222C29.4597 69.3984 29.4969 69.2498 29.5093 69.0765C29.5217 68.9032 29.5093 68.6866 29.5464 68.4575C29.5836 68.2285 29.5464 67.9252 29.5464 67.5971V63.8274C29.5464 63.4993 29.5464 63.2084 29.5464 62.967C29.5464 62.7255 29.5464 62.5089 29.5093 62.348C29.4721 62.187 29.5093 62.0137 29.4597 61.8961C29.444 61.7935 29.4212 61.6922 29.3916 61.5928H30.7788C30.7788 61.6732 30.7355 61.7785 30.7107 61.8961C30.6859 62.0137 30.6735 62.1684 30.6611 62.348C30.6488 62.5275 30.6611 62.7379 30.624 62.967C30.5868 63.196 30.624 63.4993 30.624 63.8274V67.5971C30.624 67.9252 30.624 68.2161 30.624 68.4575C30.624 68.6989 30.624 68.9156 30.6611 69.0765C30.6983 69.2375 30.6611 69.3984 30.7107 69.5222C30.7602 69.646 30.754 69.7389 30.7788 69.8193H29.3916Z" fill="white"/>
<path d="M39.2316 62.7878H39.182C38.865 62.4987 38.4948 62.2738 38.0921 62.1255C37.6482 61.9524 37.1752 61.8662 36.6987 61.8717C36.2428 61.8686 35.7899 61.9461 35.361 62.1007C34.9646 62.2472 34.6048 62.4781 34.3064 62.7774C34.0081 63.0767 33.7784 63.4372 33.6332 63.8339C33.4653 64.2938 33.3835 64.7806 33.3917 65.27C33.3862 65.8292 33.4634 66.3861 33.6208 66.9228C33.76 67.4073 33.9936 67.8596 34.3083 68.2536C34.6186 68.6312 35.0102 68.9337 35.4539 69.1388C35.958 69.3638 36.5059 69.4738 37.0579 69.4607C37.2804 69.4595 37.5024 69.4367 37.7205 69.3926C37.9339 69.345 38.1416 69.2744 38.3398 69.1821C38.5435 69.0948 38.7367 68.9847 38.9157 68.854C39.0946 68.7238 39.2587 68.5743 39.405 68.4084L39.4669 68.4517L39.0086 69.634C38.6976 69.7506 38.3762 69.8376 38.0487 69.894C37.6986 69.9504 37.3445 69.9793 36.9898 69.9806C36.3227 69.9875 35.6592 69.8829 35.0266 69.6711C34.4635 69.4823 33.9436 69.1835 33.497 68.7921C33.0692 68.4164 32.7289 67.9516 32.4999 67.4303C32.2304 66.8143 32.108 66.1441 32.1424 65.4726C32.1768 64.8011 32.367 64.1468 32.6981 63.5616C32.8812 63.2368 33.1084 62.9389 33.3731 62.6764C33.6451 62.4049 33.9511 62.1698 34.2835 61.9769C34.6393 61.7747 35.0204 61.6207 35.4168 61.5189C35.8512 61.4043 36.299 61.3481 36.7482 61.3517C37.4561 61.3469 38.1597 61.4621 38.829 61.6922L39.2316 62.7878Z" fill="white"/>
<path d="M43.6904 69.8194C43.747 69.7326 43.7967 69.6415 43.8391 69.547C43.8967 69.3971 43.9383 69.2415 43.9629 69.0828C44.0063 68.8166 44.0558 68.5133 44.1054 68.1728C44.1549 67.8324 44.2106 67.4795 44.2664 67.1081C44.3221 66.7367 44.3778 66.3591 44.4336 65.9692C44.4893 65.5792 44.545 65.2016 44.6008 64.824C44.6565 64.4464 44.6999 64.0812 44.7494 63.7346C44.799 63.3879 44.8423 63.066 44.8795 62.7751C44.9166 62.4842 44.9476 62.2304 44.9724 62.0199C44.9971 61.8095 45.0157 61.6423 45.0281 61.5371H45.765L49.4126 68.3461L53.0293 61.5371H53.5805L54.5342 68.4204C54.5342 68.6371 54.5899 68.8228 54.6209 68.9775C54.6518 69.1323 54.6828 69.2623 54.7137 69.3737C54.7372 69.4661 54.7662 69.5571 54.8004 69.646C54.8243 69.7062 54.8533 69.7642 54.8871 69.8194H53.4256C53.4507 69.7532 53.4693 69.6848 53.4814 69.6151C53.4919 69.4977 53.4919 69.3796 53.4814 69.2623C53.4845 69.2128 53.4845 69.1632 53.4814 69.1137V68.9404L52.7444 63.3694L49.3259 69.8194L48.9234 69.776L45.4926 63.3075C45.3625 64.2236 45.2448 65.0654 45.1396 65.8454C45.0962 66.1796 45.0591 66.5077 45.0157 66.8358C44.9724 67.1638 44.9352 67.4548 44.898 67.7643C44.8609 68.0738 44.8423 68.3028 44.8237 68.5195C44.8051 68.7361 44.7928 68.897 44.7928 69.0023C44.7928 69.1075 44.7928 69.2499 44.7928 69.3489C44.7879 69.4335 44.7879 69.5182 44.7928 69.6027C44.7928 69.6832 44.7928 69.7575 44.7928 69.8194H43.6904Z" fill="white"/>
<path d="M59.9844 61.3713C60.5933 61.3651 61.1981 61.4722 61.7679 61.687C62.2952 61.8842 62.7774 62.1852 63.1861 62.5722C63.5904 62.96 63.9089 63.4281 64.1212 63.9464C64.3495 64.5062 64.4632 65.1061 64.4556 65.7106C64.4552 66.0752 64.4137 66.4385 64.3318 66.7938C64.2488 67.1447 64.1219 67.4837 63.954 67.8028C63.7876 68.122 63.5793 68.4176 63.3347 68.6818C63.0976 68.9515 62.8222 69.1851 62.5173 69.3751C62.2032 69.5771 61.861 69.7315 61.5016 69.8331C61.1114 69.947 60.7067 70.0033 60.3002 70.0002C59.6899 70.0054 59.0836 69.9006 58.5105 69.6907C57.9832 69.4966 57.5007 69.1976 57.0923 68.8118C56.6909 68.4277 56.3744 67.9638 56.1634 67.45C55.9295 66.8894 55.8136 66.2868 55.8228 65.6796C55.8221 65.3146 55.8658 64.9509 55.9528 64.5964C56.0375 64.2449 56.1622 63.9043 56.3244 63.5812C56.4914 63.2604 56.6996 62.9629 56.9437 62.696C57.4384 62.1392 58.0836 61.7373 58.8015 61.5385C59.1859 61.427 59.5842 61.3707 59.9844 61.3713ZM60.3126 69.4803C60.7169 69.4842 61.1176 69.4041 61.4893 69.2451C61.8407 69.0931 62.1538 68.8647 62.4058 68.5765C62.682 68.2624 62.8925 67.8962 63.0251 67.4995C63.1749 67.0357 63.2481 66.5507 63.2418 66.0634C63.2468 65.5038 63.1781 64.9461 63.0375 64.4045C62.9125 63.9312 62.7027 63.4844 62.4182 63.086C62.1541 62.719 61.8086 62.4182 61.4087 62.207C60.9704 61.9897 60.486 61.8815 59.9968 61.8913C59.5931 61.8877 59.1929 61.9656 58.8201 62.1203C58.4669 62.2723 58.1517 62.5006 57.8974 62.7889C57.6217 63.0987 57.4111 63.4608 57.2781 63.8536C57.13 64.3176 57.0589 64.8027 57.0675 65.2896C57.0644 65.8467 57.131 66.4019 57.2657 66.9424C57.3868 67.4209 57.5969 67.8723 57.885 68.2732C58.1473 68.6434 58.4931 68.9466 58.8944 69.1584C59.3332 69.3814 59.8205 69.492 60.3126 69.4803Z" fill="white"/>
<path d="M69.5523 61.3713C70.1633 61.3654 70.77 61.4724 71.342 61.687C71.8685 61.8857 72.3505 62.1865 72.7602 62.5722C73.1606 62.962 73.4768 63.4297 73.6891 63.9464C73.9223 64.5049 74.0383 65.1054 74.0298 65.7105C74.0304 66.0756 73.9867 66.4393 73.8997 66.7938C73.816 67.1436 73.6913 67.4822 73.5281 67.8028C73.3595 68.1206 73.1514 68.416 72.9088 68.6818C72.6689 68.9487 72.3939 69.1819 72.0914 69.375C71.7752 69.5771 71.4309 69.7315 71.0696 69.8331C70.6795 69.9474 70.2746 70.0037 69.8681 70.0002C69.2598 70.0055 68.6555 69.9006 68.0846 69.6907C67.5565 69.4982 67.0738 69.199 66.6664 68.8117C66.2612 68.4296 65.9423 67.9653 65.7313 67.4499C65.5026 66.8881 65.3888 66.2861 65.3969 65.6796C65.3973 65.315 65.4388 64.9516 65.5207 64.5963C65.6048 64.2438 65.7316 63.9029 65.8985 63.5812C66.0653 63.2603 66.2735 62.9627 66.5178 62.696C67.0118 62.1384 67.6573 61.7363 68.3757 61.5385C68.7579 61.4269 69.1541 61.3707 69.5523 61.3713ZM69.8805 69.4803C70.2849 69.4849 70.6857 69.4048 71.0572 69.2451C71.4104 69.0931 71.7256 68.8648 71.9799 68.5765C72.2538 68.2607 72.4641 67.895 72.5992 67.4995C72.7468 67.0353 72.8179 66.5503 72.8098 66.0634C72.8148 65.5038 72.746 64.9461 72.6054 64.4044C72.4831 63.9302 72.273 63.483 71.9861 63.086C71.7236 62.7176 71.3777 62.4165 70.9767 62.207C70.5745 62.0149 70.1369 61.9081 69.6914 61.8932C69.2459 61.8783 68.8022 61.9556 68.388 62.1203C68.0366 62.2723 67.7235 62.5007 67.4715 62.7888C67.1929 63.0966 66.982 63.4593 66.8522 63.8535C66.702 64.3172 66.6288 64.8023 66.6355 65.2896C66.6312 65.8471 66.6999 66.4027 66.8398 66.9424C66.9607 67.421 67.1708 67.8725 67.4591 68.2732C67.7237 68.6436 68.0716 68.9468 68.4747 69.1584C68.9097 69.3796 69.3926 69.4902 69.8805 69.4803Z" fill="white"/>
<path d="M75.658 61.5127L81.6279 67.8637V63.7844C81.6279 63.4564 81.6279 63.1654 81.6279 62.924C81.6279 62.6826 81.6279 62.466 81.5908 62.305C81.5536 62.1441 81.5598 61.9708 81.5412 61.8531C81.5227 61.7355 81.4979 61.6303 81.4731 61.5498H82.5011C82.5011 61.6303 82.4578 61.7355 82.4392 61.8531C82.4206 61.9708 82.4021 62.1255 82.3897 62.305C82.3773 62.4845 82.3587 62.695 82.3525 62.924C82.3463 63.1531 82.3525 63.4564 82.3525 63.7844V69.9373H82.1481L76.1782 63.5925V67.5542C76.1782 67.8822 76.1782 68.1732 76.1782 68.4146C76.1782 68.656 76.1782 68.8726 76.2154 69.0336C76.2525 69.1945 76.2154 69.3555 76.2649 69.4793C76.3145 69.6031 76.3083 69.6959 76.3268 69.7764H75.2988C75.2988 69.6959 75.3422 69.5969 75.367 69.4793C75.3917 69.3616 75.4041 69.2069 75.4227 69.0336C75.4413 68.8603 75.4227 68.6436 75.4536 68.4146C75.4846 68.1855 75.4536 67.8822 75.4536 67.5542V63.7844C75.4536 63.4564 75.4536 63.1654 75.4536 62.924C75.4536 62.6826 75.4536 62.466 75.4227 62.305C75.3917 62.1441 75.3855 61.9708 75.367 61.8531C75.3484 61.7355 75.3236 61.6303 75.2988 61.5498L75.658 61.5127Z" fill="white"/>
</svg>
