<svg width="699" height="54" viewBox="0 0 699 54" fill="none" xmlns="http://www.w3.org/2000/svg">
<path d="M38.7841 52.7305L38.725 22.5987L23.7773 47.7085H21.0595L6.1118 22.7759V52.7305H0.439932V11.3731H5.28465L22.5366 40.4414L39.5522 11.3731H44.3969L44.456 52.7305H38.7841ZM84.2117 42.3911H62.2332L57.6839 52.7305H51.5984L70.3274 11.3731H76.1765L94.9646 52.7305H88.761L84.2117 42.3911ZM82.1438 37.6646L73.2224 17.3995L64.3011 37.6646H82.1438ZM129.162 16.5132H107.892L107.952 52.7305H102.102V11.3731H129.221L129.162 16.5132ZM136.259 11.3731H142.108V52.7305H136.259V11.3731ZM184.461 11.3731V52.7305H178.612V36.3648C174.24 38.0585 170.203 38.9053 166.5 38.9053C161.459 38.9053 157.54 37.6843 154.743 35.2422C151.986 32.8002 150.607 29.3143 150.607 24.7847V11.3731H156.397V24.1348C156.397 27.2071 157.323 29.5703 159.174 31.2246C161.065 32.8789 163.724 33.7061 167.15 33.7061C170.971 33.7061 174.792 32.8395 178.612 31.1065V11.3731H184.461ZM232.928 11.3731V52.7305H227.02V34.2969H203.269V52.7305H197.361V11.3731H203.269V29.1568H227.02V11.3731H232.928ZM245.826 11.3731H251.675V43.2774L276.135 11.3731H281.571V52.7305H275.781V20.8853L251.262 52.7305H245.826V11.3731ZM294.465 11.3731H300.314V43.2774L324.774 11.3731H330.21V52.7305H324.419V20.8853L299.9 52.7305H294.465V11.3731ZM312.249 8.47809C309.019 8.47809 306.518 7.7888 304.745 6.41022C303.012 4.99226 302.126 2.98347 302.086 0.383865H306.281C306.321 1.91999 306.852 3.12133 307.877 3.98786C308.94 4.81501 310.397 5.22858 312.249 5.22858C314.021 5.22858 315.439 4.81501 316.502 3.98786C317.605 3.12133 318.176 1.91999 318.216 0.383865H322.352C322.312 2.94408 321.406 4.93317 319.634 6.35114C317.901 7.76911 315.439 8.47809 312.249 8.47809ZM377.463 53.2031C373.327 53.2031 369.585 52.2972 366.237 50.4854C362.929 48.6341 360.329 46.1133 358.439 42.9229C356.548 39.6931 355.603 36.0694 355.603 32.0518C355.603 28.0342 356.548 24.4302 358.439 21.2398C360.329 18.01 362.949 15.4891 366.297 13.6773C369.645 11.8261 373.386 10.9005 377.522 10.9005C380.752 10.9005 383.706 11.4519 386.384 12.5547C389.063 13.6182 391.347 15.2134 393.238 17.3404L389.398 21.0625C386.286 17.7933 382.406 16.1587 377.758 16.1587C374.686 16.1587 371.909 16.848 369.428 18.2266C366.946 19.6052 364.997 21.5155 363.579 23.9576C362.2 26.3602 361.511 29.0583 361.511 32.0518C361.511 35.0453 362.2 37.763 363.579 40.2051C364.997 42.6078 366.946 44.4984 369.428 45.877C371.909 47.2555 374.686 47.9448 377.758 47.9448C382.367 47.9448 386.247 46.2905 389.398 42.9819L393.238 46.7041C391.347 48.8311 389.043 50.446 386.325 51.5488C383.647 52.6517 380.693 53.2031 377.463 53.2031ZM427.138 31.2837C429.934 31.9533 432.041 33.1547 433.459 34.8877C434.917 36.5814 435.645 38.7674 435.645 41.4458C435.645 45.0301 434.326 47.807 431.687 49.7764C429.087 51.7458 425.286 52.7305 420.284 52.7305H401.378V11.3731H419.162C423.691 11.3731 427.216 12.2987 429.737 14.15C432.297 15.9618 433.578 18.5811 433.578 22.0079C433.578 24.253 433.006 26.1633 431.864 27.7388C430.761 29.3143 429.186 30.496 427.138 31.2837ZM407.227 29.5703H418.748C421.623 29.5703 423.809 28.9992 425.306 27.857C426.842 26.7147 427.61 25.0407 427.61 22.835C427.61 20.6293 426.842 18.9553 425.306 17.813C423.77 16.6314 421.584 16.0406 418.748 16.0406H407.227V29.5703ZM420.166 48.063C426.507 48.063 429.678 45.6997 429.678 40.9732C429.678 38.6099 428.871 36.8768 427.256 35.774C425.68 34.6317 423.317 34.0606 420.166 34.0606H407.227V48.063H420.166ZM445.516 11.3731H451.365V52.7305H445.516V11.3731ZM492.686 16.5132H478.507V52.7305H472.717V16.5132H458.596V11.3731H492.686V16.5132ZM546.338 11.3731V52.7305H540.489V36.3648C536.117 38.0585 532.08 38.9053 528.377 38.9053C523.336 38.9053 519.416 37.6843 516.62 35.2422C513.863 32.8002 512.484 29.3143 512.484 24.7847V11.3731H518.274V24.1348C518.274 27.2071 519.2 29.5703 521.051 31.2246C522.942 32.8789 525.6 33.7061 529.027 33.7061C532.848 33.7061 536.668 32.8395 540.489 31.1065V11.3731H546.338ZM586.12 42.3911H564.141L559.592 52.7305H553.506L572.235 11.3731H578.085L596.873 52.7305H590.669L586.12 42.3911ZM584.052 37.6646L575.13 17.3995L566.209 37.6646H584.052ZM638.278 10.9005C642.256 10.9005 645.84 11.8261 649.031 13.6773C652.221 15.4891 654.722 18.01 656.534 21.2398C658.386 24.4302 659.311 28.0342 659.311 32.0518C659.311 36.0694 658.386 39.6931 656.534 42.9229C654.722 46.1133 652.221 48.6341 649.031 50.4854C645.84 52.2972 642.256 53.2031 638.278 53.2031C634.575 53.2031 631.208 52.3957 628.175 50.7808C625.142 49.1659 622.68 46.9404 620.79 44.1045C618.899 41.2686 617.777 38.0388 617.422 34.4151H609.86V52.7305H604.01V11.3731H609.86V29.0977H617.481C617.914 25.5922 619.076 22.4608 620.967 19.7037C622.897 16.9465 625.359 14.7999 628.352 13.2637C631.346 11.6882 634.654 10.9005 638.278 10.9005ZM638.278 47.8857C641.114 47.8857 643.674 47.2162 645.959 45.877C648.282 44.4984 650.094 42.6078 651.394 40.2051C652.733 37.8024 653.403 35.0847 653.403 32.0518C653.403 29.0189 652.733 26.3011 651.394 23.8985C650.094 21.4958 648.282 19.6249 645.959 18.2857C643.674 16.9071 641.114 16.2178 638.278 16.2178C635.481 16.2178 632.941 16.9071 630.656 18.2857C628.372 19.6249 626.56 21.4958 625.221 23.8985C623.921 26.3011 623.271 29.0189 623.271 32.0518C623.271 35.0847 623.921 37.8024 625.221 40.2051C626.56 42.6078 628.372 44.4984 630.656 45.877C632.941 47.2162 635.481 47.8857 638.278 47.8857ZM668.061 53.085C666.958 53.085 666.013 52.7108 665.225 51.9624C664.438 51.1746 664.044 50.1899 664.044 49.0083C664.044 47.8661 664.438 46.9207 665.225 46.1724C666.013 45.3846 666.958 44.9907 668.061 44.9907C669.164 44.9907 670.09 45.3649 670.838 46.1133C671.586 46.8617 671.961 47.8267 671.961 49.0083C671.961 50.1899 671.567 51.1746 670.779 51.9624C670.031 52.7108 669.125 53.085 668.061 53.085ZM681.447 53.085C680.344 53.085 679.399 52.7108 678.611 51.9624C677.823 51.1746 677.429 50.1899 677.429 49.0083C677.429 47.8661 677.823 46.9207 678.611 46.1724C679.399 45.3846 680.344 44.9907 681.447 44.9907C682.55 44.9907 683.475 45.3649 684.224 46.1133C684.972 46.8617 685.346 47.8267 685.346 49.0083C685.346 50.1899 684.953 51.1746 684.165 51.9624C683.416 52.7108 682.51 53.085 681.447 53.085ZM694.833 53.085C693.73 53.085 692.785 52.7108 691.997 51.9624C691.209 51.1746 690.815 50.1899 690.815 49.0083C690.815 47.8661 691.209 46.9207 691.997 46.1724C692.785 45.3846 693.73 44.9907 694.833 44.9907C695.936 44.9907 696.861 45.3649 697.61 46.1133C698.358 46.8617 698.732 47.8267 698.732 49.0083C698.732 50.1899 698.338 51.1746 697.551 51.9624C696.802 52.7108 695.896 53.085 694.833 53.085Z" fill="url(#paint0_linear_1_71820)"/>
<defs>
<linearGradient id="paint0_linear_1_71820" x1="-119.898" y1="31.2305" x2="825" y2="31.2305" gradientUnits="userSpaceOnUse">
<stop stop-color="#F9D4BF"/>
<stop offset="0.2279" stop-color="#BA9B57"/>
<stop offset="0.414" stop-color="#F9C46E"/>
<stop offset="0.586" stop-color="#F0B963"/>
<stop offset="0.7721" stop-color="#F9F3BB"/>
<stop offset="1" stop-color="#C1A059"/>
</linearGradient>
</defs>
</svg>
