<svg width="662" height="148" viewBox="0 0 662 148" fill="none" xmlns="http://www.w3.org/2000/svg">
<path d="M0 144.222C0.720218 143.142 1.54335 141.598 2.46934 139.54C3.39534 137.431 4.11553 134.858 4.62997 131.668C5.35019 127.037 6.17327 121.892 7.04782 116.129C7.92237 110.366 8.84844 104.346 9.82588 98.0178C10.8033 91.6891 11.7292 85.206 12.7067 78.6201C13.6841 71.9826 14.6102 65.4996 15.4847 59.068C16.3593 52.6364 17.2338 46.462 18.0569 40.4935C18.88 34.5249 19.6003 29.071 20.2691 24.1315C20.9378 19.1921 21.4522 14.87 21.9152 11.2683C22.3268 7.61518 22.6355 4.83668 22.8413 2.98438H35.3936L97.5381 119.165L159.168 2.98438H168.531L184.736 120.348C185.199 124.053 185.713 127.192 186.228 129.816C186.742 132.44 187.257 134.704 187.823 136.607C188.337 138.46 188.851 140.055 189.366 141.238C189.88 142.473 190.343 143.451 190.806 144.274V144.685H165.907V144.274C166.216 143.554 166.525 142.37 166.833 140.724C167.142 139.077 167.296 137.122 167.296 134.807C167.296 133.932 167.245 133.057 167.193 132.183C167.142 131.308 167.039 130.33 166.885 129.25L154.332 34.6279L96.0461 144.222L89.2555 143.451L30.5579 33.5988C28.2429 49.189 26.2365 63.6473 24.5388 76.8707C23.8186 82.5305 23.0984 88.1903 22.3782 93.7986C21.658 99.407 20.9892 104.655 20.4748 109.543C19.9089 114.431 19.4459 118.702 19.1372 122.406C18.8285 126.111 18.6227 128.89 18.6227 130.639C18.6227 132.903 18.6743 134.858 18.8286 136.556C18.9829 138.254 19.0858 139.746 19.2402 140.878C19.446 142.267 19.6517 143.502 19.806 144.531H0.0514944V144.222H0Z" fill="url(#paint0_linear_58_12523)"/>
<path d="M277.592 0.565918C288.601 0.565918 298.736 2.36677 308.047 5.96847C317.359 9.57016 325.435 14.6125 332.226 21.0956C339.017 27.5786 344.315 35.3995 348.122 44.4552C351.929 53.5624 353.832 63.5956 353.832 74.6065C353.832 80.8838 353.112 87.0067 351.672 93.0781C350.231 99.1496 348.071 104.861 345.293 110.263C342.515 115.666 339.068 120.657 334.952 125.236C330.888 129.815 326.207 133.777 320.96 137.122C315.712 140.466 309.951 143.039 303.623 144.943C297.295 146.846 290.505 147.772 283.2 147.772C272.191 147.772 262.056 146.023 252.745 142.473C243.433 138.974 235.357 133.932 228.566 127.5C221.775 121.068 216.477 113.299 212.67 104.243C208.863 95.1877 206.959 85.103 206.959 74.0406C206.959 67.7634 207.68 61.6404 209.12 55.569C210.561 49.4975 212.67 43.7349 215.499 38.2809C218.277 32.8269 221.724 27.7845 225.788 23.2052C229.852 18.6259 234.482 14.6639 239.729 11.3195C244.977 7.97508 250.738 5.35096 257.117 3.4472C263.445 1.49199 270.287 0.565918 277.592 0.565918ZM283.2 138.768C290.505 138.768 297.192 137.43 303.263 134.806C309.333 132.182 314.529 128.375 318.902 123.332C323.275 118.341 326.67 112.219 329.139 105.015C331.557 97.8118 332.792 89.6308 332.792 80.4722C332.792 70.336 331.609 60.9201 329.294 52.276C326.979 43.6319 323.48 36.1198 318.85 29.7397C314.272 23.411 308.51 18.42 301.617 14.8183C294.723 11.2166 286.698 9.41578 277.541 9.41578C270.236 9.41578 263.548 10.7022 257.478 13.3262C251.407 15.8989 246.211 19.7064 241.839 24.6459C237.466 29.5853 234.07 35.6567 231.601 42.8086C229.183 50.012 227.949 58.1416 227.949 67.3002C227.949 77.385 229.08 86.8009 231.395 95.4964C233.71 104.243 237.157 111.807 241.787 118.187C246.417 124.567 252.179 129.61 259.072 133.263C266.017 136.967 274.043 138.768 283.2 138.768Z" fill="url(#paint1_linear_58_12523)"/>
<path d="M440.67 0.565918C451.679 0.565918 461.814 2.36677 471.125 5.96847C480.437 9.57016 488.513 14.6125 495.304 21.0956C502.095 27.5786 507.393 35.3995 511.2 44.4552C515.007 53.5624 516.911 63.5956 516.911 74.6065C516.911 80.8838 516.19 87.0067 514.75 93.0781C513.309 99.1496 511.149 104.861 508.371 110.263C505.593 115.666 502.146 120.657 498.031 125.236C493.967 129.815 489.285 133.777 484.038 137.122C478.791 140.466 473.029 143.039 466.701 144.943C460.373 146.846 453.583 147.772 446.278 147.772C435.269 147.772 425.134 146.023 415.823 142.473C406.511 138.974 398.435 133.932 391.644 127.5C384.854 121.068 379.555 113.299 375.748 104.243C371.941 95.1877 370.038 85.103 370.038 74.0406C370.038 67.7634 370.758 61.6404 372.198 55.569C373.639 49.4975 375.748 43.7349 378.577 38.2809C381.355 32.8269 384.802 27.7845 388.866 23.2052C392.93 18.6259 397.56 14.6639 402.807 11.3195C408.055 7.97508 413.817 5.35096 420.196 3.4472C426.523 1.49199 433.365 0.565918 440.67 0.565918ZM446.329 138.768C453.634 138.768 460.322 137.43 466.392 134.806C472.463 132.182 477.659 128.375 482.031 123.332C486.404 118.341 489.8 112.219 492.269 105.015C494.687 97.8118 495.921 89.6308 495.921 80.4722C495.921 70.336 494.738 60.9201 492.423 52.276C490.108 43.6319 486.61 36.1198 481.98 29.7397C477.402 23.411 471.64 18.42 464.746 14.8183C457.853 11.2166 449.827 9.41578 440.67 9.41578C433.365 9.41578 426.678 10.7022 420.607 13.3262C414.537 15.8989 409.341 19.7064 404.968 24.6459C400.595 29.5853 397.2 35.6567 394.731 42.8086C392.313 50.012 391.078 58.1416 391.078 67.3002C391.078 77.385 392.262 86.8009 394.525 95.4964C396.84 104.243 400.287 111.807 404.865 118.187C409.495 124.567 415.257 129.61 422.151 133.263C429.147 136.967 437.172 138.768 446.329 138.768Z" fill="url(#paint2_linear_58_12523)"/>
<path d="M544.69 2.93286L646.447 111.241V41.6769C646.447 36.0685 646.395 31.1805 646.241 27.0128C646.087 22.8451 645.881 19.1921 645.624 16.1563C645.366 13.0692 645.058 10.5479 644.698 8.48979C644.337 6.43168 643.977 4.73374 643.566 3.34451V2.93286H661.16V3.34451C660.748 4.73374 660.388 6.43168 660.079 8.48979C659.771 10.5479 659.462 13.0692 659.205 16.1563C658.948 19.1921 658.742 22.8451 658.639 27.0128C658.485 31.1805 658.433 36.0685 658.433 41.6769V146.589H654.986L553.23 38.3839V105.993C553.23 111.601 553.281 116.489 553.436 120.657C553.59 124.825 553.744 128.426 554.053 131.462C554.31 134.498 554.619 137.019 554.928 139.077C555.236 141.135 555.596 142.833 556.008 144.222V144.634H538.414V144.222C538.826 142.833 539.186 141.135 539.546 139.077C539.906 137.019 540.215 134.498 540.472 131.462C540.729 128.426 540.935 124.825 541.089 120.657C541.192 116.489 541.295 111.601 541.295 105.993V41.6769C541.295 36.0685 541.243 31.1805 541.089 27.0128C540.935 22.8451 540.78 19.1921 540.472 16.1563C540.215 13.0692 539.906 10.5479 539.546 8.48979C539.186 6.43168 538.826 4.73374 538.414 3.34451V2.93286H544.69Z" fill="url(#paint3_linear_58_12523)"/>
<defs>
<linearGradient id="paint0_linear_58_12523" x1="-744.555" y1="73.8356" x2="661.179" y2="73.8356" gradientUnits="userSpaceOnUse">
<stop stop-color="#F9F4BF"/>
<stop offset="0.2279" stop-color="#BA9B57"/>
<stop offset="0.414" stop-color="#F9C46E"/>
<stop offset="0.586" stop-color="#F0B963"/>
<stop offset="0.7721" stop-color="#F9F3BB"/>
<stop offset="1" stop-color="#C1A059"/>
</linearGradient>
<linearGradient id="paint1_linear_58_12523" x1="-744.555" y1="73.8355" x2="661.179" y2="73.8355" gradientUnits="userSpaceOnUse">
<stop stop-color="#F9F4BF"/>
<stop offset="0.2279" stop-color="#BA9B57"/>
<stop offset="0.414" stop-color="#F9C46E"/>
<stop offset="0.586" stop-color="#F0B963"/>
<stop offset="0.7721" stop-color="#F9F3BB"/>
<stop offset="1" stop-color="#C1A059"/>
</linearGradient>
<linearGradient id="paint2_linear_58_12523" x1="-744.554" y1="73.8355" x2="661.179" y2="73.8355" gradientUnits="userSpaceOnUse">
<stop stop-color="#F9F4BF"/>
<stop offset="0.2279" stop-color="#BA9B57"/>
<stop offset="0.414" stop-color="#F9C46E"/>
<stop offset="0.586" stop-color="#F0B963"/>
<stop offset="0.7721" stop-color="#F9F3BB"/>
<stop offset="1" stop-color="#C1A059"/>
</linearGradient>
<linearGradient id="paint3_linear_58_12523" x1="-744.554" y1="73.8357" x2="661.179" y2="73.8357" gradientUnits="userSpaceOnUse">
<stop stop-color="#F9F4BF"/>
<stop offset="0.2279" stop-color="#BA9B57"/>
<stop offset="0.414" stop-color="#F9C46E"/>
<stop offset="0.586" stop-color="#F0B963"/>
<stop offset="0.7721" stop-color="#F9F3BB"/>
<stop offset="1" stop-color="#C1A059"/>
</linearGradient>
</defs>
</svg>
