<svg width="811" height="149" viewBox="0 0 811 149" fill="none" xmlns="http://www.w3.org/2000/svg">
<path d="M27.9253 80.3646C27.6638 79.2168 27.3944 77.9822 27.1171 76.6609C27.5208 76.4844 27.874 76.3299 28.1767 76.1975C28.5079 75.9926 28.85 75.8129 29.2032 75.6585C30.8683 74.9304 32.2496 74.4466 33.347 74.2071C34.4949 73.9456 35.4377 73.8338 36.1756 73.8718C36.9639 73.8877 37.634 74.0455 38.1858 74.3451C38.7155 74.5943 39.2058 74.8908 39.6567 75.2346C39.4169 76.0608 39.2732 77.1755 39.2256 78.5787C39.6577 78.3296 40.1544 78.0223 40.7158 77.6566C41.8826 77.0261 43.0715 76.4461 44.2825 75.9166C44.9385 75.6297 45.5802 75.3792 46.2078 75.1648C46.8858 74.9285 47.5496 74.7283 48.1992 74.5645C53.4719 72.7396 57.2071 72.2783 59.4049 73.1805C61.6026 74.0828 63.6757 75.2499 65.6242 76.6819C67.6011 78.0413 69.0861 79.8563 70.079 82.1269C71.2705 84.8516 71.6184 87.9151 71.1227 91.3175C70.6554 94.6474 69.5117 97.9424 67.6917 101.203C65.8496 104.412 63.4635 107.409 60.5336 110.193C57.6036 112.977 54.3222 115.163 50.6892 116.752C46.7535 118.473 42.9915 119.217 39.403 118.983C39.28 118.976 39.157 118.97 39.0341 118.964C39.0433 120.222 39.0825 121.617 39.1516 123.15C39.277 127.422 39.5254 131.221 39.8969 134.544C40.2968 137.796 40.8229 140.992 41.4751 144.132C39.3591 144.517 37.4419 144.393 35.7234 143.763C34.027 143.182 32.2991 142.255 30.5398 140.98C30.6252 139.801 30.6901 138.3 30.7345 136.477C30.8074 134.582 30.8409 132.254 30.8351 129.491C30.8324 127.148 30.8092 124.484 30.7655 121.497L30.6898 121.531C29.4946 122.234 28.2915 122.85 27.0805 123.379C26.4246 123.666 25.7576 123.928 25.0796 124.164C24.452 124.378 23.8134 124.568 23.1638 124.731C17.8911 126.556 14.1559 127.018 11.9582 126.115C9.76043 125.213 7.67312 124.082 5.69621 122.723C3.74769 121.291 2.27697 119.44 1.28406 117.169C0.092579 114.444 -0.269525 111.417 0.197752 108.087C0.69343 104.685 1.86232 101.379 3.70445 98.1689C5.5245 94.9087 7.89951 91.8866 10.8295 89.1027C13.7594 86.3188 17.0409 84.1326 20.6738 82.5439C23.1462 81.4628 25.5634 80.7363 27.9253 80.3646ZM39.092 85.4892C39.0853 87.5357 39.0565 90.0127 39.0055 92.9201C38.9948 100.318 38.9813 105.373 38.965 108.085C38.9301 109.242 38.9094 110.363 38.9029 111.448C38.9849 111.772 39.07 112.036 39.1582 112.238C40.0411 112.332 41.0061 112.271 42.053 112.054C43.1505 111.814 44.4308 111.374 45.894 110.735C49.3252 109.234 52.3953 107.321 55.1044 104.994C57.8135 102.667 60.0008 100.178 61.6663 97.5264C63.3096 94.8242 64.3744 92.1047 64.8605 89.3677C65.3466 86.6306 65.0821 84.1016 64.0672 81.7805C62.6109 78.4504 59.833 77.321 55.7335 78.3924C51.6339 79.4638 47.8385 81.5743 44.3472 84.7239C43.6408 85.0328 43.0857 85.2755 42.6821 85.452C42.3289 85.6065 41.8779 85.7436 41.3292 85.8633C40.6134 85.8758 39.8677 85.7511 39.092 85.4892ZM30.5872 113.461C30.3832 108.321 30.0376 100.658 29.5506 90.473C29.4562 89.4324 29.3256 88.3776 29.1586 87.3085C28.1117 87.5259 26.8818 87.9435 25.469 88.5613C22.0379 90.0617 18.9677 91.9753 16.2586 94.302C13.5495 96.6287 11.3732 99.1431 9.72985 101.845C8.06441 104.497 6.98865 107.191 6.50255 109.928C6.01646 112.665 6.28089 115.194 7.29586 117.515C8.75213 120.846 11.53 121.975 15.6296 120.904C19.7291 119.832 23.5245 117.722 27.0159 114.572C27.7222 114.263 28.2521 114.031 28.6053 113.877C29.0089 113.7 29.4851 113.552 30.0338 113.433C30.2072 113.417 30.3917 113.426 30.5872 113.461Z" fill="url(#paint0_linear_95_18966)"/>
<path d="M88.2046 147.055C87.404 147.099 86.7172 146.463 86.144 145.146C85.7014 144.542 85.2656 143.789 84.8368 142.889C84.4601 141.97 84.0642 140.913 83.6493 139.716C83.2704 138.623 82.9294 137.051 82.6261 135C82.3408 133 82.0954 130.696 81.89 128.086C81.7365 125.458 81.65 122.603 81.6304 119.52C81.5927 116.386 81.6501 113.189 81.8026 109.93C81.9626 105.853 82.112 102.333 82.2506 99.3708C82.3711 96.3564 82.4358 93.7693 82.4447 91.6096C82.5057 89.4318 82.5278 87.6464 82.5111 86.2533C82.5464 84.8422 82.5408 83.6492 82.4942 82.6745C82.4859 81.9779 82.5364 81.1152 82.646 80.0864C82.7556 79.0575 82.9172 78.0106 83.1308 76.9456C83.3784 75.8106 83.6531 74.7536 83.9548 73.7747C84.2385 72.7437 84.5424 71.9389 84.8663 71.3603C86.7776 70.989 88.6571 70.862 90.5046 70.9791C92.3521 71.0963 93.5662 71.4039 94.1469 71.902C93.653 72.831 93.1904 74.1863 92.7589 75.9679C92.3095 77.6975 91.9401 79.5742 91.6509 81.598C91.3437 83.5697 91.1325 85.5664 91.0175 87.588C90.9024 89.6097 90.8973 91.3601 91.0022 92.8392C91.2158 91.7742 91.5584 90.5771 92.0301 89.2478C92.5018 87.9185 93.2805 86.0456 94.3661 83.6292C95.6057 80.9845 96.8777 78.8531 98.1819 77.2352C99.5201 75.5471 100.814 74.4866 102.062 74.0537C104.04 73.3681 105.842 73.3552 107.47 74.0149C109.149 74.6565 110.287 75.8359 110.882 77.5529C112.181 81.2992 112.847 85.236 112.879 89.3633C112.893 93.4385 112.243 97.3649 110.93 101.143C110.443 102.594 109.781 104.047 108.945 105.503C108.109 106.959 107.185 108.328 106.173 109.612C105.143 110.843 104.084 111.91 102.998 112.811C101.911 113.712 100.874 114.334 99.8853 114.677C98.9488 115.002 98.0531 115.108 97.1984 114.997C96.3776 114.815 95.738 114.483 95.2794 114.001C96.8937 112.1 98.2936 109.75 99.4791 106.949C100.665 104.148 101.586 101.089 102.243 97.7724C102.933 94.3853 103.318 90.8713 103.396 87.2304C103.526 83.5715 103.326 79.9687 102.796 76.4222C101.18 78.1484 99.7815 79.9155 98.6015 81.7235C97.4555 83.4615 96.4448 85.5897 95.5694 88.1081C94.49 91.047 93.6475 93.4083 93.042 95.192C92.4364 96.9757 91.9408 98.4882 91.5551 99.7294C91.2215 100.953 90.9739 102.088 90.8123 103.134C90.6847 104.111 90.5772 105.314 90.4899 106.743C90.3387 108.661 90.2469 111.17 90.2145 114.271C90.216 117.301 90.2828 120.688 90.4148 124.431C90.5989 128.155 90.8291 132.097 91.1054 136.257C91.4518 140.45 91.8153 144.608 92.1957 148.731C91.5872 148.825 90.9486 148.58 90.2798 147.996C89.7011 147.672 89.2717 147.442 88.9914 147.306C88.7631 147.152 88.5009 147.068 88.2046 147.055Z" fill="url(#paint1_linear_95_18966)"/>
<path d="M150.472 85.0617C150.38 89.2757 150.188 93.146 149.896 96.6727C149.604 100.199 149.156 103.485 148.551 106.529C147.961 109.626 147.197 112.516 146.258 115.198C145.334 117.934 144.212 120.583 142.894 123.147C141.201 126.393 139.252 129.055 137.046 131.131C134.855 133.26 132.465 134.702 129.874 135.457C128.552 135.842 127.184 136.068 125.77 136.136C124.424 136.241 123.119 136.191 121.854 135.986C120.553 135.849 119.379 135.56 118.332 135.119C117.249 134.746 116.414 134.243 115.828 133.611C115.644 132.977 115.852 132.314 116.454 131.622C117.257 132.019 117.917 132.314 118.432 132.508C118.948 132.702 119.448 132.844 119.932 132.932C120.364 133.036 120.826 133.045 121.317 132.959C121.755 132.889 122.265 132.769 122.847 132.599C125.861 131.722 128.533 129.968 130.865 127.339C133.265 124.747 135.256 121.442 136.84 117.425C138.491 113.445 139.697 108.821 140.457 103.552C141.232 98.3358 141.528 92.657 141.345 86.5154C140.966 87.7731 140.497 89.3149 139.939 91.1408C139.381 92.9668 138.717 94.8235 137.948 96.711C137.163 98.5457 136.287 100.264 135.319 101.865C134.404 103.45 133.4 104.632 132.308 105.409C131.446 105.602 130.493 105.679 129.449 105.639C128.473 105.637 127.485 105.494 126.486 105.212C125.538 104.914 124.64 104.487 123.79 103.932C122.94 103.377 122.27 102.654 121.782 101.764C121.335 100.23 121.034 98.9988 120.878 98.0691C120.706 97.0866 120.591 96.0017 120.532 94.8143C120.423 92.6665 120.448 90.1927 120.607 87.393C120.82 84.5778 121.18 81.7771 121.688 78.9907C122.233 76.136 122.938 73.4356 123.802 70.8895C124.704 68.2751 125.798 66.1211 127.083 64.4276C127.506 64.3044 128.05 64.2033 128.715 64.1243C129.365 63.9923 130.064 63.932 130.813 63.9433C131.562 63.9546 132.3 64.0265 133.027 64.1589C133.739 64.2385 134.402 64.447 135.016 64.7842C134.588 65.4824 133.835 67.6232 132.757 71.2068C131.678 74.7904 130.773 79.7575 130.042 86.108C129.947 86.7666 129.876 87.705 129.829 88.9231C129.782 90.1412 129.751 91.4123 129.735 92.7362C129.772 94.0447 129.828 95.319 129.902 96.5593C129.977 97.7995 130.114 98.7633 130.314 99.4506C130.437 99.8736 130.583 100.175 130.75 100.356C130.97 100.521 131.148 100.642 131.285 100.717C132.191 100.281 133.236 99.1445 134.422 97.3078C135.592 95.4182 136.751 92.7003 137.898 89.1542C138.613 86.8811 139.229 84.6653 139.748 82.5067C140.251 80.2953 140.727 78.0915 141.178 75.8955C141.681 73.684 142.195 71.412 142.72 69.0794C143.245 66.7468 143.834 64.3382 144.487 61.8537C145.175 61.6535 145.938 61.5172 146.777 61.4448C147.617 61.3725 148.445 61.3607 149.262 61.4094C150.064 61.4053 150.775 61.4849 151.396 61.6482C152.055 61.7431 152.563 61.9107 152.92 62.151C152.297 66.1181 151.757 69.975 151.299 73.7219C150.842 77.4687 150.566 81.2487 150.472 85.0617Z" fill="url(#paint2_linear_95_18966)"/>
<path d="M170.435 76.5698C170.097 77.2758 169.819 77.9955 169.601 78.7289C168.826 81.1287 168.311 83.7771 168.054 86.6741C167.85 89.558 167.798 92.9437 167.896 96.8311C167.401 96.8951 166.767 96.8514 165.993 96.7001C165.286 96.5892 164.532 96.4046 163.732 96.1463C162.986 95.8749 162.286 95.5637 161.634 95.2128C160.981 94.8618 160.523 94.4919 160.258 94.103C160.147 92.4862 160.106 90.3422 160.134 87.671C160.203 84.9332 160.346 82.0356 160.564 78.9781C160.769 75.8671 161.027 72.7431 161.339 69.606C161.65 66.4689 162.007 63.6326 162.409 61.0971C162.699 59.2688 163.001 57.8347 163.315 56.7946C163.615 55.701 164.007 54.7549 164.493 53.9563C165.268 53.8805 166.089 53.8785 166.957 53.9502C167.825 54.0219 168.679 54.1537 169.519 54.3454C170.36 54.5372 171.126 54.7753 171.819 55.0597C172.499 55.2906 173.045 55.5542 173.458 55.8504C172.431 57.9149 171.623 60.181 171.035 62.6486C170.5 65.1033 170.089 68.1797 169.801 71.8779C172.063 68.605 174.004 65.5239 175.623 62.6346C177.296 59.7323 178.743 56.6017 179.964 53.2426C180.22 52.8968 180.749 52.626 181.551 52.4302C182.3 52.2475 183.055 52.205 183.816 52.3028C184.564 52.3471 185.124 52.5507 185.496 52.9134C185.159 55.7164 185.298 58.3752 185.911 60.8898C186.486 63.2439 187.264 64.9246 188.247 65.9319C188.272 66.266 188.047 66.9726 187.574 68.0518C187.153 69.118 186.64 70.1502 186.033 71.1486C184.406 70.752 182.874 70.0487 181.437 69.0388C179.987 67.9754 178.806 66.7332 177.892 65.3122C175.889 67.5581 174.227 69.6925 172.907 71.7152L173.067 71.6761C174.151 71.4685 175.253 71.4547 176.374 71.6347C177.481 71.7612 178.495 72.0808 179.413 72.5936C180.373 73.0398 181.204 73.659 181.907 74.451C182.611 75.2431 183.106 76.2276 183.393 77.4046C183.511 77.8861 183.601 78.3742 183.665 78.8688C184.539 82.6804 185.165 85.362 185.543 86.9136C185.749 88.2237 186.152 89.0608 186.751 89.4248C187.404 89.7758 187.997 89.886 188.532 89.7555C189.014 89.638 189.489 89.3803 189.959 88.9822C190.429 88.5842 190.824 88.346 191.145 88.2677C191.385 88.3225 191.598 88.4973 191.783 88.7922C191.982 89.1406 192.114 89.4486 192.179 89.7161C191.896 90.182 191.559 90.6609 191.169 91.1529C190.779 91.6449 190.329 92.1232 189.819 92.5878C189.362 93.0393 188.892 93.4374 188.409 93.7819C187.98 94.1134 187.551 94.3313 187.123 94.4358C185.839 94.749 184.831 94.7967 184.097 94.5789C183.377 94.4145 182.692 93.9298 182.042 93.1247C181.405 92.3731 180.823 91.2678 180.297 89.809C179.812 88.2835 179.337 86.1036 178.872 83.2694C178.407 80.4351 178.07 78.5899 177.862 77.7339C177.522 76.3428 176.993 75.4516 176.274 75.0602C175.542 74.6153 174.721 74.5037 173.812 74.7257C173.116 74.8953 172.4 75.2118 171.662 75.6751C171.22 75.9531 170.811 76.2513 170.435 76.5698Z" fill="url(#paint3_linear_95_18966)"/>
<path d="M240.7 52.8465C239.844 53.0625 238.895 53.8283 237.852 55.1438C236.8 56.4051 235.7 58.0115 234.552 59.9629C233.448 61.85 232.298 63.9418 231.103 66.2383C229.962 68.5246 228.848 70.8058 227.761 73.082C226.717 75.294 225.735 77.3825 224.814 79.3475C223.893 81.3126 223.096 82.8903 222.422 84.0808C221.14 83.8163 219.98 83.3049 218.941 82.5466C217.893 81.7341 217.048 80.6596 216.406 79.323C216.363 77.5943 216.418 75.7912 216.571 73.9137C216.714 71.9821 216.982 69.9711 217.376 67.8806C217.823 65.78 218.418 63.5678 219.16 61.2441C219.946 58.8561 220.956 56.3143 222.188 53.6187C221.387 53.8246 220.388 54.6276 219.193 56.0276C217.988 57.3734 216.741 59.0913 215.451 61.1813C214.151 63.2172 212.842 65.5069 211.525 68.0502C210.197 70.5394 208.973 72.9813 207.852 75.3759C206.376 78.5653 205.158 81.3421 204.2 83.7063C203.295 86.0604 202.581 87.4826 202.056 87.9729C200.456 87.2075 199.274 86.28 198.51 85.1903C197.746 84.1006 197.092 82.8503 196.548 81.4393C196.36 80.13 196.245 78.4706 196.206 76.4611C196.22 74.4414 196.36 72.3424 196.625 70.1639C197.131 65.9794 197.994 61.7562 199.214 57.4942C200.488 53.2222 201.742 49.2901 202.975 45.698C204.552 45.7394 206.001 46.0006 207.324 46.4816C208.7 46.9525 210.192 47.7381 211.798 48.8384C211.571 50.6177 211.066 52.561 210.283 54.6682C209.491 56.7213 208.664 58.8927 207.804 61.1826C206.943 63.4724 206.201 65.7962 205.577 68.1538C204.954 70.5114 204.687 72.8303 204.777 75.1105C205.888 72.6618 207.209 69.8376 208.74 66.6381C210.324 63.4285 211.967 60.3761 213.666 57.4812C215.42 54.5761 217.218 52.055 219.059 49.9178C220.901 47.7807 222.688 46.5502 224.42 46.2263C225.069 46.1048 225.793 46.0815 226.592 46.1563C227.39 46.2312 228.144 46.3702 228.855 46.5736C229.565 46.7769 230.167 47.0005 230.661 47.2443C231.145 47.434 231.429 47.605 231.513 47.7573C231.445 48.8905 231.074 50.5006 230.399 52.5876C229.769 54.6103 229.078 56.7565 228.326 59.0261C227.574 61.2957 226.893 63.4959 226.283 65.6269C225.662 67.7038 225.377 69.3257 225.428 70.4929C227.402 66.37 229.28 62.6294 231.061 59.271C232.832 55.8585 234.548 52.9043 236.211 50.4085C237.873 47.9127 239.464 45.9344 240.984 44.4737C242.558 43.0029 244.129 42.1208 245.699 41.8272C246.782 41.6248 247.839 41.7353 248.871 42.1587C249.946 42.5178 250.775 43.2033 251.356 44.2151C251.173 45.9301 250.725 48.0307 250.013 50.5169C249.356 52.9929 248.696 55.6093 248.035 58.3661C247.364 61.0687 246.796 63.7241 246.331 66.3321C245.921 68.9301 245.898 71.2034 246.262 73.1522C246.475 74.289 246.779 75.0165 247.174 75.3347C247.56 75.5987 248.05 75.6751 248.646 75.5638C249.295 75.4423 249.871 75.2227 250.371 74.9049C250.916 74.5229 251.324 74.3066 251.595 74.256C251.96 74.4118 252.2 74.647 252.315 74.9617C252.43 75.2764 252.513 75.5691 252.563 75.8397C251.642 76.9083 250.664 77.8195 249.629 78.5734C248.603 79.3814 247.387 79.917 245.979 80.1802C244.68 80.4231 243.557 80.409 242.61 80.1379C241.717 79.8567 240.929 79.3877 240.246 78.7311C239.563 78.0745 239.022 77.2792 238.623 76.3453C238.225 75.4114 237.919 74.376 237.706 73.2392C237.362 71.3987 237.267 69.5397 237.42 67.6623C237.563 65.7307 237.808 63.8921 238.153 62.1467C238.543 60.337 238.986 58.6576 239.48 57.1084C239.965 55.5051 240.372 54.0845 240.7 52.8465Z" fill="url(#paint4_linear_95_18966)"/>
<path d="M269.215 77.4663C266.06 77.556 263.394 76.5245 261.216 74.3717C259.038 72.219 257.7 69.2868 257.202 65.5752C256.91 63.3919 256.933 61.0828 257.274 58.6479C257.614 56.2131 258.238 53.8235 259.146 51.4792C260.047 49.0803 261.184 46.7886 262.558 44.604C263.932 42.4195 265.479 40.4895 267.199 38.8142C269.901 36.1738 272.562 34.6779 275.182 34.3266C277.053 35.0203 279.032 36.7274 281.12 39.448C281.393 39.4114 281.638 39.3784 281.857 39.3491C282.068 39.2653 282.309 39.2051 282.582 39.1685C285.475 38.7805 287.266 41.1519 287.954 46.2827C288.415 49.7214 288.281 53.0732 287.552 56.3381C286.87 59.5411 285.688 62.5334 284.005 65.3149C282.377 68.0892 280.288 70.5363 277.738 72.6562C275.236 74.7143 272.395 76.3176 269.215 77.4663ZM269.932 51.1163C269.173 52.4961 268.483 53.9778 267.861 55.5613C267.24 57.1448 266.732 58.7409 266.337 60.3498C265.934 61.904 265.664 63.4126 265.527 64.8757C265.382 66.2842 265.383 67.5342 265.529 68.6259C265.705 69.9359 266.092 71.162 266.689 72.3042C267.287 73.4465 267.87 74.0629 268.438 74.1534C270.821 73.2783 272.923 71.9684 274.745 70.2239C276.614 68.4174 278.136 66.2965 279.309 63.861C280.537 61.4182 281.371 58.7227 281.809 55.7746C282.302 52.8193 282.332 49.7314 281.9 46.511C281.71 45.0919 281.478 43.9839 281.204 43.1871C280.931 42.3904 280.563 41.7174 280.1 41.1682C277.794 42.1998 275.791 43.6352 274.093 45.4742C272.45 47.306 271.063 49.1867 269.932 51.1163Z" fill="url(#paint5_linear_95_18966)"/>
<path d="M317.417 18.3282C320.619 14.205 322.081 10.6907 321.803 7.78514C321.782 7.56585 321.712 7.40663 321.592 7.30746C317.648 11.7781 314.245 16.9717 311.38 22.8882C312.852 22.0837 314.025 21.3354 314.9 20.6433C315.824 19.8911 316.663 19.1194 317.417 18.3282ZM323.894 20.1157C322.352 21.9227 320.664 23.3565 318.829 24.417C317.049 25.4722 313.855 26.4966 309.247 27.4901C306.195 34.9183 303.876 43.3552 302.289 52.8009C303.552 49.8035 305.017 46.8974 306.684 44.0827C308.346 41.2131 310.012 38.675 311.682 36.4685C313.407 34.2568 315.061 32.4667 316.646 31.0982C318.285 29.7245 319.68 28.9827 320.831 28.8726C321.729 29.0081 322.616 29.3107 323.49 29.7803C324.365 30.2499 325.171 30.8645 325.907 31.6239C326.638 32.3285 327.268 33.1259 327.795 34.0159C328.318 34.8512 328.681 35.7569 328.885 36.7332C329.05 39.041 328.875 41.5472 328.358 44.252C327.892 46.8967 327.149 49.5401 326.129 52.1824C325.164 54.8194 323.996 57.3651 322.627 59.8195C321.312 62.2687 319.861 64.4543 318.274 66.3762C316.737 68.238 315.141 69.7736 313.486 70.9828C311.887 72.1868 310.319 72.8622 308.784 73.0089C308.126 73.0717 307.433 73.055 306.705 72.9586C306.036 72.9118 305.388 72.7802 304.758 72.5637C304.189 72.3968 303.7 72.1947 303.29 71.9572C302.935 71.7146 302.744 71.4562 302.718 71.1821C305.077 69.2416 307.337 66.8404 309.498 63.9785C311.653 61.0618 313.571 57.9741 315.251 54.7156C316.926 51.4022 318.289 48.0079 319.34 44.5329C320.391 41.0578 321.017 37.7617 321.217 34.6446C321.154 33.9867 320.756 33.5822 320.022 33.431C319.254 33.5044 318.251 34.2918 317.011 35.7933C315.821 37.2347 314.504 39.0756 313.058 41.316C311.667 43.5511 310.245 46.0382 308.792 48.7772C307.394 51.5109 306.132 54.2316 305.008 56.9392C303.878 59.5919 302.928 62.0892 302.156 64.4312C301.433 66.7131 301.083 68.5446 301.104 69.9256C300.556 69.978 300.037 69.4743 299.549 68.4145C299.413 68.1509 299.195 67.8951 298.895 67.6472C298.589 67.3445 298.114 67.0026 297.469 66.6217C297.174 66.4286 296.876 66.2081 296.576 65.9602C296.27 65.6575 296.052 65.4017 295.922 65.1929C295.661 64.7753 295.483 64.0731 295.389 63.0863C295.079 59.8518 295.142 56.1669 295.577 52.0316C296.012 47.8963 296.685 43.6551 297.597 39.3081C298.565 34.956 299.759 30.665 301.18 26.4354C302.596 22.1509 304.102 18.2176 305.695 14.6353C307.344 11.0478 309.043 7.98109 310.791 5.43519C312.539 2.88928 314.254 1.14876 315.935 0.213628C316.499 0.325705 317.183 0.536947 317.987 0.847355C318.791 1.15776 319.601 1.52298 320.415 1.94303C321.23 2.36308 321.99 2.78837 322.695 3.21889C323.455 3.64418 324.017 4.03298 324.383 4.38529C326.01 5.77884 326.933 7.62686 327.153 9.92935C327.321 11.6836 327.135 13.4994 326.595 15.3766C326.05 17.1989 325.15 18.7787 323.894 20.1157Z" fill="url(#paint6_linear_95_18966)"/>
<path d="M342.836 70.3162C339.683 70.1668 337.103 68.9364 335.094 66.625C333.085 64.3135 331.973 61.2885 331.758 57.5498C331.631 55.3507 331.83 53.05 332.353 50.6479C332.877 48.2457 333.68 45.9102 334.763 43.6414C335.843 41.3176 337.151 39.1185 338.686 37.0442C340.221 34.97 341.91 33.1627 343.752 31.6224C346.646 29.1941 349.413 27.9039 352.052 27.7519C353.865 28.5852 355.709 30.4373 357.584 33.308C357.859 33.2922 358.107 33.2779 358.327 33.2653C358.543 33.1976 358.789 33.1559 359.064 33.1401C361.978 32.9722 363.584 35.4724 363.881 40.6405C364.081 44.1042 363.694 47.4362 362.72 50.6366C361.797 53.7788 360.392 56.673 358.503 59.3192C356.67 61.9623 354.402 64.2442 351.699 66.1651C349.048 68.0278 346.094 69.4115 342.836 70.3162ZM345.546 44.096C344.684 45.4144 343.884 46.8396 343.144 48.3715C342.405 49.9035 341.778 51.4566 341.262 53.0308C340.742 54.5501 340.359 56.034 340.111 57.4825C339.861 58.876 339.767 60.1225 339.83 61.2221C339.906 62.5416 340.199 63.7935 340.708 64.9777C341.218 66.1619 341.752 66.8207 342.312 66.954C344.754 66.2617 346.95 65.1147 348.898 63.5131C350.899 61.8533 352.577 59.8536 353.931 57.514C355.341 55.1711 356.376 52.5465 357.036 49.64C357.751 46.7304 358.015 43.6537 357.828 40.4099C357.746 38.9804 357.598 37.8581 357.386 37.0429C357.173 36.2277 356.857 35.5288 356.438 34.9462C354.06 35.8003 351.954 37.0799 350.122 38.7852C348.345 40.4872 346.819 42.2575 345.546 44.096Z" fill="url(#paint7_linear_95_18966)"/>
<path d="M378.65 50.5693C376.943 50.5986 375.558 50.1543 374.496 49.2362C373.488 48.2622 372.969 46.9217 372.939 45.2147C372.935 44.9394 372.983 44.5255 373.083 43.973C373.184 43.4204 373.287 43.0056 373.392 42.7284C374.331 42.8775 375.214 42.9724 376.041 43.0133C376.867 42.999 377.941 42.9806 379.262 42.9578C382.07 42.9095 384.684 42.7819 387.104 42.575C389.579 42.3671 391.806 42.136 393.785 41.8817C395.763 41.6273 397.467 41.4052 398.895 41.2153C400.324 41.0255 401.424 40.924 402.195 40.9107C403.241 40.8927 404.161 41.5103 404.953 42.7634C405.801 44.0157 406.438 45.8223 406.864 48.1834C405.485 48.0419 404.354 47.9512 403.472 47.9113C402.59 47.8714 401.819 47.8571 401.158 47.8685C398.79 47.9093 396.59 48.0848 394.558 48.3952C392.524 48.6505 390.601 48.9315 388.789 49.2381C386.976 49.5447 385.247 49.8498 383.6 50.1536C381.952 50.4023 380.302 50.5408 378.65 50.5693Z" fill="url(#paint8_linear_95_18966)"/>
<path d="M429.34 50.1232C429.284 50.1769 429.228 50.2031 429.173 50.2018C428.004 50.7248 426.977 51.0308 426.094 51.12C423.953 50.7935 422.372 50.0948 421.351 49.0238C420.33 47.9528 419.839 46.5915 419.879 44.9398C419.917 43.3432 420.398 41.6195 421.324 39.7686C422.251 37.8627 423.422 36.1003 424.838 34.4814C426.309 32.8639 427.966 31.5262 429.809 30.4684C431.653 29.3556 433.484 28.8208 435.3 28.8641C437.282 28.9114 438.754 29.5524 439.717 30.7872C439.876 31.0114 440.036 31.2631 440.194 31.5423C440.762 30.8397 441.383 30.1935 442.058 29.6036C442.774 29.6207 443.543 29.7216 444.365 29.9065C445.187 30.0913 445.952 30.3299 446.661 30.6223C447.427 30.8608 448.081 31.1519 448.624 31.4953C449.168 31.7837 449.573 32.0964 449.841 32.4333C448.792 34.8321 447.634 37.2007 446.366 39.5392C445.099 41.8777 443.914 44.1907 442.813 46.4781C441.713 48.7104 440.778 50.9467 440.009 53.1869C439.239 55.4271 438.829 57.6208 438.778 59.7679C438.75 60.9241 438.809 61.9446 438.953 62.8294C439.153 63.6605 439.356 64.3814 439.562 64.9923C439.769 65.5481 439.951 66.0206 440.107 66.41C440.318 66.8006 440.42 67.1336 440.414 67.4088C440.412 67.4639 440.355 67.5452 440.243 67.6526C440.186 67.7064 440.13 67.7326 440.075 67.7313C439.69 67.7221 439.196 67.6277 438.595 67.4481C437.993 67.2685 437.311 67.0044 436.548 66.6557C435.839 66.3633 435.103 66.0153 434.342 65.6115C433.635 65.2091 432.957 64.7798 432.307 64.3236C431.282 63.4177 430.592 62.2996 430.238 60.9691C429.94 59.6399 429.801 58.5073 429.824 57.5714C429.851 56.4152 430.012 55.4275 430.307 54.6082C430.087 54.603 429.581 55.0316 428.789 55.8941C427.998 56.7566 427.119 57.7823 426.155 58.9712C425.245 60.1615 424.336 61.3241 423.427 62.4593C422.519 63.5945 421.838 64.4321 421.384 64.9721C420.65 65.7258 419.947 66.315 419.276 66.7397C418.66 67.1657 418.159 67.4017 417.772 67.4476C416.893 67.3715 415.961 67.1565 414.978 66.8025C414.049 66.505 413.15 66.0704 412.282 65.4988C411.47 64.9286 410.742 64.2502 410.1 63.4637C409.513 62.6785 409.121 61.7878 408.924 60.7915C408.961 59.25 409.101 58.0139 409.343 57.0832C409.586 56.1525 410.001 54.8954 410.59 53.3119C411.233 51.7298 412.451 50.3265 414.243 49.1023C414.739 49.1141 415.315 49.1829 415.973 49.3088C416.633 49.3796 417.29 49.533 417.946 49.7689C418.656 50.0062 419.31 50.2972 419.908 50.642C420.562 50.933 421.103 51.3315 421.532 51.8375C421.023 52.3763 420.271 53.9007 419.275 56.411C418.28 58.8662 417.774 60.4516 417.757 61.1673C417.746 61.6078 417.793 61.9394 417.898 62.1623C418.058 62.3864 418.192 62.5549 418.299 62.6676C419.133 62.3569 420.201 61.4735 421.502 60.0172C422.804 58.5609 424.62 56.3181 426.951 53.2888C427.52 52.5311 428.202 51.666 428.996 50.6934C429.11 50.5308 429.225 50.3407 429.34 50.1232ZM438.141 34.468C438.089 34.3566 438.037 34.2452 437.984 34.1338C437.715 33.8519 437.197 33.6468 436.429 33.5183C435.211 33.7647 433.958 34.3408 432.669 35.2465C431.381 36.1523 430.198 37.2258 429.122 38.4672C428.102 39.6548 427.246 40.9013 426.554 42.2069C425.918 43.4588 425.59 44.5251 425.569 45.406C425.532 46.9475 426.34 47.738 427.991 47.7774C428.652 47.7931 429.316 47.6712 429.983 47.4117C430.649 47.2072 431.288 46.9746 431.9 46.7137C432.472 45.846 433.043 44.9782 433.615 44.1104C434.304 42.915 434.884 41.7169 435.353 40.5162C435.589 39.8608 435.883 39.0965 436.234 38.2235C436.642 37.2968 437.133 36.3445 437.707 35.3666C437.824 35.0939 437.968 34.7944 438.141 34.468Z" fill="url(#paint9_linear_95_18966)"/>
<path d="M465.623 49.0376C464.32 51.5558 463.159 54.0269 462.138 56.4508C461.25 59.4339 460.758 61.7777 460.661 63.4822C460.522 65.9013 461.353 67.3002 463.151 67.6787C464.813 67.553 466.404 67.2301 467.923 66.7101C469.442 66.1901 470.805 65.4957 472.013 64.627C472.315 65.1406 472.484 65.564 472.52 65.897C472.162 66.373 471.552 66.9173 470.689 67.53C469.882 68.1458 468.994 68.7294 468.024 69.2808C467.052 69.8872 466.113 70.3852 465.209 70.7749C464.304 71.1645 463.63 71.3742 463.187 71.4041C461.815 71.2706 460.458 70.8897 459.115 70.2614C457.772 69.6331 456.547 68.8736 455.439 67.9829C454.387 67.0954 453.531 66.1364 452.873 65.1059C452.218 64.0205 451.919 62.9829 451.975 61.9932C452.028 61.0586 452.143 60.0171 452.319 58.8687C452.498 57.6654 452.755 56.5493 453.089 55.5204C453.225 55.0868 453.387 54.6548 453.577 54.2243L453.587 54.0594C454.044 52.8168 454.583 51.5789 455.205 50.3458C455.959 48.734 456.762 47.2353 457.613 45.8498C458.468 44.4093 459.203 43.1274 459.819 42.0042C461.792 38.3659 463.132 35.6569 463.841 33.877C463.982 33.3335 463.815 32.8827 463.339 32.5245C462.66 32.8167 461.909 33.4082 461.086 34.2989C460.495 34.9823 459.732 35.7937 458.796 36.7331C457.915 37.6757 457.351 38.3606 457.106 38.7879C456.865 39.1602 456.624 39.505 456.385 39.8223C456.202 40.1428 456.05 40.3824 455.931 40.541C455.301 40.9463 454.778 40.9165 454.364 40.4515C454.056 40.0478 453.95 39.4902 454.045 38.7785C454.199 38.0151 454.523 37.1786 455.016 36.269C457.578 32.9402 459.607 30.7393 461.102 29.6664C461.681 29.2029 462.252 28.8495 462.818 28.6059L462.827 28.441C463.778 28.2195 464.58 28.1825 465.233 28.3302C466.039 28.7072 466.779 29.2734 467.453 30.029C468.185 30.7328 468.773 31.5386 469.218 32.4466C469.717 33.3577 470.076 34.3159 470.295 35.3213C470.516 36.2716 470.571 37.2401 470.46 38.2266C469.943 40.5138 468.331 44.1175 465.623 49.0376Z" fill="url(#paint10_linear_95_18966)"/>
<path d="M497.902 28.7442C497.929 28.4149 498.051 27.9275 498.269 27.2822C498.017 26.9855 497.804 26.5537 497.629 25.987C497.509 25.4247 497.467 24.924 497.502 24.4849C497.543 23.9909 497.651 23.3367 497.828 22.5222C498.064 21.6574 498.332 20.7399 498.632 19.7697C498.931 18.7995 499.288 17.8064 499.703 16.7903C500.121 15.7192 500.531 14.758 500.932 13.9065C501.59 13.9601 502.37 14.2169 503.272 14.677C504.234 15.0866 505.184 15.6335 506.123 16.3176C507.066 16.9468 507.92 17.6517 508.686 18.4322C509.456 19.1578 510.035 19.8404 510.426 20.4799C509.773 21.0346 508.908 21.8206 507.83 22.8381C506.758 23.8007 505.705 24.8479 504.674 25.9796C503.647 27.0564 502.707 28.085 501.854 29.0655C501.001 30.0459 500.447 30.7468 500.191 31.168C499.542 31.0047 498.988 30.6834 498.529 30.2041C498.075 29.67 497.866 29.1833 497.902 28.7442ZM483.752 46.8218C485.696 42.6149 487.157 39.9433 488.133 38.8072C489.114 37.6161 490.26 36.77 491.572 36.2688C492.496 36.4545 493.688 37.0763 495.15 38.1344C496.67 39.142 497.914 40.4864 498.883 42.1674C496.236 44.8253 494.158 47.6125 492.65 50.5288C491.197 53.4495 489.777 56.6492 488.389 60.1278C488.316 60.3429 488.216 60.5558 488.088 60.7664C487.575 62.327 487.267 63.7385 487.164 65.001C487.07 66.1536 487.172 66.9355 487.47 67.3465C487.773 67.7026 488.226 67.9052 488.83 67.9543C489.489 68.0078 490.101 67.9471 490.668 67.7722C491.294 67.5468 491.745 67.4453 492.019 67.4676C492.33 67.714 492.5 68.004 492.528 68.3378C492.557 68.6716 492.559 68.9757 492.537 69.2502C491.368 70.0392 490.185 70.6613 488.987 71.1165C487.786 71.6266 486.471 71.8236 485.044 71.7076C483.727 71.6005 482.647 71.2917 481.804 70.7812C481.017 70.2751 480.379 69.6155 479.893 68.8025C479.407 67.9894 479.094 67.0799 478.955 66.074C478.815 65.0682 478.793 63.9889 478.886 62.8362C480.241 56.3713 481.862 51.0331 483.752 46.8218Z" fill="url(#paint11_linear_95_18966)"/>
<path d="M479.354 93.0467C479.39 92.7183 479.533 92.4295 479.783 92.1802C480.032 91.9309 480.309 91.6846 480.613 91.4414C481.203 92.1165 481.726 92.6457 482.182 93.0289C482.583 93.406 482.991 93.7284 483.404 93.9961C483.763 94.2576 484.158 94.4401 484.59 94.5436C485.022 94.647 485.539 94.7322 486.141 94.7992C488.987 95.1159 491.781 94.651 494.524 93.4047C497.261 92.2131 499.91 90.3191 502.471 87.7226C505.086 85.1323 507.553 81.8881 509.87 77.9902C512.188 74.0922 514.348 69.6226 516.349 64.5813C515.619 65.165 514.716 65.8125 513.64 66.5239C512.624 67.1867 511.556 67.816 510.437 68.4118C509.318 69.0076 508.205 69.5487 507.098 70.0351C506.046 70.5275 505.149 70.871 504.407 71.0655C503.495 70.7978 502.662 70.3172 501.908 69.6238C501.215 68.8818 500.619 68.012 500.12 67.0146C499.622 66.0171 499.272 64.9255 499.072 63.7395C498.877 62.4989 498.853 61.2217 498.999 59.9081C499.237 57.7735 499.863 55.6268 500.879 53.468C501.95 51.3153 503.261 49.2447 504.812 47.2563C506.369 45.2131 508.13 43.3311 510.095 41.6103C512.114 39.8956 514.188 38.4363 516.317 37.2325C518.5 36.0347 520.65 35.138 522.767 34.5423C524.944 33.898 527.018 33.6854 528.988 33.9047C530.904 34.1178 532.281 34.6866 533.12 35.6111C534.02 36.487 534.582 37.9071 534.807 39.8715C534.242 39.4761 533.494 39.2267 532.563 39.1232C531.25 38.977 529.659 39.3265 527.792 40.1715C525.98 41.0227 524.076 42.1962 522.081 43.6919C520.147 45.1391 518.182 46.8599 516.187 48.8543C514.198 50.7941 512.395 52.8098 510.777 54.9017C509.214 56.9996 507.875 59.0671 506.762 61.1043C505.704 63.1475 505.08 65.0175 504.891 66.7142C504.849 67.0974 504.849 67.3467 504.891 67.4623C504.94 67.5231 505.019 67.5596 505.128 67.5718C505.621 67.6266 506.308 67.426 507.19 66.97C508.127 66.5201 509.161 65.9425 510.292 65.2372C511.484 64.4833 512.716 63.6229 513.987 62.6561C515.264 61.6346 516.487 60.607 517.654 59.5733C520.3 57.2079 522.761 54.5172 525.036 51.5011C527.371 48.4363 529.284 45.4353 530.775 42.4982C532.24 42.772 533.527 43.1645 534.633 43.6755C535.74 44.1865 536.488 44.6853 536.877 45.1719C534.541 49.234 532.637 52.6516 531.165 55.4246C529.748 58.2036 528.504 60.6695 527.433 62.8223C525.517 66.5986 523.722 70.0284 522.049 73.1115C520.425 76.2554 518.777 79.1196 517.104 81.704C515.48 84.3492 513.743 86.7603 511.894 88.9373C510.093 91.175 508.086 93.279 505.872 95.2491C504.826 96.1855 503.658 96.9698 502.369 97.6021C501.128 98.2952 499.848 98.8454 498.528 99.2527C497.263 99.6661 496.013 99.9426 494.779 100.082C493.599 100.228 492.516 100.246 491.531 100.137C490.218 99.9904 488.895 99.677 487.563 99.1964C486.225 98.7705 485.012 98.2199 483.924 97.5447C482.774 96.9182 481.801 96.2004 481.005 95.3914C480.202 94.6372 479.652 93.8556 479.354 93.0467Z" fill="url(#paint12_linear_95_18966)"/>
<path d="M569.455 58.186C570.519 56.7368 571.337 55.6113 571.91 54.8093C575.929 48.7521 578.728 45.8476 580.305 46.0959C581.393 46.2672 582.353 46.7248 583.183 47.4688C584.077 48.1669 584.629 49.09 584.838 50.2379C584.092 51.7929 582.967 53.6229 581.465 55.7279C580.018 57.8415 578.521 60.0869 576.977 62.4639C575.44 64.7866 574.017 67.0991 572.707 69.4016C571.451 71.7127 570.669 73.8474 570.361 75.8059C570.181 76.9483 570.225 77.7356 570.491 78.1678C570.766 78.5456 571.203 78.7816 571.801 78.8757C572.454 78.9785 573.07 78.9639 573.648 78.8319C574.289 78.6541 574.746 78.5866 575.018 78.6294C575.31 78.8984 575.457 79.2003 575.46 79.5353C575.463 79.8703 575.443 80.1738 575.401 80.4458C574.176 81.1449 572.949 81.6766 571.721 82.0408C570.485 82.4594 569.159 82.5574 567.745 82.3348C566.439 82.1293 565.385 81.7405 564.583 81.1683C563.836 80.6046 563.25 79.8992 562.826 79.0519C562.402 78.2047 562.158 77.2744 562.094 76.2609C562.031 75.2474 562.089 74.1695 562.269 73.027C562.56 71.1774 563.096 69.3663 563.877 67.5937C564.054 67.1756 564.258 66.7618 564.49 66.3523C562.355 67.5214 559.93 68.2269 557.216 68.4688C556.145 68.1887 555.046 67.7369 553.917 67.1133C552.798 66.4354 551.798 65.5254 550.918 64.3835C550.022 63.3504 549.25 62.0581 548.602 60.5067C547.234 62.4657 545.877 64.5377 544.529 66.7229C541.767 72.5877 539.833 76.0185 538.728 77.0153C537.67 78.0752 536.784 78.7441 536.071 79.0222C535.031 78.1896 534.334 77.132 533.978 75.8496C533.614 74.6215 533.394 73.3605 533.319 72.0664C533.482 71.0328 533.823 69.7486 534.344 68.2138C534.918 66.6875 535.6 65.0109 536.39 63.1839C537.242 61.3111 538.216 59.3738 539.311 57.372C540.407 55.3702 541.584 53.3813 542.843 51.4052C545.663 46.9433 548.131 43.485 550.246 41.0304C552.415 38.5843 553.734 37.2867 554.203 37.1376C555.549 37.7954 556.728 38.9844 557.739 40.7046C558.759 42.3703 559.427 44.1479 559.743 46.0374C558.914 47.412 556.918 49.9969 553.756 53.7919C553.748 53.8463 553.712 53.8964 553.649 53.9422C553.923 57.163 554.637 59.5332 555.791 61.0529C556.983 62.6899 558.405 63.75 560.057 64.233C562.201 64.0688 564.038 63.3822 565.566 62.1732C567.157 60.9184 568.453 59.5894 569.455 58.186Z" fill="url(#paint13_linear_95_18966)"/>
<path d="M604.57 85.3634C603.726 84.2872 603.25 83.0628 603.142 81.6903C603.089 80.3289 603.157 79.19 603.348 78.2735C603.584 77.1414 603.922 76.1991 604.36 75.4466C604.144 75.4017 603.569 75.7318 602.634 76.437C601.7 77.1422 600.65 77.9923 599.487 78.9872C598.377 79.9934 597.273 80.9727 596.174 81.9249C595.075 82.8772 594.254 83.5779 593.71 84.0271C592.852 84.6357 592.055 85.0883 591.318 85.3847C590.635 85.6923 590.099 85.8337 589.71 85.8089C588.859 85.5752 587.982 85.1954 587.079 84.6696C586.219 84.2089 585.413 83.6191 584.663 82.9001C583.967 82.1924 583.374 81.3937 582.884 80.504C582.449 79.6256 582.224 78.6787 582.211 77.6634C582.526 76.1538 582.811 74.9195 583.068 73.9603C583.378 73.0124 583.786 72.0005 584.291 70.9246C585.204 68.9771 586.388 66.805 587.844 64.4084C589.354 62.023 590.987 59.7196 592.744 57.4982C594.513 55.223 596.377 53.1645 598.336 51.3228C600.36 49.4384 602.364 48.0561 604.348 47.1758C604.833 47.277 605.388 47.449 606.012 47.6917C606.648 47.8805 607.267 48.1502 607.869 48.5007C608.525 48.8625 609.115 49.2669 609.641 49.7141C610.232 50.1185 610.692 50.6083 611.022 51.1834C610.425 51.6214 608.808 53.1689 606.173 55.8259C603.591 58.4941 600.486 62.4596 596.857 67.7223C596.464 68.2591 595.96 69.0542 595.347 70.1077C594.733 71.1611 594.109 72.2685 593.473 73.4297C592.837 74.591 592.261 75.7366 591.744 76.8664C591.281 78.0075 590.976 78.9285 590.83 79.6293C590.74 80.0606 590.727 80.3953 590.79 80.6335C590.906 80.8828 591.007 81.0727 591.093 81.203C591.969 81.0481 593.179 80.3722 594.722 79.1751C596.265 77.9781 598.457 76.1004 601.297 73.5423C601.994 72.9 602.793 72.1666 603.697 71.3424C604.654 70.5294 605.622 69.6624 606.602 68.7416C607.592 67.7668 608.535 66.7538 609.429 65.7027C610.377 64.6628 611.191 63.5948 611.869 62.4986C612.22 61.8967 612.647 61.1981 613.15 60.403C613.719 59.5652 614.347 58.7117 615.034 57.8424C615.776 56.9844 616.571 56.1377 617.42 55.3022C618.335 54.424 619.34 53.6492 620.437 52.9777C621.137 53.1238 621.875 53.3621 622.65 53.6924C623.425 54.0228 624.135 54.3958 624.78 54.8115C625.489 55.1845 626.08 55.589 626.552 56.0248C627.035 56.4068 627.377 56.7876 627.579 57.1673C626.114 59.3371 624.547 61.4574 622.878 63.5283C621.208 65.5992 619.625 67.6599 618.129 69.7106C616.644 71.7074 615.32 73.7379 614.158 75.8021C612.997 77.8664 612.197 79.9498 611.758 82.0523C611.522 83.1844 611.395 84.1987 611.377 85.095C611.424 85.9486 611.493 86.6944 611.585 87.3324C611.689 87.9165 611.782 88.4141 611.865 88.8252C612.002 89.2475 612.042 89.5935 611.986 89.863C611.975 89.9169 611.904 89.9866 611.774 90.0719C611.708 90.1146 611.649 90.1303 611.595 90.1191C611.218 90.0404 610.749 89.8583 610.19 89.5729C609.631 89.2875 609.007 88.9044 608.32 88.4236C607.675 88.0079 607.015 87.5327 606.339 86.9979C605.717 86.4744 605.127 85.9295 604.57 85.3634Z" fill="url(#paint14_linear_95_18966)"/>
<path d="M642.688 94.6909C641.895 93.5763 641.477 92.331 641.433 90.9549C641.444 89.5925 641.566 88.4581 641.799 87.5516C642.088 86.4317 642.469 85.5063 642.942 84.7752C642.729 84.7201 642.139 85.0229 641.172 85.6836C640.206 86.3442 639.118 87.1441 637.909 88.0834C636.753 89.0365 635.604 89.9629 634.462 90.8626C633.32 91.7623 632.466 92.4238 631.902 92.847C631.017 93.4147 630.199 93.8294 629.449 94.0909C628.752 94.3662 628.21 94.4823 627.823 94.4394C626.984 94.1659 626.125 93.7454 625.248 93.1779C624.41 92.6774 623.634 92.0505 622.918 91.2971C622.256 90.5575 621.701 89.7319 621.253 88.8203C620.86 87.9224 620.68 86.9661 620.714 85.9512C621.099 84.4581 621.442 83.2385 621.743 82.2924C622.097 81.36 622.552 80.3684 623.108 79.3173C624.11 77.4148 625.395 75.3006 626.962 72.9749C628.582 70.6629 630.322 68.4386 632.181 66.302C634.054 64.1121 636.012 62.1433 638.056 60.3954C640.166 58.608 642.233 57.3212 644.256 56.5349C644.736 56.6587 645.282 56.8565 645.894 57.1282C646.52 57.3466 647.126 57.645 647.711 58.0234C648.349 58.4155 648.92 58.8472 649.424 59.3185C649.995 59.7502 650.432 60.261 650.735 60.851C650.117 61.2604 648.43 62.7304 645.673 65.261C642.969 67.8053 639.681 71.6208 635.81 76.7076C635.392 77.2254 634.852 77.996 634.19 79.0196C633.528 80.0431 632.852 81.12 632.162 82.2502C631.472 83.3803 630.843 84.4976 630.274 85.602C629.758 86.7201 629.41 87.6258 629.231 88.319C629.121 88.7456 629.092 89.0793 629.144 89.3201C629.249 89.5747 629.341 89.7691 629.42 89.9032C630.302 89.7896 631.543 89.1711 633.14 88.0477C634.738 86.9244 637.016 85.1516 639.972 82.7294C640.698 82.1204 641.531 81.4254 642.472 80.6443C643.466 79.8771 644.474 79.0565 645.496 78.1826C646.531 77.2553 647.52 76.2877 648.463 75.2796C649.459 74.2853 650.321 73.2565 651.051 72.1934C651.429 71.6086 651.888 70.9308 652.428 70.1601C653.035 69.3499 653.703 68.5268 654.43 67.6907C655.211 66.8684 656.045 66.0599 656.933 65.2651C657.887 64.4308 658.928 63.7039 660.055 63.0846C660.748 63.2634 661.474 63.536 662.232 63.9023C662.991 64.2686 663.683 64.6745 664.307 65.1199C664.999 65.5258 665.57 65.9575 666.02 66.415C666.485 66.8192 666.809 67.2157 666.993 67.6044C665.428 69.7031 663.763 71.7476 661.998 73.738C660.234 75.7283 658.556 77.7126 656.965 79.6909C655.388 81.6159 653.971 83.5821 652.714 85.5896C651.456 87.5971 650.559 89.6407 650.023 91.7204C649.734 92.8402 649.56 93.8474 649.499 94.7418C649.506 95.5967 649.541 96.345 649.603 96.9866C649.679 97.5749 649.748 98.0763 649.812 98.4908C649.929 98.9191 649.953 99.2666 649.884 99.5332C649.87 99.5865 649.797 99.6528 649.662 99.7319C649.595 99.7715 649.535 99.7844 649.482 99.7706C649.108 99.6743 648.649 99.4705 648.104 99.1592C647.559 98.848 646.954 98.436 646.29 97.9235C645.665 97.478 645.028 96.9724 644.378 96.4065C643.781 95.8544 643.218 95.2825 642.688 94.6909ZM662.965 57.0957C661.926 56.7139 660.874 56.1584 659.811 55.4292C658.762 54.6466 657.821 53.6645 656.988 52.4829C656.223 51.2616 655.592 49.8477 655.097 48.2412C654.668 46.5951 654.529 44.7107 654.678 42.588C655.339 41.7916 656.263 41.4044 657.452 41.4267C658.694 41.4627 659.822 41.4979 660.837 41.5322C660.703 45.1376 661.151 47.8123 662.179 49.5564C663.262 51.3143 664.602 52.5131 666.2 53.1529C668.35 53.1957 670.244 52.6889 671.881 51.6326C673.586 50.5367 675.16 49.0659 676.603 47.2201C677.095 47.5176 677.39 48.1342 677.49 49.07C676.283 51.5453 674.378 53.528 671.776 55.0178C669.187 56.4544 666.25 57.147 662.965 57.0957Z" fill="url(#paint15_linear_95_18966)"/>
<path d="M717.246 90.7969C716.773 91.3341 716.274 91.8625 715.748 92.382C713.91 94.2003 712.027 96.149 710.099 98.2281C708.19 100.255 706.393 102.291 704.71 104.337C703.079 106.4 701.945 108.37 701.307 110.248C700.935 111.343 700.844 112.126 701.033 112.597C701.239 113.016 701.63 113.323 702.203 113.518C702.829 113.731 703.438 113.821 704.03 113.789C704.692 113.724 705.154 113.735 705.415 113.823C705.657 114.138 705.751 114.461 705.696 114.791C705.642 115.122 705.571 115.418 705.483 115.678C704.156 116.159 702.857 116.474 701.585 116.623C700.295 116.825 698.972 116.696 697.616 116.235C696.365 115.81 695.393 115.248 694.7 114.547C694.06 113.864 693.602 113.069 693.329 112.162C693.055 111.255 692.974 110.297 693.084 109.287C693.194 108.278 693.435 107.226 693.807 106.131C694.409 104.358 695.237 102.69 696.29 101.129C697.362 99.5153 698.476 98.0325 699.633 96.6806C700.859 95.2942 702.068 94.0471 703.258 92.9392C704.467 91.7791 705.517 90.74 706.411 89.822L709.381 86.4688C709.226 86.2415 709.044 86.0054 708.837 85.7604C708.335 85.1829 707.737 84.631 707.043 84.1047C706.367 83.5262 705.691 83.0348 705.014 82.6305C704.407 82.1917 703.921 81.9103 703.556 81.7864C703.034 81.6093 702.425 81.6059 701.727 81.7762C701.1 81.912 700.471 82.1349 699.843 82.4448C699.214 82.7548 698.638 83.0825 698.113 83.4278C697.641 83.7909 697.343 84.0679 697.22 84.2588C696.058 83.3989 695.15 82.3925 694.494 81.2394C693.839 80.0864 693.691 78.553 694.05 76.6393C696.079 74.944 697.81 73.7868 699.242 73.1679C700.725 72.5666 702.32 72.4101 704.025 72.6983C706.174 74.5911 708.104 76.6133 709.816 78.765C711.546 80.8645 712.971 83.0058 714.091 85.1889C715.014 85.0374 715.886 84.8681 716.706 84.6811C717.577 84.5118 718.57 84.4999 719.684 84.6455C720.723 85.6962 721.167 87.3009 721.015 89.4595C720.245 90.1867 719.432 90.6959 718.577 90.9872C718.316 91.0728 717.872 91.0093 717.246 90.7969Z" fill="url(#paint16_linear_95_18966)"/>
<path d="M751.366 98.513C751.878 98.7162 752.426 99.0523 753.01 99.5212C753.666 99.9592 754.214 100.444 754.655 100.974C755.117 101.454 755.466 101.918 755.702 102.367C755.99 102.837 756.083 103.2 755.981 103.456C754.104 105.199 752.293 106.999 750.549 108.854C748.826 110.658 747.261 112.437 745.854 114.189C744.447 115.942 743.219 117.617 742.17 119.215C741.172 120.833 740.419 122.282 739.911 123.562C739.342 124.995 739.018 126.259 738.94 127.353C738.881 128.397 739.129 129.265 739.683 129.959C738.906 130.125 737.98 130.143 736.906 130.012C735.832 129.882 734.911 129.665 734.143 129.36C731.38 128.263 730.749 125.82 732.253 122.033C733.411 119.115 735.969 115.509 739.925 111.213C737.967 113.162 735.906 114.921 733.742 116.491C731.598 118.01 729.52 119.289 727.509 120.327C725.497 121.365 723.571 122.111 721.731 122.566C719.963 122.99 718.45 123.071 717.191 122.808C715.338 121.954 714.158 120.449 713.652 118.292C713.165 116.085 713.45 113.65 714.507 110.988C715.645 108.122 717.458 105.346 719.946 102.66C722.434 99.9742 725.164 97.6508 728.135 95.6898C731.157 93.7491 734.149 92.33 737.113 91.4326C740.096 90.484 742.658 90.375 744.797 91.1058C745.248 91.4625 745.689 91.9932 746.12 92.6977C746.603 93.4225 747.004 94.2037 747.323 95.0415C747.693 95.8995 747.951 96.7425 748.096 97.5705C748.262 98.3473 748.279 98.9762 748.147 99.4572C745.978 98.9515 743.458 99.1063 740.586 99.9217C737.766 100.757 734.982 102.023 732.236 103.717C729.561 105.381 727.122 107.345 724.919 109.611C722.716 111.877 721.147 114.187 720.212 116.542C719.826 117.514 719.941 118.271 720.556 118.811C722.162 119.093 724.375 118.52 727.193 117.091C730.032 115.611 733.758 113.091 738.372 109.53C739.249 108.812 740.219 108.012 741.28 107.13C742.392 106.268 743.525 105.355 744.678 104.39C745.831 103.426 746.959 102.451 748.06 101.467C749.234 100.451 750.336 99.4668 751.366 98.513Z" fill="url(#paint17_linear_95_18966)"/>
<path d="M767.908 140.799C767.333 139.559 767.149 138.258 767.358 136.897C767.618 135.559 767.945 134.466 768.341 133.618C768.829 132.57 769.373 131.73 769.972 131.097C769.772 131.004 769.137 131.194 768.065 131.667C766.994 132.14 765.779 132.727 764.418 133.429C763.107 134.155 761.808 134.856 760.521 135.532C759.234 136.207 758.274 136.702 757.642 137.014C756.667 137.411 755.787 137.669 755.002 137.789C754.267 137.932 753.713 137.947 753.341 137.834C752.565 137.412 751.798 136.841 751.039 136.123C750.307 135.478 749.658 134.72 749.093 133.848C748.577 133 748.182 132.087 747.909 131.109C747.686 130.154 747.684 129.181 747.903 128.189C748.555 126.792 749.115 125.655 749.584 124.78C750.103 123.928 750.731 123.037 751.47 122.105C752.803 120.418 754.453 118.574 756.419 116.574C758.434 114.597 760.551 112.729 762.77 110.968C765.012 109.157 767.297 107.58 769.625 106.235C772.027 104.864 774.294 103.976 776.427 103.573C776.876 103.783 777.377 104.077 777.929 104.456C778.505 104.785 779.045 105.189 779.551 105.668C780.107 106.171 780.589 106.699 780.999 107.255C781.481 107.784 781.818 108.366 782.007 109.001C781.325 109.291 779.398 110.428 776.224 112.411C773.101 114.418 769.171 117.568 764.435 121.862C763.929 122.294 763.257 122.953 762.419 123.838C761.581 124.724 760.72 125.659 759.835 126.644C758.95 127.629 758.127 128.612 757.366 129.594C756.654 130.599 756.147 131.426 755.844 132.074C755.658 132.474 755.568 132.797 755.575 133.043C755.631 133.312 755.686 133.52 755.74 133.666C756.628 133.716 757.96 133.335 759.737 132.523C761.513 131.71 764.076 130.384 767.426 128.543C768.251 128.077 769.197 127.546 770.265 126.95C771.383 126.378 772.524 125.755 773.688 125.083C774.875 124.361 776.025 123.59 777.136 122.771C778.296 121.976 779.333 121.122 780.244 120.21C780.723 119.704 781.298 119.122 781.97 118.463C782.715 117.778 783.522 117.09 784.39 116.401C785.308 115.736 786.276 115.093 787.294 114.474C788.385 113.829 789.541 113.304 790.762 112.901C791.411 113.204 792.074 113.605 792.753 114.103C793.432 114.602 794.038 115.128 794.57 115.68C795.176 116.205 795.658 116.734 796.018 117.266C796.401 117.749 796.647 118.198 796.757 118.614C794.834 120.391 792.824 122.096 790.725 123.731C788.626 125.365 786.614 127.009 784.688 128.663C782.785 130.267 781.032 131.941 779.429 133.685C777.826 135.428 776.571 137.274 775.663 139.22C775.174 140.268 774.819 141.227 774.596 142.095C774.446 142.937 774.344 143.679 774.287 144.321C774.254 144.913 774.231 145.419 774.218 145.838C774.255 146.28 774.215 146.626 774.098 146.876C774.075 146.926 773.99 146.977 773.844 147.031C773.771 147.057 773.709 147.059 773.659 147.036C773.31 146.873 772.896 146.588 772.416 146.183C771.937 145.777 771.418 145.261 770.859 144.636C770.326 144.084 769.792 143.47 769.256 142.795C768.771 142.143 768.321 141.478 767.908 140.799ZM794.718 107.545C793.766 106.98 792.834 106.242 791.922 105.33C791.034 104.369 790.288 103.232 789.686 101.918C789.156 100.577 788.795 99.0717 788.601 97.4016C788.481 95.7049 788.689 93.8268 789.224 91.7673C790.019 91.105 790.998 90.8934 792.163 91.1326C793.377 91.3951 794.48 91.636 795.472 91.8553C794.681 95.3755 794.632 98.0869 795.324 99.9898C796.067 101.916 797.165 103.339 798.619 104.261C800.725 104.696 802.68 104.544 804.483 103.805C806.359 103.039 808.175 101.881 809.931 100.33C810.361 100.712 810.539 101.373 810.466 102.311C808.826 104.524 806.591 106.125 803.76 107.114C800.952 108.053 797.938 108.197 794.718 107.545Z" fill="url(#paint18_linear_95_18966)"/>
<defs>
<linearGradient id="paint0_linear_95_18966" x1="-90.2981" y1="146.173" x2="805.365" y2="121.533" gradientUnits="userSpaceOnUse">
<stop stop-color="#F9D4BF"/>
<stop offset="0.2279" stop-color="#BA9B57"/>
<stop offset="0.414" stop-color="#F9C46E"/>
<stop offset="0.586" stop-color="#F0B963"/>
<stop offset="0.7721" stop-color="#F9F3BB"/>
<stop offset="1" stop-color="#C1A059"/>
</linearGradient>
<linearGradient id="paint1_linear_95_18966" x1="-90.2981" y1="146.173" x2="805.365" y2="121.533" gradientUnits="userSpaceOnUse">
<stop stop-color="#F9D4BF"/>
<stop offset="0.2279" stop-color="#BA9B57"/>
<stop offset="0.414" stop-color="#F9C46E"/>
<stop offset="0.586" stop-color="#F0B963"/>
<stop offset="0.7721" stop-color="#F9F3BB"/>
<stop offset="1" stop-color="#C1A059"/>
</linearGradient>
<linearGradient id="paint2_linear_95_18966" x1="-90.2981" y1="146.173" x2="805.365" y2="121.533" gradientUnits="userSpaceOnUse">
<stop stop-color="#F9D4BF"/>
<stop offset="0.2279" stop-color="#BA9B57"/>
<stop offset="0.414" stop-color="#F9C46E"/>
<stop offset="0.586" stop-color="#F0B963"/>
<stop offset="0.7721" stop-color="#F9F3BB"/>
<stop offset="1" stop-color="#C1A059"/>
</linearGradient>
<linearGradient id="paint3_linear_95_18966" x1="-90.2981" y1="146.173" x2="805.365" y2="121.533" gradientUnits="userSpaceOnUse">
<stop stop-color="#F9D4BF"/>
<stop offset="0.2279" stop-color="#BA9B57"/>
<stop offset="0.414" stop-color="#F9C46E"/>
<stop offset="0.586" stop-color="#F0B963"/>
<stop offset="0.7721" stop-color="#F9F3BB"/>
<stop offset="1" stop-color="#C1A059"/>
</linearGradient>
<linearGradient id="paint4_linear_95_18966" x1="-90.2981" y1="146.173" x2="805.365" y2="121.533" gradientUnits="userSpaceOnUse">
<stop stop-color="#F9D4BF"/>
<stop offset="0.2279" stop-color="#BA9B57"/>
<stop offset="0.414" stop-color="#F9C46E"/>
<stop offset="0.586" stop-color="#F0B963"/>
<stop offset="0.7721" stop-color="#F9F3BB"/>
<stop offset="1" stop-color="#C1A059"/>
</linearGradient>
<linearGradient id="paint5_linear_95_18966" x1="-90.2981" y1="146.173" x2="805.365" y2="121.533" gradientUnits="userSpaceOnUse">
<stop stop-color="#F9D4BF"/>
<stop offset="0.2279" stop-color="#BA9B57"/>
<stop offset="0.414" stop-color="#F9C46E"/>
<stop offset="0.586" stop-color="#F0B963"/>
<stop offset="0.7721" stop-color="#F9F3BB"/>
<stop offset="1" stop-color="#C1A059"/>
</linearGradient>
<linearGradient id="paint6_linear_95_18966" x1="-90.2981" y1="146.173" x2="805.365" y2="121.533" gradientUnits="userSpaceOnUse">
<stop stop-color="#F9D4BF"/>
<stop offset="0.2279" stop-color="#BA9B57"/>
<stop offset="0.414" stop-color="#F9C46E"/>
<stop offset="0.586" stop-color="#F0B963"/>
<stop offset="0.7721" stop-color="#F9F3BB"/>
<stop offset="1" stop-color="#C1A059"/>
</linearGradient>
<linearGradient id="paint7_linear_95_18966" x1="-90.2981" y1="146.173" x2="805.365" y2="121.533" gradientUnits="userSpaceOnUse">
<stop stop-color="#F9D4BF"/>
<stop offset="0.2279" stop-color="#BA9B57"/>
<stop offset="0.414" stop-color="#F9C46E"/>
<stop offset="0.586" stop-color="#F0B963"/>
<stop offset="0.7721" stop-color="#F9F3BB"/>
<stop offset="1" stop-color="#C1A059"/>
</linearGradient>
<linearGradient id="paint8_linear_95_18966" x1="-90.2981" y1="146.173" x2="805.365" y2="121.533" gradientUnits="userSpaceOnUse">
<stop stop-color="#F9D4BF"/>
<stop offset="0.2279" stop-color="#BA9B57"/>
<stop offset="0.414" stop-color="#F9C46E"/>
<stop offset="0.586" stop-color="#F0B963"/>
<stop offset="0.7721" stop-color="#F9F3BB"/>
<stop offset="1" stop-color="#C1A059"/>
</linearGradient>
<linearGradient id="paint9_linear_95_18966" x1="-90.2981" y1="146.173" x2="805.365" y2="121.533" gradientUnits="userSpaceOnUse">
<stop stop-color="#F9D4BF"/>
<stop offset="0.2279" stop-color="#BA9B57"/>
<stop offset="0.414" stop-color="#F9C46E"/>
<stop offset="0.586" stop-color="#F0B963"/>
<stop offset="0.7721" stop-color="#F9F3BB"/>
<stop offset="1" stop-color="#C1A059"/>
</linearGradient>
<linearGradient id="paint10_linear_95_18966" x1="-90.2981" y1="146.173" x2="805.365" y2="121.533" gradientUnits="userSpaceOnUse">
<stop stop-color="#F9D4BF"/>
<stop offset="0.2279" stop-color="#BA9B57"/>
<stop offset="0.414" stop-color="#F9C46E"/>
<stop offset="0.586" stop-color="#F0B963"/>
<stop offset="0.7721" stop-color="#F9F3BB"/>
<stop offset="1" stop-color="#C1A059"/>
</linearGradient>
<linearGradient id="paint11_linear_95_18966" x1="-90.2981" y1="146.173" x2="805.365" y2="121.533" gradientUnits="userSpaceOnUse">
<stop stop-color="#F9D4BF"/>
<stop offset="0.2279" stop-color="#BA9B57"/>
<stop offset="0.414" stop-color="#F9C46E"/>
<stop offset="0.586" stop-color="#F0B963"/>
<stop offset="0.7721" stop-color="#F9F3BB"/>
<stop offset="1" stop-color="#C1A059"/>
</linearGradient>
<linearGradient id="paint12_linear_95_18966" x1="-90.2981" y1="146.173" x2="805.365" y2="121.533" gradientUnits="userSpaceOnUse">
<stop stop-color="#F9D4BF"/>
<stop offset="0.2279" stop-color="#BA9B57"/>
<stop offset="0.414" stop-color="#F9C46E"/>
<stop offset="0.586" stop-color="#F0B963"/>
<stop offset="0.7721" stop-color="#F9F3BB"/>
<stop offset="1" stop-color="#C1A059"/>
</linearGradient>
<linearGradient id="paint13_linear_95_18966" x1="-90.2981" y1="146.173" x2="805.365" y2="121.533" gradientUnits="userSpaceOnUse">
<stop stop-color="#F9D4BF"/>
<stop offset="0.2279" stop-color="#BA9B57"/>
<stop offset="0.414" stop-color="#F9C46E"/>
<stop offset="0.586" stop-color="#F0B963"/>
<stop offset="0.7721" stop-color="#F9F3BB"/>
<stop offset="1" stop-color="#C1A059"/>
</linearGradient>
<linearGradient id="paint14_linear_95_18966" x1="-90.2981" y1="146.173" x2="805.365" y2="121.533" gradientUnits="userSpaceOnUse">
<stop stop-color="#F9D4BF"/>
<stop offset="0.2279" stop-color="#BA9B57"/>
<stop offset="0.414" stop-color="#F9C46E"/>
<stop offset="0.586" stop-color="#F0B963"/>
<stop offset="0.7721" stop-color="#F9F3BB"/>
<stop offset="1" stop-color="#C1A059"/>
</linearGradient>
<linearGradient id="paint15_linear_95_18966" x1="-90.2981" y1="146.173" x2="805.365" y2="121.533" gradientUnits="userSpaceOnUse">
<stop stop-color="#F9D4BF"/>
<stop offset="0.2279" stop-color="#BA9B57"/>
<stop offset="0.414" stop-color="#F9C46E"/>
<stop offset="0.586" stop-color="#F0B963"/>
<stop offset="0.7721" stop-color="#F9F3BB"/>
<stop offset="1" stop-color="#C1A059"/>
</linearGradient>
<linearGradient id="paint16_linear_95_18966" x1="-90.2981" y1="146.173" x2="805.365" y2="121.533" gradientUnits="userSpaceOnUse">
<stop stop-color="#F9D4BF"/>
<stop offset="0.2279" stop-color="#BA9B57"/>
<stop offset="0.414" stop-color="#F9C46E"/>
<stop offset="0.586" stop-color="#F0B963"/>
<stop offset="0.7721" stop-color="#F9F3BB"/>
<stop offset="1" stop-color="#C1A059"/>
</linearGradient>
<linearGradient id="paint17_linear_95_18966" x1="-90.2981" y1="146.173" x2="805.365" y2="121.533" gradientUnits="userSpaceOnUse">
<stop stop-color="#F9D4BF"/>
<stop offset="0.2279" stop-color="#BA9B57"/>
<stop offset="0.414" stop-color="#F9C46E"/>
<stop offset="0.586" stop-color="#F0B963"/>
<stop offset="0.7721" stop-color="#F9F3BB"/>
<stop offset="1" stop-color="#C1A059"/>
</linearGradient>
<linearGradient id="paint18_linear_95_18966" x1="-90.2981" y1="146.173" x2="805.365" y2="121.533" gradientUnits="userSpaceOnUse">
<stop stop-color="#F9D4BF"/>
<stop offset="0.2279" stop-color="#BA9B57"/>
<stop offset="0.414" stop-color="#F9C46E"/>
<stop offset="0.586" stop-color="#F0B963"/>
<stop offset="0.7721" stop-color="#F9F3BB"/>
<stop offset="1" stop-color="#C1A059"/>
</linearGradient>
</defs>
</svg>
