<svg width="469" height="115" viewBox="0 0 469 115" fill="none" xmlns="http://www.w3.org/2000/svg">
<path d="M37.4258 57.8174C37.3521 53.8878 37.3468 50.1368 37.4099 46.5642C37.5057 42.3649 37.7428 38.6232 38.1213 35.3391C38.4997 32.055 39.026 29.6013 39.7001 27.9781C40.3179 27.8094 41.1825 27.7509 42.2941 27.8023C43.4423 27.7715 44.6247 27.8299 45.8414 27.9775C47.058 28.1251 48.2083 28.3664 49.2921 28.7015C50.3531 28.9771 51.1052 29.3369 51.5485 29.7811C50.4164 31.9894 49.5921 35.0009 49.0759 38.8155C48.5963 42.5478 48.3176 46.7148 48.2397 51.3167C48.2213 55.8957 48.3834 60.6785 48.7259 65.6651C49.0457 70.5921 49.4983 75.3317 50.0837 79.884C50.6692 84.4362 51.3488 88.6111 52.1226 92.4087C52.9558 96.1835 53.7945 99.1715 54.6385 101.373C55.0263 102.384 55.3551 102.975 55.6248 103.144C54.2932 103.586 53.2501 103.713 52.4955 103.525C51.7637 103.396 51.1281 103.162 50.5886 102.823C50.1315 102.521 49.6629 102.189 49.183 101.827C48.7853 101.502 48.2732 101.323 47.6465 101.29C47.1616 101.271 46.645 100.992 46.0966 100.451C45.5482 99.911 45.0068 99.2998 44.4723 98.6176C43.9744 97.8532 43.5063 97.0773 43.068 96.29C42.6296 95.5028 42.3078 94.8414 42.1025 94.306C41.2813 92.1643 40.5478 89.2725 39.9019 85.6305C39.2927 81.9063 38.7891 77.8345 38.3911 73.4151C38.0874 70.6655 37.8502 67.8222 37.6793 64.8852C37.0916 67.0895 36.4467 69.1451 35.7449 71.052C35.0292 73.1006 34.2336 74.941 33.3582 76.5732C32.5423 78.1826 31.7244 79.5198 30.9045 80.5848C25.5046 82.5189 20.7223 82.2372 16.5575 79.7399C12.4293 77.1602 9.03081 72.3901 6.36185 65.4296C5.56345 63.3474 4.85718 60.6157 4.24309 57.2345C3.66566 53.771 3.09474 50.6804 2.53029 47.9626C1.96584 45.2447 1.22827 41.8086 0.317627 37.654C2.58232 37.3315 4.87833 37.7135 7.20563 38.8001C9.59242 39.8638 11.8781 41.3757 14.0627 43.3358C13.8605 44.2322 13.706 45.5198 13.599 47.1985C13.5516 48.8544 13.6931 51.3591 14.0236 54.7126C14.3541 58.066 15.1125 61.2895 16.2987 64.3831C17.7815 68.25 19.455 71.1908 21.3193 73.2055C23.2203 75.1379 25.0836 75.9929 26.909 75.7707C28.5479 74.5281 30.339 72.1695 32.2821 68.6948C34.0052 65.714 35.7197 62.0882 37.4258 57.8174Z" fill="url(#paint0_linear_59_1293)"/>
<path d="M81.3594 90.4774C77.7659 91.1275 74.5367 90.4103 71.672 88.3257C68.8073 86.2411 66.7682 83.1192 65.5548 78.9599C64.8411 76.5133 64.4676 73.8678 64.4343 71.0236C64.401 68.1793 64.7003 65.3376 65.3322 62.4984C65.9462 59.5981 66.8495 56.7793 68.0421 54.042C69.2347 51.3047 70.6695 48.8287 72.3463 46.6139C74.9788 43.1247 77.7631 40.9518 80.699 40.0953C82.9597 40.5641 85.5198 42.1734 88.3795 44.9232C88.6853 44.834 88.9606 44.7537 89.2053 44.6823C89.4321 44.5498 89.6984 44.4389 90.0042 44.3497C93.246 43.404 95.7055 45.8059 97.3828 51.5555C98.507 55.4089 98.9354 59.2662 98.668 63.1274C98.4439 66.9095 97.6107 70.5375 96.1684 74.0113C94.7873 77.4673 92.8225 80.629 90.274 83.4963C87.7689 86.2846 84.7973 88.6117 81.3594 90.4774ZM77.6074 60.2117C76.978 61.9218 76.4454 63.7364 76.0097 65.6556C75.574 67.5747 75.2696 69.4887 75.0964 71.3976C74.9053 73.2454 74.8583 75.018 74.9552 76.7153C75.0343 78.3515 75.2523 79.7813 75.6092 81.0046C76.0374 82.4726 76.6925 83.808 77.5744 85.0109C78.4563 86.2138 79.2298 86.8178 79.895 86.8228C82.469 85.4082 84.6467 83.545 86.428 81.2334C88.2527 78.8427 89.625 76.1525 90.5449 73.163C91.5259 70.1555 92.0112 66.9277 92.0009 63.4794C92.0516 60.0133 91.5506 56.4759 90.4979 52.8671C90.0339 51.2768 89.5764 50.0497 89.1252 49.1857C88.6741 48.3218 88.1363 47.6158 87.5118 47.0679C85.0525 48.6482 83.0112 50.6375 81.3879 53.0358C79.8257 55.4163 78.5656 57.8083 77.6074 60.2117Z" fill="url(#paint1_linear_59_1293)"/>
<path d="M108.543 111.879C107.618 111.81 106.926 110.977 106.466 109.38C106.049 108.621 105.662 107.692 105.305 106.595C105.01 105.485 104.715 104.212 104.419 102.777C104.148 101.466 103.992 99.6117 103.952 97.2127C103.925 94.8762 103.989 92.1954 104.145 89.1705C104.364 86.1326 104.693 82.8441 105.133 79.305C105.56 75.7035 106.105 72.0451 106.769 68.3296C107.564 63.6761 108.264 59.6606 108.867 56.2829C109.458 52.8428 109.92 49.8846 110.255 47.4083C110.651 44.9192 110.944 42.8742 111.134 41.2736C111.387 39.66 111.559 38.2906 111.652 37.1654C111.747 36.3651 111.934 35.383 112.214 34.2191C112.494 33.0552 112.837 31.8785 113.242 30.6888C113.696 29.4239 114.17 28.2525 114.663 27.1748C115.143 26.0346 115.612 25.1569 116.071 24.5417C118.319 24.4026 120.494 24.5388 122.596 24.9504C124.698 25.362 126.045 25.8971 126.636 26.5556C125.93 27.5473 125.196 29.0326 124.434 31.0118C123.659 32.9286 122.953 35.0261 122.318 37.3043C121.67 39.5202 121.128 41.7791 120.693 44.0811C120.257 46.383 119.989 48.3903 119.887 50.1029C120.292 48.9132 120.865 47.5913 121.605 46.1371C122.346 44.6829 123.52 42.6512 125.128 40.0419C126.947 37.1939 128.726 34.9396 130.465 33.2792C132.253 31.5435 133.896 30.521 135.394 30.2116C137.765 29.7218 139.835 29.9774 141.603 30.9784C143.434 31.9665 144.562 33.4902 144.987 35.5493C145.915 40.0419 146.088 44.658 145.505 49.3976C144.91 54.0748 143.576 58.4818 141.503 62.6185C140.725 64.2104 139.748 65.7785 138.571 67.3229C137.393 68.8673 136.128 70.2999 134.774 71.6205C133.408 72.8787 132.034 73.9432 130.652 74.8142C129.271 75.6851 127.987 76.243 126.801 76.4879C125.678 76.7199 124.635 76.7078 123.671 76.4514C122.757 76.1198 122.073 75.6431 121.619 75.0211C123.756 73.0833 125.715 70.5967 127.495 67.5615C129.275 64.5263 130.791 61.1554 132.042 57.4487C133.343 53.6667 134.311 49.6932 134.947 45.5281C135.645 41.3501 135.956 37.187 135.88 33.0389C133.767 34.7766 131.898 36.5941 130.273 38.4912C128.697 40.313 127.219 42.6028 125.836 45.3607C124.157 48.5702 122.837 51.1527 121.874 53.1081C120.912 55.0635 120.116 56.7242 119.488 58.0902C118.921 59.4434 118.467 60.7083 118.125 61.8851C117.832 62.9865 117.528 64.3505 117.213 65.977C116.752 68.1541 116.27 71.0187 115.768 74.5707C115.315 78.0474 114.884 81.9426 114.473 86.2562C114.126 90.557 113.798 95.1138 113.491 99.9266C113.26 104.789 113.053 109.614 112.87 114.401C112.158 114.418 111.462 114.041 110.783 113.271C110.168 112.812 109.709 112.484 109.408 112.286C109.169 112.075 108.881 111.939 108.543 111.879Z" fill="url(#paint2_linear_59_1293)"/>
<path d="M186.1 41.9573C186.843 40.0141 187.41 38.5073 187.802 37.4372C190.427 29.4466 192.658 25.3477 194.494 25.1404C195.76 24.9975 196.97 25.2136 198.125 25.7885C199.337 26.2931 200.235 27.1534 200.821 28.3697C200.466 30.3334 199.773 32.7199 198.744 35.5291C197.778 38.3311 196.798 41.2951 195.804 44.4208C194.803 47.4833 193.925 50.4998 193.17 53.4704C192.479 56.4338 192.262 59.0552 192.519 61.3344C192.669 62.664 192.959 63.529 193.389 63.9293C193.812 64.2663 194.371 64.3955 195.068 64.3169C195.828 64.2311 196.51 64.0259 197.114 63.7012C197.775 63.306 198.264 63.0906 198.58 63.0549C198.989 63.2653 199.246 63.5568 199.352 63.9295C199.458 64.3023 199.529 64.6469 199.565 64.9635C198.413 66.1194 197.208 67.089 195.95 67.8722C194.699 68.7187 193.25 69.2348 191.604 69.4206C190.085 69.5921 188.79 69.4817 187.72 69.0896C186.713 68.6902 185.843 68.0831 185.11 67.2682C184.377 66.4532 183.819 65.4902 183.437 64.3792C183.055 63.2681 182.789 62.0478 182.639 60.7182C182.396 58.5656 182.438 56.3808 182.765 54.1638C182.835 53.643 182.936 53.1186 183.069 52.5907C181.046 54.5503 178.557 56.0814 175.604 57.1841C174.323 57.2004 172.958 57.0339 171.508 56.6846C170.051 56.272 168.657 55.5637 167.325 54.5599C166.008 53.6826 164.75 52.4781 163.551 50.9463C162.627 53.5512 161.748 56.2793 160.916 59.1304C159.634 66.5206 158.53 70.9412 157.604 72.3922C156.748 73.8995 155.965 74.9175 155.255 75.4465C153.84 74.8368 152.737 73.8712 151.947 72.5498C151.164 71.2916 150.532 69.9523 150.051 68.5319C149.915 67.3289 149.902 65.7915 150.011 63.9197C150.184 62.0408 150.43 59.9611 150.75 57.6809C151.125 55.3301 151.617 52.8701 152.225 50.3009C152.833 47.7316 153.535 45.1517 154.333 42.561C156.11 36.7179 157.801 32.1027 159.407 28.7156C161.076 25.3213 162.149 23.4689 162.627 23.1585C164.33 23.4792 166.01 24.4438 167.666 26.0522C169.315 27.5973 170.606 29.3752 171.538 31.386C171.035 33.174 169.602 36.67 167.24 41.8738C167.247 41.9371 167.222 42.004 167.166 42.0744C168.46 45.5833 169.984 48.0081 171.738 49.349C173.57 50.8094 175.482 51.5554 177.473 51.5872C179.815 50.7458 181.652 49.4163 182.986 47.5987C184.376 45.7106 185.414 43.8301 186.1 41.9573Z" fill="url(#paint3_linear_59_1293)"/>
<path d="M232.769 63.1315C231.539 62.1363 230.685 60.8787 230.209 59.3587C229.797 57.8374 229.579 56.5353 229.558 55.4523C229.531 54.1146 229.668 52.9648 229.968 52.0029C229.713 52.0079 229.15 52.5289 228.278 53.5659C227.406 54.6028 226.443 55.8328 225.388 57.2557C224.396 58.6774 223.404 60.0672 222.412 61.4252C221.419 62.7832 220.674 63.7857 220.177 64.4328C219.367 65.3411 218.584 66.0576 217.83 66.5824C217.139 67.1059 216.572 67.404 216.127 67.4765C215.106 67.4331 214.019 67.2316 212.865 66.8721C211.776 66.5751 210.715 66.1182 209.683 65.5014C208.715 64.8833 207.84 64.1359 207.058 63.2592C206.339 62.3813 205.841 61.3715 205.564 60.2299C205.528 58.4463 205.531 56.9805 205.572 55.8326C205.677 54.6834 205.875 53.4368 206.167 52.0927C206.692 49.6606 207.466 46.905 208.488 43.8258C209.574 40.7453 210.821 37.7253 212.228 34.766C213.634 31.7429 215.203 28.9396 216.936 26.3561C218.732 23.7076 220.634 21.6306 222.644 20.125C223.217 20.1136 223.887 20.1641 224.654 20.2763C225.42 20.3248 226.187 20.4689 226.957 20.7086C227.79 20.947 228.561 21.2503 229.269 21.6186C230.04 21.922 230.686 22.3552 231.207 22.9185C230.646 23.5669 229.223 25.73 226.938 29.4078C224.717 33.0843 222.241 38.3591 219.509 45.2322C219.205 45.9392 218.843 46.9661 218.423 48.3127C218.004 49.6593 217.586 51.0696 217.169 52.5436C216.752 54.0176 216.398 55.4585 216.108 56.8662C215.881 58.2728 215.775 59.3901 215.792 60.2182C215.802 60.7278 215.873 61.1088 216.006 61.3611C216.202 61.6121 216.365 61.8 216.495 61.9249C217.443 61.5238 218.632 60.4486 220.063 58.6996C221.494 56.9506 223.48 54.2665 226.021 50.6473C226.641 49.7428 227.353 48.7091 228.158 47.546C229.028 46.3816 229.895 45.1536 230.762 43.8618C231.627 42.5064 232.428 41.1204 233.165 39.7037C233.965 38.2859 234.606 36.8711 235.088 35.4596C235.328 34.6901 235.629 33.7919 235.991 32.7651C236.415 31.6733 236.902 30.5484 237.453 29.3904C238.067 28.2311 238.745 27.0705 239.487 25.9087C240.291 24.6819 241.225 23.5482 242.287 22.5075C243.115 22.491 244.009 22.5689 244.968 22.741C245.928 22.9132 246.825 23.1503 247.659 23.4524C248.556 23.6895 249.327 23.9929 249.971 24.3624C250.615 24.6683 251.099 25.0092 251.426 25.3851C250.335 28.2108 249.115 31.0071 247.768 33.7741C246.421 36.5411 245.169 39.2744 244.012 41.9739C242.853 44.6098 241.886 47.2418 241.109 49.87C240.333 52.4983 239.97 55.0546 240.019 57.539C240.045 58.8767 240.164 60.0533 240.376 61.0688C240.649 62.0193 240.921 62.8424 241.189 63.538C241.457 64.17 241.691 64.7071 241.891 65.1492C242.154 65.59 242.289 65.9697 242.295 66.2883C242.297 66.352 242.235 66.4488 242.11 66.5787C242.048 66.6437 241.985 66.6768 241.921 66.6781C241.475 66.6869 240.9 66.6027 240.195 66.4255C239.491 66.2483 238.689 65.9774 237.789 65.6129C236.955 65.3108 236.087 64.9457 235.187 64.5174C234.35 64.088 233.544 63.626 232.769 63.1315Z" fill="url(#paint4_linear_59_1293)"/>
<path d="M278.097 65.0782C276.955 63.9826 276.211 62.6574 275.865 61.1026C275.582 59.5519 275.476 58.2361 275.546 57.1552C275.632 55.82 275.866 54.6858 276.245 53.7527C275.991 53.7362 275.386 54.2078 274.43 55.1674C273.474 56.127 272.41 57.2712 271.238 58.5999C270.13 59.9328 269.024 61.2339 267.92 62.5032C266.817 63.7724 265.99 64.7085 265.44 65.3114C264.556 66.1479 263.716 66.7958 262.92 67.255C262.187 67.7184 261.596 67.9674 261.147 68.0021C260.134 67.8726 259.068 67.58 257.948 67.1243C256.888 66.7364 255.869 66.1915 254.893 65.4898C253.981 64.7921 253.172 63.9735 252.467 63.0339C251.825 62.0985 251.414 61.0502 251.234 59.8893C251.349 58.109 251.476 56.6487 251.613 55.5083C251.815 54.3721 252.118 53.1467 252.522 51.8321C253.251 49.453 254.255 46.7726 255.533 43.7907C256.876 40.813 258.373 37.9091 260.025 35.0791C261.681 32.1856 263.481 29.5248 265.427 27.0969C267.439 24.6096 269.51 22.7007 271.64 21.3701C272.212 21.4072 272.876 21.5141 273.63 21.6907C274.389 21.8037 275.142 22.0121 275.888 22.3159C276.698 22.6238 277.441 22.9912 278.116 23.418C278.858 23.7854 279.465 24.2716 279.936 24.8768C279.323 25.4756 277.723 27.5108 275.135 30.9825C272.611 34.4583 269.698 39.5051 266.396 46.1229C266.033 46.8017 265.586 47.7943 265.054 49.1007C264.522 50.407 263.987 51.777 263.447 53.2105C262.907 54.6441 262.433 56.0499 262.024 57.4281C261.679 58.8104 261.48 59.9149 261.426 60.7414C261.393 61.2501 261.432 61.6357 261.543 61.8983C261.717 62.165 261.864 62.366 261.983 62.5014C262.961 62.1817 264.237 61.2109 265.811 59.589C267.384 57.9671 269.59 55.4603 272.428 52.0687C273.121 51.2197 273.918 50.2498 274.819 49.1589C275.783 48.0721 276.752 46.9218 277.724 45.7078C278.701 44.4303 279.616 43.1169 280.47 41.7675C281.387 40.4223 282.145 39.0668 282.745 37.7009C283.048 36.9544 283.424 36.0849 283.871 35.0923C284.387 34.0403 284.967 32.9606 285.614 31.8532C286.324 30.7499 287.097 29.6508 287.935 28.5557C288.839 27.4013 289.865 26.3504 291.012 25.4031C291.839 25.4567 292.723 25.6098 293.664 25.8623C294.605 26.1149 295.479 26.4269 296.285 26.7984C297.159 27.1104 297.901 27.4778 298.512 27.9005C299.127 28.2596 299.581 28.6402 299.875 29.0423C298.549 31.7657 297.098 34.4491 295.522 37.0925C293.946 39.7358 292.467 42.3536 291.086 44.9457C289.709 47.4743 288.523 50.0152 287.527 52.5685C286.532 55.1217 285.954 57.6382 285.793 60.1179C285.707 61.4531 285.726 62.6356 285.851 63.6653C286.043 64.6355 286.244 65.4785 286.453 66.1944C286.666 66.8467 286.853 67.4016 287.015 67.859C287.241 68.3206 287.343 68.7103 287.323 69.0282C287.319 69.0918 287.249 69.183 287.113 69.302C287.046 69.3614 286.98 69.3891 286.916 69.385C286.471 69.3561 285.905 69.2237 285.218 68.9876C284.531 68.7515 283.755 68.4139 282.89 67.9747C282.084 67.6032 281.25 67.1661 280.389 66.6633C279.591 66.1647 278.827 65.6363 278.097 65.0782ZM293.026 17.9676C291.763 17.758 290.448 17.3536 289.082 16.7542C287.721 16.0914 286.439 15.1783 285.238 14.0149C284.104 12.7922 283.082 11.3213 282.171 9.6022C281.329 7.82367 280.764 5.71194 280.475 3.26698C281.054 2.21906 282.021 1.57941 283.377 1.34804C284.796 1.12079 286.086 0.91709 287.247 0.736938C287.874 4.86387 288.96 7.80747 290.506 9.56774C292.116 11.3321 293.898 12.4054 295.852 12.7874C298.305 12.3718 300.349 11.3869 301.982 9.83263C303.682 8.21895 305.154 6.20728 306.395 3.79765C307.019 4.0296 307.488 4.6666 307.804 5.70863C306.966 8.78293 305.229 11.4478 302.593 13.7032C299.961 15.895 296.772 17.3165 293.026 17.9676Z" fill="url(#paint5_linear_59_1293)"/>
<path d="M359.915 47.0377C359.461 47.7304 358.975 48.4172 358.458 49.0981C356.65 51.4813 354.811 54.0211 352.944 56.7174C351.088 59.3511 349.363 61.977 347.77 64.5951C346.239 67.225 345.262 69.6671 344.838 71.9215C344.592 73.2365 344.615 74.1485 344.908 74.6574C345.214 75.1037 345.711 75.3914 346.399 75.5208C347.151 75.6618 347.863 75.6659 348.536 75.533C349.284 75.3492 349.814 75.2867 350.127 75.3455C350.456 75.6665 350.617 76.0207 350.609 76.4082C350.601 76.7957 350.567 77.146 350.509 77.4591C349.068 78.2259 347.632 78.799 346.199 79.1783C344.755 79.6203 343.218 79.6885 341.59 79.3828C340.087 79.1007 338.882 78.6151 337.974 77.926C337.129 77.2487 336.475 76.4129 336.014 75.4187C335.552 74.4244 335.302 73.3402 335.263 72.166C335.224 70.9918 335.328 69.7471 335.575 68.4321C335.974 66.303 336.65 64.2581 337.602 62.2974C338.565 60.274 339.599 58.3936 340.703 56.656C341.881 54.8676 343.062 53.2416 344.244 51.778C345.438 50.2518 346.472 48.89 347.345 47.6925L350.199 43.3662C349.984 43.1313 349.737 42.8905 349.459 42.6439C348.79 42.0645 348.016 41.53 347.135 41.0406C346.266 40.4885 345.411 40.0363 344.57 39.6838C343.803 39.2805 343.2 39.0377 342.762 38.9554C342.135 38.8379 341.437 38.9336 340.666 39.2426C339.969 39.5008 339.286 39.8588 338.616 40.3166C337.947 40.7744 337.34 41.2439 336.796 41.7252C336.314 42.2183 336.019 42.5842 335.909 42.8229C334.438 42.028 333.232 41.0238 332.293 39.8103C331.354 38.5967 330.934 36.8647 331.032 34.6142C333.08 32.3406 334.873 30.7323 336.411 29.7894C338.012 28.8582 339.813 28.4183 341.813 28.4696C344.583 30.2863 347.125 32.2869 349.438 34.4715C351.762 36.5934 353.744 38.813 355.384 41.1305C356.417 40.8058 357.388 40.4695 358.296 40.1213C359.267 39.7849 360.402 39.609 361.701 39.5937C363.063 40.6273 363.834 42.3926 364.013 44.8898C363.25 45.8486 362.402 46.5646 361.471 47.038C361.185 47.1789 360.666 47.1788 359.915 47.0377Z" fill="url(#paint6_linear_59_1293)"/>
<path d="M400.11 51.3605C400.726 51.5253 401.401 51.838 402.135 52.2984C402.947 52.7138 403.642 53.1967 404.22 53.7473C404.815 54.2363 405.278 54.7232 405.61 55.2078C406.004 55.709 406.159 56.1134 406.077 56.4211C404.154 58.6765 402.315 60.9873 400.56 63.3536C398.821 65.6584 397.261 67.9121 395.88 70.1146C394.498 72.3172 393.312 74.4071 392.321 76.3843C391.391 78.378 390.721 80.1442 390.309 81.6829C389.847 83.4062 389.644 84.902 389.701 86.1702C389.773 87.377 390.174 88.3419 390.904 89.065C390.034 89.3596 388.973 89.5042 387.721 89.4988C386.469 89.4934 385.382 89.3671 384.458 89.1198C381.135 88.2299 380.083 85.5076 381.303 80.9532C382.242 77.445 384.697 72.9575 388.667 67.4907C386.678 69.9922 384.546 72.2904 382.27 74.3853C380.01 76.4187 377.794 78.1669 375.622 79.6298C373.449 81.0928 371.336 82.209 369.283 82.9784C367.308 83.7028 365.58 83.9986 364.099 83.8657C361.854 83.1328 360.296 81.5613 359.425 79.1512C358.569 76.6796 358.57 73.8435 359.427 70.6431C360.35 67.1965 362.061 63.763 364.56 60.3426C367.059 56.9223 369.884 53.886 373.035 51.2339C376.247 48.5982 379.495 46.5658 382.78 45.1369C386.082 43.6463 389.011 43.1774 391.567 43.73C392.133 44.0795 392.711 44.6301 393.301 45.3817C393.953 46.1499 394.519 46.9939 394.998 47.9138C395.539 48.8501 395.948 49.7843 396.226 50.7162C396.521 51.5866 396.625 52.307 396.538 52.8774C393.977 52.5875 391.102 53.1037 387.911 54.426C384.782 55.7649 381.754 57.5922 378.825 59.9081C375.974 62.1789 373.435 64.764 371.208 67.6634C368.98 70.5627 367.487 73.428 366.729 76.2592C366.416 77.4286 366.649 78.2825 367.428 78.821C369.312 78.9296 371.778 77.9738 374.825 75.9536C377.889 73.8718 381.833 70.4756 386.656 65.7648C387.568 64.8218 388.575 63.7721 389.676 62.6159C390.839 61.4761 392.018 60.2748 393.213 59.0119C394.409 57.749 395.574 56.4779 396.708 55.1986C397.92 53.8742 399.054 52.5948 400.11 51.3605Z" fill="url(#paint7_linear_59_1293)"/>
<path d="M423.979 98.2998C423.181 96.9327 422.83 95.4541 422.924 93.864C423.078 92.2953 423.337 91.0009 423.701 89.9808C424.151 88.7207 424.686 87.6941 425.308 86.9011C425.068 86.8154 424.356 87.1027 423.173 87.7629C421.991 88.4231 420.653 89.2313 419.162 90.1873C417.731 91.1647 416.31 92.1121 414.9 93.0295C413.49 93.9469 412.438 94.62 411.744 95.0487C410.664 95.6103 409.678 96.0027 408.787 96.2257C407.955 96.4701 407.319 96.5473 406.877 96.4574C405.939 96.0547 404.994 95.4805 404.042 94.7349C403.129 94.0707 402.299 93.2672 401.554 92.3245C400.868 91.4031 400.315 90.3938 399.894 89.2967C399.534 88.221 399.427 87.1002 399.573 85.9344C400.172 84.2542 400.695 82.8848 401.141 81.8261C401.646 80.7888 402.274 79.6936 403.024 78.5406C404.378 76.4531 406.079 74.1513 408.127 71.6351C410.235 69.1404 412.472 66.7592 414.838 64.4915C417.225 62.1639 419.687 60.0998 422.224 58.2993C424.842 56.4602 427.358 55.1933 429.771 54.4986C430.311 54.6914 430.919 54.9763 431.597 55.3534C432.295 55.6704 432.962 56.0775 433.596 56.5746C434.291 57.093 434.904 57.6501 435.435 58.2458C436.048 58.8029 436.498 59.4371 436.785 60.1485C436.031 60.5558 433.933 62.0734 430.492 64.7012C427.111 67.3505 422.924 71.4035 417.932 76.8603C417.396 77.4133 416.694 78.2449 415.824 79.355C414.954 80.4652 414.063 81.6355 413.15 82.8657C412.237 84.0959 411.395 85.3175 410.624 86.5306C409.913 87.765 409.418 88.7723 409.139 89.5524C408.968 90.0324 408.899 90.4139 408.934 90.6968C409.028 91.0011 409.114 91.2346 409.191 91.3975C410.22 91.3587 411.713 90.7756 413.672 89.6481C415.63 88.5206 418.439 86.7158 422.099 84.2336C422.999 83.6077 424.032 82.8939 425.198 82.0923C426.423 81.312 427.67 80.4718 428.939 79.5716C430.229 78.6113 431.469 77.5996 432.661 76.5365C433.912 75.4948 435.013 74.3996 435.965 73.2508C436.462 72.6164 437.062 71.8834 437.764 71.0518C438.549 70.1817 439.404 69.3029 440.329 68.4156C441.315 67.5496 442.36 66.7051 443.466 65.8821C444.653 65.0204 445.928 64.2916 447.291 63.6956C448.071 63.9741 448.879 64.364 449.715 64.8653C450.551 65.3666 451.305 65.9065 451.978 66.485C452.732 67.0249 453.345 67.582 453.817 68.1563C454.31 68.6705 454.642 69.1612 454.814 69.6283C452.791 71.8831 450.659 74.0649 448.418 76.174C446.177 78.283 444.036 80.3942 441.996 82.5075C439.978 84.5608 438.14 86.6783 436.481 88.8601C434.823 91.042 433.576 93.303 432.741 95.6433C432.291 96.9034 431.985 98.0456 431.822 99.07C431.741 100.056 431.702 100.922 431.707 101.667C431.733 102.353 431.76 102.938 431.791 103.422C431.881 103.928 431.872 104.331 431.765 104.631C431.744 104.691 431.651 104.76 431.489 104.837C431.407 104.875 431.336 104.884 431.276 104.863C430.856 104.713 430.349 104.43 429.753 104.014C429.157 103.599 428.503 103.061 427.792 102.401C427.119 101.822 426.437 101.173 425.747 100.453C425.117 99.7547 424.527 99.0369 423.979 98.2998ZM451.269 57.0989C450.112 56.5505 448.959 55.8006 447.81 54.8493C446.683 53.838 445.701 52.6081 444.865 51.1596C444.111 49.6725 443.532 47.9775 443.129 46.0746C442.807 44.1331 442.843 41.9473 443.237 39.5171C444.081 38.6683 445.187 38.3189 446.554 38.4687C447.981 38.6399 449.278 38.7982 450.444 38.9438C449.913 43.0841 450.149 46.2128 451.152 48.3299C452.215 50.4684 453.634 51.9897 455.409 52.8938C457.882 53.1677 460.117 52.7816 462.114 51.7355C464.193 50.6508 466.16 49.1204 468.015 47.1443C468.551 47.5385 468.827 48.2799 468.845 49.3686C467.195 52.0947 464.793 54.1802 461.639 55.6251C458.506 57.0099 455.05 57.5012 451.269 57.0989Z" fill="url(#paint8_linear_59_1293)"/>
<defs>
<linearGradient id="paint0_linear_59_1293" x1="-4" y1="53.5" x2="453.793" y2="75.0735" gradientUnits="userSpaceOnUse">
<stop stop-color="#F9D4BF"/>
<stop offset="0.2279" stop-color="#BA9B57"/>
<stop offset="0.414" stop-color="#F9C46E"/>
<stop offset="0.586" stop-color="#F0B963"/>
<stop offset="0.7721" stop-color="#F9F3BB"/>
<stop offset="1" stop-color="#C1A059"/>
</linearGradient>
<linearGradient id="paint1_linear_59_1293" x1="-4" y1="53.5" x2="453.793" y2="75.0735" gradientUnits="userSpaceOnUse">
<stop stop-color="#F9D4BF"/>
<stop offset="0.2279" stop-color="#BA9B57"/>
<stop offset="0.414" stop-color="#F9C46E"/>
<stop offset="0.586" stop-color="#F0B963"/>
<stop offset="0.7721" stop-color="#F9F3BB"/>
<stop offset="1" stop-color="#C1A059"/>
</linearGradient>
<linearGradient id="paint2_linear_59_1293" x1="-4" y1="53.5" x2="453.793" y2="75.0735" gradientUnits="userSpaceOnUse">
<stop stop-color="#F9D4BF"/>
<stop offset="0.2279" stop-color="#BA9B57"/>
<stop offset="0.414" stop-color="#F9C46E"/>
<stop offset="0.586" stop-color="#F0B963"/>
<stop offset="0.7721" stop-color="#F9F3BB"/>
<stop offset="1" stop-color="#C1A059"/>
</linearGradient>
<linearGradient id="paint3_linear_59_1293" x1="-4" y1="53.5" x2="453.793" y2="75.0735" gradientUnits="userSpaceOnUse">
<stop stop-color="#F9D4BF"/>
<stop offset="0.2279" stop-color="#BA9B57"/>
<stop offset="0.414" stop-color="#F9C46E"/>
<stop offset="0.586" stop-color="#F0B963"/>
<stop offset="0.7721" stop-color="#F9F3BB"/>
<stop offset="1" stop-color="#C1A059"/>
</linearGradient>
<linearGradient id="paint4_linear_59_1293" x1="-4" y1="53.5" x2="453.793" y2="75.0735" gradientUnits="userSpaceOnUse">
<stop stop-color="#F9D4BF"/>
<stop offset="0.2279" stop-color="#BA9B57"/>
<stop offset="0.414" stop-color="#F9C46E"/>
<stop offset="0.586" stop-color="#F0B963"/>
<stop offset="0.7721" stop-color="#F9F3BB"/>
<stop offset="1" stop-color="#C1A059"/>
</linearGradient>
<linearGradient id="paint5_linear_59_1293" x1="-4" y1="53.5" x2="453.793" y2="75.0735" gradientUnits="userSpaceOnUse">
<stop stop-color="#F9D4BF"/>
<stop offset="0.2279" stop-color="#BA9B57"/>
<stop offset="0.414" stop-color="#F9C46E"/>
<stop offset="0.586" stop-color="#F0B963"/>
<stop offset="0.7721" stop-color="#F9F3BB"/>
<stop offset="1" stop-color="#C1A059"/>
</linearGradient>
<linearGradient id="paint6_linear_59_1293" x1="-4" y1="53.5" x2="453.793" y2="75.0735" gradientUnits="userSpaceOnUse">
<stop stop-color="#F9D4BF"/>
<stop offset="0.2279" stop-color="#BA9B57"/>
<stop offset="0.414" stop-color="#F9C46E"/>
<stop offset="0.586" stop-color="#F0B963"/>
<stop offset="0.7721" stop-color="#F9F3BB"/>
<stop offset="1" stop-color="#C1A059"/>
</linearGradient>
<linearGradient id="paint7_linear_59_1293" x1="-4" y1="53.5" x2="453.793" y2="75.0735" gradientUnits="userSpaceOnUse">
<stop stop-color="#F9D4BF"/>
<stop offset="0.2279" stop-color="#BA9B57"/>
<stop offset="0.414" stop-color="#F9C46E"/>
<stop offset="0.586" stop-color="#F0B963"/>
<stop offset="0.7721" stop-color="#F9F3BB"/>
<stop offset="1" stop-color="#C1A059"/>
</linearGradient>
<linearGradient id="paint8_linear_59_1293" x1="-4" y1="53.5" x2="453.793" y2="75.0735" gradientUnits="userSpaceOnUse">
<stop stop-color="#F9D4BF"/>
<stop offset="0.2279" stop-color="#BA9B57"/>
<stop offset="0.414" stop-color="#F9C46E"/>
<stop offset="0.586" stop-color="#F0B963"/>
<stop offset="0.7721" stop-color="#F9F3BB"/>
<stop offset="1" stop-color="#C1A059"/>
</linearGradient>
</defs>
</svg>
