<svg width="609" height="108" viewBox="0 0 609 108" fill="none" xmlns="http://www.w3.org/2000/svg">
<path d="M9.6923 82.321C10.6799 77.9879 11.7377 73.9497 12.8658 70.2062C14.0168 66.411 15.2138 63.0703 16.4569 60.1841C17.6999 57.2979 18.9548 54.9439 20.2213 53.1222C21.4879 51.3004 22.7534 50.1446 24.0179 49.6548C24.5013 49.4675 25.0936 49.4528 25.7948 49.6106C26.5331 49.754 27.2586 50.0312 27.9714 50.4422C28.7213 50.8388 29.3997 51.3274 30.0067 51.9082C30.5993 52.4516 31.0174 53.0411 31.261 53.6767C29.2418 55.3177 27.3529 57.1873 25.5943 59.2856C23.8586 61.332 22.2761 63.5553 20.8467 65.9554C19.4403 68.3037 18.1798 70.8102 17.0654 73.4748C15.9882 76.125 15.1284 78.8412 14.4862 81.6235C15.6687 82.926 17.0244 84.2903 18.5532 85.7163C20.1049 87.0905 21.7166 88.3986 23.3884 89.6404C25.0458 90.8448 26.7347 91.9083 28.4549 92.8307C30.1752 93.7532 31.8066 94.3881 33.3491 94.7353C33.3207 95.2186 33.1551 95.7336 32.8521 96.2804C32.5491 96.8272 32.1945 97.351 31.7885 97.8518C31.3968 98.39 30.9393 98.8678 30.4159 99.2852C29.9296 99.6883 29.4448 99.9834 28.9613 100.171C27.9944 100.545 26.9227 100.424 25.7463 99.8058C24.5842 99.2253 23.2245 98.1847 21.667 96.6839C20.1324 95.1313 18.3772 93.1703 16.4015 90.8009C14.4486 88.3798 12.2122 85.5531 9.6923 82.321ZM9.82286 107.906C8.28067 108.117 6.87993 107.973 5.62061 107.473C4.37563 107.01 3.11906 106.295 1.85089 105.326C1.91336 104.486 1.94565 103.4 1.94774 102.068C1.98703 100.721 2.01899 99.0773 2.04363 97.1354C2.05394 95.1562 2.07263 92.8086 2.09969 90.0929C2.11241 87.3397 2.12345 84.1364 2.1328 80.4828C2.14006 78.1612 2.12034 76.215 2.07366 74.6443C2.06416 73.0591 1.97602 71.5474 1.80924 70.1091C1.66531 68.6189 1.45264 67.0052 1.17123 65.2677C0.88981 63.5303 0.499401 61.3412 0 58.7006C1.67662 58.3947 3.35492 58.539 5.03492 59.1335C6.7521 59.7136 8.36931 60.5901 9.88653 61.763C9.67804 62.4449 9.50263 63.4361 9.36031 64.7365C9.24084 65.9851 9.13297 67.4869 9.03669 69.2418C8.94041 70.9968 8.83422 72.9488 8.71814 75.0978C8.60205 77.2469 8.49176 79.5225 8.38727 81.9248C8.09842 87.1896 8.09398 91.9148 8.37393 96.1004C8.63956 100.249 9.12254 104.184 9.82286 107.906Z" fill="white"/>
<path d="M9.6923 82.321C10.6799 77.9879 11.7377 73.9497 12.8658 70.2062C14.0168 66.411 15.2138 63.0703 16.4569 60.1841C17.6999 57.2979 18.9548 54.9439 20.2213 53.1222C21.4879 51.3004 22.7534 50.1446 24.0179 49.6548C24.5013 49.4675 25.0936 49.4528 25.7948 49.6106C26.5331 49.754 27.2586 50.0312 27.9714 50.4422C28.7213 50.8388 29.3997 51.3274 30.0067 51.9082C30.5993 52.4516 31.0174 53.0411 31.261 53.6767C29.2418 55.3177 27.3529 57.1873 25.5943 59.2856C23.8586 61.332 22.2761 63.5553 20.8467 65.9554C19.4403 68.3037 18.1798 70.8102 17.0654 73.4748C15.9882 76.125 15.1284 78.8412 14.4862 81.6235C15.6687 82.926 17.0244 84.2903 18.5532 85.7163C20.1049 87.0905 21.7166 88.3986 23.3884 89.6404C25.0458 90.8448 26.7347 91.9083 28.4549 92.8307C30.1752 93.7532 31.8066 94.3881 33.3491 94.7353C33.3207 95.2186 33.1551 95.7336 32.8521 96.2804C32.5491 96.8272 32.1945 97.351 31.7885 97.8518C31.3968 98.39 30.9393 98.8678 30.4159 99.2852C29.9296 99.6883 29.4448 99.9834 28.9613 100.171C27.9944 100.545 26.9227 100.424 25.7463 99.8058C24.5842 99.2253 23.2245 98.1847 21.667 96.6839C20.1324 95.1313 18.3772 93.1703 16.4015 90.8009C14.4486 88.3798 12.2122 85.5531 9.6923 82.321ZM9.82286 107.906C8.28067 108.117 6.87993 107.973 5.62061 107.473C4.37563 107.01 3.11906 106.295 1.85089 105.326C1.91336 104.486 1.94565 103.4 1.94774 102.068C1.98703 100.721 2.01899 99.0773 2.04363 97.1354C2.05394 95.1562 2.07263 92.8086 2.09969 90.0929C2.11241 87.3397 2.12345 84.1364 2.1328 80.4828C2.14006 78.1612 2.12034 76.215 2.07366 74.6443C2.06416 73.0591 1.97602 71.5474 1.80924 70.1091C1.66531 68.6189 1.45264 67.0052 1.17123 65.2677C0.88981 63.5303 0.499401 61.3412 0 58.7006C1.67662 58.3947 3.35492 58.539 5.03492 59.1335C6.7521 59.7136 8.36931 60.5901 9.88653 61.763C9.67804 62.4449 9.50263 63.4361 9.36031 64.7365C9.24084 65.9851 9.13297 67.4869 9.03669 69.2418C8.94041 70.9968 8.83422 72.9488 8.71814 75.0978C8.60205 77.2469 8.49176 79.5225 8.38727 81.9248C8.09842 87.1896 8.09398 91.9148 8.37393 96.1004C8.63956 100.249 9.12254 104.184 9.82286 107.906Z" fill="url(#paint0_linear_1_81013)"/>
<path d="M50.6652 90.0215C48.4337 90.5127 46.3988 90.1362 44.5604 88.8919C42.7219 87.6477 41.3759 85.7325 40.5224 83.1465C40.0202 81.6252 39.7263 79.9713 39.6404 78.1845C39.5546 76.3978 39.6767 74.6049 40.0067 72.8061C40.3243 70.9692 40.8245 69.1769 41.5074 67.4292C42.1903 65.6815 43.0305 64.0924 44.028 62.6619C45.5938 60.4085 47.2846 58.9789 49.1002 58.3731C50.5241 58.6158 52.1613 59.5683 54.0117 61.2307C54.2009 61.1676 54.3711 61.1108 54.5224 61.0604C54.6611 60.9719 54.8251 60.896 55.0142 60.8329C57.019 60.1641 58.6114 61.6171 59.7914 65.1919C60.5822 67.5878 60.9382 70.0022 60.8593 72.4349C60.8058 74.817 60.3679 77.1163 59.5457 79.3326C58.7614 81.5364 57.6055 83.5685 56.078 85.4291C54.5759 87.2391 52.7716 88.7699 50.6652 90.0215ZM47.6277 71.0867C47.2734 72.1759 46.982 73.3286 46.7535 74.5448C46.525 75.7609 46.3785 76.9708 46.3139 78.1745C46.2367 79.3401 46.2478 80.4552 46.3472 81.5197C46.4341 82.5462 46.603 83.4397 46.8541 84.2003C47.1554 85.1131 47.5954 85.9373 48.1742 86.673C48.7529 87.4087 49.2503 87.7705 49.6662 87.7584C51.2429 86.8102 52.5615 85.5891 53.6222 84.0954C54.7081 82.5509 55.5044 80.8287 56.0111 78.9287C56.5555 77.0161 56.7851 74.9764 56.6998 72.8095C56.6522 70.63 56.2582 68.4183 55.5176 66.1745C55.1912 65.1857 54.8771 64.425 54.5753 63.8924C54.2736 63.3599 53.9212 62.9286 53.5184 62.5986C52.0172 63.6483 50.7867 64.9454 49.8268 66.49C48.9047 68.022 48.1717 69.5542 47.6277 71.0867Z" fill="white"/>
<path d="M50.6652 90.0215C48.4337 90.5127 46.3988 90.1362 44.5604 88.8919C42.7219 87.6477 41.3759 85.7325 40.5224 83.1465C40.0202 81.6252 39.7263 79.9713 39.6404 78.1845C39.5546 76.3978 39.6767 74.6049 40.0067 72.8061C40.3243 70.9692 40.8245 69.1769 41.5074 67.4292C42.1903 65.6815 43.0305 64.0924 44.028 62.6619C45.5938 60.4085 47.2846 58.9789 49.1002 58.3731C50.5241 58.6158 52.1613 59.5683 54.0117 61.2307C54.2009 61.1676 54.3711 61.1108 54.5224 61.0604C54.6611 60.9719 54.8251 60.896 55.0142 60.8329C57.019 60.1641 58.6114 61.6171 59.7914 65.1919C60.5822 67.5878 60.9382 70.0022 60.8593 72.4349C60.8058 74.817 60.3679 77.1163 59.5457 79.3326C58.7614 81.5364 57.6055 83.5685 56.078 85.4291C54.5759 87.2391 52.7716 88.7699 50.6652 90.0215ZM47.6277 71.0867C47.2734 72.1759 46.982 73.3286 46.7535 74.5448C46.525 75.7609 46.3785 76.9708 46.3139 78.1745C46.2367 79.3401 46.2478 80.4552 46.3472 81.5197C46.4341 82.5462 46.603 83.4397 46.8541 84.2003C47.1554 85.1131 47.5954 85.9373 48.1742 86.673C48.7529 87.4087 49.2503 87.7705 49.6662 87.7584C51.2429 86.8102 52.5615 85.5891 53.6222 84.0954C54.7081 82.5509 55.5044 80.8287 56.0111 78.9287C56.5555 77.0161 56.7851 74.9764 56.6998 72.8095C56.6522 70.63 56.2582 68.4183 55.5176 66.1745C55.1912 65.1857 54.8771 64.425 54.5753 63.8924C54.2736 63.3599 53.9212 62.9286 53.5184 62.5986C52.0172 63.6483 50.7867 64.9454 49.8268 66.49C48.9047 68.022 48.1717 69.5542 47.6277 71.0867Z" fill="url(#paint1_linear_1_81013)"/>
<path d="M89.7446 59.5342C90.0056 58.2525 90.2029 57.2596 90.3363 56.5555C91.1454 51.3291 92.1061 48.5579 93.2183 48.2419C93.9854 48.024 94.7545 48.0346 95.5258 48.2735C96.3245 48.463 96.9665 48.9052 97.4517 49.6002C97.4316 50.855 97.2464 52.4066 96.896 54.255C96.5841 56.0924 96.2801 58.0316 95.9839 60.0728C95.677 62.0753 95.4413 64.0368 95.2769 65.9572C95.1509 67.8668 95.2829 69.5156 95.673 70.9038C95.9006 71.7135 96.1674 72.2207 96.4733 72.4253C96.7685 72.5912 97.127 72.6143 97.5489 72.4945C98.0091 72.3637 98.4093 72.1668 98.7495 71.9036C99.1172 71.591 99.397 71.4074 99.5888 71.3529C99.8622 71.4418 100.051 71.5965 100.154 71.8169C100.257 72.0374 100.336 72.244 100.39 72.4368C99.7966 73.2717 99.1513 73.9963 98.4542 74.6107C97.768 75.2637 96.9263 75.7318 95.9291 76.015C95.0086 76.2765 94.1982 76.3401 93.4978 76.206C92.8358 76.0609 92.2372 75.7729 91.702 75.342C91.1667 74.9111 90.7249 74.3704 90.3764 73.7199C90.0279 73.0694 89.7399 72.3393 89.5124 71.5295C89.1439 70.2185 88.9481 68.8584 88.9249 67.4493C88.9149 67.119 88.9241 66.7833 88.9524 66.4421C87.9026 67.8646 86.5223 69.0686 84.8113 70.0543C84.0226 70.1951 83.163 70.2311 82.2325 70.1623C81.2912 70.0549 80.3587 69.7577 79.4349 69.2706C78.5328 68.8606 77.6341 68.2415 76.7387 67.4133C76.4326 69.1241 76.1673 70.9066 75.9429 72.7608C75.9017 77.4776 75.6689 80.3335 75.2445 81.3285C74.8692 82.3512 74.4894 83.0628 74.105 83.4635C73.1695 83.2295 72.3908 82.7429 71.7689 82.0035C71.1578 81.3027 70.6318 80.5361 70.1908 79.7037C69.9849 78.971 69.8207 78.0183 69.6982 76.8456C69.6141 75.662 69.555 74.3463 69.5209 72.8987C69.5143 71.4016 69.5682 69.8248 69.6825 68.1684C69.7969 66.5121 69.9687 64.8394 70.1981 63.1503C70.702 59.343 71.2775 56.3065 71.9246 54.0407C72.6101 51.7641 73.0846 50.5051 73.3481 50.2637C74.432 50.2889 75.5667 50.7161 76.7523 51.5452C77.927 52.3357 78.9041 53.3073 79.6835 54.46C79.5542 55.6209 79.0246 57.9366 78.0948 61.4069C78.1056 61.4454 78.0973 61.4894 78.0697 61.5389C79.2243 63.5843 80.4111 64.9335 81.63 65.5866C82.909 66.3059 84.1646 66.5738 85.3969 66.3904C86.7568 65.6293 87.7561 64.6168 88.3949 63.3527C89.0611 62.0392 89.511 60.7664 89.7446 59.5342Z" fill="white"/>
<path d="M89.7446 59.5342C90.0056 58.2525 90.2029 57.2596 90.3363 56.5555C91.1454 51.3291 92.1061 48.5579 93.2183 48.2419C93.9854 48.024 94.7545 48.0346 95.5258 48.2735C96.3245 48.463 96.9665 48.9052 97.4517 49.6002C97.4316 50.855 97.2464 52.4066 96.896 54.255C96.5841 56.0924 96.2801 58.0316 95.9839 60.0728C95.677 62.0753 95.4413 64.0368 95.2769 65.9572C95.1509 67.8668 95.2829 69.5156 95.673 70.9038C95.9006 71.7135 96.1674 72.2207 96.4733 72.4253C96.7685 72.5912 97.127 72.6143 97.5489 72.4945C98.0091 72.3637 98.4093 72.1668 98.7495 71.9036C99.1172 71.591 99.397 71.4074 99.5888 71.3529C99.8622 71.4418 100.051 71.5965 100.154 71.8169C100.257 72.0374 100.336 72.244 100.39 72.4368C99.7966 73.2717 99.1513 73.9963 98.4542 74.6107C97.768 75.2637 96.9263 75.7318 95.9291 76.015C95.0086 76.2765 94.1982 76.3401 93.4978 76.206C92.8358 76.0609 92.2372 75.7729 91.702 75.342C91.1667 74.9111 90.7249 74.3704 90.3764 73.7199C90.0279 73.0694 89.7399 72.3393 89.5124 71.5295C89.1439 70.2185 88.9481 68.8584 88.9249 67.4493C88.9149 67.119 88.9241 66.7833 88.9524 66.4421C87.9026 67.8646 86.5223 69.0686 84.8113 70.0543C84.0226 70.1951 83.163 70.2311 82.2325 70.1623C81.2912 70.0549 80.3587 69.7577 79.4349 69.2706C78.5328 68.8606 77.6341 68.2415 76.7387 67.4133C76.4326 69.1241 76.1673 70.9066 75.9429 72.7608C75.9017 77.4776 75.6689 80.3335 75.2445 81.3285C74.8692 82.3512 74.4894 83.0628 74.105 83.4635C73.1695 83.2295 72.3908 82.7429 71.7689 82.0035C71.1578 81.3027 70.6318 80.5361 70.1908 79.7037C69.9849 78.971 69.8207 78.0183 69.6982 76.8456C69.6141 75.662 69.555 74.3463 69.5209 72.8987C69.5143 71.4016 69.5682 69.8248 69.6825 68.1684C69.7969 66.5121 69.9687 64.8394 70.1981 63.1503C70.702 59.343 71.2775 56.3065 71.9246 54.0407C72.6101 51.7641 73.0846 50.5051 73.3481 50.2637C74.432 50.2889 75.5667 50.7161 76.7523 51.5452C77.927 52.3357 78.9041 53.3073 79.6835 54.46C79.5542 55.6209 79.0246 57.9366 78.0948 61.4069C78.1056 61.4454 78.0973 61.4894 78.0697 61.5389C79.2243 63.5843 80.4111 64.9335 81.63 65.5866C82.909 66.3059 84.1646 66.5738 85.3969 66.3904C86.7568 65.6293 87.7561 64.6168 88.3949 63.3527C89.0611 62.0392 89.511 60.7664 89.7446 59.5342Z" fill="url(#paint2_linear_1_81013)"/>
<path d="M130.425 75.2095C130.687 74.5724 130.849 73.8559 130.911 73.06C130.982 72.303 130.946 71.5297 130.805 70.74C130.712 69.9803 130.502 69.2477 130.175 68.5423C129.887 67.8279 129.516 67.1946 129.062 66.6426C128.754 67.0844 128.503 67.6779 128.306 68.423C128.149 69.159 128.063 69.94 128.049 70.7659C128.035 71.5919 128.09 72.3607 128.214 73.0723C128.376 73.7749 128.599 74.2987 128.883 74.6437C129.272 75.0877 129.786 75.2763 130.425 75.2095ZM126.807 66.1813C126.278 66.0168 125.769 65.8477 125.278 65.6741C124.397 65.2217 123.712 64.5588 123.224 63.6854C122.775 62.803 122.473 62.03 122.32 61.3665C122.131 60.5468 122.066 59.8215 122.125 59.1908C121.97 59.227 121.692 59.6208 121.293 60.3721C120.894 61.1234 120.463 62.0055 120.001 63.0182C119.578 64.0218 119.151 65.0059 118.719 65.9705C118.287 66.9351 117.961 67.6488 117.74 68.1116C117.362 68.7758 116.975 69.3184 116.582 69.7394C116.227 70.1513 115.918 70.4084 115.655 70.5109C115.025 70.6168 114.333 70.6341 113.58 70.563C112.875 70.5218 112.167 70.3785 111.456 70.1331C110.783 69.8787 110.151 69.5325 109.559 69.0948C109.006 68.648 108.571 68.0914 108.253 67.425C108.001 66.3321 107.813 65.4298 107.69 64.7182C107.605 63.9975 107.566 63.2047 107.57 62.3397C107.577 60.7749 107.695 58.9788 107.922 56.9512C108.189 54.9146 108.561 52.8944 109.04 50.8906C109.509 48.8477 110.107 46.9188 110.834 45.1039C111.59 43.2409 112.486 41.7156 113.521 40.528C113.871 40.4465 114.287 40.3904 114.771 40.3598C115.246 40.2901 115.735 40.279 116.237 40.3264C116.777 40.3648 117.288 40.4513 117.769 40.5858C118.28 40.6723 118.732 40.8549 119.123 41.1338C118.864 41.6056 118.273 43.1215 117.35 45.6815C116.466 48.2325 115.632 51.8 114.849 56.3841C114.754 56.8587 114.665 57.5376 114.583 58.4207C114.5 59.3038 114.427 60.2259 114.362 61.187C114.298 62.1482 114.267 63.0808 114.271 63.9848C114.314 64.8797 114.394 65.5809 114.511 66.0883C114.583 66.4006 114.676 66.6257 114.79 66.7637C114.943 66.8927 115.067 66.9872 115.162 67.0471C115.691 66.677 116.28 65.8609 116.929 64.5987C117.579 63.3365 118.447 61.4268 119.535 58.8696C119.797 58.2326 120.099 57.5039 120.442 56.6835C120.823 55.8541 121.195 54.9857 121.559 54.0782C121.913 53.1317 122.224 52.1748 122.492 51.2074C122.798 50.2309 123.008 49.2771 123.12 48.3459C123.167 47.8413 123.235 47.2495 123.324 46.5707C123.443 45.8437 123.595 45.0882 123.783 44.3041C124.009 43.5109 124.274 42.7087 124.577 41.8974C124.911 41.038 125.336 40.2191 125.851 39.4406C126.356 39.3228 126.913 39.2546 127.523 39.2358C128.132 39.217 128.712 39.2464 129.261 39.3238C129.841 39.3531 130.352 39.4396 130.794 39.5832C131.227 39.6878 131.568 39.8345 131.816 40.0234C131.514 41.9039 131.129 43.783 130.663 45.6606C130.196 47.5383 129.783 49.3829 129.424 51.1943C129.055 52.9668 128.804 54.712 128.668 56.4301C128.533 58.1482 128.641 59.7684 128.992 61.2907C129.181 62.1104 129.406 62.8189 129.667 63.4162C129.957 63.9655 130.225 64.4171 130.471 64.7712C130.602 64.9873 130.73 65.1839 130.852 65.3609L130.911 65.3473C131.033 65.5244 131.204 65.7314 131.422 65.9684C132.912 67.6364 133.685 69.3895 133.741 71.2274C133.806 73.1045 133.128 74.8668 131.708 76.5144C131.434 76.7429 131.087 76.9266 130.669 77.0652C130.29 77.1949 129.878 77.2704 129.433 77.292C128.988 77.3136 128.549 77.2721 128.115 77.1675C127.691 77.1019 127.312 76.9643 126.977 76.7544C126.304 75.9654 125.792 75.077 125.441 74.0893C125.138 73.1316 125.01 72.1332 125.057 71.094C125.103 70.0547 125.338 69.0333 125.761 68.0297C126.023 67.3926 126.372 66.7765 126.807 66.1813Z" fill="white"/>
<path d="M130.425 75.2095C130.687 74.5724 130.849 73.8559 130.911 73.06C130.982 72.303 130.946 71.5297 130.805 70.74C130.712 69.9803 130.502 69.2477 130.175 68.5423C129.887 67.8279 129.516 67.1946 129.062 66.6426C128.754 67.0844 128.503 67.6779 128.306 68.423C128.149 69.159 128.063 69.94 128.049 70.7659C128.035 71.5919 128.09 72.3607 128.214 73.0723C128.376 73.7749 128.599 74.2987 128.883 74.6437C129.272 75.0877 129.786 75.2763 130.425 75.2095ZM126.807 66.1813C126.278 66.0168 125.769 65.8477 125.278 65.6741C124.397 65.2217 123.712 64.5588 123.224 63.6854C122.775 62.803 122.473 62.03 122.32 61.3665C122.131 60.5468 122.066 59.8215 122.125 59.1908C121.97 59.227 121.692 59.6208 121.293 60.3721C120.894 61.1234 120.463 62.0055 120.001 63.0182C119.578 64.0218 119.151 65.0059 118.719 65.9705C118.287 66.9351 117.961 67.6488 117.74 68.1116C117.362 68.7758 116.975 69.3184 116.582 69.7394C116.227 70.1513 115.918 70.4084 115.655 70.5109C115.025 70.6168 114.333 70.6341 113.58 70.563C112.875 70.5218 112.167 70.3785 111.456 70.1331C110.783 69.8787 110.151 69.5325 109.559 69.0948C109.006 68.648 108.571 68.0914 108.253 67.425C108.001 66.3321 107.813 65.4298 107.69 64.7182C107.605 63.9975 107.566 63.2047 107.57 62.3397C107.577 60.7749 107.695 58.9788 107.922 56.9512C108.189 54.9146 108.561 52.8944 109.04 50.8906C109.509 48.8477 110.107 46.9188 110.834 45.1039C111.59 43.2409 112.486 41.7156 113.521 40.528C113.871 40.4465 114.287 40.3904 114.771 40.3598C115.246 40.2901 115.735 40.279 116.237 40.3264C116.777 40.3648 117.288 40.4513 117.769 40.5858C118.28 40.6723 118.732 40.8549 119.123 41.1338C118.864 41.6056 118.273 43.1215 117.35 45.6815C116.466 48.2325 115.632 51.8 114.849 56.3841C114.754 56.8587 114.665 57.5376 114.583 58.4207C114.5 59.3038 114.427 60.2259 114.362 61.187C114.298 62.1482 114.267 63.0808 114.271 63.9848C114.314 64.8797 114.394 65.5809 114.511 66.0883C114.583 66.4006 114.676 66.6257 114.79 66.7637C114.943 66.8927 115.067 66.9872 115.162 67.0471C115.691 66.677 116.28 65.8609 116.929 64.5987C117.579 63.3365 118.447 61.4268 119.535 58.8696C119.797 58.2326 120.099 57.5039 120.442 56.6835C120.823 55.8541 121.195 54.9857 121.559 54.0782C121.913 53.1317 122.224 52.1748 122.492 51.2074C122.798 50.2309 123.008 49.2771 123.12 48.3459C123.167 47.8413 123.235 47.2495 123.324 46.5707C123.443 45.8437 123.595 45.0882 123.783 44.3041C124.009 43.5109 124.274 42.7087 124.577 41.8974C124.911 41.038 125.336 40.2191 125.851 39.4406C126.356 39.3228 126.913 39.2546 127.523 39.2358C128.132 39.217 128.712 39.2464 129.261 39.3238C129.841 39.3531 130.352 39.4396 130.794 39.5832C131.227 39.6878 131.568 39.8345 131.816 40.0234C131.514 41.9039 131.129 43.783 130.663 45.6606C130.196 47.5383 129.783 49.3829 129.424 51.1943C129.055 52.9668 128.804 54.712 128.668 56.4301C128.533 58.1482 128.641 59.7684 128.992 61.2907C129.181 62.1104 129.406 62.8189 129.667 63.4162C129.957 63.9655 130.225 64.4171 130.471 64.7712C130.602 64.9873 130.73 65.1839 130.852 65.3609L130.911 65.3473C131.033 65.5244 131.204 65.7314 131.422 65.9684C132.912 67.6364 133.685 69.3895 133.741 71.2274C133.806 73.1045 133.128 74.8668 131.708 76.5144C131.434 76.7429 131.087 76.9266 130.669 77.0652C130.29 77.1949 129.878 77.2704 129.433 77.292C128.988 77.3136 128.549 77.2721 128.115 77.1675C127.691 77.1019 127.312 76.9643 126.977 76.7544C126.304 75.9654 125.792 75.077 125.441 74.0893C125.138 73.1316 125.01 72.1332 125.057 71.094C125.103 70.0547 125.338 69.0333 125.761 68.0297C126.023 67.3926 126.372 66.7765 126.807 66.1813Z" fill="url(#paint3_linear_1_81013)"/>
<path d="M158.937 34.9062C159.242 37.3767 159.21 39.565 158.84 41.4712C158.463 43.338 157.736 45.0678 156.658 46.6608C155.611 48.2069 154.249 49.6911 152.571 51.1133C150.893 52.5356 148.894 53.9783 146.574 55.4416C146.619 55.6778 146.648 55.9374 146.66 56.2205C146.705 56.4566 146.754 56.7125 146.806 56.9881C146.903 57.4998 147.042 58.0237 147.225 58.5598C147.407 59.096 147.641 59.5815 147.926 60.0164C148.212 60.4513 148.56 60.7926 148.972 61.0401C149.377 61.2482 149.853 61.2999 150.401 61.1951C151.458 60.9929 152.451 60.5583 153.38 59.8913C154.308 59.2242 155.159 58.47 155.933 57.6286C156.739 56.7403 157.459 55.8277 158.093 54.8907C158.759 53.9068 159.342 53.0203 159.841 52.2313C160.3 52.5107 160.696 52.7817 161.03 53.0442C159.715 55.743 158.149 58.0818 156.333 60.0607C154.548 61.9927 152.757 63.355 150.96 64.1474C148.198 64.3491 145.898 63.7694 144.058 62.4081C142.25 61 141.123 59.115 140.676 56.7532C140.37 55.1392 140.277 53.4644 140.395 51.7288C140.544 49.9463 140.865 48.2126 141.358 46.5276C141.882 44.7958 142.543 43.14 143.339 41.5601C144.175 39.9727 145.103 38.5512 146.123 37.2956C147.182 36.0325 148.302 34.9822 149.482 34.1447C150.702 33.2996 151.957 32.7536 153.249 32.5065C155.095 32.3982 156.991 33.1981 158.937 34.9062ZM155.253 37.6297C154.226 37.9893 153.211 38.6319 152.21 39.5576C151.209 40.4833 150.311 41.634 149.516 43.0096C148.761 44.3777 148.121 45.9276 147.597 47.6594C147.072 49.3912 146.747 51.2074 146.619 53.108C149.454 50.9345 151.692 48.5077 153.336 45.8277C154.971 43.1084 155.61 40.3757 155.253 37.6297Z" fill="white"/>
<path d="M158.937 34.9062C159.242 37.3767 159.21 39.565 158.84 41.4712C158.463 43.338 157.736 45.0678 156.658 46.6608C155.611 48.2069 154.249 49.6911 152.571 51.1133C150.893 52.5356 148.894 53.9783 146.574 55.4416C146.619 55.6778 146.648 55.9374 146.66 56.2205C146.705 56.4566 146.754 56.7125 146.806 56.9881C146.903 57.4998 147.042 58.0237 147.225 58.5598C147.407 59.096 147.641 59.5815 147.926 60.0164C148.212 60.4513 148.56 60.7926 148.972 61.0401C149.377 61.2482 149.853 61.2999 150.401 61.1951C151.458 60.9929 152.451 60.5583 153.38 59.8913C154.308 59.2242 155.159 58.47 155.933 57.6286C156.739 56.7403 157.459 55.8277 158.093 54.8907C158.759 53.9068 159.342 53.0203 159.841 52.2313C160.3 52.5107 160.696 52.7817 161.03 53.0442C159.715 55.743 158.149 58.0818 156.333 60.0607C154.548 61.9927 152.757 63.355 150.96 64.1474C148.198 64.3491 145.898 63.7694 144.058 62.4081C142.25 61 141.123 59.115 140.676 56.7532C140.37 55.1392 140.277 53.4644 140.395 51.7288C140.544 49.9463 140.865 48.2126 141.358 46.5276C141.882 44.7958 142.543 43.14 143.339 41.5601C144.175 39.9727 145.103 38.5512 146.123 37.2956C147.182 36.0325 148.302 34.9822 149.482 34.1447C150.702 33.2996 151.957 32.7536 153.249 32.5065C155.095 32.3982 156.991 33.1981 158.937 34.9062ZM155.253 37.6297C154.226 37.9893 153.211 38.6319 152.21 39.5576C151.209 40.4833 150.311 41.634 149.516 43.0096C148.761 44.3777 148.121 45.9276 147.597 47.6594C147.072 49.3912 146.747 51.2074 146.619 53.108C149.454 50.9345 151.692 48.5077 153.336 45.8277C154.971 43.1084 155.61 40.3757 155.253 37.6297Z" fill="url(#paint4_linear_1_81013)"/>
<path d="M190.501 39.4192C190.926 38.1828 191.251 37.2243 191.475 36.5438C192.956 31.4685 194.269 28.8474 195.413 28.6803C196.202 28.5651 196.963 28.6766 197.696 29.0148C198.463 29.3076 199.042 29.8304 199.433 30.5832C199.25 31.8246 198.865 33.3386 198.277 35.125C197.729 36.9057 197.175 38.7883 196.617 40.773C196.052 42.7181 195.563 44.6318 195.151 46.5141C194.777 48.3907 194.694 50.0428 194.9 51.4703C195.021 52.303 195.219 52.8409 195.496 53.0839C195.767 53.2872 196.119 53.3572 196.553 53.2938C197.027 53.2247 197.449 53.082 197.82 52.8658C198.226 52.6042 198.527 52.459 198.724 52.4301C198.984 52.5542 199.15 52.7323 199.224 52.9644C199.298 53.1966 199.349 53.4118 199.378 53.6101C198.681 54.3598 197.947 54.9934 197.176 55.5109C196.41 56.0681 195.515 56.4215 194.49 56.5713C193.543 56.7096 192.731 56.6662 192.054 56.4412C191.417 56.2104 190.861 55.8462 190.386 55.3486C189.912 54.8511 189.544 54.257 189.283 53.5663C189.022 52.8755 188.831 52.1138 188.711 51.2811C188.516 49.9329 188.499 48.5587 188.659 47.1587C188.692 46.8299 188.745 46.4983 188.817 46.1638C187.592 47.4361 186.067 48.4484 184.242 49.2008C183.442 49.2367 182.585 49.1594 181.671 48.9689C180.752 48.7388 179.866 48.3216 179.014 47.7173C178.173 47.1923 177.362 46.4604 176.582 45.5216C176.056 47.1775 175.561 48.9099 175.098 50.7187C174.444 55.3896 173.842 58.1904 173.292 59.1211C172.787 60.0857 172.318 60.7413 171.884 61.088C170.987 60.7331 170.279 60.1483 169.758 59.3336C169.243 58.5585 168.822 57.7293 168.493 56.8461C168.384 56.0927 168.345 55.1266 168.376 53.9478C168.446 52.7633 168.559 51.4512 168.713 50.0115C168.901 48.5263 169.16 46.9702 169.488 45.343C169.817 43.7159 170.205 42.0801 170.652 40.4357C171.646 36.7273 172.612 33.7924 173.548 31.6312C174.523 29.4641 175.158 28.2783 175.45 28.0736C176.521 28.241 177.591 28.8136 178.658 29.7914C179.72 30.7295 180.563 31.8212 181.186 33.0664C180.907 34.2004 180.08 36.4266 178.707 39.7449C178.713 39.7846 178.699 39.8271 178.665 39.8725C179.544 42.0521 180.545 43.5457 181.669 44.3534C182.843 45.2346 184.053 45.6652 185.299 45.6452C186.746 45.0694 187.869 44.1969 188.666 43.0276C189.497 41.8129 190.109 40.6101 190.501 39.4192Z" fill="white"/>
<path d="M190.501 39.4192C190.926 38.1828 191.251 37.2243 191.475 36.5438C192.956 31.4685 194.269 28.8474 195.413 28.6803C196.202 28.5651 196.963 28.6766 197.696 29.0148C198.463 29.3076 199.042 29.8304 199.433 30.5832C199.25 31.8246 198.865 33.3386 198.277 35.125C197.729 36.9057 197.175 38.7883 196.617 40.773C196.052 42.7181 195.563 44.6318 195.151 46.5141C194.777 48.3907 194.694 50.0428 194.9 51.4703C195.021 52.303 195.219 52.8409 195.496 53.0839C195.767 53.2872 196.119 53.3572 196.553 53.2938C197.027 53.2247 197.449 53.082 197.82 52.8658C198.226 52.6042 198.527 52.459 198.724 52.4301C198.984 52.5542 199.15 52.7323 199.224 52.9644C199.298 53.1966 199.349 53.4118 199.378 53.6101C198.681 54.3598 197.947 54.9934 197.176 55.5109C196.41 56.0681 195.515 56.4215 194.49 56.5713C193.543 56.7096 192.731 56.6662 192.054 56.4412C191.417 56.2104 190.861 55.8462 190.386 55.3486C189.912 54.8511 189.544 54.257 189.283 53.5663C189.022 52.8755 188.831 52.1138 188.711 51.2811C188.516 49.9329 188.499 48.5587 188.659 47.1587C188.692 46.8299 188.745 46.4983 188.817 46.1638C187.592 47.4361 186.067 48.4484 184.242 49.2008C183.442 49.2367 182.585 49.1594 181.671 48.9689C180.752 48.7388 179.866 48.3216 179.014 47.7173C178.173 47.1923 177.362 46.4604 176.582 45.5216C176.056 47.1775 175.561 48.9099 175.098 50.7187C174.444 55.3896 173.842 58.1904 173.292 59.1211C172.787 60.0857 172.318 60.7413 171.884 61.088C170.987 60.7331 170.279 60.1483 169.758 59.3336C169.243 58.5585 168.822 57.7293 168.493 56.8461C168.384 56.0927 168.345 55.1266 168.376 53.9478C168.446 52.7633 168.559 51.4512 168.713 50.0115C168.901 48.5263 169.16 46.9702 169.488 45.343C169.817 43.7159 170.205 42.0801 170.652 40.4357C171.646 36.7273 172.612 33.7924 173.548 31.6312C174.523 29.4641 175.158 28.2783 175.45 28.0736C176.521 28.241 177.591 28.8136 178.658 29.7914C179.72 30.7295 180.563 31.8212 181.186 33.0664C180.907 34.2004 180.08 36.4266 178.707 39.7449C178.713 39.7846 178.699 39.8271 178.665 39.8725C179.544 42.0521 180.545 43.5457 181.669 44.3534C182.843 45.2346 184.053 45.6652 185.299 45.6452C186.746 45.0694 187.869 44.1969 188.666 43.0276C189.497 41.8129 190.109 40.6101 190.501 39.4192Z" fill="url(#paint5_linear_1_81013)"/>
<path d="M241.652 31.5474C241.02 31.6429 240.282 32.1299 239.438 33.0083C238.59 33.8468 237.684 34.9317 236.72 36.2631C235.791 37.5511 234.815 38.9841 233.792 40.5619C232.808 42.1363 231.844 43.709 230.9 45.2799C229.992 46.8074 229.137 48.2499 228.335 49.6073C227.532 50.9647 226.846 52.0504 226.277 52.8645C225.372 52.5818 224.573 52.129 223.879 51.506C223.181 50.8432 222.648 50.005 222.281 48.9914C222.372 47.7366 222.539 46.4348 222.782 45.0862C223.022 43.6977 223.357 42.2605 223.789 40.7747C224.26 39.2855 224.845 37.7259 225.543 36.0961C226.279 34.4228 227.185 32.654 228.264 30.7898C227.672 30.8819 226.896 31.3923 225.936 32.321C224.973 33.2098 223.953 34.3651 222.876 35.7868C221.796 37.1685 220.691 38.7334 219.563 40.4814C218.43 42.1894 217.376 43.8706 216.399 45.5248C215.11 47.7293 214.037 49.6534 213.179 51.2972C212.361 52.9375 211.746 53.9165 211.333 54.2342C210.235 53.5662 209.45 52.8105 208.976 51.9671C208.503 51.1237 208.121 50.1718 207.829 49.1114C207.785 48.1499 207.821 46.9401 207.934 45.4822C208.088 44.0208 208.337 42.5107 208.682 40.9521C209.342 37.958 210.263 34.9613 211.443 31.9619C212.663 28.9591 213.844 26.201 214.986 23.6876C216.119 23.8297 217.144 24.1219 218.063 24.5643C219.021 25.0033 220.04 25.6782 221.119 26.5892C220.829 27.8615 220.328 29.2327 219.615 30.7029C218.899 32.1332 218.15 33.6468 217.368 35.2437C216.587 36.8406 215.888 38.4705 215.272 40.1333C214.656 41.7962 214.3 43.4564 214.203 45.1139C215.177 43.4198 216.328 41.4687 217.657 39.2607C219.025 37.0493 220.424 34.9559 221.853 32.9805C223.322 31.0016 224.795 29.3039 226.272 27.8873C227.75 26.4708 229.124 25.7068 230.394 25.5955C230.871 25.5538 231.394 25.5884 231.963 25.6993C232.533 25.8103 233.066 25.9647 233.564 26.1624C234.061 26.3602 234.479 26.5649 234.817 26.7766C235.152 26.9484 235.345 27.0924 235.395 27.2087C235.265 28.0244 234.884 29.1639 234.251 30.6272C233.654 32.047 233.004 33.5519 232.302 35.1419C231.599 36.7318 230.953 38.2767 230.363 39.7764C229.77 41.2361 229.45 42.3904 229.403 43.2391C231.117 40.3941 232.734 37.819 234.254 35.5138C235.771 33.1687 237.217 31.1516 238.59 29.4626C239.964 27.7736 241.25 26.4543 242.448 25.5047C243.686 24.5516 244.88 24.0246 246.032 23.9237C246.826 23.8541 247.579 24.0093 248.292 24.3893C249.042 24.7258 249.59 25.2811 249.937 26.0551C249.683 27.284 249.212 28.7732 248.524 30.5229C247.875 32.269 247.215 34.1167 246.544 36.0659C245.869 37.9753 245.272 39.8576 244.753 41.7131C244.274 43.5651 244.096 45.2096 244.221 46.6467C244.293 47.485 244.461 48.0334 244.723 48.292C244.982 48.5106 245.33 48.6008 245.767 48.5625C246.243 48.5208 246.673 48.4027 247.056 48.2082C247.476 47.9703 247.785 47.8427 247.983 47.8253C248.235 47.9641 248.392 48.1515 248.452 48.3876C248.513 48.6236 248.552 48.8414 248.569 49.041C247.83 49.7493 247.061 50.3395 246.262 50.8118C245.466 51.3239 244.552 51.6252 243.52 51.7157C242.567 51.7992 241.759 51.7091 241.096 51.4454C240.473 51.1782 239.938 50.7826 239.493 50.2586C239.048 49.7345 238.714 49.1202 238.493 48.4155C238.272 47.7109 238.125 46.9395 238.052 46.1012C237.935 44.7439 237.998 43.391 238.241 42.0424C238.48 40.6539 238.787 39.34 239.159 38.1007C239.568 36.818 240.006 35.6333 240.471 34.5467C240.934 33.4202 241.327 32.4204 241.652 31.5474Z" fill="white"/>
<path d="M241.652 31.5474C241.02 31.6429 240.282 32.1299 239.438 33.0083C238.59 33.8468 237.684 34.9317 236.72 36.2631C235.791 37.5511 234.815 38.9841 233.792 40.5619C232.808 42.1363 231.844 43.709 230.9 45.2799C229.992 46.8074 229.137 48.2499 228.335 49.6073C227.532 50.9647 226.846 52.0504 226.277 52.8645C225.372 52.5818 224.573 52.129 223.879 51.506C223.181 50.8432 222.648 50.005 222.281 48.9914C222.372 47.7366 222.539 46.4348 222.782 45.0862C223.022 43.6977 223.357 42.2605 223.789 40.7747C224.26 39.2855 224.845 37.7259 225.543 36.0961C226.279 34.4228 227.185 32.654 228.264 30.7898C227.672 30.8819 226.896 31.3923 225.936 32.321C224.973 33.2098 223.953 34.3651 222.876 35.7868C221.796 37.1685 220.691 38.7334 219.563 40.4814C218.43 42.1894 217.376 43.8706 216.399 45.5248C215.11 47.7293 214.037 49.6534 213.179 51.2972C212.361 52.9375 211.746 53.9165 211.333 54.2342C210.235 53.5662 209.45 52.8105 208.976 51.9671C208.503 51.1237 208.121 50.1718 207.829 49.1114C207.785 48.1499 207.821 46.9401 207.934 45.4822C208.088 44.0208 208.337 42.5107 208.682 40.9521C209.342 37.958 210.263 34.9613 211.443 31.9619C212.663 28.9591 213.844 26.201 214.986 23.6876C216.119 23.8297 217.144 24.1219 218.063 24.5643C219.021 25.0033 220.04 25.6782 221.119 26.5892C220.829 27.8615 220.328 29.2327 219.615 30.7029C218.899 32.1332 218.15 33.6468 217.368 35.2437C216.587 36.8406 215.888 38.4705 215.272 40.1333C214.656 41.7962 214.3 43.4564 214.203 45.1139C215.177 43.4198 216.328 41.4687 217.657 39.2607C219.025 37.0493 220.424 34.9559 221.853 32.9805C223.322 31.0016 224.795 29.3039 226.272 27.8873C227.75 26.4708 229.124 25.7068 230.394 25.5955C230.871 25.5538 231.394 25.5884 231.963 25.6993C232.533 25.8103 233.066 25.9647 233.564 26.1624C234.061 26.3602 234.479 26.5649 234.817 26.7766C235.152 26.9484 235.345 27.0924 235.395 27.2087C235.265 28.0244 234.884 29.1639 234.251 30.6272C233.654 32.047 233.004 33.5519 232.302 35.1419C231.599 36.7318 230.953 38.2767 230.363 39.7764C229.77 41.2361 229.45 42.3904 229.403 43.2391C231.117 40.3941 232.734 37.819 234.254 35.5138C235.771 33.1687 237.217 31.1516 238.59 29.4626C239.964 27.7736 241.25 26.4543 242.448 25.5047C243.686 24.5516 244.88 24.0246 246.032 23.9237C246.826 23.8541 247.579 24.0093 248.292 24.3893C249.042 24.7258 249.59 25.2811 249.937 26.0551C249.683 27.284 249.212 28.7732 248.524 30.5229C247.875 32.269 247.215 34.1167 246.544 36.0659C245.869 37.9753 245.272 39.8576 244.753 41.7131C244.274 43.5651 244.096 45.2096 244.221 46.6467C244.293 47.485 244.461 48.0334 244.723 48.292C244.982 48.5106 245.33 48.6008 245.767 48.5625C246.243 48.5208 246.673 48.4027 247.056 48.2082C247.476 47.9703 247.785 47.8427 247.983 47.8253C248.235 47.9641 248.392 48.1515 248.452 48.3876C248.513 48.6236 248.552 48.8414 248.569 49.041C247.83 49.7493 247.061 50.3395 246.262 50.8118C245.466 51.3239 244.552 51.6252 243.52 51.7157C242.567 51.7992 241.759 51.7091 241.096 51.4454C240.473 51.1782 239.938 50.7826 239.493 50.2586C239.048 49.7345 238.714 49.1202 238.493 48.4155C238.272 47.7109 238.125 46.9395 238.052 46.1012C237.935 44.7439 237.998 43.391 238.241 42.0424C238.48 40.6539 238.787 39.34 239.159 38.1007C239.568 36.818 240.006 35.6333 240.471 34.5467C240.934 33.4202 241.327 32.4204 241.652 31.5474Z" fill="url(#paint6_linear_1_81013)"/>
<path d="M253.988 69.3065C253.425 69.1649 253.086 68.5748 252.972 67.5363C252.796 67.021 252.656 66.4042 252.552 65.686C252.489 64.9665 252.441 64.1462 252.411 63.2251C252.383 62.3841 252.484 61.2181 252.714 59.727C252.945 58.2759 253.269 56.6213 253.687 54.7632C254.143 52.9037 254.695 50.9007 255.342 48.7542C255.988 46.5677 256.712 44.3585 257.516 42.1266C258.5 39.3273 259.357 36.9132 260.088 34.8842C260.817 32.8152 261.416 31.0311 261.885 29.532C262.393 28.0316 262.791 26.7955 263.078 25.8237C263.405 24.8506 263.656 24.0203 263.833 23.3329C263.976 22.847 264.196 22.2583 264.492 21.5668C264.789 20.8754 265.124 20.1826 265.5 19.4885C265.915 18.753 266.331 18.0775 266.749 17.4622C267.166 16.8068 267.549 16.3129 267.897 15.9805C269.297 16.1342 270.624 16.4507 271.876 16.93C273.128 17.4094 273.901 17.8847 274.196 18.356C273.655 18.8952 273.045 19.7375 272.365 20.8828C271.684 21.988 271.027 23.2128 270.393 24.557C269.759 25.8611 269.185 27.2033 268.672 28.5836C268.159 29.9638 267.781 31.1792 267.537 32.2298C267.912 31.5357 268.406 30.7775 269.017 29.9552C269.627 29.133 270.567 27.9991 271.835 26.5535C273.259 24.9824 274.594 23.7751 275.843 22.9315C277.129 22.0466 278.251 21.5882 279.207 21.5562C280.72 21.5057 281.969 21.8849 282.953 22.694C283.976 23.5017 284.51 24.5663 284.554 25.8879C284.649 28.7713 284.266 31.6507 283.404 34.526C282.54 37.3613 281.25 39.9503 279.533 42.2929C278.885 43.1966 278.116 44.0642 277.227 44.8957C276.337 45.7273 275.405 46.4801 274.43 47.1542C273.454 47.7881 272.494 48.3013 271.55 48.6937C270.606 49.0861 269.756 49.2949 268.999 49.3202C268.282 49.3442 267.64 49.2253 267.073 48.9636C266.544 48.6605 266.173 48.292 265.96 47.8582C267.483 46.8852 268.954 45.5531 270.374 43.8619C271.793 42.1707 273.085 40.2432 274.25 38.0794C275.453 35.8742 276.472 33.5148 277.306 31.0013C278.18 28.4864 278.813 25.9394 279.206 23.3604C277.719 24.2119 276.374 25.1389 275.171 26.1413C274.007 27.1023 272.852 28.3637 271.707 29.9254C270.332 31.7355 269.243 33.1951 268.443 34.3043C267.642 35.4136 266.975 36.358 266.443 37.1375C265.95 37.9157 265.536 38.6512 265.2 39.344C264.902 39.9954 264.57 40.8083 264.204 41.7828C263.688 43.083 263.087 44.8069 262.401 46.9548C261.753 49.0612 261.073 51.4293 260.363 54.059C259.692 56.6874 259.006 59.4766 258.306 62.4267C257.648 65.4155 257.008 68.3837 256.388 71.3311C255.947 71.2656 255.558 70.9579 255.221 70.4079C254.89 70.0581 254.642 69.8058 254.478 69.6509C254.353 69.4947 254.19 69.3799 253.988 69.3065Z" fill="white"/>
<path d="M253.988 69.3065C253.425 69.1649 253.086 68.5748 252.972 67.5363C252.796 67.021 252.656 66.4042 252.552 65.686C252.489 64.9665 252.441 64.1462 252.411 63.2251C252.383 62.3841 252.484 61.2181 252.714 59.727C252.945 58.2759 253.269 56.6213 253.687 54.7632C254.143 52.9037 254.695 50.9007 255.342 48.7542C255.988 46.5677 256.712 44.3585 257.516 42.1266C258.5 39.3273 259.357 36.9132 260.088 34.8842C260.817 32.8152 261.416 31.0311 261.885 29.532C262.393 28.0316 262.791 26.7955 263.078 25.8237C263.405 24.8506 263.656 24.0203 263.833 23.3329C263.976 22.847 264.196 22.2583 264.492 21.5668C264.789 20.8754 265.124 20.1826 265.5 19.4885C265.915 18.753 266.331 18.0775 266.749 17.4622C267.166 16.8068 267.549 16.3129 267.897 15.9805C269.297 16.1342 270.624 16.4507 271.876 16.93C273.128 17.4094 273.901 17.8847 274.196 18.356C273.655 18.8952 273.045 19.7375 272.365 20.8828C271.684 21.988 271.027 23.2128 270.393 24.557C269.759 25.8611 269.185 27.2033 268.672 28.5836C268.159 29.9638 267.781 31.1792 267.537 32.2298C267.912 31.5357 268.406 30.7775 269.017 29.9552C269.627 29.133 270.567 27.9991 271.835 26.5535C273.259 24.9824 274.594 23.7751 275.843 22.9315C277.129 22.0466 278.251 21.5882 279.207 21.5562C280.72 21.5057 281.969 21.8849 282.953 22.694C283.976 23.5017 284.51 24.5663 284.554 25.8879C284.649 28.7713 284.266 31.6507 283.404 34.526C282.54 37.3613 281.25 39.9503 279.533 42.2929C278.885 43.1966 278.116 44.0642 277.227 44.8957C276.337 45.7273 275.405 46.4801 274.43 47.1542C273.454 47.7881 272.494 48.3013 271.55 48.6937C270.606 49.0861 269.756 49.2949 268.999 49.3202C268.282 49.3442 267.64 49.2253 267.073 48.9636C266.544 48.6605 266.173 48.292 265.96 47.8582C267.483 46.8852 268.954 45.5531 270.374 43.8619C271.793 42.1707 273.085 40.2432 274.25 38.0794C275.453 35.8742 276.472 33.5148 277.306 31.0013C278.18 28.4864 278.813 25.9394 279.206 23.3604C277.719 24.2119 276.374 25.1389 275.171 26.1413C274.007 27.1023 272.852 28.3637 271.707 29.9254C270.332 31.7355 269.243 33.1951 268.443 34.3043C267.642 35.4136 266.975 36.358 266.443 37.1375C265.95 37.9157 265.536 38.6512 265.2 39.344C264.902 39.9954 264.57 40.8083 264.204 41.7828C263.688 43.083 263.087 44.8069 262.401 46.9548C261.753 49.0612 261.073 51.4293 260.363 54.059C259.692 56.6874 259.006 59.4766 258.306 62.4267C257.648 65.4155 257.008 68.3837 256.388 71.3311C255.947 71.2656 255.558 70.9579 255.221 70.4079C254.89 70.0581 254.642 69.8058 254.478 69.6509C254.353 69.4947 254.19 69.3799 253.988 69.3065Z" fill="url(#paint7_linear_1_81013)"/>
<path d="M298.307 50.6646C296.038 50.4055 294.233 49.3889 292.892 47.6147C291.551 45.8405 290.892 43.5911 290.914 40.8665C290.927 39.2637 291.18 37.6028 291.672 35.8838C292.165 34.1648 292.856 32.5076 293.745 30.9121C294.636 29.2765 295.684 27.7424 296.892 26.3098C298.099 24.8772 299.404 23.6457 300.808 22.6154C303.013 20.9907 305.072 20.1862 306.985 20.2019C308.255 20.8936 309.499 22.3264 310.717 24.5002C310.916 24.5019 311.095 24.5034 311.255 24.5047C311.414 24.4659 311.594 24.4474 311.793 24.449C313.905 24.4664 314.946 26.3583 314.916 30.1247C314.895 32.649 314.457 35.0497 313.601 37.3267C312.786 39.564 311.634 41.5981 310.144 43.4291C308.694 45.2604 306.948 46.8088 304.905 48.0743C302.902 49.3 300.703 50.1634 298.307 50.6646ZM301.51 31.7574C300.825 32.6734 300.18 33.6699 299.573 34.7468C298.966 35.8237 298.439 36.9213 297.992 38.0396C297.545 39.1179 297.197 40.1769 296.95 41.2167C296.702 42.2164 296.575 43.117 296.569 43.9184C296.561 44.88 296.713 45.8029 297.025 46.687C297.336 47.5712 297.691 48.075 298.088 48.1985C299.885 47.8125 301.525 47.0847 303.009 46.015C304.532 44.9056 305.839 43.5339 306.928 41.9C308.057 40.2663 308.929 38.4102 309.544 36.3316C310.199 34.2533 310.536 32.0321 310.555 29.6681C310.563 28.6263 310.51 27.8044 310.396 27.2024C310.281 26.6004 310.086 26.0778 309.811 25.6348C308.053 26.1412 306.472 26.9697 305.067 28.1202C303.703 29.271 302.517 30.4834 301.51 31.7574Z" fill="white"/>
<path d="M298.307 50.6646C296.038 50.4055 294.233 49.3889 292.892 47.6147C291.551 45.8405 290.892 43.5911 290.914 40.8665C290.927 39.2637 291.18 37.6028 291.672 35.8838C292.165 34.1648 292.856 32.5076 293.745 30.9121C294.636 29.2765 295.684 27.7424 296.892 26.3098C298.099 24.8772 299.404 23.6457 300.808 22.6154C303.013 20.9907 305.072 20.1862 306.985 20.2019C308.255 20.8936 309.499 22.3264 310.717 24.5002C310.916 24.5019 311.095 24.5034 311.255 24.5047C311.414 24.4659 311.594 24.4474 311.793 24.449C313.905 24.4664 314.946 26.3583 314.916 30.1247C314.895 32.649 314.457 35.0497 313.601 37.3267C312.786 39.564 311.634 41.5981 310.144 43.4291C308.694 45.2604 306.948 46.8088 304.905 48.0743C302.902 49.3 300.703 50.1634 298.307 50.6646ZM301.51 31.7574C300.825 32.6734 300.18 33.6699 299.573 34.7468C298.966 35.8237 298.439 36.9213 297.992 38.0396C297.545 39.1179 297.197 40.1769 296.95 41.2167C296.702 42.2164 296.575 43.117 296.569 43.9184C296.561 44.88 296.713 45.8029 297.025 46.687C297.336 47.5712 297.691 48.075 298.088 48.1985C299.885 47.8125 301.525 47.0847 303.009 46.015C304.532 44.9056 305.839 43.5339 306.928 41.9C308.057 40.2663 308.929 38.4102 309.544 36.3316C310.199 34.2533 310.536 32.0321 310.555 29.6681C310.563 28.6263 310.51 27.8044 310.396 27.2024C310.281 26.6004 310.086 26.0778 309.811 25.6348C308.053 26.1412 306.472 26.9697 305.067 28.1202C303.703 29.271 302.517 30.4834 301.51 31.7574Z" fill="url(#paint8_linear_1_81013)"/>
<path d="M342.829 13.1986C345.55 10.5638 346.963 8.18586 347.065 6.06468C347.073 5.90459 347.039 5.78257 346.963 5.69863C343.675 8.50618 340.698 11.8906 338.032 15.852C339.17 15.4263 340.088 15.0099 340.786 14.6028C341.526 14.1577 342.207 13.6896 342.829 13.1986ZM347.283 15.1619C345.991 16.3021 344.632 17.1582 343.208 17.7303C341.823 18.3044 339.43 18.7086 336.027 18.943C333.069 23.9732 330.532 29.8063 328.415 36.4423C329.63 34.4158 330.981 32.4761 332.468 30.6233C333.956 28.7305 335.413 27.0768 336.838 25.6623C338.303 24.2498 339.674 23.1335 340.951 22.3135C342.267 21.4954 343.344 21.1068 344.179 21.1478C344.809 21.3391 345.412 21.6495 345.99 22.079C346.568 22.5084 347.081 23.0351 347.529 23.6588C347.98 24.2425 348.348 24.8824 348.633 25.5784C348.921 26.2343 349.087 26.9244 349.131 27.6487C349.01 29.3277 348.624 31.1141 347.974 33.0079C347.365 34.8635 346.558 36.6895 345.554 38.4856C344.589 40.2837 343.488 41.995 342.252 43.6194C341.056 45.2457 339.79 46.668 338.454 47.8863C337.16 49.0665 335.857 50.0056 334.547 50.7036C333.276 51.4036 332.083 51.7262 330.968 51.6716C330.491 51.6482 329.996 51.5638 329.484 51.4184C329.011 51.3149 328.56 51.1524 328.131 50.9308C327.741 50.7512 327.411 50.5546 327.143 50.3408C326.913 50.129 326.804 49.923 326.813 49.7229C328.705 48.5719 330.573 47.0788 332.417 45.2436C334.264 43.3683 335.958 41.3452 337.5 39.1742C339.043 36.9631 340.372 34.6613 341.486 32.2687C342.599 29.8761 343.389 27.568 343.856 25.3443C343.88 24.864 343.636 24.5312 343.127 24.3457C342.569 24.3184 341.769 24.7806 340.725 25.7324C339.723 26.6462 338.588 27.8342 337.32 29.2965C336.092 30.7608 334.815 32.4032 333.49 34.2238C332.205 36.0463 331.019 37.8737 329.932 39.706C328.848 41.4983 327.908 43.1973 327.112 44.8031C326.357 46.3708 325.916 47.653 325.788 48.6497C325.39 48.6302 325.071 48.2134 324.831 47.3993C324.761 47.1952 324.632 46.9883 324.442 46.7784C324.255 46.5286 323.95 46.2328 323.528 45.8912C323.336 45.7213 323.146 45.5315 322.957 45.3216C322.769 45.0717 322.64 44.8648 322.568 44.7008C322.424 44.3728 322.37 43.8486 322.405 43.1282C322.519 40.7669 322.947 38.1201 323.687 35.1877C324.428 32.2553 325.351 29.2716 326.456 26.2367C327.6 23.2038 328.901 20.2387 330.358 17.3414C331.817 14.4041 333.304 11.7289 334.817 9.31578C336.371 6.90462 337.906 4.87368 339.422 3.22294C340.939 1.57221 342.347 0.497892 343.648 0C344.041 0.139574 344.509 0.363093 345.052 0.670559C345.596 0.978022 346.138 1.32551 346.678 1.71302C347.218 2.10053 347.718 2.48608 348.178 2.86969C348.678 3.25525 349.041 3.59396 349.266 3.88582C350.286 5.05911 350.756 6.48622 350.674 8.16716C350.612 9.44787 350.29 10.7359 349.709 12.0313C349.129 13.2866 348.321 14.3302 347.283 15.1619Z" fill="white"/>
<path d="M342.829 13.1986C345.55 10.5638 346.963 8.18586 347.065 6.06468C347.073 5.90459 347.039 5.78257 346.963 5.69863C343.675 8.50618 340.698 11.8906 338.032 15.852C339.17 15.4263 340.088 15.0099 340.786 14.6028C341.526 14.1577 342.207 13.6896 342.829 13.1986ZM347.283 15.1619C345.991 16.3021 344.632 17.1582 343.208 17.7303C341.823 18.3044 339.43 18.7086 336.027 18.943C333.069 23.9732 330.532 29.8063 328.415 36.4423C329.63 34.4158 330.981 32.4761 332.468 30.6233C333.956 28.7305 335.413 27.0768 336.838 25.6623C338.303 24.2498 339.674 23.1335 340.951 22.3135C342.267 21.4954 343.344 21.1068 344.179 21.1478C344.809 21.3391 345.412 21.6495 345.99 22.079C346.568 22.5084 347.081 23.0351 347.529 23.6588C347.98 24.2425 348.348 24.8824 348.633 25.5784C348.921 26.2343 349.087 26.9244 349.131 27.6487C349.01 29.3277 348.624 31.1141 347.974 33.0079C347.365 34.8635 346.558 36.6895 345.554 38.4856C344.589 40.2837 343.488 41.995 342.252 43.6194C341.056 45.2457 339.79 46.668 338.454 47.8863C337.16 49.0665 335.857 50.0056 334.547 50.7036C333.276 51.4036 332.083 51.7262 330.968 51.6716C330.491 51.6482 329.996 51.5638 329.484 51.4184C329.011 51.3149 328.56 51.1524 328.131 50.9308C327.741 50.7512 327.411 50.5546 327.143 50.3408C326.913 50.129 326.804 49.923 326.813 49.7229C328.705 48.5719 330.573 47.0788 332.417 45.2436C334.264 43.3683 335.958 41.3452 337.5 39.1742C339.043 36.9631 340.372 34.6613 341.486 32.2687C342.599 29.8761 343.389 27.568 343.856 25.3443C343.88 24.864 343.636 24.5312 343.127 24.3457C342.569 24.3184 341.769 24.7806 340.725 25.7324C339.723 26.6462 338.588 27.8342 337.32 29.2965C336.092 30.7608 334.815 32.4032 333.49 34.2238C332.205 36.0463 331.019 37.8737 329.932 39.706C328.848 41.4983 327.908 43.1973 327.112 44.8031C326.357 46.3708 325.916 47.653 325.788 48.6497C325.39 48.6302 325.071 48.2134 324.831 47.3993C324.761 47.1952 324.632 46.9883 324.442 46.7784C324.255 46.5286 323.95 46.2328 323.528 45.8912C323.336 45.7213 323.146 45.5315 322.957 45.3216C322.769 45.0717 322.64 44.8648 322.568 44.7008C322.424 44.3728 322.37 43.8486 322.405 43.1282C322.519 40.7669 322.947 38.1201 323.687 35.1877C324.428 32.2553 325.351 29.2716 326.456 26.2367C327.6 23.2038 328.901 20.2387 330.358 17.3414C331.817 14.4041 333.304 11.7289 334.817 9.31578C336.371 6.90462 337.906 4.87368 339.422 3.22294C340.939 1.57221 342.347 0.497892 343.648 0C344.041 0.139574 344.509 0.363093 345.052 0.670559C345.596 0.978022 346.138 1.32551 346.678 1.71302C347.218 2.10053 347.718 2.48608 348.178 2.86969C348.678 3.25525 349.041 3.59396 349.266 3.88582C350.286 5.05911 350.756 6.48622 350.674 8.16716C350.612 9.44787 350.29 10.7359 349.709 12.0313C349.129 13.2866 348.321 14.3302 347.283 15.1619Z" fill="url(#paint9_linear_1_81013)"/>
<path d="M376.181 28.609C376.578 28.6451 377.027 28.7663 377.529 28.9728C378.074 29.1431 378.554 29.3677 378.969 29.6468C379.388 29.886 379.725 30.138 379.982 30.4026C380.278 30.6709 380.417 30.9049 380.399 31.1044C379.454 32.7084 378.567 34.3377 377.738 35.9924C376.913 37.6072 376.192 39.1712 375.576 40.6843C374.96 42.1974 374.452 43.6197 374.052 44.9513C373.692 46.2865 373.467 47.453 373.377 48.4507C373.277 49.5681 373.312 50.5167 373.482 51.2966C373.655 52.0365 374.006 52.5914 374.533 52.9611C374.028 53.2371 373.389 53.4406 372.617 53.5716C371.845 53.7027 371.161 53.7411 370.566 53.687C368.422 53.4923 367.483 51.9184 367.749 48.9652C367.953 46.6905 368.987 43.6463 370.85 39.8325C369.892 41.5961 368.823 43.2491 367.643 44.7916C366.468 46.2941 365.289 47.6153 364.106 48.755C362.923 49.8948 361.74 50.8132 360.557 51.5104C359.417 52.1713 358.383 52.5401 357.456 52.6168C355.995 52.4035 354.867 51.597 354.072 50.1971C353.281 48.7573 352.979 46.9998 353.165 44.9246C353.366 42.6898 354.054 40.3786 355.229 37.9909C356.404 35.6032 357.821 33.4185 359.48 31.4369C361.178 29.4588 362.963 27.8507 364.835 26.6127C366.711 25.3347 368.466 24.7297 370.101 24.7977C370.487 24.9535 370.902 25.2326 371.346 25.6351C371.83 26.0411 372.268 26.5034 372.662 27.022C373.095 27.5441 373.447 28.079 373.718 28.6267C373.993 29.1344 374.134 29.5696 374.141 29.9324C372.532 30.0276 370.815 30.6562 368.99 31.818C367.204 32.9835 365.532 34.441 363.975 36.1904C362.46 37.9035 361.171 39.7779 360.108 41.8137C359.044 43.8494 358.43 45.7852 358.265 47.6209C358.197 48.3791 358.432 48.8833 358.97 49.1333C360.142 48.9984 361.56 48.1415 363.222 46.5625C364.889 44.9436 366.957 42.4158 369.426 38.979C369.888 38.2967 370.396 37.5382 370.952 36.7035C371.546 35.8725 372.145 35.0015 372.747 34.0906C373.349 33.1797 373.931 32.267 374.494 31.3525C375.099 30.4017 375.662 29.4872 376.181 28.609Z" fill="white"/>
<path d="M376.181 28.609C376.578 28.6451 377.027 28.7663 377.529 28.9728C378.074 29.1431 378.554 29.3677 378.969 29.6468C379.388 29.886 379.725 30.138 379.982 30.4026C380.278 30.6709 380.417 30.9049 380.399 31.1044C379.454 32.7084 378.567 34.3377 377.738 35.9924C376.913 37.6072 376.192 39.1712 375.576 40.6843C374.96 42.1974 374.452 43.6197 374.052 44.9513C373.692 46.2865 373.467 47.453 373.377 48.4507C373.277 49.5681 373.312 50.5167 373.482 51.2966C373.655 52.0365 374.006 52.5914 374.533 52.9611C374.028 53.2371 373.389 53.4406 372.617 53.5716C371.845 53.7027 371.161 53.7411 370.566 53.687C368.422 53.4923 367.483 51.9184 367.749 48.9652C367.953 46.6905 368.987 43.6463 370.85 39.8325C369.892 41.5961 368.823 43.2491 367.643 44.7916C366.468 46.2941 365.289 47.6153 364.106 48.755C362.923 49.8948 361.74 50.8132 360.557 51.5104C359.417 52.1713 358.383 52.5401 357.456 52.6168C355.995 52.4035 354.867 51.597 354.072 50.1971C353.281 48.7573 352.979 46.9998 353.165 44.9246C353.366 42.6898 354.054 40.3786 355.229 37.9909C356.404 35.6032 357.821 33.4185 359.48 31.4369C361.178 29.4588 362.963 27.8507 364.835 26.6127C366.711 25.3347 368.466 24.7297 370.101 24.7977C370.487 24.9535 370.902 25.2326 371.346 25.6351C371.83 26.0411 372.268 26.5034 372.662 27.022C373.095 27.5441 373.447 28.079 373.718 28.6267C373.993 29.1344 374.134 29.5696 374.141 29.9324C372.532 30.0276 370.815 30.6562 368.99 31.818C367.204 32.9835 365.532 34.441 363.975 36.1904C362.46 37.9035 361.171 39.7779 360.108 41.8137C359.044 43.8494 358.43 45.7852 358.265 47.6209C358.197 48.3791 358.432 48.8833 358.97 49.1333C360.142 48.9984 361.56 48.1415 363.222 46.5625C364.889 44.9436 366.957 42.4158 369.426 38.979C369.888 38.2967 370.396 37.5382 370.952 36.7035C371.546 35.8725 372.145 35.0015 372.747 34.0906C373.349 33.1797 373.931 32.267 374.494 31.3525C375.099 30.4017 375.662 29.4872 376.181 28.609Z" fill="url(#paint10_linear_1_81013)"/>
<path d="M409.644 41.5568C410.393 40.487 410.969 39.6563 411.371 39.0646C414.192 34.5997 416.175 32.446 417.32 32.6037C418.109 32.7124 418.81 33.0313 419.422 33.5604C420.079 34.0553 420.491 34.7187 420.659 35.5507C420.142 36.6928 419.355 38.0404 418.299 39.5936C417.282 41.1523 416.232 42.8075 415.148 44.5592C414.07 46.2712 413.074 47.9742 412.16 49.6683C411.285 51.3678 410.75 52.9321 410.555 54.3613C410.441 55.195 410.484 55.7671 410.683 56.0776C410.888 56.3484 411.207 56.5137 411.642 56.5735C412.115 56.6387 412.56 56.6191 412.977 56.5147C413.438 56.376 413.768 56.3202 413.965 56.3474C414.181 56.5388 414.292 56.7563 414.299 57C414.306 57.2436 414.296 57.4647 414.269 57.6632C413.393 58.1896 412.513 58.5943 411.629 58.8771C410.741 59.1996 409.783 59.2902 408.756 59.1489C407.809 59.0184 407.041 58.7509 406.452 58.3463C405.903 57.9472 405.469 57.4426 405.15 56.8324C404.831 56.2223 404.641 55.549 404.58 54.8127C404.52 54.0764 404.546 53.2913 404.66 52.4577C404.843 51.1079 405.205 49.7826 405.744 48.4817C405.866 48.175 406.008 47.871 406.17 47.5697C404.642 48.4513 402.898 48.9999 400.938 49.2153C400.159 49.0272 399.357 48.7145 398.531 48.2774C397.711 47.8005 396.975 47.1531 396.322 46.3352C395.658 45.5967 395.08 44.6679 394.589 43.5488C393.628 44.9937 392.676 46.5208 391.733 48.1301C389.819 52.4367 388.469 54.9606 387.684 55.7019C386.934 56.4883 386.302 56.9879 385.791 57.2005C385.026 56.61 384.506 55.8508 384.23 54.9231C383.949 54.035 383.772 53.1209 383.699 52.1806C383.802 51.4263 384.03 50.4871 384.384 49.363C384.778 48.2444 385.247 47.0148 385.792 45.6742C386.381 44.2994 387.058 42.8759 387.822 41.4037C388.585 39.9316 389.408 38.4676 390.29 37.0117C392.267 33.7247 394.002 31.173 395.496 29.3566C397.03 27.5456 397.966 26.5824 398.304 26.4671C399.287 26.926 400.157 27.7738 400.914 29.0104C401.676 30.2073 402.185 31.4907 402.441 32.8606C401.861 33.8727 400.454 35.7821 398.221 38.5889C398.216 38.6286 398.191 38.6656 398.146 38.6999C398.391 41.0388 398.942 42.7526 399.799 43.8413C400.685 45.0149 401.729 45.7653 402.932 46.0926C404.481 45.9419 405.8 45.4156 406.888 44.5139C408.021 43.578 408.94 42.5922 409.644 41.5568Z" fill="white"/>
<path d="M409.644 41.5568C410.393 40.487 410.969 39.6563 411.371 39.0646C414.192 34.5997 416.175 32.446 417.32 32.6037C418.109 32.7124 418.81 33.0313 419.422 33.5604C420.079 34.0553 420.491 34.7187 420.659 35.5507C420.142 36.6928 419.355 38.0404 418.299 39.5936C417.282 41.1523 416.232 42.8075 415.148 44.5592C414.07 46.2712 413.074 47.9742 412.16 49.6683C411.285 51.3678 410.75 52.9321 410.555 54.3613C410.441 55.195 410.484 55.7671 410.683 56.0776C410.888 56.3484 411.207 56.5137 411.642 56.5735C412.115 56.6387 412.56 56.6191 412.977 56.5147C413.438 56.376 413.768 56.3202 413.965 56.3474C414.181 56.5388 414.292 56.7563 414.299 57C414.306 57.2436 414.296 57.4647 414.269 57.6632C413.393 58.1896 412.513 58.5943 411.629 58.8771C410.741 59.1996 409.783 59.2902 408.756 59.1489C407.809 59.0184 407.041 58.7509 406.452 58.3463C405.903 57.9472 405.469 57.4426 405.15 56.8324C404.831 56.2223 404.641 55.549 404.58 54.8127C404.52 54.0764 404.546 53.2913 404.66 52.4577C404.843 51.1079 405.205 49.7826 405.744 48.4817C405.866 48.175 406.008 47.871 406.17 47.5697C404.642 48.4513 402.898 48.9999 400.938 49.2153C400.159 49.0272 399.357 48.7145 398.531 48.2774C397.711 47.8005 396.975 47.1531 396.322 46.3352C395.658 45.5967 395.08 44.6679 394.589 43.5488C393.628 44.9937 392.676 46.5208 391.733 48.1301C389.819 52.4367 388.469 54.9606 387.684 55.7019C386.934 56.4883 386.302 56.9879 385.791 57.2005C385.026 56.61 384.506 55.8508 384.23 54.9231C383.949 54.035 383.772 53.1209 383.699 52.1806C383.802 51.4263 384.03 50.4871 384.384 49.363C384.778 48.2444 385.247 47.0148 385.792 45.6742C386.381 44.2994 387.058 42.8759 387.822 41.4037C388.585 39.9316 389.408 38.4676 390.29 37.0117C392.267 33.7247 394.002 31.173 395.496 29.3566C397.03 27.5456 397.966 26.5824 398.304 26.4671C399.287 26.926 400.157 27.7738 400.914 29.0104C401.676 30.2073 402.185 31.4907 402.441 32.8606C401.861 33.8727 400.454 35.7821 398.221 38.5889C398.216 38.6286 398.191 38.6656 398.146 38.6999C398.391 41.0388 398.942 42.7526 399.799 43.8413C400.685 45.0149 401.729 45.7653 402.932 46.0926C404.481 45.9419 405.8 45.4156 406.888 44.5139C408.021 43.578 408.94 42.5922 409.644 41.5568Z" fill="url(#paint11_linear_1_81013)"/>
<path d="M439.77 61.4722C439.141 60.7029 438.777 59.82 438.677 58.8233C438.617 57.8339 438.648 57.0043 438.772 56.3345C438.924 55.5072 439.153 54.8163 439.458 54.2619C439.302 54.2327 438.891 54.4821 438.226 55.0101C437.561 55.5381 436.815 56.1734 435.989 56.9159C435.202 57.6657 434.419 58.3959 433.639 59.1063C432.86 59.8167 432.277 60.3396 431.891 60.6752C431.279 61.1317 430.71 61.4737 430.181 61.7012C429.692 61.936 429.307 62.0475 429.025 62.0357C428.405 61.8794 427.765 61.6173 427.103 61.2493C426.473 60.9281 425.881 60.512 425.327 60.0011C424.812 59.4975 424.37 58.9261 424.001 58.2868C423.672 57.6549 423.495 56.9697 423.469 56.2313C423.672 55.1282 423.859 54.2257 424.029 53.5238C424.238 52.8293 424.517 52.0866 424.866 51.2958C425.495 49.8645 426.317 48.2654 427.332 46.4985C428.386 44.739 429.531 43.0371 430.767 41.3929C432.01 39.7093 433.325 38.1819 434.713 36.8106C436.148 35.4073 437.575 34.3695 438.996 33.6972C439.349 33.763 439.753 33.8791 440.209 34.0456C440.672 34.1727 441.124 34.3589 441.565 34.6042C442.046 34.8568 442.479 35.1415 442.867 35.4583C443.301 35.743 443.642 36.0918 443.89 36.5049C443.464 36.8331 442.32 37.9848 440.455 39.96C438.63 41.9426 436.447 44.8772 433.906 48.7639C433.63 49.1607 433.279 49.7472 432.852 50.5234C432.425 51.2996 431.991 52.1152 431.549 52.9702C431.108 53.8252 430.709 54.6678 430.353 55.498C430.036 56.3355 429.831 57.0103 429.736 57.5225C429.678 57.8377 429.674 58.0814 429.723 58.2536C429.811 58.4331 429.888 58.5696 429.951 58.663C430.583 58.5362 431.447 58.025 432.545 57.1294C433.642 56.2337 435.198 54.8326 437.212 52.926C437.705 52.4475 438.272 51.9012 438.913 51.287C439.592 50.6802 440.279 50.034 440.973 49.3483C441.674 48.6233 442.34 47.8712 442.97 47.0922C443.639 46.3205 444.211 45.5305 444.684 44.7222C444.928 44.2786 445.226 43.7636 445.577 43.1771C445.975 42.5585 446.416 41.9275 446.899 41.2841C447.422 40.6481 447.984 40.0193 448.585 39.3978C449.233 38.7443 449.948 38.1645 450.73 37.6583C451.24 37.7534 451.777 37.9148 452.343 38.1426C452.909 38.3704 453.429 38.6303 453.902 38.9223C454.421 39.1822 454.855 39.4669 455.203 39.7764C455.559 40.0465 455.813 40.318 455.965 40.5909C454.94 42.1928 453.84 43.7605 452.665 45.2938C451.491 46.8271 450.378 48.3517 449.329 49.8675C448.286 51.3439 447.361 52.8423 446.554 54.3626C445.746 55.8829 445.201 57.4113 444.917 58.9478C444.764 59.7751 444.689 60.515 444.69 61.1673C444.738 61.7874 444.8 62.3289 444.877 62.7915C444.961 63.2147 445.036 63.5751 445.103 63.8728C445.209 64.1779 445.243 64.4289 445.207 64.6258C445.2 64.6652 445.15 64.717 445.057 64.7812C445.01 64.8133 444.968 64.8257 444.928 64.8184C444.654 64.7672 444.312 64.6423 443.903 64.4438C443.494 64.2452 443.037 63.9765 442.532 63.6378C442.059 63.3458 441.573 63.0108 441.075 62.6327C440.617 62.2619 440.182 61.875 439.77 61.4722Z" fill="white"/>
<path d="M439.77 61.4722C439.141 60.7029 438.777 59.82 438.677 58.8233C438.617 57.8339 438.648 57.0043 438.772 56.3345C438.924 55.5072 439.153 54.8163 439.458 54.2619C439.302 54.2327 438.891 54.4821 438.226 55.0101C437.561 55.5381 436.815 56.1734 435.989 56.9159C435.202 57.6657 434.419 58.3959 433.639 59.1063C432.86 59.8167 432.277 60.3396 431.891 60.6752C431.279 61.1317 430.71 61.4737 430.181 61.7012C429.692 61.936 429.307 62.0475 429.025 62.0357C428.405 61.8794 427.765 61.6173 427.103 61.2493C426.473 60.9281 425.881 60.512 425.327 60.0011C424.812 59.4975 424.37 58.9261 424.001 58.2868C423.672 57.6549 423.495 56.9697 423.469 56.2313C423.672 55.1282 423.859 54.2257 424.029 53.5238C424.238 52.8293 424.517 52.0866 424.866 51.2958C425.495 49.8645 426.317 48.2654 427.332 46.4985C428.386 44.739 429.531 43.0371 430.767 41.3929C432.01 39.7093 433.325 38.1819 434.713 36.8106C436.148 35.4073 437.575 34.3695 438.996 33.6972C439.349 33.763 439.753 33.8791 440.209 34.0456C440.672 34.1727 441.124 34.3589 441.565 34.6042C442.046 34.8568 442.479 35.1415 442.867 35.4583C443.301 35.743 443.642 36.0918 443.89 36.5049C443.464 36.8331 442.32 37.9848 440.455 39.96C438.63 41.9426 436.447 44.8772 433.906 48.7639C433.63 49.1607 433.279 49.7472 432.852 50.5234C432.425 51.2996 431.991 52.1152 431.549 52.9702C431.108 53.8252 430.709 54.6678 430.353 55.498C430.036 56.3355 429.831 57.0103 429.736 57.5225C429.678 57.8377 429.674 58.0814 429.723 58.2536C429.811 58.4331 429.888 58.5696 429.951 58.663C430.583 58.5362 431.447 58.025 432.545 57.1294C433.642 56.2337 435.198 54.8326 437.212 52.926C437.705 52.4475 438.272 51.9012 438.913 51.287C439.592 50.6802 440.279 50.034 440.973 49.3483C441.674 48.6233 442.34 47.8712 442.97 47.0922C443.639 46.3205 444.211 45.5305 444.684 44.7222C444.928 44.2786 445.226 43.7636 445.577 43.1771C445.975 42.5585 446.416 41.9275 446.899 41.2841C447.422 40.6481 447.984 40.0193 448.585 39.3978C449.233 38.7443 449.948 38.1645 450.73 37.6583C451.24 37.7534 451.777 37.9148 452.343 38.1426C452.909 38.3704 453.429 38.6303 453.902 38.9223C454.421 39.1822 454.855 39.4669 455.203 39.7764C455.559 40.0465 455.813 40.318 455.965 40.5909C454.94 42.1928 453.84 43.7605 452.665 45.2938C451.491 46.8271 450.378 48.3517 449.329 49.8675C448.286 51.3439 447.361 52.8423 446.554 54.3626C445.746 55.8829 445.201 57.4113 444.917 58.9478C444.764 59.7751 444.689 60.515 444.69 61.1673C444.738 61.7874 444.8 62.3289 444.877 62.7915C444.961 63.2147 445.036 63.5751 445.103 63.8728C445.209 64.1779 445.243 64.4289 445.207 64.6258C445.2 64.6652 445.15 64.717 445.057 64.7812C445.01 64.8133 444.968 64.8257 444.928 64.8184C444.654 64.7672 444.312 64.6423 443.903 64.4438C443.494 64.2452 443.037 63.9765 442.532 63.6378C442.059 63.3458 441.573 63.0108 441.075 62.6327C440.617 62.2619 440.182 61.875 439.77 61.4722Z" fill="url(#paint12_linear_1_81013)"/>
<path d="M472.635 68.6628C472.041 67.8668 471.715 66.9687 471.659 65.9685C471.641 64.9774 471.709 64.15 471.861 63.4863C472.05 62.6665 472.309 61.9863 472.637 61.4458C472.482 61.4097 472.061 61.6408 471.373 62.1392C470.686 62.6375 469.914 63.2394 469.056 63.9449C468.238 64.6595 467.423 65.3545 466.614 66.03C465.804 66.7055 465.199 67.2024 464.798 67.5206C464.168 67.9499 463.584 68.2665 463.046 68.4706C462.547 68.6837 462.157 68.7782 461.876 68.7541C461.264 68.5707 460.635 68.2806 459.99 67.884C459.375 67.5354 458.802 67.0937 458.27 66.559C457.777 66.0332 457.361 65.4429 457.02 64.7881C456.719 64.1423 456.571 63.4499 456.577 62.7111C456.829 61.618 457.055 60.7246 457.255 60.0308C457.494 59.3462 457.805 58.6164 458.188 57.8417C458.878 56.4393 459.769 54.8779 460.86 53.1573C461.989 51.4457 463.207 49.7958 464.513 48.2074C465.828 46.58 467.209 45.1118 468.655 43.8028C470.149 42.4638 471.62 41.4897 473.069 40.8804C473.419 40.9616 473.818 41.0954 474.266 41.2818C474.723 41.4291 475.166 41.6349 475.596 41.8994C476.065 42.1728 476.486 42.4763 476.86 42.8098C477.281 43.1133 477.606 43.4768 477.836 43.9003C477.397 44.2095 476.203 45.3099 474.255 47.2014C472.345 49.1019 470.037 51.9378 467.329 55.7092C467.036 56.0935 466.66 56.6641 466.2 57.4207C465.739 58.1774 465.27 58.9732 464.792 59.808C464.314 60.6428 463.879 61.467 463.487 62.2808C463.134 63.1036 462.9 63.7688 462.783 64.2763C462.711 64.5887 462.696 64.8319 462.738 65.0061C462.819 65.1894 462.889 65.329 462.948 65.4252C463.585 65.3263 464.471 64.8535 465.606 64.0069C466.741 63.1603 468.356 61.8289 470.451 60.0125C470.965 59.5561 471.555 59.0352 472.222 58.4498C472.927 57.8734 473.641 57.2579 474.364 56.6034C475.096 55.9099 475.794 55.1878 476.457 54.4372C477.159 53.6955 477.765 52.9314 478.273 52.1447C478.536 51.7123 478.855 51.2108 479.232 50.6403C479.656 50.0398 480.124 49.4287 480.635 48.8072C481.185 48.1947 481.774 47.5912 482.401 46.9967C483.077 46.3722 483.816 45.8244 484.62 45.3531C485.125 45.4704 485.655 45.6552 486.21 45.9077C486.766 46.1602 487.274 46.4426 487.734 46.7551C488.241 47.0376 488.662 47.3411 488.997 47.6656C489.34 47.951 489.582 48.2334 489.722 48.5127C488.629 50.0681 487.462 51.5859 486.221 53.0662C484.981 54.5465 483.804 56.0207 482.689 57.489C481.583 58.9183 480.594 60.3746 479.721 61.858C478.849 63.3414 478.237 64.8443 477.887 66.3669C477.699 67.1868 477.591 67.9226 477.564 68.5743C477.585 69.196 477.623 69.7396 477.68 70.2052C477.746 70.6317 477.805 70.9951 477.859 71.2954C477.951 71.6048 477.975 71.8571 477.93 72.0523C477.921 72.0913 477.869 72.1409 477.774 72.2009C477.726 72.2309 477.682 72.2414 477.644 72.2324C477.372 72.1693 477.036 72.0295 476.635 71.8131C476.235 71.5968 475.79 71.3083 475.3 70.9477C474.841 70.6352 474.37 70.2792 473.889 69.8796C473.447 69.489 473.029 69.0834 472.635 68.6628ZM486.615 40.9433C485.856 40.6848 485.086 40.3001 484.303 39.7893C483.53 39.2394 482.831 38.5424 482.207 37.6983C481.631 36.8241 481.149 35.8073 480.761 34.6479C480.42 33.4585 480.285 32.0904 480.354 30.5437C480.817 29.9522 481.479 29.6535 482.339 29.6478C483.239 29.6511 484.056 29.6559 484.79 29.6621C484.76 32.287 485.133 34.2243 485.909 35.474C486.724 36.7326 487.715 37.5799 488.883 38.0157C490.44 38.0072 491.801 37.6037 492.966 36.8052C494.179 35.9766 495.29 34.8777 496.301 33.5085C496.662 33.7159 496.887 34.1589 496.977 34.8377C496.149 36.6605 494.807 38.1377 492.952 39.2694C491.105 40.362 488.993 40.92 486.615 40.9433Z" fill="white"/>
<path d="M472.635 68.6628C472.041 67.8668 471.715 66.9687 471.659 65.9685C471.641 64.9774 471.709 64.15 471.861 63.4863C472.05 62.6665 472.309 61.9863 472.637 61.4458C472.482 61.4097 472.061 61.6408 471.373 62.1392C470.686 62.6375 469.914 63.2394 469.056 63.9449C468.238 64.6595 467.423 65.3545 466.614 66.03C465.804 66.7055 465.199 67.2024 464.798 67.5206C464.168 67.9499 463.584 68.2665 463.046 68.4706C462.547 68.6837 462.157 68.7782 461.876 68.7541C461.264 68.5707 460.635 68.2806 459.99 67.884C459.375 67.5354 458.802 67.0937 458.27 66.559C457.777 66.0332 457.361 65.4429 457.02 64.7881C456.719 64.1423 456.571 63.4499 456.577 62.7111C456.829 61.618 457.055 60.7246 457.255 60.0308C457.494 59.3462 457.805 58.6164 458.188 57.8417C458.878 56.4393 459.769 54.8779 460.86 53.1573C461.989 51.4457 463.207 49.7958 464.513 48.2074C465.828 46.58 467.209 45.1118 468.655 43.8028C470.149 42.4638 471.62 41.4897 473.069 40.8804C473.419 40.9616 473.818 41.0954 474.266 41.2818C474.723 41.4291 475.166 41.6349 475.596 41.8994C476.065 42.1728 476.486 42.4763 476.86 42.8098C477.281 43.1133 477.606 43.4768 477.836 43.9003C477.397 44.2095 476.203 45.3099 474.255 47.2014C472.345 49.1019 470.037 51.9378 467.329 55.7092C467.036 56.0935 466.66 56.6641 466.2 57.4207C465.739 58.1774 465.27 58.9732 464.792 59.808C464.314 60.6428 463.879 61.467 463.487 62.2808C463.134 63.1036 462.9 63.7688 462.783 64.2763C462.711 64.5887 462.696 64.8319 462.738 65.0061C462.819 65.1894 462.889 65.329 462.948 65.4252C463.585 65.3263 464.471 64.8535 465.606 64.0069C466.741 63.1603 468.356 61.8289 470.451 60.0125C470.965 59.5561 471.555 59.0352 472.222 58.4498C472.927 57.8734 473.641 57.2579 474.364 56.6034C475.096 55.9099 475.794 55.1878 476.457 54.4372C477.159 53.6955 477.765 52.9314 478.273 52.1447C478.536 51.7123 478.855 51.2108 479.232 50.6403C479.656 50.0398 480.124 49.4287 480.635 48.8072C481.185 48.1947 481.774 47.5912 482.401 46.9967C483.077 46.3722 483.816 45.8244 484.62 45.3531C485.125 45.4704 485.655 45.6552 486.21 45.9077C486.766 46.1602 487.274 46.4426 487.734 46.7551C488.241 47.0376 488.662 47.3411 488.997 47.6656C489.34 47.951 489.582 48.2334 489.722 48.5127C488.629 50.0681 487.462 51.5859 486.221 53.0662C484.981 54.5465 483.804 56.0207 482.689 57.489C481.583 58.9183 480.594 60.3746 479.721 61.858C478.849 63.3414 478.237 64.8443 477.887 66.3669C477.699 67.1868 477.591 67.9226 477.564 68.5743C477.585 69.196 477.623 69.7396 477.68 70.2052C477.746 70.6317 477.805 70.9951 477.859 71.2954C477.951 71.6048 477.975 71.8571 477.93 72.0523C477.921 72.0913 477.869 72.1409 477.774 72.2009C477.726 72.2309 477.682 72.2414 477.644 72.2324C477.372 72.1693 477.036 72.0295 476.635 71.8131C476.235 71.5968 475.79 71.3083 475.3 70.9477C474.841 70.6352 474.37 70.2792 473.889 69.8796C473.447 69.489 473.029 69.0834 472.635 68.6628ZM486.615 40.9433C485.856 40.6848 485.086 40.3001 484.303 39.7893C483.53 39.2394 482.831 38.5424 482.207 37.6983C481.631 36.8241 481.149 35.8073 480.761 34.6479C480.42 33.4585 480.285 32.0904 480.354 30.5437C480.817 29.9522 481.479 29.6535 482.339 29.6478C483.239 29.6511 484.056 29.6559 484.79 29.6621C484.76 32.287 485.133 34.2243 485.909 35.474C486.724 36.7326 487.715 37.5799 488.883 38.0157C490.44 38.0072 491.801 37.6037 492.966 36.8052C494.179 35.9766 495.29 34.8777 496.301 33.5085C496.662 33.7159 496.887 34.1589 496.977 34.8377C496.149 36.6605 494.807 38.1377 492.952 39.2694C491.105 40.362 488.993 40.92 486.615 40.9433Z" fill="url(#paint13_linear_1_81013)"/>
<path d="M533.378 65.9553C533.05 66.3582 532.702 66.7553 532.336 67.1467C531.053 68.5165 529.741 69.9822 528.401 71.5439C527.072 73.0672 525.825 74.5944 524.66 76.1254C523.534 77.6679 522.764 79.13 522.351 80.5116C522.111 81.3175 522.065 81.8893 522.214 82.2271C522.374 82.5265 522.664 82.7396 523.084 82.8664C523.542 83.0047 523.985 83.0547 524.412 83.0164C524.889 82.9513 525.223 82.9476 525.414 83.0052C525.597 83.2279 525.674 83.4601 525.643 83.7019C525.612 83.9436 525.568 84.1605 525.511 84.3524C524.564 84.7359 523.633 84.9985 522.717 85.1403C521.789 85.3204 520.829 85.2606 519.836 84.961C518.92 84.6844 518.203 84.3004 517.684 83.809C517.203 83.3291 516.852 82.7629 516.631 82.1104C516.409 81.4578 516.326 80.7631 516.379 80.0263C516.433 79.2894 516.58 78.518 516.821 77.7121C517.211 76.4073 517.766 75.1735 518.488 74.0108C519.221 72.8097 519.989 71.7027 520.791 70.6897C521.643 69.6498 522.485 68.7117 523.317 67.8753C524.161 67.0004 524.894 66.2177 525.517 65.527L527.579 63.0118C527.46 62.8506 527.323 62.6836 527.167 62.5109C526.789 62.1039 526.342 61.7181 525.827 61.3533C525.323 60.9502 524.821 60.6104 524.321 60.3339C523.871 60.0306 523.512 59.8386 523.245 59.7579C522.863 59.6426 522.422 59.6559 521.922 59.7978C521.472 59.9128 521.023 60.0912 520.576 60.3328C520.13 60.5745 519.721 60.8277 519.351 61.0924C519.019 61.3686 518.81 61.5777 518.726 61.7197C517.864 61.1246 517.181 60.4163 516.677 59.5948C516.173 58.7733 516.027 57.6622 516.237 56.2614C517.661 54.9761 518.883 54.0899 519.903 53.6027C520.96 53.1271 522.109 52.972 523.35 53.1374C524.953 54.4581 526.401 55.8786 527.695 57.3988C529 58.8806 530.086 60.4008 530.952 61.9593C531.616 61.8251 532.242 61.6795 532.83 61.5223C533.456 61.3766 534.174 61.3423 534.983 61.4193C535.762 62.1564 536.124 63.3117 536.07 64.8853C535.531 65.434 534.957 65.8253 534.346 66.0592C534.159 66.1283 533.836 66.0936 533.378 65.9553Z" fill="white"/>
<path d="M533.378 65.9553C533.05 66.3582 532.702 66.7553 532.336 67.1467C531.053 68.5165 529.741 69.9822 528.401 71.5439C527.072 73.0672 525.825 74.5944 524.66 76.1254C523.534 77.6679 522.764 79.13 522.351 80.5116C522.111 81.3175 522.065 81.8893 522.214 82.2271C522.374 82.5265 522.664 82.7396 523.084 82.8664C523.542 83.0047 523.985 83.0547 524.412 83.0164C524.889 82.9513 525.223 82.9476 525.414 83.0052C525.597 83.2279 525.674 83.4601 525.643 83.7019C525.612 83.9436 525.568 84.1605 525.511 84.3524C524.564 84.7359 523.633 84.9985 522.717 85.1403C521.789 85.3204 520.829 85.2606 519.836 84.961C518.92 84.6844 518.203 84.3004 517.684 83.809C517.203 83.3291 516.852 82.7629 516.631 82.1104C516.409 81.4578 516.326 80.7631 516.379 80.0263C516.433 79.2894 516.58 78.518 516.821 77.7121C517.211 76.4073 517.766 75.1735 518.488 74.0108C519.221 72.8097 519.989 71.7027 520.791 70.6897C521.643 69.6498 522.485 68.7117 523.317 67.8753C524.161 67.0004 524.894 66.2177 525.517 65.527L527.579 63.0118C527.46 62.8506 527.323 62.6836 527.167 62.5109C526.789 62.1039 526.342 61.7181 525.827 61.3533C525.323 60.9502 524.821 60.6104 524.321 60.3339C523.871 60.0306 523.512 59.8386 523.245 59.7579C522.863 59.6426 522.422 59.6559 521.922 59.7978C521.472 59.9128 521.023 60.0912 520.576 60.3328C520.13 60.5745 519.721 60.8277 519.351 61.0924C519.019 61.3686 518.81 61.5777 518.726 61.7197C517.864 61.1246 517.181 60.4163 516.677 59.5948C516.173 58.7733 516.027 57.6622 516.237 56.2614C517.661 54.9761 518.883 54.0899 519.903 53.6027C520.96 53.1271 522.109 52.972 523.35 53.1374C524.953 54.4581 526.401 55.8786 527.695 57.3988C529 58.8806 530.086 60.4008 530.952 61.9593C531.616 61.8251 532.242 61.6795 532.83 61.5223C533.456 61.3766 534.174 61.3423 534.983 61.4193C535.762 62.1564 536.124 63.3117 536.07 64.8853C535.531 65.434 534.957 65.8253 534.346 66.0592C534.159 66.1283 533.836 66.0936 533.378 65.9553Z" fill="url(#paint14_linear_1_81013)"/>
<path d="M562.082 71.6455C562.459 71.7759 562.866 72.0016 563.304 72.3226C563.793 72.6188 564.206 72.9522 564.543 73.3229C564.892 73.6558 565.16 73.9815 565.346 74.3001C565.57 74.6317 565.649 74.8922 565.585 75.0817C564.286 76.4124 563.038 77.7816 561.84 79.1892C560.655 80.559 559.583 81.9046 558.625 83.2259C557.667 84.5472 556.836 85.8063 556.131 87.0034C555.464 88.2134 554.969 89.2921 554.645 90.2393C554.282 91.3003 554.09 92.2298 554.07 93.0279C554.063 93.7882 554.271 94.4111 554.695 94.8967C554.139 95.0434 553.471 95.0876 552.69 95.0294C551.909 94.9712 551.236 94.8443 550.67 94.6488C548.635 93.9449 548.097 92.191 549.057 89.3871C549.796 87.2274 551.523 84.5196 554.239 81.2638C552.889 82.7461 551.458 84.0945 549.946 85.3091C548.448 86.4858 546.989 87.4855 545.57 88.3081C544.15 89.1308 542.783 89.7385 541.469 90.1313C540.205 90.4993 539.113 90.6091 538.195 90.4609C536.826 89.9028 535.922 88.8487 535.484 87.2985C535.058 85.7104 535.182 83.9312 535.856 81.9609C536.582 79.8391 537.799 77.76 539.507 75.7236C541.216 73.6873 543.111 71.9062 545.192 70.3803C547.312 68.8674 549.427 67.7347 551.539 66.9821C553.664 66.1916 555.512 66.0256 557.083 66.4843C557.421 66.7283 557.758 67.0991 558.094 67.5965C558.467 68.1069 558.783 68.6612 559.042 69.2593C559.339 69.8704 559.553 70.4744 559.686 71.0712C559.832 71.6302 559.866 72.0867 559.787 72.4407C558.201 72.1467 556.385 72.3446 554.336 73.0345C552.326 73.7374 550.356 74.7511 548.428 76.0757C546.55 77.3755 544.853 78.8861 543.336 80.6075C541.82 82.3289 540.764 84.0611 540.167 85.804C539.921 86.524 540.029 87.0699 540.492 87.4418C541.663 87.5925 543.243 87.1009 545.233 85.9669C547.235 84.7951 549.844 82.8371 553.059 80.093C553.669 79.5413 554.343 78.9269 555.081 78.2497C555.856 77.5856 556.644 76.8836 557.445 76.1437C558.246 75.4037 559.028 74.6573 559.792 73.9044C560.606 73.1266 561.369 72.3736 562.082 71.6455Z" fill="white"/>
<path d="M562.082 71.6455C562.459 71.7759 562.866 72.0016 563.304 72.3226C563.793 72.6188 564.206 72.9522 564.543 73.3229C564.892 73.6558 565.16 73.9815 565.346 74.3001C565.57 74.6317 565.649 74.8922 565.585 75.0817C564.286 76.4124 563.038 77.7816 561.84 79.1892C560.655 80.559 559.583 81.9046 558.625 83.2259C557.667 84.5472 556.836 85.8063 556.131 87.0034C555.464 88.2134 554.969 89.2921 554.645 90.2393C554.282 91.3003 554.09 92.2298 554.07 93.0279C554.063 93.7882 554.271 94.4111 554.695 94.8967C554.139 95.0434 553.471 95.0876 552.69 95.0294C551.909 94.9712 551.236 94.8443 550.67 94.6488C548.635 93.9449 548.097 92.191 549.057 89.3871C549.796 87.2274 551.523 84.5196 554.239 81.2638C552.889 82.7461 551.458 84.0945 549.946 85.3091C548.448 86.4858 546.989 87.4855 545.57 88.3081C544.15 89.1308 542.783 89.7385 541.469 90.1313C540.205 90.4993 539.113 90.6091 538.195 90.4609C536.826 89.9028 535.922 88.8487 535.484 87.2985C535.058 85.7104 535.182 83.9312 535.856 81.9609C536.582 79.8391 537.799 77.76 539.507 75.7236C541.216 73.6873 543.111 71.9062 545.192 70.3803C547.312 68.8674 549.427 67.7347 551.539 66.9821C553.664 66.1916 555.512 66.0256 557.083 66.4843C557.421 66.7283 557.758 67.0991 558.094 67.5965C558.467 68.1069 558.783 68.6612 559.042 69.2593C559.339 69.8704 559.553 70.4744 559.686 71.0712C559.832 71.6302 559.866 72.0867 559.787 72.4407C558.201 72.1467 556.385 72.3446 554.336 73.0345C552.326 73.7374 550.356 74.7511 548.428 76.0757C546.55 77.3755 544.853 78.8861 543.336 80.6075C541.82 82.3289 540.764 84.0611 540.167 85.804C539.921 86.524 540.029 87.0699 540.492 87.4418C541.663 87.5925 543.243 87.1009 545.233 85.9669C547.235 84.7951 549.844 82.8371 553.059 80.093C553.669 79.5413 554.343 78.9269 555.081 78.2497C555.856 77.5856 556.644 76.8836 557.445 76.1437C558.246 75.4037 559.028 74.6573 559.792 73.9044C560.606 73.1266 561.369 72.3736 562.082 71.6455Z" fill="url(#paint15_linear_1_81013)"/>
<path d="M580.006 103.171C579.533 102.296 579.342 101.36 579.431 100.362C579.558 99.3791 579.745 98.5705 579.992 97.9363C580.298 97.1529 580.652 96.518 581.056 96.0315C580.908 95.973 580.457 96.1398 579.705 96.5319C578.953 96.924 578.101 97.4061 577.151 97.9782C576.237 98.5648 575.33 99.1329 574.431 99.6822C573.532 100.232 572.861 100.634 572.419 100.89C571.733 101.222 571.109 101.45 570.547 101.573C570.023 101.71 569.623 101.747 569.349 101.682C568.77 101.41 568.19 101.031 567.609 100.544C567.052 100.109 566.548 99.5876 566.1 98.9805C565.689 98.3881 565.363 97.743 565.121 97.0452C564.917 96.362 564.871 95.6554 564.985 94.9255C565.392 93.8809 565.745 93.0302 566.044 92.3734C566.38 91.7311 566.794 91.0549 567.285 90.3446C568.172 89.0587 569.28 87.6447 570.609 86.1028C571.975 84.5754 573.419 83.1219 574.942 81.7423C576.479 80.3254 578.058 79.0757 579.679 77.993C581.352 76.8877 582.949 76.1401 584.471 75.7501C584.805 75.8817 585.18 76.0726 585.596 76.3228C586.027 76.5356 586.435 76.8044 586.823 77.1291C587.247 77.4685 587.619 77.8305 587.94 78.2152C588.313 78.5773 588.582 78.9847 588.748 79.4374C588.268 79.6788 586.927 80.5921 584.725 82.1773C582.56 83.7771 579.865 86.2437 576.638 89.5771C576.293 89.9144 575.837 90.4235 575.272 91.1045C574.707 91.7855 574.127 92.5038 573.533 93.2594C572.938 94.0151 572.388 94.7667 571.883 95.5142C571.414 96.2764 571.085 96.9 570.896 97.385C570.78 97.6834 570.73 97.9219 570.746 98.1003C570.799 98.2934 570.848 98.4419 570.893 98.5458C571.537 98.5414 572.482 98.2037 573.728 97.5329C574.974 96.8621 576.766 95.782 579.102 94.2926C579.676 93.9166 580.336 93.488 581.08 93.0066C581.861 92.5399 582.657 92.0359 583.468 91.4946C584.293 90.916 585.088 90.3041 585.853 89.6589C586.656 89.0283 587.365 88.3612 587.982 87.6575C588.305 87.2684 588.694 86.8192 589.15 86.3101C589.657 85.7783 590.208 85.2425 590.804 84.7027C591.437 84.1774 592.107 83.6668 592.814 83.1709C593.573 82.6522 594.384 82.2188 595.248 81.8706C595.73 82.0607 596.228 82.3215 596.741 82.6528C597.253 82.9841 597.715 83.3381 598.124 83.7148C598.586 84.0687 598.958 84.4308 599.242 84.8009C599.54 85.1337 599.738 85.4486 599.837 85.7455C598.529 87.1236 597.154 88.4539 595.712 89.7362C594.27 91.0185 592.891 92.3041 591.575 93.593C590.273 94.8446 589.083 96.14 588.005 97.4794C586.926 98.8187 586.103 100.216 585.535 101.671C585.23 102.454 585.016 103.166 584.895 103.807C584.825 104.425 584.784 104.969 584.773 105.437C584.776 105.869 584.782 106.237 584.791 106.542C584.838 106.862 584.825 107.115 584.752 107.301C584.737 107.339 584.678 107.38 584.575 107.425C584.523 107.448 584.479 107.452 584.442 107.438C584.182 107.335 583.87 107.148 583.506 106.875C583.141 106.602 582.743 106.251 582.311 105.823C581.901 105.446 581.487 105.025 581.07 104.559C580.689 104.107 580.335 103.645 580.006 103.171ZM597.862 77.801C597.149 77.4339 596.443 76.9402 595.743 76.32C595.057 75.6624 594.467 74.8703 593.972 73.9436C593.529 72.9942 593.2 71.9175 592.985 70.7136C592.821 69.4869 592.886 68.1136 593.179 66.5937C593.723 66.0765 594.421 65.8782 595.273 65.9989C596.162 66.1341 596.969 66.2588 597.695 66.3729C597.284 68.9651 597.371 70.9364 597.958 72.2866C598.581 73.6515 599.439 74.6352 600.531 75.2379C602.072 75.4579 603.477 75.2585 604.746 74.6396C606.066 73.9981 607.325 73.0742 608.524 71.868C608.851 72.1261 609.01 72.5975 609 73.2822C607.916 74.9638 606.374 76.2282 604.374 77.0754C602.388 77.8852 600.218 78.1271 597.862 77.801Z" fill="white"/>
<path d="M580.006 103.171C579.533 102.296 579.342 101.36 579.431 100.362C579.558 99.3791 579.745 98.5705 579.992 97.9363C580.298 97.1529 580.652 96.518 581.056 96.0315C580.908 95.973 580.457 96.1398 579.705 96.5319C578.953 96.924 578.101 97.4061 577.151 97.9782C576.237 98.5648 575.33 99.1329 574.431 99.6822C573.532 100.232 572.861 100.634 572.419 100.89C571.733 101.222 571.109 101.45 570.547 101.573C570.023 101.71 569.623 101.747 569.349 101.682C568.77 101.41 568.19 101.031 567.609 100.544C567.052 100.109 566.548 99.5876 566.1 98.9805C565.689 98.3881 565.363 97.743 565.121 97.0452C564.917 96.362 564.871 95.6554 564.985 94.9255C565.392 93.8809 565.745 93.0302 566.044 92.3734C566.38 91.7311 566.794 91.0549 567.285 90.3446C568.172 89.0587 569.28 87.6447 570.609 86.1028C571.975 84.5754 573.419 83.1219 574.942 81.7423C576.479 80.3254 578.058 79.0757 579.679 77.993C581.352 76.8877 582.949 76.1401 584.471 75.7501C584.805 75.8817 585.18 76.0726 585.596 76.3228C586.027 76.5356 586.435 76.8044 586.823 77.1291C587.247 77.4685 587.619 77.8305 587.94 78.2152C588.313 78.5773 588.582 78.9847 588.748 79.4374C588.268 79.6788 586.927 80.5921 584.725 82.1773C582.56 83.7771 579.865 86.2437 576.638 89.5771C576.293 89.9144 575.837 90.4235 575.272 91.1045C574.707 91.7855 574.127 92.5038 573.533 93.2594C572.938 94.0151 572.388 94.7667 571.883 95.5142C571.414 96.2764 571.085 96.9 570.896 97.385C570.78 97.6834 570.73 97.9219 570.746 98.1003C570.799 98.2934 570.848 98.4419 570.893 98.5458C571.537 98.5414 572.482 98.2037 573.728 97.5329C574.974 96.8621 576.766 95.782 579.102 94.2926C579.676 93.9166 580.336 93.488 581.08 93.0066C581.861 92.5399 582.657 92.0359 583.468 91.4946C584.293 90.916 585.088 90.3041 585.853 89.6589C586.656 89.0283 587.365 88.3612 587.982 87.6575C588.305 87.2684 588.694 86.8192 589.15 86.3101C589.657 85.7783 590.208 85.2425 590.804 84.7027C591.437 84.1774 592.107 83.6668 592.814 83.1709C593.573 82.6522 594.384 82.2188 595.248 81.8706C595.73 82.0607 596.228 82.3215 596.741 82.6528C597.253 82.9841 597.715 83.3381 598.124 83.7148C598.586 84.0687 598.958 84.4308 599.242 84.8009C599.54 85.1337 599.738 85.4486 599.837 85.7455C598.529 87.1236 597.154 88.4539 595.712 89.7362C594.27 91.0185 592.891 92.3041 591.575 93.593C590.273 94.8446 589.083 96.14 588.005 97.4794C586.926 98.8187 586.103 100.216 585.535 101.671C585.23 102.454 585.016 103.166 584.895 103.807C584.825 104.425 584.784 104.969 584.773 105.437C584.776 105.869 584.782 106.237 584.791 106.542C584.838 106.862 584.825 107.115 584.752 107.301C584.737 107.339 584.678 107.38 584.575 107.425C584.523 107.448 584.479 107.452 584.442 107.438C584.182 107.335 583.87 107.148 583.506 106.875C583.141 106.602 582.743 106.251 582.311 105.823C581.901 105.446 581.487 105.025 581.07 104.559C580.689 104.107 580.335 103.645 580.006 103.171ZM597.862 77.801C597.149 77.4339 596.443 76.9402 595.743 76.32C595.057 75.6624 594.467 74.8703 593.972 73.9436C593.529 72.9942 593.2 71.9175 592.985 70.7136C592.821 69.4869 592.886 68.1136 593.179 66.5937C593.723 66.0765 594.421 65.8782 595.273 65.9989C596.162 66.1341 596.969 66.2588 597.695 66.3729C597.284 68.9651 597.371 70.9364 597.958 72.2866C598.581 73.6515 599.439 74.6352 600.531 75.2379C602.072 75.4579 603.477 75.2585 604.746 74.6396C606.066 73.9981 607.325 73.0742 608.524 71.868C608.851 72.1261 609.01 72.5975 609 73.2822C607.916 74.9638 606.374 76.2282 604.374 77.0754C602.388 77.8852 600.218 78.1271 597.862 77.801Z" fill="url(#paint16_linear_1_81013)"/>
<defs>
<linearGradient id="paint0_linear_1_81013" x1="9.91194" y1="77.1994" x2="565.359" y2="75.8813" gradientUnits="userSpaceOnUse">
<stop stop-color="#F9D4BF"/>
<stop offset="0.2279" stop-color="#BA9B57"/>
<stop offset="0.414" stop-color="#F9C46E"/>
<stop offset="0.586" stop-color="#F0B963"/>
<stop offset="0.7721" stop-color="#F9F3BB"/>
<stop offset="1" stop-color="#C1A059"/>
</linearGradient>
<linearGradient id="paint1_linear_1_81013" x1="9.91194" y1="77.1994" x2="565.359" y2="75.8813" gradientUnits="userSpaceOnUse">
<stop stop-color="#F9D4BF"/>
<stop offset="0.2279" stop-color="#BA9B57"/>
<stop offset="0.414" stop-color="#F9C46E"/>
<stop offset="0.586" stop-color="#F0B963"/>
<stop offset="0.7721" stop-color="#F9F3BB"/>
<stop offset="1" stop-color="#C1A059"/>
</linearGradient>
<linearGradient id="paint2_linear_1_81013" x1="9.91194" y1="77.1994" x2="565.359" y2="75.8813" gradientUnits="userSpaceOnUse">
<stop stop-color="#F9D4BF"/>
<stop offset="0.2279" stop-color="#BA9B57"/>
<stop offset="0.414" stop-color="#F9C46E"/>
<stop offset="0.586" stop-color="#F0B963"/>
<stop offset="0.7721" stop-color="#F9F3BB"/>
<stop offset="1" stop-color="#C1A059"/>
</linearGradient>
<linearGradient id="paint3_linear_1_81013" x1="9.91194" y1="77.1994" x2="565.359" y2="75.8813" gradientUnits="userSpaceOnUse">
<stop stop-color="#F9D4BF"/>
<stop offset="0.2279" stop-color="#BA9B57"/>
<stop offset="0.414" stop-color="#F9C46E"/>
<stop offset="0.586" stop-color="#F0B963"/>
<stop offset="0.7721" stop-color="#F9F3BB"/>
<stop offset="1" stop-color="#C1A059"/>
</linearGradient>
<linearGradient id="paint4_linear_1_81013" x1="9.91194" y1="77.1994" x2="565.359" y2="75.8813" gradientUnits="userSpaceOnUse">
<stop stop-color="#F9D4BF"/>
<stop offset="0.2279" stop-color="#BA9B57"/>
<stop offset="0.414" stop-color="#F9C46E"/>
<stop offset="0.586" stop-color="#F0B963"/>
<stop offset="0.7721" stop-color="#F9F3BB"/>
<stop offset="1" stop-color="#C1A059"/>
</linearGradient>
<linearGradient id="paint5_linear_1_81013" x1="9.91194" y1="77.1994" x2="565.359" y2="75.8813" gradientUnits="userSpaceOnUse">
<stop stop-color="#F9D4BF"/>
<stop offset="0.2279" stop-color="#BA9B57"/>
<stop offset="0.414" stop-color="#F9C46E"/>
<stop offset="0.586" stop-color="#F0B963"/>
<stop offset="0.7721" stop-color="#F9F3BB"/>
<stop offset="1" stop-color="#C1A059"/>
</linearGradient>
<linearGradient id="paint6_linear_1_81013" x1="9.91194" y1="77.1994" x2="565.359" y2="75.8813" gradientUnits="userSpaceOnUse">
<stop stop-color="#F9D4BF"/>
<stop offset="0.2279" stop-color="#BA9B57"/>
<stop offset="0.414" stop-color="#F9C46E"/>
<stop offset="0.586" stop-color="#F0B963"/>
<stop offset="0.7721" stop-color="#F9F3BB"/>
<stop offset="1" stop-color="#C1A059"/>
</linearGradient>
<linearGradient id="paint7_linear_1_81013" x1="9.91194" y1="77.1994" x2="565.359" y2="75.8813" gradientUnits="userSpaceOnUse">
<stop stop-color="#F9D4BF"/>
<stop offset="0.2279" stop-color="#BA9B57"/>
<stop offset="0.414" stop-color="#F9C46E"/>
<stop offset="0.586" stop-color="#F0B963"/>
<stop offset="0.7721" stop-color="#F9F3BB"/>
<stop offset="1" stop-color="#C1A059"/>
</linearGradient>
<linearGradient id="paint8_linear_1_81013" x1="9.91194" y1="77.1994" x2="565.359" y2="75.8813" gradientUnits="userSpaceOnUse">
<stop stop-color="#F9D4BF"/>
<stop offset="0.2279" stop-color="#BA9B57"/>
<stop offset="0.414" stop-color="#F9C46E"/>
<stop offset="0.586" stop-color="#F0B963"/>
<stop offset="0.7721" stop-color="#F9F3BB"/>
<stop offset="1" stop-color="#C1A059"/>
</linearGradient>
<linearGradient id="paint9_linear_1_81013" x1="9.91194" y1="77.1994" x2="565.359" y2="75.8813" gradientUnits="userSpaceOnUse">
<stop stop-color="#F9D4BF"/>
<stop offset="0.2279" stop-color="#BA9B57"/>
<stop offset="0.414" stop-color="#F9C46E"/>
<stop offset="0.586" stop-color="#F0B963"/>
<stop offset="0.7721" stop-color="#F9F3BB"/>
<stop offset="1" stop-color="#C1A059"/>
</linearGradient>
<linearGradient id="paint10_linear_1_81013" x1="9.91194" y1="77.1994" x2="565.359" y2="75.8813" gradientUnits="userSpaceOnUse">
<stop stop-color="#F9D4BF"/>
<stop offset="0.2279" stop-color="#BA9B57"/>
<stop offset="0.414" stop-color="#F9C46E"/>
<stop offset="0.586" stop-color="#F0B963"/>
<stop offset="0.7721" stop-color="#F9F3BB"/>
<stop offset="1" stop-color="#C1A059"/>
</linearGradient>
<linearGradient id="paint11_linear_1_81013" x1="9.91194" y1="77.1994" x2="565.359" y2="75.8813" gradientUnits="userSpaceOnUse">
<stop stop-color="#F9D4BF"/>
<stop offset="0.2279" stop-color="#BA9B57"/>
<stop offset="0.414" stop-color="#F9C46E"/>
<stop offset="0.586" stop-color="#F0B963"/>
<stop offset="0.7721" stop-color="#F9F3BB"/>
<stop offset="1" stop-color="#C1A059"/>
</linearGradient>
<linearGradient id="paint12_linear_1_81013" x1="9.91194" y1="77.1994" x2="565.359" y2="75.8813" gradientUnits="userSpaceOnUse">
<stop stop-color="#F9D4BF"/>
<stop offset="0.2279" stop-color="#BA9B57"/>
<stop offset="0.414" stop-color="#F9C46E"/>
<stop offset="0.586" stop-color="#F0B963"/>
<stop offset="0.7721" stop-color="#F9F3BB"/>
<stop offset="1" stop-color="#C1A059"/>
</linearGradient>
<linearGradient id="paint13_linear_1_81013" x1="9.91194" y1="77.1994" x2="565.359" y2="75.8813" gradientUnits="userSpaceOnUse">
<stop stop-color="#F9D4BF"/>
<stop offset="0.2279" stop-color="#BA9B57"/>
<stop offset="0.414" stop-color="#F9C46E"/>
<stop offset="0.586" stop-color="#F0B963"/>
<stop offset="0.7721" stop-color="#F9F3BB"/>
<stop offset="1" stop-color="#C1A059"/>
</linearGradient>
<linearGradient id="paint14_linear_1_81013" x1="9.91194" y1="77.1994" x2="565.359" y2="75.8813" gradientUnits="userSpaceOnUse">
<stop stop-color="#F9D4BF"/>
<stop offset="0.2279" stop-color="#BA9B57"/>
<stop offset="0.414" stop-color="#F9C46E"/>
<stop offset="0.586" stop-color="#F0B963"/>
<stop offset="0.7721" stop-color="#F9F3BB"/>
<stop offset="1" stop-color="#C1A059"/>
</linearGradient>
<linearGradient id="paint15_linear_1_81013" x1="9.91194" y1="77.1994" x2="565.359" y2="75.8813" gradientUnits="userSpaceOnUse">
<stop stop-color="#F9D4BF"/>
<stop offset="0.2279" stop-color="#BA9B57"/>
<stop offset="0.414" stop-color="#F9C46E"/>
<stop offset="0.586" stop-color="#F0B963"/>
<stop offset="0.7721" stop-color="#F9F3BB"/>
<stop offset="1" stop-color="#C1A059"/>
</linearGradient>
<linearGradient id="paint16_linear_1_81013" x1="9.91194" y1="77.1994" x2="565.359" y2="75.8813" gradientUnits="userSpaceOnUse">
<stop stop-color="#F9D4BF"/>
<stop offset="0.2279" stop-color="#BA9B57"/>
<stop offset="0.414" stop-color="#F9C46E"/>
<stop offset="0.586" stop-color="#F0B963"/>
<stop offset="0.7721" stop-color="#F9F3BB"/>
<stop offset="1" stop-color="#C1A059"/>
</linearGradient>
</defs>
</svg>
