<svg width="492" height="113" viewBox="0 0 492 113" fill="none" xmlns="http://www.w3.org/2000/svg">
<path d="M0 40.512C0.657568 39.5702 1.65306 38.5303 2.98646 37.3922C4.29664 36.1948 5.76032 35.04 7.3775 33.9276C8.99469 32.8153 10.6467 31.792 12.3336 30.8576C14.0798 29.9 15.6649 29.1424 17.0887 28.5848C19.5212 27.6322 21.7371 27.1749 23.7364 27.213C25.7125 27.1918 27.4552 27.5357 28.9645 28.2447C30.4507 28.8944 31.6982 29.8086 32.7073 30.9872C33.7163 32.1659 34.4996 33.4671 35.0572 34.891C35.6381 36.3742 35.9572 38.0626 36.0145 39.9561C36.1311 41.8264 35.9808 43.8012 35.5634 45.8806C35.1461 47.96 34.4799 50.1027 33.5647 52.3086C32.6856 54.432 31.5704 56.4768 30.2192 58.443C34.3207 57.3841 37.6331 57.4554 40.1565 58.6568C42.6798 59.8583 44.5688 62.0608 45.8235 65.2645C47.0085 68.2902 47.5137 71.24 47.3391 74.1139C47.1412 76.9285 46.4352 79.6684 45.2208 82.3336C44.0426 84.9163 42.4749 87.3778 40.5175 89.7182C38.5369 91.9993 36.315 94.1011 33.8519 96.0238C31.4714 97.9825 28.9269 99.6974 26.2186 101.169C23.5335 102.699 20.9154 103.964 18.3643 104.963C15.9833 105.348 13.8691 104.842 12.0216 103.444C10.1741 102.047 8.72755 100.013 7.68199 97.343C7.61228 97.1651 7.54258 96.9871 7.47288 96.8091C7.4625 96.6079 7.41084 96.3886 7.3179 96.1513C9.38941 96.0243 11.8787 95.3916 14.7857 94.2531C17.8115 93.0681 20.9351 91.4342 24.1566 89.3514C27.3781 87.2686 30.2049 84.9641 32.6368 82.4378C35.0688 79.9116 36.8687 77.2565 38.0366 74.4726C39.2044 71.6887 39.2655 68.9619 38.22 66.2922C37.4532 64.3343 36.1733 62.9881 34.3801 62.2534C32.6231 61.4361 30.3103 61.3839 27.4419 62.0967C26.0802 63.8616 24.6618 65.3067 23.1865 66.4319C21.7473 67.4745 20.6124 68.1585 19.7818 68.4838C18.4173 69.0182 17.028 68.878 15.6141 68.0632C14.2002 67.2484 13.0169 65.6248 12.0643 63.1923C14.734 62.1468 17.4359 60.7465 20.1699 58.9915C22.9633 57.2132 25.327 55.1242 27.2612 52.7245C29.1721 50.2654 30.4934 47.5241 31.2252 44.5004C31.9931 41.3941 31.7161 37.9786 30.3942 34.2538C29.6328 33.1835 28.584 32.602 27.2476 32.5095C25.9706 32.3938 24.5609 32.638 23.0184 33.2421C21.5945 33.7998 20.1036 34.6231 18.5458 35.7122C17.0472 36.7781 15.5887 38.0336 14.1703 39.4786C12.7879 40.8411 11.5049 42.37 10.3213 44.0652C9.17379 45.6779 8.26876 47.2982 7.60623 48.9263C6.14086 48.679 4.77339 47.9829 3.50383 46.8378C2.27035 45.6102 1.28186 44.0472 0.538348 42.1487C0.422174 41.8521 0.317619 41.5851 0.224679 41.3478C0.131742 41.1105 0.0568472 40.8319 0 40.512Z" fill="white"/>
<path d="M0 40.512C0.657568 39.5702 1.65306 38.5303 2.98646 37.3922C4.29664 36.1948 5.76032 35.04 7.3775 33.9276C8.99469 32.8153 10.6467 31.792 12.3336 30.8576C14.0798 29.9 15.6649 29.1424 17.0887 28.5848C19.5212 27.6322 21.7371 27.1749 23.7364 27.213C25.7125 27.1918 27.4552 27.5357 28.9645 28.2447C30.4507 28.8944 31.6982 29.8086 32.7073 30.9872C33.7163 32.1659 34.4996 33.4671 35.0572 34.891C35.6381 36.3742 35.9572 38.0626 36.0145 39.9561C36.1311 41.8264 35.9808 43.8012 35.5634 45.8806C35.1461 47.96 34.4799 50.1027 33.5647 52.3086C32.6856 54.432 31.5704 56.4768 30.2192 58.443C34.3207 57.3841 37.6331 57.4554 40.1565 58.6568C42.6798 59.8583 44.5688 62.0608 45.8235 65.2645C47.0085 68.2902 47.5137 71.24 47.3391 74.1139C47.1412 76.9285 46.4352 79.6684 45.2208 82.3336C44.0426 84.9163 42.4749 87.3778 40.5175 89.7182C38.5369 91.9993 36.315 94.1011 33.8519 96.0238C31.4714 97.9825 28.9269 99.6974 26.2186 101.169C23.5335 102.699 20.9154 103.964 18.3643 104.963C15.9833 105.348 13.8691 104.842 12.0216 103.444C10.1741 102.047 8.72755 100.013 7.68199 97.343C7.61228 97.1651 7.54258 96.9871 7.47288 96.8091C7.4625 96.6079 7.41084 96.3886 7.3179 96.1513C9.38941 96.0243 11.8787 95.3916 14.7857 94.2531C17.8115 93.0681 20.9351 91.4342 24.1566 89.3514C27.3781 87.2686 30.2049 84.9641 32.6368 82.4378C35.0688 79.9116 36.8687 77.2565 38.0366 74.4726C39.2044 71.6887 39.2655 68.9619 38.22 66.2922C37.4532 64.3343 36.1733 62.9881 34.3801 62.2534C32.6231 61.4361 30.3103 61.3839 27.4419 62.0967C26.0802 63.8616 24.6618 65.3067 23.1865 66.4319C21.7473 67.4745 20.6124 68.1585 19.7818 68.4838C18.4173 69.0182 17.028 68.878 15.6141 68.0632C14.2002 67.2484 13.0169 65.6248 12.0643 63.1923C14.734 62.1468 17.4359 60.7465 20.1699 58.9915C22.9633 57.2132 25.327 55.1242 27.2612 52.7245C29.1721 50.2654 30.4934 47.5241 31.2252 44.5004C31.9931 41.3941 31.7161 37.9786 30.3942 34.2538C29.6328 33.1835 28.584 32.602 27.2476 32.5095C25.9706 32.3938 24.5609 32.638 23.0184 33.2421C21.5945 33.7998 20.1036 34.6231 18.5458 35.7122C17.0472 36.7781 15.5887 38.0336 14.1703 39.4786C12.7879 40.8411 11.5049 42.37 10.3213 44.0652C9.17379 45.6779 8.26876 47.2982 7.60623 48.9263C6.14086 48.679 4.77339 47.9829 3.50383 46.8378C2.27035 45.6102 1.28186 44.0472 0.538348 42.1487C0.422174 41.8521 0.317619 41.5851 0.224679 41.3478C0.131742 41.1105 0.0568472 40.8319 0 40.512Z" fill="url(#paint0_linear_93_16418)"/>
<path d="M80.383 38.5829C81.276 42.4394 81.586 45.9056 81.3129 48.9816C81.0215 51.9965 80.1503 54.8531 78.6992 57.5513C77.2908 60.1701 75.3697 62.7434 72.936 65.2712C70.5023 67.799 67.5621 70.4126 64.1154 73.1118C64.2254 73.4779 64.3141 73.8837 64.3815 74.3291C64.4915 74.6953 64.6107 75.0919 64.7391 75.519C64.9775 76.3122 65.2861 77.1177 65.6649 77.9352C66.0437 78.7528 66.4957 79.4819 67.0209 80.1224C67.546 80.7629 68.1566 81.2447 68.8525 81.5678C69.53 81.8299 70.2959 81.8326 71.1502 81.5758C72.7977 81.0806 74.3046 80.2285 75.671 79.0195C77.0374 77.8104 78.2665 76.4763 79.3581 75.0172C80.4925 73.4787 81.4864 71.9158 82.34 70.3287C83.2362 68.6621 84.0166 67.1635 84.6812 65.8327C85.4564 66.1985 86.131 66.5613 86.7048 66.9211C85.0593 71.4075 82.9559 75.3662 80.3945 78.7973C77.8758 82.1491 75.2528 84.6007 72.5257 86.1522C68.1686 86.9295 64.4151 86.3944 61.2651 84.5469C58.1578 82.62 56.054 79.8259 54.9536 76.1648C54.2016 73.6631 53.7761 71.0299 53.6771 68.2654C53.6207 65.4215 53.8451 62.6263 54.3502 59.8798C54.898 57.0539 55.6747 54.3256 56.6803 51.6947C57.7469 49.0456 58.9876 46.6435 60.4024 44.4884C61.8781 42.3151 63.4853 40.4682 65.2238 38.9477C67.0233 37.4088 68.9299 36.3368 70.9435 35.7316C73.8604 35.2541 77.0069 36.2045 80.383 38.5829ZM74.9754 43.5015C73.4012 44.2407 71.8944 45.4254 70.455 47.0556C69.0156 48.6858 67.7777 50.6546 66.7414 52.962C65.7662 55.251 65.0046 57.8085 64.4568 60.6344C63.909 63.4603 63.6908 66.3867 63.8022 69.4136C67.9501 65.5057 71.1092 61.2962 73.2795 56.7851C75.4314 52.213 75.9967 47.7851 74.9754 43.5015Z" fill="white"/>
<path d="M80.383 38.5829C81.276 42.4394 81.586 45.9056 81.3129 48.9816C81.0215 51.9965 80.1503 54.8531 78.6992 57.5513C77.2908 60.1701 75.3697 62.7434 72.936 65.2712C70.5023 67.799 67.5621 70.4126 64.1154 73.1118C64.2254 73.4779 64.3141 73.8837 64.3815 74.3291C64.4915 74.6953 64.6107 75.0919 64.7391 75.519C64.9775 76.3122 65.2861 77.1177 65.6649 77.9352C66.0437 78.7528 66.4957 79.4819 67.0209 80.1224C67.546 80.7629 68.1566 81.2447 68.8525 81.5678C69.53 81.8299 70.2959 81.8326 71.1502 81.5758C72.7977 81.0806 74.3046 80.2285 75.671 79.0195C77.0374 77.8104 78.2665 76.4763 79.3581 75.0172C80.4925 73.4787 81.4864 71.9158 82.34 70.3287C83.2362 68.6621 84.0166 67.1635 84.6812 65.8327C85.4564 66.1985 86.131 66.5613 86.7048 66.9211C85.0593 71.4075 82.9559 75.3662 80.3945 78.7973C77.8758 82.1491 75.2528 84.6007 72.5257 86.1522C68.1686 86.9295 64.4151 86.3944 61.2651 84.5469C58.1578 82.62 56.054 79.8259 54.9536 76.1648C54.2016 73.6631 53.7761 71.0299 53.6771 68.2654C53.6207 65.4215 53.8451 62.6263 54.3502 59.8798C54.898 57.0539 55.6747 54.3256 56.6803 51.6947C57.7469 49.0456 58.9876 46.6435 60.4024 44.4884C61.8781 42.3151 63.4853 40.4682 65.2238 38.9477C67.0233 37.4088 68.9299 36.3368 70.9435 35.7316C73.8604 35.2541 77.0069 36.2045 80.383 38.5829ZM74.9754 43.5015C73.4012 44.2407 71.8944 45.4254 70.455 47.0556C69.0156 48.6858 67.7777 50.6546 66.7414 52.962C65.7662 55.251 65.0046 57.8085 64.4568 60.6344C63.909 63.4603 63.6908 66.3867 63.8022 69.4136C67.9501 65.5057 71.1092 61.2962 73.2795 56.7851C75.4314 52.213 75.9967 47.7851 74.9754 43.5015Z" fill="url(#paint1_linear_93_16418)"/>
<path d="M118.905 68.6092C117.504 67.8727 116.422 66.8054 115.659 65.4073C114.958 63.9955 114.492 62.7606 114.26 61.7026C113.973 60.3956 113.883 59.2413 113.989 58.2395C113.74 58.2941 113.29 58.9148 112.637 60.1017C111.984 61.2885 111.278 62.6825 110.521 64.2838C109.825 65.8713 109.123 67.4278 108.414 68.9531C107.704 70.4784 107.169 71.6069 106.808 72.3384C106.19 73.3872 105.562 74.2424 104.924 74.904C104.349 75.552 103.85 75.9549 103.428 76.1127C102.419 76.2689 101.313 76.283 100.111 76.1553C98.9844 76.0761 97.8552 75.8345 96.7229 75.4305C95.6529 75.0129 94.6489 74.4503 93.711 73.7428C92.8353 73.0216 92.1502 72.1282 91.6556 71.0625C91.2734 69.3199 90.9906 67.8817 90.8072 66.7478C90.686 65.6002 90.6377 64.3388 90.6623 62.9636C90.7038 60.4758 91.1916 57.7923 92.1257 54.913C93.0598 52.0338 94.3657 49.6601 96.0433 47.7919C96.6034 47.6691 97.2706 47.588 98.0447 47.5487C98.8052 47.4472 99.5862 47.439 100.388 47.5242C101.251 47.5957 102.066 47.7431 102.833 47.9664C103.648 48.1138 104.366 48.413 104.987 48.8639C104.563 49.6091 103.862 52.9589 102.885 58.9134C101.908 64.8679 101.508 68.2496 101.685 69.0587C101.795 69.5566 101.939 69.9164 102.118 70.138C102.359 70.346 102.556 70.4986 102.707 70.5958C103.559 70.0177 104.516 68.7314 105.579 66.7372C106.642 64.7429 108.067 61.7233 109.855 57.6785C110.286 56.6707 110.783 55.518 111.347 54.2203C111.973 52.909 112.585 51.5354 113.183 50.0996C113.768 48.6016 114.283 47.0861 114.73 45.5531C115.239 44.0065 115.592 42.494 115.789 41.0156C115.875 40.2142 115.995 39.2746 116.15 38.197C116.353 37.0434 116.612 35.8451 116.927 34.602C117.304 33.3453 117.743 32.0749 118.244 30.7909C118.793 29.4309 119.488 28.1371 120.328 26.9093C121.137 26.7319 122.029 26.6341 123.003 26.6161C123.978 26.5981 124.904 26.656 125.781 26.7897C126.707 26.8476 127.522 26.995 128.226 27.232C128.917 27.4067 129.459 27.6466 129.852 27.9518C129.332 30.9358 128.681 33.9161 127.898 36.8925C127.116 39.8689 126.42 42.7938 125.811 45.667C125.188 48.478 124.752 51.248 124.502 53.9772C124.253 56.7063 124.394 59.2844 124.927 61.7116C125.213 63.0186 125.559 64.1495 125.964 65.1043C126.418 65.9833 126.844 66.7378 127.243 67.3678C127.629 67.9356 127.963 68.4168 128.245 68.8115C128.589 69.1926 128.796 69.5387 128.864 69.8499C128.878 69.9121 128.836 70.0191 128.739 70.1709C128.69 70.2468 128.635 70.2915 128.572 70.3052C128.137 70.4007 127.556 70.4302 126.831 70.3936C126.105 70.357 125.266 70.2476 124.312 70.0652C123.435 69.9315 122.513 69.7423 121.546 69.4977C120.642 69.2395 119.761 68.9433 118.905 68.6092Z" fill="white"/>
<path d="M118.905 68.6092C117.504 67.8727 116.422 66.8054 115.659 65.4073C114.958 63.9955 114.492 62.7606 114.26 61.7026C113.973 60.3956 113.883 59.2413 113.989 58.2395C113.74 58.2941 113.29 58.9148 112.637 60.1017C111.984 61.2885 111.278 62.6825 110.521 64.2838C109.825 65.8713 109.123 67.4278 108.414 68.9531C107.704 70.4784 107.169 71.6069 106.808 72.3384C106.19 73.3872 105.562 74.2424 104.924 74.904C104.349 75.552 103.85 75.9549 103.428 76.1127C102.419 76.2689 101.313 76.283 100.111 76.1553C98.9844 76.0761 97.8552 75.8345 96.7229 75.4305C95.6529 75.0129 94.6489 74.4503 93.711 73.7428C92.8353 73.0216 92.1502 72.1282 91.6556 71.0625C91.2734 69.3199 90.9906 67.8817 90.8072 66.7478C90.686 65.6002 90.6377 64.3388 90.6623 62.9636C90.7038 60.4758 91.1916 57.7923 92.1257 54.913C93.0598 52.0338 94.3657 49.6601 96.0433 47.7919C96.6034 47.6691 97.2706 47.588 98.0447 47.5487C98.8052 47.4472 99.5862 47.439 100.388 47.5242C101.251 47.5957 102.066 47.7431 102.833 47.9664C103.648 48.1138 104.366 48.413 104.987 48.8639C104.563 49.6091 103.862 52.9589 102.885 58.9134C101.908 64.8679 101.508 68.2496 101.685 69.0587C101.795 69.5566 101.939 69.9164 102.118 70.138C102.359 70.346 102.556 70.4986 102.707 70.5958C103.559 70.0177 104.516 68.7314 105.579 66.7372C106.642 64.7429 108.067 61.7233 109.855 57.6785C110.286 56.6707 110.783 55.518 111.347 54.2203C111.973 52.909 112.585 51.5354 113.183 50.0996C113.768 48.6016 114.283 47.0861 114.73 45.5531C115.239 44.0065 115.592 42.494 115.789 41.0156C115.875 40.2142 115.995 39.2746 116.15 38.197C116.353 37.0434 116.612 35.8451 116.927 34.602C117.304 33.3453 117.743 32.0749 118.244 30.7909C118.793 29.4309 119.488 28.1371 120.328 26.9093C121.137 26.7319 122.029 26.6341 123.003 26.6161C123.978 26.5981 124.904 26.656 125.781 26.7897C126.707 26.8476 127.522 26.995 128.226 27.232C128.917 27.4067 129.459 27.6466 129.852 27.9518C129.332 30.9358 128.681 33.9161 127.898 36.8925C127.116 39.8689 126.42 42.7938 125.811 45.667C125.188 48.478 124.752 51.248 124.502 53.9772C124.253 56.7063 124.394 59.2844 124.927 61.7116C125.213 63.0186 125.559 64.1495 125.964 65.1043C126.418 65.9833 126.844 66.7378 127.243 67.3678C127.629 67.9356 127.963 68.4168 128.245 68.8115C128.589 69.1926 128.796 69.5387 128.864 69.8499C128.878 69.9121 128.836 70.0191 128.739 70.1709C128.69 70.2468 128.635 70.2915 128.572 70.3052C128.137 70.4007 127.556 70.4302 126.831 70.3936C126.105 70.357 125.266 70.2476 124.312 70.0652C123.435 69.9315 122.513 69.7423 121.546 69.4977C120.642 69.2395 119.761 68.9433 118.905 68.6092Z" fill="url(#paint2_linear_93_16418)"/>
<path d="M166.8 23.2855C167.098 27.2328 166.879 30.706 166.143 33.705C165.398 36.6409 164.104 39.3324 162.26 41.7795C160.471 44.1545 158.182 46.4069 155.394 48.5366C152.605 50.6662 149.302 52.8038 145.486 54.9494C145.54 55.3279 145.566 55.7425 145.565 56.193C145.618 56.5716 145.676 56.9817 145.738 57.4233C145.853 58.2435 146.036 59.0864 146.287 59.952C146.537 60.8175 146.873 61.6067 147.295 62.3194C147.717 63.0322 148.248 63.6009 148.887 64.0258C149.517 64.3875 150.273 64.5063 151.157 64.382C152.86 64.1423 154.479 63.5285 156.013 62.5405C157.547 61.5526 158.964 60.4202 160.264 59.1434C161.618 57.7946 162.838 56.4005 163.922 54.9611C165.061 53.4497 166.059 52.0867 166.918 50.872C167.629 51.3511 168.24 51.8119 168.753 52.2545C166.447 56.4397 163.767 60.0338 160.715 63.037C157.718 65.9682 154.753 67.9938 151.823 69.114C147.398 69.2218 143.769 68.1239 140.936 65.8202C138.156 63.4445 136.5 60.3639 135.968 56.5783C135.604 53.9915 135.582 51.3242 135.903 48.5766C136.279 45.7571 136.924 43.0282 137.84 40.39C138.81 37.6798 139.991 35.1007 141.384 32.6527C142.84 30.1959 144.43 28.0096 146.155 26.094C147.943 24.1694 149.812 22.5875 151.761 21.3481C153.773 20.0998 155.82 19.3292 157.902 19.0363C160.858 19.0064 163.824 20.4228 166.8 23.2855ZM160.709 27.3275C159.041 27.8196 157.372 28.7622 155.702 30.1554C154.033 31.5485 152.511 33.3069 151.136 35.4305C149.825 37.5453 148.685 39.9578 147.715 42.6679C146.745 45.3781 146.086 48.2376 145.737 51.2465C150.43 48.0125 154.19 44.3305 157.019 40.2006C159.84 36.0075 161.07 31.7165 160.709 27.3275Z" fill="white"/>
<path d="M166.8 23.2855C167.098 27.2328 166.879 30.706 166.143 33.705C165.398 36.6409 164.104 39.3324 162.26 41.7795C160.471 44.1545 158.182 46.4069 155.394 48.5366C152.605 50.6662 149.302 52.8038 145.486 54.9494C145.54 55.3279 145.566 55.7425 145.565 56.193C145.618 56.5716 145.676 56.9817 145.738 57.4233C145.853 58.2435 146.036 59.0864 146.287 59.952C146.537 60.8175 146.873 61.6067 147.295 62.3194C147.717 63.0322 148.248 63.6009 148.887 64.0258C149.517 64.3875 150.273 64.5063 151.157 64.382C152.86 64.1423 154.479 63.5285 156.013 62.5405C157.547 61.5526 158.964 60.4202 160.264 59.1434C161.618 57.7946 162.838 56.4005 163.922 54.9611C165.061 53.4497 166.059 52.0867 166.918 50.872C167.629 51.3511 168.24 51.8119 168.753 52.2545C166.447 56.4397 163.767 60.0338 160.715 63.037C157.718 65.9682 154.753 67.9938 151.823 69.114C147.398 69.2218 143.769 68.1239 140.936 65.8202C138.156 63.4445 136.5 60.3639 135.968 56.5783C135.604 53.9915 135.582 51.3242 135.903 48.5766C136.279 45.7571 136.924 43.0282 137.84 40.39C138.81 37.6798 139.991 35.1007 141.384 32.6527C142.84 30.1959 144.43 28.0096 146.155 26.094C147.943 24.1694 149.812 22.5875 151.761 21.3481C153.773 20.0998 155.82 19.3292 157.902 19.0363C160.858 19.0064 163.824 20.4228 166.8 23.2855ZM160.709 27.3275C159.041 27.8196 157.372 28.7622 155.702 30.1554C154.033 31.5485 152.511 33.3069 151.136 35.4305C149.825 37.5453 148.685 39.9578 147.715 42.6679C146.745 45.3781 146.086 48.2376 145.737 51.2465C150.43 48.0125 154.19 44.3305 157.019 40.2006C159.84 36.0075 161.07 31.7165 160.709 27.3275Z" fill="url(#paint3_linear_93_16418)"/>
<path d="M209.893 35.3672C210.745 33.4693 211.397 31.9973 211.849 30.9512C214.924 23.1228 217.384 19.1575 219.229 19.055C220.501 18.9844 221.698 19.2689 222.818 19.9087C223.999 20.4812 224.847 21.3914 225.363 22.639C224.896 24.5793 224.069 26.9225 222.881 29.6686C221.757 32.4112 220.611 35.3145 219.441 38.3787C218.267 41.3793 217.219 44.341 216.297 47.2638C215.438 50.1831 215.072 52.7879 215.199 55.0781C215.273 56.414 215.513 57.2941 215.92 57.7182C216.323 58.0787 216.874 58.2396 217.574 58.2007C218.337 58.1583 219.03 57.9922 219.652 57.7024C220.334 57.3455 220.834 57.1582 221.152 57.1405C221.548 57.3738 221.789 57.6795 221.873 58.0577C221.958 58.4359 222.009 58.784 222.027 59.1021C220.811 60.1906 219.553 61.09 218.252 61.8004C216.955 62.5743 215.48 63.0073 213.826 63.0991C212.299 63.1839 211.012 63 209.966 62.5476C208.984 62.0917 208.15 61.436 207.464 60.5807C206.778 59.7254 206.277 58.7323 205.958 57.6013C205.64 56.4703 205.444 55.2368 205.37 53.9009C205.25 51.7379 205.416 49.559 205.869 47.3642C205.968 46.8482 206.098 46.3304 206.261 45.8109C204.13 47.6522 201.559 49.0393 198.547 49.9723C197.268 49.9157 195.914 49.6718 194.486 49.2406C193.055 48.7457 191.703 47.9593 190.431 46.8813C189.166 45.9305 187.978 44.6564 186.868 43.0589C185.798 45.6071 184.765 48.2807 183.772 51.0798C182.072 58.3851 180.718 62.7358 179.711 64.1318C178.771 65.5879 177.931 66.5598 177.193 67.0475C175.814 66.3583 174.768 65.3316 174.054 63.9673C173.344 62.6667 172.789 61.2936 172.39 59.848C172.323 58.6393 172.397 57.1037 172.613 55.2411C172.892 53.375 173.256 51.3128 173.705 49.0544C174.214 46.7288 174.845 44.3008 175.598 41.7703C176.351 39.2398 177.199 36.7039 178.143 34.1628C180.249 28.4303 182.2 23.9188 183.996 20.6285C185.855 17.3346 187.032 15.5462 187.527 15.2635C189.209 15.6806 190.831 16.7392 192.393 18.4392C193.952 20.0756 195.139 21.9241 195.956 23.9846C195.351 25.7411 193.722 29.1499 191.067 34.2109C191.071 34.2745 191.043 34.3399 190.983 34.4071C192.075 37.9838 193.458 40.4914 195.133 41.9299C196.879 43.4921 198.745 44.3457 200.732 44.4907C203.117 43.7839 205.028 42.5611 206.463 40.8223C207.958 39.0163 209.101 37.1979 209.893 35.3672Z" fill="white"/>
<path d="M209.893 35.3672C210.745 33.4693 211.397 31.9973 211.849 30.9512C214.924 23.1228 217.384 19.1575 219.229 19.055C220.501 18.9844 221.698 19.2689 222.818 19.9087C223.999 20.4812 224.847 21.3914 225.363 22.639C224.896 24.5793 224.069 26.9225 222.881 29.6686C221.757 32.4112 220.611 35.3145 219.441 38.3787C218.267 41.3793 217.219 44.341 216.297 47.2638C215.438 50.1831 215.072 52.7879 215.199 55.0781C215.273 56.414 215.513 57.2941 215.92 57.7182C216.323 58.0787 216.874 58.2396 217.574 58.2007C218.337 58.1583 219.03 57.9922 219.652 57.7024C220.334 57.3455 220.834 57.1582 221.152 57.1405C221.548 57.3738 221.789 57.6795 221.873 58.0577C221.958 58.4359 222.009 58.784 222.027 59.1021C220.811 60.1906 219.553 61.09 218.252 61.8004C216.955 62.5743 215.48 63.0073 213.826 63.0991C212.299 63.1839 211.012 63 209.966 62.5476C208.984 62.0917 208.15 61.436 207.464 60.5807C206.778 59.7254 206.277 58.7323 205.958 57.6013C205.64 56.4703 205.444 55.2368 205.37 53.9009C205.25 51.7379 205.416 49.559 205.869 47.3642C205.968 46.8482 206.098 46.3304 206.261 45.8109C204.13 47.6522 201.559 49.0393 198.547 49.9723C197.268 49.9157 195.914 49.6718 194.486 49.2406C193.055 48.7457 191.703 47.9593 190.431 46.8813C189.166 45.9305 187.978 44.6564 186.868 43.0589C185.798 45.6071 184.765 48.2807 183.772 51.0798C182.072 58.3851 180.718 62.7358 179.711 64.1318C178.771 65.5879 177.931 66.5598 177.193 67.0475C175.814 66.3583 174.768 65.3316 174.054 63.9673C173.344 62.6667 172.789 61.2936 172.39 59.848C172.323 58.6393 172.397 57.1037 172.613 55.2411C172.892 53.375 173.256 51.3128 173.705 49.0544C174.214 46.7288 174.845 44.3008 175.598 41.7703C176.351 39.2398 177.199 36.7039 178.143 34.1628C180.249 28.4303 182.2 23.9188 183.996 20.6285C185.855 17.3346 187.032 15.5462 187.527 15.2635C189.209 15.6806 190.831 16.7392 192.393 18.4392C193.952 20.0756 195.139 21.9241 195.956 23.9846C195.351 25.7411 193.722 29.1499 191.067 34.2109C191.071 34.2745 191.043 34.3399 190.983 34.4071C192.075 37.9838 193.458 40.4914 195.133 41.9299C196.879 43.4921 198.745 44.3457 200.732 44.4907C203.117 43.7839 205.028 42.5611 206.463 40.8223C207.958 39.0163 209.101 37.1979 209.893 35.3672Z" fill="url(#paint4_linear_93_16418)"/>
<path d="M254.889 59.166C253.717 58.1022 252.937 56.7979 252.548 55.2532C252.223 53.7109 252.081 52.3985 252.121 51.3161C252.171 49.979 252.373 48.8388 252.727 47.8956C252.472 47.8861 251.88 48.3742 250.95 49.3597C250.021 50.3452 248.989 51.5182 247.855 52.8786C246.784 54.2414 245.714 55.5724 244.645 56.8715C243.577 58.1707 242.776 59.1291 242.243 59.7468C241.382 60.6074 240.56 61.2781 239.777 61.759C239.058 62.2423 238.474 62.5075 238.026 62.5545C237.009 62.4529 235.935 62.1897 234.803 61.765C233.733 61.4063 232.7 60.8896 231.705 60.215C230.774 59.5427 229.943 58.7466 229.212 57.8267C228.545 56.9092 228.105 55.8727 227.893 54.7171C227.96 52.9344 228.046 51.4711 228.152 50.3274C228.322 49.1861 228.591 47.9528 228.96 46.6276C229.623 44.2294 230.553 41.5224 231.749 38.5065C233.009 35.493 234.426 32.5491 235.999 29.6748C237.575 26.7368 239.302 24.0276 241.18 21.5472C243.123 19.0055 245.141 17.0404 247.233 15.6519C247.806 15.6732 248.472 15.7618 249.232 15.9176C249.993 16.0097 250.751 16.1974 251.506 16.4805C252.324 16.7661 253.076 17.1129 253.763 17.521C254.515 17.8678 255.135 18.3372 255.623 18.9293C255.026 19.5446 253.482 21.623 250.991 25.1645C248.564 28.7084 245.791 33.8333 242.672 40.5393C242.327 41.2279 241.907 42.2324 241.412 43.5529C240.916 44.8733 240.418 46.2575 239.918 47.7053C239.418 49.1531 238.982 50.5715 238.612 51.9604C238.305 53.3517 238.136 54.4612 238.105 55.2889C238.086 55.7983 238.136 56.1827 238.254 56.4421C238.435 56.7039 238.587 56.9008 238.71 57.0329C239.679 56.6865 240.928 55.681 242.456 54.0164C243.985 52.3519 246.121 49.7854 248.864 46.3171C249.534 45.4495 250.304 44.458 251.175 43.3428C252.109 42.2299 253.045 41.0534 253.984 39.8132C254.925 38.5093 255.804 37.1712 256.62 35.7989C257.5 34.429 258.221 33.0531 258.782 31.6713C259.066 30.9168 259.417 30.0372 259.837 29.0327C260.323 27.9669 260.874 26.8717 261.49 25.7469C262.169 24.6246 262.912 23.5046 263.719 22.387C264.592 21.2081 265.588 20.1294 266.709 19.151C267.537 19.1819 268.424 19.3106 269.372 19.5372C270.32 19.7638 271.202 20.0517 272.018 20.4009C272.9 20.6888 273.652 21.0356 274.275 21.4413C274.899 21.7834 275.364 22.1514 275.668 22.5453C274.418 25.3041 273.041 28.0264 271.538 30.712C270.035 33.3977 268.629 36.0551 267.32 38.6842C266.013 41.2496 264.897 43.8222 263.972 46.4018C263.047 48.9815 262.538 51.5129 262.446 53.9961C262.396 55.3332 262.448 56.5147 262.601 57.5405C262.82 58.5051 263.044 59.3423 263.272 60.0522C263.503 60.6984 263.706 61.2479 263.88 61.7007C264.118 62.1559 264.231 62.5426 264.219 62.861C264.217 62.9247 264.15 63.0178 264.018 63.1404C263.952 63.2017 263.887 63.2312 263.823 63.2288C263.378 63.2122 262.808 63.0953 262.115 62.8782C261.422 62.6611 260.636 62.3449 259.759 61.9297C258.943 61.5805 258.098 61.1664 257.223 60.6875C256.412 60.211 255.634 59.7038 254.889 59.166Z" fill="white"/>
<path d="M254.889 59.166C253.717 58.1022 252.937 56.7979 252.548 55.2532C252.223 53.7109 252.081 52.3985 252.121 51.3161C252.171 49.979 252.373 48.8388 252.727 47.8956C252.472 47.8861 251.88 48.3742 250.95 49.3597C250.021 50.3452 248.989 51.5182 247.855 52.8786C246.784 54.2414 245.714 55.5724 244.645 56.8715C243.577 58.1707 242.776 59.1291 242.243 59.7468C241.382 60.6074 240.56 61.2781 239.777 61.759C239.058 62.2423 238.474 62.5075 238.026 62.5545C237.009 62.4529 235.935 62.1897 234.803 61.765C233.733 61.4063 232.7 60.8896 231.705 60.215C230.774 59.5427 229.943 58.7466 229.212 57.8267C228.545 56.9092 228.105 55.8727 227.893 54.7171C227.96 52.9344 228.046 51.4711 228.152 50.3274C228.322 49.1861 228.591 47.9528 228.96 46.6276C229.623 44.2294 230.553 41.5224 231.749 38.5065C233.009 35.493 234.426 32.5491 235.999 29.6748C237.575 26.7368 239.302 24.0276 241.18 21.5472C243.123 19.0055 245.141 17.0404 247.233 15.6519C247.806 15.6732 248.472 15.7618 249.232 15.9176C249.993 16.0097 250.751 16.1974 251.506 16.4805C252.324 16.7661 253.076 17.1129 253.763 17.521C254.515 17.8678 255.135 18.3372 255.623 18.9293C255.026 19.5446 253.482 21.623 250.991 25.1645C248.564 28.7084 245.791 33.8333 242.672 40.5393C242.327 41.2279 241.907 42.2324 241.412 43.5529C240.916 44.8733 240.418 46.2575 239.918 47.7053C239.418 49.1531 238.982 50.5715 238.612 51.9604C238.305 53.3517 238.136 54.4612 238.105 55.2889C238.086 55.7983 238.136 56.1827 238.254 56.4421C238.435 56.7039 238.587 56.9008 238.71 57.0329C239.679 56.6865 240.928 55.681 242.456 54.0164C243.985 52.3519 246.121 49.7854 248.864 46.3171C249.534 45.4495 250.304 44.458 251.175 43.3428C252.109 42.2299 253.045 41.0534 253.984 39.8132C254.925 38.5093 255.804 37.1712 256.62 35.7989C257.5 34.429 258.221 33.0531 258.782 31.6713C259.066 30.9168 259.417 30.0372 259.837 29.0327C260.323 27.9669 260.874 26.8717 261.49 25.7469C262.169 24.6246 262.912 23.5046 263.719 22.387C264.592 21.2081 265.588 20.1294 266.709 19.151C267.537 19.1819 268.424 19.3106 269.372 19.5372C270.32 19.7638 271.202 20.0517 272.018 20.4009C272.9 20.6888 273.652 21.0356 274.275 21.4413C274.899 21.7834 275.364 22.1514 275.668 22.5453C274.418 25.3041 273.041 28.0264 271.538 30.712C270.035 33.3977 268.629 36.0551 267.32 38.6842C266.013 41.2496 264.897 43.8222 263.972 46.4018C263.047 48.9815 262.538 51.5129 262.446 53.9961C262.396 55.3332 262.448 56.5147 262.601 57.5405C262.82 58.5051 263.044 59.3423 263.272 60.0522C263.503 60.6984 263.706 61.2479 263.88 61.7007C264.118 62.1559 264.231 62.5426 264.219 62.861C264.217 62.9247 264.15 63.0178 264.018 63.1404C263.952 63.2017 263.887 63.2312 263.823 63.2288C263.378 63.2122 262.808 63.0953 262.115 62.8782C261.422 62.6611 260.636 62.3449 259.759 61.9297C258.943 61.5805 258.098 61.1664 257.223 60.6875C256.412 60.211 255.634 59.7038 254.889 59.166Z" fill="url(#paint5_linear_93_16418)"/>
<path d="M300.424 63.7166C299.346 62.5578 298.679 61.1924 298.422 59.6204C298.228 58.0562 298.196 56.7365 298.328 55.6613C298.49 54.3332 298.788 53.2141 299.22 52.3041C298.967 52.2732 298.336 52.7096 297.327 53.6132C296.317 54.5169 295.19 55.5987 293.945 56.8587C292.763 58.1264 291.585 59.3624 290.411 60.5669C289.236 61.7713 288.358 62.6588 287.774 63.2294C286.844 64.0144 285.968 64.6134 285.148 65.0266C284.39 65.4475 283.786 65.6625 283.336 65.6717C282.331 65.4847 281.283 65.132 280.191 64.6133C279.155 64.1657 278.169 63.5638 277.235 62.8076C276.363 62.0592 275.602 61.1959 274.952 60.2177C274.364 59.2473 274.013 58.1774 273.9 57.0081C274.116 55.2372 274.326 53.7865 274.528 52.6558C274.794 51.5329 275.166 50.3267 275.644 49.0372C276.507 46.7035 277.662 44.0844 279.108 41.1801C280.618 38.2836 282.277 35.4696 284.088 32.7381C285.906 29.9434 287.855 27.3894 289.935 25.0761C292.086 22.7073 294.262 20.9193 296.464 19.712C297.033 19.7816 297.689 19.926 298.433 20.1453C299.184 20.3013 299.924 20.5522 300.652 20.8979C301.443 21.2514 302.163 21.6604 302.812 22.1249C303.533 22.5339 304.111 23.0539 304.547 23.685C303.901 24.2478 302.187 26.1887 299.407 29.5076C296.689 32.8342 293.494 37.7072 289.821 44.1264C289.419 44.7835 288.916 45.749 288.311 47.023C287.706 48.297 287.093 49.6343 286.473 51.0348C285.852 52.4353 285.299 53.8119 284.813 55.1646C284.389 56.5251 284.128 57.6164 284.027 58.4386C283.965 58.9446 283.982 59.3318 284.078 59.6002C284.237 59.8764 284.372 60.0854 284.483 60.2274C285.478 59.9639 286.807 59.0672 288.47 57.5374C290.134 56.0076 292.478 53.6304 295.504 50.4057C296.245 49.5975 297.096 48.6745 298.057 47.6366C299.082 46.6065 300.114 45.5131 301.154 44.3564C302.202 43.1365 303.19 41.8772 304.119 40.5786C305.111 39.2878 305.946 37.9776 306.622 36.648C306.967 35.92 307.392 35.0732 307.895 34.1077C308.469 33.0867 309.11 32.0417 309.819 30.9729C310.59 29.9118 311.425 28.8585 312.323 27.8128C313.292 26.7117 314.376 25.7209 315.575 24.8404C316.397 24.9409 317.271 25.144 318.197 25.4497C319.122 25.7554 319.977 26.1166 320.76 26.5333C321.615 26.8945 322.335 27.3035 322.921 27.7603C323.515 28.1538 323.947 28.5597 324.216 28.9778C322.738 31.6214 321.137 34.2179 319.413 36.7673C317.689 39.3168 316.064 41.8462 314.538 44.3555C313.019 46.8017 311.69 49.271 310.551 51.7635C309.412 54.2561 308.692 56.7356 308.39 59.2021C308.228 60.5302 308.18 61.7119 308.246 62.747C308.383 63.7266 308.535 64.5797 308.703 65.3063C308.879 65.9696 309.034 66.5343 309.17 67.0002C309.369 67.4738 309.449 67.8687 309.41 68.185C309.403 68.2482 309.328 68.3354 309.186 68.4464C309.115 68.5019 309.048 68.5258 308.984 68.5181C308.542 68.4639 307.984 68.2995 307.312 68.0247C306.639 67.7499 305.883 67.3687 305.044 66.881C304.261 66.4643 303.453 65.9805 302.622 65.4295C301.854 64.8863 301.121 64.3153 300.424 63.7166ZM318.009 17.5315C316.76 17.2504 315.47 16.7718 314.141 16.0958C312.819 15.3565 311.591 14.372 310.458 13.1422C309.395 11.8569 308.459 10.3302 307.648 8.56218C306.908 6.73861 306.463 4.59813 306.314 2.14073C306.952 1.12742 307.954 0.543824 309.321 0.38995C310.751 0.243806 312.05 0.113823 313.22 0C313.61 4.15588 314.527 7.1565 315.971 9.00186C317.477 10.8549 319.195 12.0278 321.125 12.5204C323.598 12.245 325.694 11.3779 327.413 9.91907C329.202 8.40474 330.786 6.48002 332.162 4.14491C332.772 4.41195 333.204 5.07462 333.46 6.13292C332.449 9.15459 330.563 11.7163 327.803 13.8181C325.05 15.8566 321.786 17.0944 318.009 17.5315Z" fill="white"/>
<path d="M300.424 63.7166C299.346 62.5578 298.679 61.1924 298.422 59.6204C298.228 58.0562 298.196 56.7365 298.328 55.6613C298.49 54.3332 298.788 53.2141 299.22 52.3041C298.967 52.2732 298.336 52.7096 297.327 53.6132C296.317 54.5169 295.19 55.5987 293.945 56.8587C292.763 58.1264 291.585 59.3624 290.411 60.5669C289.236 61.7713 288.358 62.6588 287.774 63.2294C286.844 64.0144 285.968 64.6134 285.148 65.0266C284.39 65.4475 283.786 65.6625 283.336 65.6717C282.331 65.4847 281.283 65.132 280.191 64.6133C279.155 64.1657 278.169 63.5638 277.235 62.8076C276.363 62.0592 275.602 61.1959 274.952 60.2177C274.364 59.2473 274.013 58.1774 273.9 57.0081C274.116 55.2372 274.326 53.7865 274.528 52.6558C274.794 51.5329 275.166 50.3267 275.644 49.0372C276.507 46.7035 277.662 44.0844 279.108 41.1801C280.618 38.2836 282.277 35.4696 284.088 32.7381C285.906 29.9434 287.855 27.3894 289.935 25.0761C292.086 22.7073 294.262 20.9193 296.464 19.712C297.033 19.7816 297.689 19.926 298.433 20.1453C299.184 20.3013 299.924 20.5522 300.652 20.8979C301.443 21.2514 302.163 21.6604 302.812 22.1249C303.533 22.5339 304.111 23.0539 304.547 23.685C303.901 24.2478 302.187 26.1887 299.407 29.5076C296.689 32.8342 293.494 37.7072 289.821 44.1264C289.419 44.7835 288.916 45.749 288.311 47.023C287.706 48.297 287.093 49.6343 286.473 51.0348C285.852 52.4353 285.299 53.8119 284.813 55.1646C284.389 56.5251 284.128 57.6164 284.027 58.4386C283.965 58.9446 283.982 59.3318 284.078 59.6002C284.237 59.8764 284.372 60.0854 284.483 60.2274C285.478 59.9639 286.807 59.0672 288.47 57.5374C290.134 56.0076 292.478 53.6304 295.504 50.4057C296.245 49.5975 297.096 48.6745 298.057 47.6366C299.082 46.6065 300.114 45.5131 301.154 44.3564C302.202 43.1365 303.19 41.8772 304.119 40.5786C305.111 39.2878 305.946 37.9776 306.622 36.648C306.967 35.92 307.392 35.0732 307.895 34.1077C308.469 33.0867 309.11 32.0417 309.819 30.9729C310.59 29.9118 311.425 28.8585 312.323 27.8128C313.292 26.7117 314.376 25.7209 315.575 24.8404C316.397 24.9409 317.271 25.144 318.197 25.4497C319.122 25.7554 319.977 26.1166 320.76 26.5333C321.615 26.8945 322.335 27.3035 322.921 27.7603C323.515 28.1538 323.947 28.5597 324.216 28.9778C322.738 31.6214 321.137 34.2179 319.413 36.7673C317.689 39.3168 316.064 41.8462 314.538 44.3555C313.019 46.8017 311.69 49.271 310.551 51.7635C309.412 54.2561 308.692 56.7356 308.39 59.2021C308.228 60.5302 308.18 61.7119 308.246 62.747C308.383 63.7266 308.535 64.5797 308.703 65.3063C308.879 65.9696 309.034 66.5343 309.17 67.0002C309.369 67.4738 309.449 67.8687 309.41 68.185C309.403 68.2482 309.328 68.3354 309.186 68.4464C309.115 68.5019 309.048 68.5258 308.984 68.5181C308.542 68.4639 307.984 68.2995 307.312 68.0247C306.639 67.7499 305.883 67.3687 305.044 66.881C304.261 66.4643 303.453 65.9805 302.622 65.4295C301.854 64.8863 301.121 64.3153 300.424 63.7166ZM318.009 17.5315C316.76 17.2504 315.47 16.7718 314.141 16.0958C312.819 15.3565 311.591 14.372 310.458 13.1422C309.395 11.8569 308.459 10.3302 307.648 8.56218C306.908 6.73861 306.463 4.59813 306.314 2.14073C306.952 1.12742 307.954 0.543824 309.321 0.38995C310.751 0.243806 312.05 0.113823 313.22 0C313.61 4.15588 314.527 7.1565 315.971 9.00186C317.477 10.8549 319.195 12.0278 321.125 12.5204C323.598 12.245 325.694 11.3779 327.413 9.91907C329.202 8.40474 330.786 6.48002 332.162 4.14491C332.772 4.41195 333.204 5.07462 333.46 6.13292C332.449 9.15459 330.563 11.7163 327.803 13.8181C325.05 15.8566 321.786 17.0944 318.009 17.5315Z" fill="url(#paint6_linear_93_16418)"/>
<path d="M383.013 50.3493C382.52 51.015 381.996 51.6732 381.441 52.3237C379.5 54.6004 377.521 57.0317 375.503 59.6176C373.501 62.1418 371.63 64.6655 369.89 67.1889C368.213 69.7276 367.098 72.1104 366.548 74.3371C366.227 75.636 366.198 76.5478 366.462 77.0725C366.742 77.5354 367.222 77.8509 367.902 78.0191C368.644 78.2026 369.355 78.2471 370.035 78.1526C370.792 78.0116 371.325 77.9793 371.634 78.0557C371.944 78.3949 372.084 78.7577 372.054 79.1441C372.024 79.5305 371.971 79.8784 371.895 80.1876C370.413 80.8714 368.946 81.362 367.494 81.6594C366.027 82.0187 364.489 81.9995 362.881 81.6019C361.397 81.2349 360.221 80.6817 359.354 79.9422C358.548 79.218 357.943 78.3465 357.539 77.3276C357.134 76.3087 356.946 75.2121 356.974 74.0375C357.002 72.863 357.176 71.6263 357.497 70.3274C358.017 68.2244 358.808 66.2211 359.869 64.3176C360.946 62.3522 362.085 60.5335 363.285 58.8614C364.564 57.1428 365.834 55.5864 367.098 54.1923C368.377 52.7364 369.486 51.4354 370.426 50.2894L373.521 46.1321C373.319 45.8854 373.087 45.631 372.824 45.369C372.188 44.7525 371.445 44.175 370.594 43.6363C369.758 43.0358 368.93 42.5358 368.11 42.1361C367.367 41.6899 366.779 41.4133 366.346 41.3063C365.727 41.1533 365.024 41.2093 364.237 41.474C363.527 41.6922 362.824 42.0108 362.13 42.4299C361.436 42.8489 360.803 43.2833 360.233 43.7329C359.724 44.1978 359.408 44.5464 359.285 44.7785C357.861 43.9014 356.715 42.8304 355.846 41.5655C354.977 40.3006 354.656 38.5474 354.882 36.3061C357.055 34.1525 358.937 32.6486 360.526 31.7945C362.177 30.9557 364 30.6187 365.994 30.7835C368.657 32.7546 371.081 34.8962 373.266 37.2085C375.466 39.459 377.319 41.7876 378.824 44.1944C379.874 43.9289 380.862 43.6482 381.789 43.3521C382.777 43.0714 383.92 42.9602 385.219 43.0187C386.52 44.1279 387.189 45.9342 387.226 48.4375C386.41 49.3514 385.523 50.0182 384.566 50.4379C384.273 50.5623 383.755 50.5328 383.013 50.3493Z" fill="white"/>
<path d="M383.013 50.3493C382.52 51.015 381.996 51.6732 381.441 52.3237C379.5 54.6004 377.521 57.0317 375.503 59.6176C373.501 62.1418 371.63 64.6655 369.89 67.1889C368.213 69.7276 367.098 72.1104 366.548 74.3371C366.227 75.636 366.198 76.5478 366.462 77.0725C366.742 77.5354 367.222 77.8509 367.902 78.0191C368.644 78.2026 369.355 78.2471 370.035 78.1526C370.792 78.0116 371.325 77.9793 371.634 78.0557C371.944 78.3949 372.084 78.7577 372.054 79.1441C372.024 79.5305 371.971 79.8784 371.895 80.1876C370.413 80.8714 368.946 81.362 367.494 81.6594C366.027 82.0187 364.489 81.9995 362.881 81.6019C361.397 81.2349 360.221 80.6817 359.354 79.9422C358.548 79.218 357.943 78.3465 357.539 77.3276C357.134 76.3087 356.946 75.2121 356.974 74.0375C357.002 72.863 357.176 71.6263 357.497 70.3274C358.017 68.2244 358.808 66.2211 359.869 64.3176C360.946 62.3522 362.085 60.5335 363.285 58.8614C364.564 57.1428 365.834 55.5864 367.098 54.1923C368.377 52.7364 369.486 51.4354 370.426 50.2894L373.521 46.1321C373.319 45.8854 373.087 45.631 372.824 45.369C372.188 44.7525 371.445 44.175 370.594 43.6363C369.758 43.0358 368.93 42.5358 368.11 42.1361C367.367 41.6899 366.779 41.4133 366.346 41.3063C365.727 41.1533 365.024 41.2093 364.237 41.474C363.527 41.6922 362.824 42.0108 362.13 42.4299C361.436 42.8489 360.803 43.2833 360.233 43.7329C359.724 44.1978 359.408 44.5464 359.285 44.7785C357.861 43.9014 356.715 42.8304 355.846 41.5655C354.977 40.3006 354.656 38.5474 354.882 36.3061C357.055 34.1525 358.937 32.6486 360.526 31.7945C362.177 30.9557 364 30.6187 365.994 30.7835C368.657 32.7546 371.081 34.8962 373.266 37.2085C375.466 39.459 377.319 41.7876 378.824 44.1944C379.874 43.9289 380.862 43.6482 381.789 43.3521C382.777 43.0714 383.92 42.9602 385.219 43.0187C386.52 44.1279 387.189 45.9342 387.226 48.4375C386.41 49.3514 385.523 50.0182 384.566 50.4379C384.273 50.5623 383.755 50.5328 383.013 50.3493Z" fill="url(#paint7_linear_93_16418)"/>
<path d="M422.934 56.9698C423.539 57.1693 424.195 57.5197 424.902 58.0211C425.689 58.482 426.355 59.0037 426.901 59.5862C427.467 60.1082 427.902 60.6206 428.206 61.1233C428.57 61.646 428.703 62.0586 428.603 62.3612C426.555 64.5036 424.587 66.7062 422.701 68.969C420.834 71.1713 419.149 73.3328 417.645 75.4533C416.14 77.5738 414.837 79.5929 413.735 81.5106C412.694 83.4483 411.924 85.1735 411.425 86.6863C410.867 88.3806 410.579 89.8625 410.563 91.1319C410.567 92.3408 410.913 93.327 411.6 94.0904C410.715 94.335 409.647 94.4191 408.398 94.3426C407.148 94.2661 406.07 94.0782 405.162 93.7789C401.894 92.7016 400.999 89.924 402.475 85.4462C403.612 81.9971 406.318 77.6563 410.593 72.4238C408.465 74.8083 406.205 76.9817 403.814 78.9439C401.443 80.8456 399.131 82.465 396.878 83.8022C394.626 85.1394 392.453 86.1338 390.36 86.7854C388.347 87.3964 386.605 87.5935 385.133 87.3767C382.934 86.5175 381.468 84.86 380.735 82.4043C380.021 79.888 380.183 77.0566 381.221 73.91C382.338 70.5214 384.241 67.1907 386.931 63.9178C389.62 60.645 392.613 57.7741 395.909 55.3052C399.266 52.8562 402.624 51.0117 405.985 49.7717C409.366 48.4711 412.317 48.1693 414.838 48.8663C415.383 49.2473 415.929 49.8298 416.475 50.6138C417.082 51.4178 417.599 52.2926 418.025 53.2382C418.512 54.2037 418.868 55.1596 419.092 56.1059C419.337 56.9916 419.4 57.7167 419.281 58.2813C416.741 57.8463 413.841 58.1983 410.58 59.3373C407.38 60.4962 404.253 62.1486 401.197 64.2943C398.222 66.3995 395.54 68.8362 393.151 71.6043C390.763 74.3725 389.11 77.1483 388.192 79.9319C387.813 81.0816 387.997 81.9473 388.744 82.5292C390.619 82.7447 393.135 81.9306 396.292 80.0867C399.469 78.1824 403.6 75.0156 408.683 70.5864C409.647 69.6968 410.712 68.706 411.877 67.6142C413.102 66.5423 414.348 65.4099 415.613 64.217C416.879 63.0241 418.114 61.8212 419.319 60.6083C420.604 59.3549 421.809 58.1421 422.934 56.9698Z" fill="white"/>
<path d="M422.934 56.9698C423.539 57.1693 424.195 57.5197 424.902 58.0211C425.689 58.482 426.355 59.0037 426.901 59.5862C427.467 60.1082 427.902 60.6206 428.206 61.1233C428.57 61.646 428.703 62.0586 428.603 62.3612C426.555 64.5036 424.587 66.7062 422.701 68.969C420.834 71.1713 419.149 73.3328 417.645 75.4533C416.14 77.5738 414.837 79.5929 413.735 81.5106C412.694 83.4483 411.924 85.1735 411.425 86.6863C410.867 88.3806 410.579 89.8625 410.563 91.1319C410.567 92.3408 410.913 93.327 411.6 94.0904C410.715 94.335 409.647 94.4191 408.398 94.3426C407.148 94.2661 406.07 94.0782 405.162 93.7789C401.894 92.7016 400.999 89.924 402.475 85.4462C403.612 81.9971 406.318 77.6563 410.593 72.4238C408.465 74.8083 406.205 76.9817 403.814 78.9439C401.443 80.8456 399.131 82.465 396.878 83.8022C394.626 85.1394 392.453 86.1338 390.36 86.7854C388.347 87.3964 386.605 87.5935 385.133 87.3767C382.934 86.5175 381.468 84.86 380.735 82.4043C380.021 79.888 380.183 77.0566 381.221 73.91C382.338 70.5214 384.241 67.1907 386.931 63.9178C389.62 60.645 392.613 57.7741 395.909 55.3052C399.266 52.8562 402.624 51.0117 405.985 49.7717C409.366 48.4711 412.317 48.1693 414.838 48.8663C415.383 49.2473 415.929 49.8298 416.475 50.6138C417.082 51.4178 417.599 52.2926 418.025 53.2382C418.512 54.2037 418.868 55.1596 419.092 56.1059C419.337 56.9916 419.4 57.7167 419.281 58.2813C416.741 57.8463 413.841 58.1983 410.58 59.3373C407.38 60.4962 404.253 62.1486 401.197 64.2943C398.222 66.3995 395.54 68.8362 393.151 71.6043C390.763 74.3725 389.11 77.1483 388.192 79.9319C387.813 81.0816 387.997 81.9473 388.744 82.5292C390.619 82.7447 393.135 81.9306 396.292 80.0867C399.469 78.1824 403.6 75.0156 408.683 70.5864C409.647 69.6968 410.712 68.706 411.877 67.6142C413.102 66.5423 414.348 65.4099 415.613 64.217C416.879 63.0241 418.114 61.8212 419.319 60.6083C420.604 59.3549 421.809 58.1421 422.934 56.9698Z" fill="url(#paint8_linear_93_16418)"/>
<path d="M444.22 105.256C443.501 103.845 443.235 102.349 443.419 100.767C443.662 99.2095 443.995 97.932 444.416 96.9343C444.937 95.7018 445.53 94.7074 446.196 93.951C445.961 93.8518 445.234 94.0981 444.016 94.6899C442.797 95.2817 441.416 96.0124 439.873 96.8819C438.388 97.7763 436.916 98.6413 435.456 99.4769C433.996 100.313 432.908 100.925 432.19 101.313C431.08 101.812 430.073 102.148 429.171 102.32C428.327 102.516 427.687 102.557 427.251 102.442C426.337 101.987 425.426 101.36 424.518 100.561C423.645 99.8462 422.862 98.9967 422.171 98.013C421.539 97.0541 421.044 96.015 420.687 94.8957C420.389 93.8012 420.346 92.6762 420.557 91.5205C421.252 89.8772 421.852 88.5398 422.357 87.5082C422.921 86.5014 423.61 85.4437 424.424 84.3352C425.895 82.3283 427.724 80.127 429.912 77.7316C432.159 75.3609 434.528 73.1109 437.019 70.9817C439.534 68.7937 442.11 66.8732 444.745 65.2201C447.464 63.533 450.048 62.4114 452.496 61.8553C453.025 62.0785 453.616 62.3976 454.271 62.8126C454.95 63.1689 455.592 63.6133 456.198 64.1457C456.861 64.7029 457.442 65.2939 457.938 65.9189C458.519 66.51 458.932 67.1688 459.178 67.8954C458.402 68.2591 456.221 69.6548 452.636 72.0824C449.109 74.5348 444.699 78.3429 439.404 83.5066C438.837 84.0281 438.089 84.8184 437.157 85.8772C436.225 86.9361 435.269 88.0536 434.287 89.2299C433.306 90.4061 432.396 91.5778 431.557 92.745C430.776 93.937 430.225 94.9144 429.903 95.6774C429.704 96.1469 429.614 96.5238 429.632 96.8082C429.709 97.1174 429.781 97.3554 429.849 97.5224C430.878 97.5423 432.403 97.0452 434.422 96.031C436.442 95.0169 439.349 93.3749 443.144 91.1052C444.078 90.5315 445.15 89.8777 446.36 89.1438C447.628 88.4346 448.921 87.6667 450.238 86.8401C451.581 85.9549 452.877 85.0155 454.127 84.022C455.436 83.0532 456.597 82.0225 457.613 80.9297C458.145 80.3246 458.786 79.627 459.535 78.8368C460.367 78.0127 461.271 77.184 462.245 76.3508C463.279 75.5424 464.371 74.7589 465.521 74.0001C466.756 73.2074 468.07 72.5524 469.465 72.035C470.228 72.3574 471.012 72.7927 471.818 73.3408C472.624 73.8889 473.346 74.4709 473.985 75.0867C474.708 75.6687 475.288 76.2598 475.726 76.86C476.189 77.4014 476.493 77.9102 476.637 78.3864C474.49 80.5223 472.237 82.5793 469.879 84.5573C467.522 86.5353 465.264 88.5211 463.108 90.5148C460.976 92.4499 459.02 94.4593 457.24 96.5432C455.46 98.627 454.086 100.813 453.119 103.102C452.598 104.335 452.227 105.458 452.007 106.471C451.869 107.451 451.782 108.313 451.744 109.058C451.73 109.744 451.725 110.329 451.727 110.815C451.789 111.325 451.757 111.726 451.633 112.02C451.608 112.079 451.512 112.142 451.345 112.21C451.262 112.243 451.191 112.248 451.132 112.223C450.721 112.05 450.23 111.738 449.659 111.289C449.088 110.841 448.466 110.266 447.793 109.567C447.154 108.951 446.511 108.264 445.863 107.506C445.273 106.773 444.726 106.023 444.22 105.256ZM473.812 65.6755C472.688 65.0621 471.579 64.2478 470.487 63.2326C469.419 62.1588 468.509 60.8749 467.757 59.3812C467.088 57.8535 466.607 56.1283 466.312 54.2055C466.102 52.2489 466.262 50.0686 466.794 47.6648C467.685 46.8655 468.809 46.5796 470.165 46.807C471.58 47.0592 472.866 47.2911 474.021 47.5028C473.256 51.6062 473.313 54.7432 474.195 56.914C475.134 59.1096 476.464 60.7092 478.184 61.7129C480.638 62.1271 482.891 61.8689 484.945 60.9383C487.082 59.9737 489.133 58.5578 491.098 56.6905C491.61 57.1146 491.844 57.8706 491.799 58.9585C489.997 61.5862 487.48 63.5316 484.249 64.7945C481.042 65.9987 477.563 66.2924 473.812 65.6755Z" fill="white"/>
<path d="M444.22 105.256C443.501 103.845 443.235 102.349 443.419 100.767C443.662 99.2095 443.995 97.932 444.416 96.9343C444.937 95.7018 445.53 94.7074 446.196 93.951C445.961 93.8518 445.234 94.0981 444.016 94.6899C442.797 95.2817 441.416 96.0124 439.873 96.8819C438.388 97.7763 436.916 98.6413 435.456 99.4769C433.996 100.313 432.908 100.925 432.19 101.313C431.08 101.812 430.073 102.148 429.171 102.32C428.327 102.516 427.687 102.557 427.251 102.442C426.337 101.987 425.426 101.36 424.518 100.561C423.645 99.8462 422.862 98.9967 422.171 98.013C421.539 97.0541 421.044 96.015 420.687 94.8957C420.389 93.8012 420.346 92.6762 420.557 91.5205C421.252 89.8772 421.852 88.5398 422.357 87.5082C422.921 86.5014 423.61 85.4437 424.424 84.3352C425.895 82.3283 427.724 80.127 429.912 77.7316C432.159 75.3609 434.528 73.1109 437.019 70.9817C439.534 68.7937 442.11 66.8732 444.745 65.2201C447.464 63.533 450.048 62.4114 452.496 61.8553C453.025 62.0785 453.616 62.3976 454.271 62.8126C454.95 63.1689 455.592 63.6133 456.198 64.1457C456.861 64.7029 457.442 65.2939 457.938 65.9189C458.519 66.51 458.932 67.1688 459.178 67.8954C458.402 68.2591 456.221 69.6548 452.636 72.0824C449.109 74.5348 444.699 78.3429 439.404 83.5066C438.837 84.0281 438.089 84.8184 437.157 85.8772C436.225 86.9361 435.269 88.0536 434.287 89.2299C433.306 90.4061 432.396 91.5778 431.557 92.745C430.776 93.937 430.225 94.9144 429.903 95.6774C429.704 96.1469 429.614 96.5238 429.632 96.8082C429.709 97.1174 429.781 97.3554 429.849 97.5224C430.878 97.5423 432.403 97.0452 434.422 96.031C436.442 95.0169 439.349 93.3749 443.144 91.1052C444.078 90.5315 445.15 89.8777 446.36 89.1438C447.628 88.4346 448.921 87.6667 450.238 86.8401C451.581 85.9549 452.877 85.0155 454.127 84.022C455.436 83.0532 456.597 82.0225 457.613 80.9297C458.145 80.3246 458.786 79.627 459.535 78.8368C460.367 78.0127 461.271 77.184 462.245 76.3508C463.279 75.5424 464.371 74.7589 465.521 74.0001C466.756 73.2074 468.07 72.5524 469.465 72.035C470.228 72.3574 471.012 72.7927 471.818 73.3408C472.624 73.8889 473.346 74.4709 473.985 75.0867C474.708 75.6687 475.288 76.2598 475.726 76.86C476.189 77.4014 476.493 77.9102 476.637 78.3864C474.49 80.5223 472.237 82.5793 469.879 84.5573C467.522 86.5353 465.264 88.5211 463.108 90.5148C460.976 92.4499 459.02 94.4593 457.24 96.5432C455.46 98.627 454.086 100.813 453.119 103.102C452.598 104.335 452.227 105.458 452.007 106.471C451.869 107.451 451.782 108.313 451.744 109.058C451.73 109.744 451.725 110.329 451.727 110.815C451.789 111.325 451.757 111.726 451.633 112.02C451.608 112.079 451.512 112.142 451.345 112.21C451.262 112.243 451.191 112.248 451.132 112.223C450.721 112.05 450.23 111.738 449.659 111.289C449.088 110.841 448.466 110.266 447.793 109.567C447.154 108.951 446.511 108.264 445.863 107.506C445.273 106.773 444.726 106.023 444.22 105.256ZM473.812 65.6755C472.688 65.0621 471.579 64.2478 470.487 63.2326C469.419 62.1588 468.509 60.8749 467.757 59.3812C467.088 57.8535 466.607 56.1283 466.312 54.2055C466.102 52.2489 466.262 50.0686 466.794 47.6648C467.685 46.8655 468.809 46.5796 470.165 46.807C471.58 47.0592 472.866 47.2911 474.021 47.5028C473.256 51.6062 473.313 54.7432 474.195 56.914C475.134 59.1096 476.464 60.7092 478.184 61.7129C480.638 62.1271 482.891 61.8689 484.945 60.9383C487.082 59.9737 489.133 58.5578 491.098 56.6905C491.61 57.1146 491.844 57.8706 491.799 58.9585C489.997 61.5862 487.48 63.5316 484.249 64.7945C481.042 65.9987 477.563 66.2924 473.812 65.6755Z" fill="url(#paint9_linear_93_16418)"/>
<defs>
<linearGradient id="paint0_linear_93_16418" x1="-67.4074" y1="56.1195" x2="555.5" y2="56" gradientUnits="userSpaceOnUse">
<stop stop-color="#F9D4BF"/>
<stop offset="0.2279" stop-color="#BA9B57"/>
<stop offset="0.414" stop-color="#F9C46E"/>
<stop offset="0.586" stop-color="#F0B963"/>
<stop offset="0.7721" stop-color="#F9F3BB"/>
<stop offset="1" stop-color="#C1A059"/>
</linearGradient>
<linearGradient id="paint1_linear_93_16418" x1="-67.4074" y1="56.1195" x2="555.5" y2="56" gradientUnits="userSpaceOnUse">
<stop stop-color="#F9D4BF"/>
<stop offset="0.2279" stop-color="#BA9B57"/>
<stop offset="0.414" stop-color="#F9C46E"/>
<stop offset="0.586" stop-color="#F0B963"/>
<stop offset="0.7721" stop-color="#F9F3BB"/>
<stop offset="1" stop-color="#C1A059"/>
</linearGradient>
<linearGradient id="paint2_linear_93_16418" x1="-67.4074" y1="56.1195" x2="555.5" y2="56" gradientUnits="userSpaceOnUse">
<stop stop-color="#F9D4BF"/>
<stop offset="0.2279" stop-color="#BA9B57"/>
<stop offset="0.414" stop-color="#F9C46E"/>
<stop offset="0.586" stop-color="#F0B963"/>
<stop offset="0.7721" stop-color="#F9F3BB"/>
<stop offset="1" stop-color="#C1A059"/>
</linearGradient>
<linearGradient id="paint3_linear_93_16418" x1="-67.4074" y1="56.1195" x2="555.5" y2="56" gradientUnits="userSpaceOnUse">
<stop stop-color="#F9D4BF"/>
<stop offset="0.2279" stop-color="#BA9B57"/>
<stop offset="0.414" stop-color="#F9C46E"/>
<stop offset="0.586" stop-color="#F0B963"/>
<stop offset="0.7721" stop-color="#F9F3BB"/>
<stop offset="1" stop-color="#C1A059"/>
</linearGradient>
<linearGradient id="paint4_linear_93_16418" x1="-67.4074" y1="56.1195" x2="555.5" y2="56" gradientUnits="userSpaceOnUse">
<stop stop-color="#F9D4BF"/>
<stop offset="0.2279" stop-color="#BA9B57"/>
<stop offset="0.414" stop-color="#F9C46E"/>
<stop offset="0.586" stop-color="#F0B963"/>
<stop offset="0.7721" stop-color="#F9F3BB"/>
<stop offset="1" stop-color="#C1A059"/>
</linearGradient>
<linearGradient id="paint5_linear_93_16418" x1="-67.4074" y1="56.1195" x2="555.5" y2="56" gradientUnits="userSpaceOnUse">
<stop stop-color="#F9D4BF"/>
<stop offset="0.2279" stop-color="#BA9B57"/>
<stop offset="0.414" stop-color="#F9C46E"/>
<stop offset="0.586" stop-color="#F0B963"/>
<stop offset="0.7721" stop-color="#F9F3BB"/>
<stop offset="1" stop-color="#C1A059"/>
</linearGradient>
<linearGradient id="paint6_linear_93_16418" x1="-67.4074" y1="56.1195" x2="555.5" y2="56" gradientUnits="userSpaceOnUse">
<stop stop-color="#F9D4BF"/>
<stop offset="0.2279" stop-color="#BA9B57"/>
<stop offset="0.414" stop-color="#F9C46E"/>
<stop offset="0.586" stop-color="#F0B963"/>
<stop offset="0.7721" stop-color="#F9F3BB"/>
<stop offset="1" stop-color="#C1A059"/>
</linearGradient>
<linearGradient id="paint7_linear_93_16418" x1="-67.4074" y1="56.1195" x2="555.5" y2="56" gradientUnits="userSpaceOnUse">
<stop stop-color="#F9D4BF"/>
<stop offset="0.2279" stop-color="#BA9B57"/>
<stop offset="0.414" stop-color="#F9C46E"/>
<stop offset="0.586" stop-color="#F0B963"/>
<stop offset="0.7721" stop-color="#F9F3BB"/>
<stop offset="1" stop-color="#C1A059"/>
</linearGradient>
<linearGradient id="paint8_linear_93_16418" x1="-67.4074" y1="56.1195" x2="555.5" y2="56" gradientUnits="userSpaceOnUse">
<stop stop-color="#F9D4BF"/>
<stop offset="0.2279" stop-color="#BA9B57"/>
<stop offset="0.414" stop-color="#F9C46E"/>
<stop offset="0.586" stop-color="#F0B963"/>
<stop offset="0.7721" stop-color="#F9F3BB"/>
<stop offset="1" stop-color="#C1A059"/>
</linearGradient>
<linearGradient id="paint9_linear_93_16418" x1="-67.4074" y1="56.1195" x2="555.5" y2="56" gradientUnits="userSpaceOnUse">
<stop stop-color="#F9D4BF"/>
<stop offset="0.2279" stop-color="#BA9B57"/>
<stop offset="0.414" stop-color="#F9C46E"/>
<stop offset="0.586" stop-color="#F0B963"/>
<stop offset="0.7721" stop-color="#F9F3BB"/>
<stop offset="1" stop-color="#C1A059"/>
</linearGradient>
</defs>
</svg>
