<svg width="407" height="537" viewBox="0 0 407 537" fill="none" xmlns="http://www.w3.org/2000/svg">
<mask id="mask0_93_7883" style="mask-type:alpha" maskUnits="userSpaceOnUse" x="0" y="0" width="410" height="622">
<g opacity="0.7">
<path d="M406.437 588.892C407.092 586.515 408.149 584.268 409.562 582.248C409.562 556.012 409.562 529.785 409.562 503.568C408.018 502.856 406.303 502.6 404.619 502.83C402.034 503.057 399.535 503.653 396.979 504.051H396.666C382.975 506.379 369.341 508.849 355.65 511.092C348.691 512.228 346.817 510.439 346.902 503.568C346.98 500.858 348.002 498.261 349.791 496.224C351.58 494.187 354.024 492.838 356.701 492.409C369.739 489.74 383.089 489.257 396.155 486.929H396.723C399.251 485.254 402.404 484.913 404.847 483.011C405.321 482.697 405.67 482.226 405.831 481.681C405.992 481.135 405.955 480.55 405.727 480.029C405.273 479.149 404.648 478.553 404.648 477.446C404.711 476.608 405.074 475.822 405.67 475.231C407.346 473.328 405.67 470.432 405.67 468.132C405.603 465.985 405.911 463.842 406.579 461.8C406.948 460.523 407.857 458.507 406.977 457.201C406.226 456.418 405.217 455.934 404.136 455.838C402.036 455.478 399.9 455.373 397.774 455.525C390.928 457.598 383.572 456.292 376.527 457.541C366.927 459.217 357.355 458.052 347.725 457.172C338.096 456.292 328.325 456.008 319.52 452.203C304.324 445.644 287.565 442.776 273.931 432.327C266.262 426.649 258.451 420.97 251.208 414.468C248.233 412.128 246.075 408.908 245.044 405.268C251.531 410.261 258.397 414.742 265.58 418.67C274.102 423.412 282.424 428.381 291.769 430.595C301.938 432.981 311.652 437.126 321.764 439.114C325.939 439.965 330.285 439.511 334.603 440.022C349.424 441.933 364.381 442.57 379.311 441.925C385.219 441.669 391.07 440.789 396.95 440.051C401.04 438.432 405.954 438.659 409.562 436.132V435.678C404.172 437.268 398.561 437.978 392.945 437.779H392.519C391.979 437.779 391.468 438.035 390.928 438.12C382.791 439.161 374.569 439.38 366.387 438.773C351.816 438.091 337.131 438.375 322.815 434.741C306.937 430.737 291.57 425.257 276.147 419.72C269.362 417.324 263.054 413.748 257.513 409.158C270.097 413.758 282.026 409.896 293.814 406.319C305.055 403.515 315.788 398.974 325.627 392.86C329.179 390.397 332.364 387.443 335.086 384.086C336.999 381.121 339.678 378.727 342.84 377.158C343.475 376.97 344.041 376.602 344.47 376.097C344.899 375.593 345.171 374.975 345.254 374.318C345.624 369.491 348.833 368.413 352.867 368.043L369.142 366.624C374.726 365.168 380.43 364.217 386.185 363.784C389.996 363.556 393.79 363.101 397.547 362.421C399.393 361.995 401.211 361.484 403.057 361.002L402.233 360.434C401.066 361.089 399.764 361.468 398.427 361.541C390.928 362.336 383.401 363.046 375.874 363.33C368.347 363.614 361.104 364.182 353.776 365.09C350.395 365.488 349.316 364.21 349.543 361.144C349.543 360.178 349.543 359.213 349.685 358.304C350.026 346.294 348.805 346.947 361.445 346.691C373.63 346.521 385.702 344.476 397.859 343.852C398.882 343.852 399.961 343.596 400.984 343.596C401.304 343.364 401.673 343.209 402.063 343.142C406.693 342.546 408.852 338.684 409.42 334.624V302.453C408.975 302.297 408.606 301.98 408.385 301.564C408.164 301.149 408.107 300.665 408.227 300.21C408.227 299.557 408.425 298.904 408.539 298.222C408.354 298.073 408.206 297.882 408.107 297.665C408.009 297.448 407.962 297.211 407.971 296.973C408.494 292.328 408.186 287.626 407.062 283.088C407.062 283.088 407.062 283.088 407.062 282.918C406.247 280.313 405.201 277.785 403.938 275.365C403.035 273.214 402.741 270.857 403.086 268.551C403.39 266.71 403.329 264.827 402.905 263.009C402.481 261.192 401.702 259.476 400.614 257.96H399.677C395.984 258.3 392.292 258.357 388.826 258.499L374.624 257.789C372.75 257.789 370.96 257.363 371.074 254.95C370.97 253.989 371.231 253.025 371.804 252.247C372.377 251.469 373.221 250.934 374.17 250.748C382.25 249.17 390.513 248.749 398.711 249.498C400.671 248.618 403.142 247.624 404.023 245.495C404.577 243.655 404.723 241.717 404.449 239.816L404.023 239.248C402.927 237.923 402.167 236.355 401.806 234.674C401.445 232.994 401.494 231.251 401.949 229.594C402.279 227.616 402.911 225.701 403.824 223.915C404.899 222.089 405.848 220.192 406.664 218.236C407.941 213.857 407.801 209.187 406.267 204.891C406.166 204.663 406.114 204.417 406.114 204.167C406.114 203.918 406.166 203.671 406.267 203.443C405.678 202.719 404.925 202.146 404.07 201.771C403.216 201.396 402.284 201.229 401.353 201.285C400.937 201.301 400.532 201.159 400.217 200.888C399.535 200.888 398.853 200.888 398.257 200.888C377.039 198.758 355.65 198.985 334.574 194.641C330.967 193.874 330.058 192.171 329.802 188.763C329.149 180.245 330.541 171.727 329.802 162.584C329.802 157.161 330.001 151.056 329.802 144.98C329.614 143.88 329.811 142.748 330.359 141.776C330.907 140.804 331.774 140.05 332.813 139.642C334.973 138.952 336.836 137.551 338.096 135.667C339.176 133.736 340.937 134.815 342.442 135.184C345.891 136.014 349.393 136.602 352.923 136.944C365.961 138.506 379.169 138.591 392.065 141.715C394.905 142.453 398.285 141.942 401.097 143.333C401.474 143.201 401.885 143.201 402.262 143.333C407.943 144.923 406.153 134.502 406.068 131.578C406.061 126.505 406.623 121.448 407.744 116.501V116.132C407.758 115.943 407.758 115.753 407.744 115.564V115.365C407.63 114.717 407.459 114.08 407.233 113.463L407.034 113.037C406.892 112.781 406.75 112.526 406.579 112.27L406.267 111.816C406.074 111.566 405.865 111.329 405.642 111.106C405.187 110.623 404.705 110.197 404.222 109.771L403.398 109.09L402.943 108.749L401.097 107.415H400.955C391.049 106.972 381.176 105.957 371.386 104.376C367.245 103.721 363.074 103.276 358.888 103.042C356.446 102.843 355.423 101.707 355.622 99.6063C355.622 95.6027 357.695 93.9274 361.615 94.6657L384.481 98.6976C384.867 98.5657 385.287 98.5657 385.674 98.6976C387.781 99.2656 389.942 99.6082 392.121 99.7198H398.569C400.835 99.8332 403.107 99.7477 405.358 99.4643C406.75 99.2655 408.198 98.9816 409.476 98.8964C407.739 98.7308 406.013 98.4654 404.307 98.1014C403.71 97.9594 403.114 97.789 402.517 97.6754H401.779H401.466H400.7C397.686 97.7411 394.678 97.4069 391.752 96.6817C384.765 95.7447 377.862 94.3249 370.932 93.1892C366.33 92.4793 367.154 89.0437 367.438 86.1475C367.779 82.7686 370.278 84.0463 372.238 84.3586C381.101 85.7499 389.963 87.1981 398.768 88.6462C399.725 88.6766 400.676 88.8002 401.608 89.0153C402.578 88.8143 403.529 88.5294 404.449 88.1635H404.847L405.329 87.9647L406.693 87.2833L409.278 85.8919C408.467 86.1832 407.63 86.3925 406.778 86.5166C404.522 86.9 402.217 86.9 399.961 86.5166C399.508 86.4372 399.091 86.2189 398.768 85.8919C389.423 84.4154 380.078 82.9106 370.761 81.2353C364.314 80.0712 364.342 79.9292 364.569 86.3462C364.768 91.7411 363.234 93.0756 359.172 91.2584C358.513 90.9681 357.963 90.4765 357.601 89.8541C357.238 89.2318 357.083 88.5107 357.156 87.7943C357.156 86.5166 357.156 85.2105 357.156 83.9327C357.156 82.655 357.298 81.3773 357.383 80.0995V78.1971C357.525 68.9975 357.525 68.9975 366.842 70.8431L391.866 75.7269C393.826 75.8688 395.786 75.9256 397.774 75.8972C399.762 75.8688 402.347 75.8972 404.591 75.4997C405.43 75.4188 406.252 75.218 407.034 74.9035C407.745 74.5055 408.428 74.0596 409.079 73.5689V73.0862C408.141 73.2538 407.191 73.3393 406.238 73.3418C404.648 73.3418 403.057 73.1714 401.466 73.143H401.211H400.728C382.549 71.1554 364.37 69.0827 347.981 60.1953C342.738 56.9537 337.71 53.3781 332.927 49.4908C341.659 52.6029 350.758 54.5691 359.996 55.34C360.534 54.8362 361.247 54.5612 361.984 54.5733C371.045 54.5733 379.936 54.0338 388.997 53.324C393.251 52.9923 397.464 52.2602 401.58 51.1376C403.487 50.7185 405.33 50.0502 407.062 49.1501C407.458 48.9209 407.838 48.6647 408.198 48.3834C407.282 48.8036 406.332 49.1456 405.358 49.4056C403.689 49.9041 401.958 50.1623 400.217 50.1722H398.825C384.332 52.4782 369.583 52.7077 355.025 50.8537C339.375 48.7552 324.958 41.2281 314.294 29.5866C320.145 30.0125 319.974 30.2396 325.201 33.1926C332.624 37.664 341.079 40.1388 349.742 40.3763C356.105 40.3763 362.439 41.9664 368.887 41.938C379.334 41.9989 389.773 41.3443 400.131 39.9788C401.19 39.9012 402.254 39.9012 403.313 39.9788C404.184 39.4386 405.146 39.0632 406.153 38.8714C407.062 38.7011 407.999 38.5875 408.994 38.4739C409.136 38.4739 409.647 38.2752 409.221 38.4739C408.795 38.6727 409.221 38.4739 409.42 38.4739H409.675V33.8173C408.485 34.6346 407.231 35.3562 405.926 35.9752C404.103 36.7029 402.194 37.1897 400.245 37.4233C398.605 38.0741 396.886 38.5038 395.132 38.7011C378.09 40.4047 361.217 40.8306 344.431 36.8554C339.383 35.4838 334.475 33.6395 329.774 31.347C345.927 35.2919 362.763 35.5442 379.027 32.0853C382.975 31.2334 386.923 29.9557 390.957 29.2459C394.574 28.2046 398.04 26.6965 401.268 24.7596C401.426 24.6552 401.578 24.5414 401.722 24.4188C402.773 23.2831 403.625 21.9486 404.562 20.7276C406.54 18.7559 408.02 16.3422 408.88 13.6859C409.244 10.5863 409.168 7.45082 408.653 4.37266C408.5 2.89683 408.235 1.43495 407.857 0C407.857 0.880215 407.857 1.78882 407.857 2.69742C407.857 7.43923 406.806 12.6354 403.086 15.276C395.833 20.4614 387.226 23.4215 378.317 23.7942C365.563 24.0781 352.923 27.0311 340.142 25.3275C327.36 23.6238 314.777 21.2955 306.426 9.68237C306.092 9.00906 305.57 8.44672 304.924 8.06333C304.278 7.67994 303.534 7.4919 302.783 7.52193C302.032 7.55196 301.306 7.79879 300.692 8.23256C300.078 8.66634 299.603 9.26849 299.325 9.96629C296.385 14.3791 293.179 18.6083 289.724 22.63C285.677 28.429 280.989 33.7534 275.749 38.5023L275.096 39.127C274.931 39.5118 274.667 39.8453 274.329 40.0924C272.482 41.3985 270.778 42.9318 268.904 44.0959L267.824 44.6922H267.995C255.784 53.33 242.454 60.265 228.371 65.3063C206.528 72.8875 184.117 76.3799 161.422 68.2876C160.989 68.0821 160.519 67.9668 160.041 67.949C159.562 67.9311 159.085 68.011 158.638 68.1837C158.192 68.3564 157.785 68.6184 157.443 68.9536C157.101 69.2888 156.831 69.6902 156.65 70.1332C154.235 73.8812 155.656 81.4909 159.973 84.8697L160.797 85.5512C161.152 85.5025 161.514 85.5634 161.834 85.7257C162.153 85.8881 162.416 86.1442 162.586 86.4598C162.846 86.9531 163.14 87.4275 163.467 87.8795L163.694 88.135L164.234 88.7313C164.603 89.1005 165.001 89.4412 165.398 89.7819L166.023 90.2646C166.023 90.2646 166.165 90.4066 166.25 90.4634C166.401 90.2392 166.62 90.0698 166.875 89.9807C169.432 93.7287 173.067 94.6657 177.271 95.915C183.435 97.7606 189.371 100.884 195.592 103.014C208.366 107.618 221.786 110.186 235.358 110.623C237.602 110.623 240.414 109.061 241.493 112.469C242.402 115.308 242.914 118.148 239.846 120.675C235.784 124.054 235.273 131.152 238.909 133.935C243.737 137.597 242.118 142.453 241.749 146.769C241.437 150.119 236.977 149.012 234.449 150.062C233.213 150.421 231.95 150.678 230.671 150.829C226.61 151.851 223.059 152.59 219.168 149.211C215.276 145.832 208.289 148.132 205.278 152.731C203.802 154.833 203.215 157.431 203.646 159.962C204.077 162.494 205.49 164.752 207.579 166.247C208.349 166.82 208.944 167.597 209.295 168.49C209.647 169.383 209.741 170.357 209.567 171.301C209.567 179.337 209.226 187.372 209.34 195.408C209.362 196.26 209.217 197.109 208.914 197.906C209.006 202.373 208.363 206.823 207.011 211.081C206.759 212.482 206.096 213.777 205.107 214.801L204.88 215.028L204.568 215.482C204.403 215.698 204.174 215.857 203.915 215.937C198.546 221.019 193.575 226.755 185.736 228.458C181.503 229.395 177.413 230.929 173.209 232.008C160.967 235.188 149.151 235.188 138.301 227.323C135.602 225.392 132.307 224.483 129.552 227.323C128.356 228.549 127.629 230.157 127.499 231.864C127.369 233.572 127.845 235.271 128.842 236.664C130.214 238.643 131.973 240.323 134.011 241.605C139.157 245.206 144.613 248.342 150.316 250.975C160.655 256.199 171.25 260.969 183.407 258.897C184.53 258.731 185.677 258.843 186.747 259.225C187.817 259.606 188.777 260.244 189.542 261.083C190.337 261.821 190.508 262.332 189.854 263.468C187.944 266.159 187.099 269.462 187.482 272.739C187.865 276.017 189.449 279.036 191.928 281.214C192.525 281.757 192.912 282.493 193.021 283.292C193.13 284.092 192.954 284.904 192.524 285.587C191.757 287.234 190.536 286.808 189.457 285.587C189.166 285.313 188.803 285.127 188.411 285.052C188.019 284.976 187.613 285.014 187.241 285.161C186.304 285.36 185.168 286.24 184.202 286.467C184.202 287.149 184.202 287.802 184.202 288.483C186.228 288.258 188.277 288.612 190.11 289.505C191.133 289.846 191.956 290.244 191.757 291.465C191.559 292.686 190.65 292.998 189.627 293.026C188.008 293.026 186.361 293.026 184.742 293.026C186.281 293.964 187.959 294.654 189.712 295.071C190.117 295.116 190.505 295.254 190.847 295.474C191.19 295.694 191.477 295.99 191.686 296.339C191.895 296.688 192.02 297.081 192.052 297.486C192.084 297.892 192.022 298.299 191.871 298.677C191.133 301.829 190.138 298.677 189.286 298.677C188.637 298.658 188.002 298.862 187.485 299.254C186.968 299.647 186.601 300.205 186.446 300.835C186.02 302.652 187.582 302.51 188.633 302.226C191.473 301.459 191.615 303.305 191.644 305.065C191.786 310.489 191.814 315.94 191.871 321.392C191.871 322.272 191.701 323.096 190.792 323.323C187.752 324.061 187.582 326.617 187.213 329.002C186.028 333.832 185.475 338.794 185.565 343.766C185.672 344.642 185.47 345.527 184.993 346.269C184.515 347.01 183.793 347.561 182.952 347.827C176.707 350.816 170.307 353.47 163.779 355.777C163.264 355.998 162.718 356.142 162.16 356.203C158.087 358.453 153.607 359.872 148.981 360.377C128.093 366.092 106.174 366.957 84.9004 362.904C78.6515 361.825 78.0834 362.308 77.1177 368.838C76.4644 373.154 76.5211 377.641 72.8286 381.218C69.136 384.796 62.603 386.641 63.6824 394.279C63.7368 397.234 64.4347 400.141 65.7275 402.798C68.5679 407.17 72.5162 410.521 75.0158 415.376C76.6124 417.815 77.2311 420.765 76.7484 423.639C75.7234 426.859 75.2433 430.227 75.3282 433.605C75.3631 434.744 75.7754 435.838 76.5003 436.717C77.2253 437.596 78.2217 438.209 79.3332 438.461C81.8044 439.028 83.111 437.382 84.1903 435.422C85.6194 432.896 86.3453 430.033 86.2923 427.131C86.2923 423.27 85.2129 418.84 90.5529 417.165C90.8337 417.003 91.0724 416.777 91.25 416.506C91.4275 416.235 91.539 415.926 91.5755 415.603C91.7743 411.288 95.2964 409.044 97.4267 405.921C98.9322 403.735 100.267 403.99 102.199 405.325C110.258 410.28 118.691 414.6 127.422 418.244C137.136 422.787 147.844 423.667 157.985 426.762C159.036 427.046 161.081 427.33 160.57 428.154C159.263 430.425 159.717 434.031 156.195 434.769C154.661 435.11 152.588 434.968 152.645 437.126C152.702 439.284 154.349 439.511 156.11 439.965C157.937 440.213 159.612 441.115 160.824 442.504C162.036 443.893 162.703 445.675 162.7 447.518C163.495 457.57 162.444 458.876 152.73 460.665C150.344 461.091 147.986 461.517 145.6 461.8C128.217 463.996 110.786 465.577 93.3082 466.542C90.0218 467.044 86.6627 466.402 83.7927 464.725C81.9872 463.61 79.8819 463.077 77.7629 463.198C75.6438 463.32 73.6137 464.091 71.9481 465.406C70.2958 466.597 69.0174 468.233 68.2627 470.124C67.5081 472.015 67.3085 474.082 67.6874 476.083C67.8247 478.82 68.5822 481.49 69.903 483.891C72.4637 488.029 73.5172 492.923 72.8855 497.747C72.2322 519.1 70.9256 540.338 70.4143 561.747C70.3994 563.704 69.9599 565.633 69.1262 567.403C68.2925 569.172 67.0845 570.74 65.5855 571.998C64.6827 572.721 63.7339 573.385 62.7451 573.985C57.7743 577.506 51.923 579.664 47.0943 583.043C39.9266 588.173 32.1023 592.318 23.8312 595.366C19.4217 598.85 14.6621 601.866 9.62901 604.367C6.30571 606.07 3.12447 607.973 0 609.705C24.0868 601.84 46.2706 589.006 69.1076 577.96H69.4769L70.9539 576.825C73.7943 574.468 77.1177 576.484 78.9356 578.273C90.8938 590.056 103.136 601.556 115.378 613.027C111.171 607.149 106.548 601.579 101.545 596.36C96.7167 591.164 91.7743 586.053 86.7751 581.027C84.1657 578.792 81.7782 576.31 79.6457 573.616C77.4302 570.777 75.9247 568.221 77.5154 564.956C78.7936 562.287 76.6916 560.413 76.6632 558.085C76.436 541.701 77.6005 525.346 77.9698 508.963C82.7417 503.114 77.1461 496.981 78.4527 490.904C79.5889 485.566 82.9406 483.408 87.4569 486.333C116.543 505.016 147.106 521.087 177.271 537.896C196.075 548.374 213.799 560.612 232.12 571.969C247.155 581.207 262.162 590.454 277.141 599.71C291.712 605.843 305.318 614.049 319.321 621.375H320.628C314.947 615.497 306.909 613.254 300.091 609.08C290.411 603.504 281.051 597.39 272.056 590.766C270.665 589.687 269.216 588.523 270.239 586.933C271.261 585.343 273.079 586.933 273.931 587.614C284.185 595.934 296.797 600.136 307.846 606.979C311.567 609.279 315.543 610.557 319.208 612.658C324.235 615.497 329.177 618.337 334.148 621.375H335.057C333.823 620.222 332.665 618.988 331.592 617.684C330.204 615.964 329.075 614.051 328.24 612.005C325.652 607.901 324.642 602.997 325.4 598.205C327.26 574.696 327.716 551.096 326.763 527.533C326.593 522.762 327.303 517.935 327.53 513.137C327.53 510.297 328.581 509.247 331.421 510.297C334.745 511.547 338.068 512.682 341.448 513.761C344.118 514.613 344.544 516.601 344.516 519.071C344.516 525.488 344.516 531.905 344.516 538.322H344.885C344.232 555.359 343.294 572.622 342.982 589.772C342.84 597.581 342.982 605.417 342.669 613.254C343.693 610.337 344.453 607.334 344.942 604.282C345.039 602.39 345.039 600.495 344.942 598.603C344.919 598.333 344.964 598.061 345.073 597.813C345.182 597.565 345.352 597.349 345.567 597.183C345.794 571.629 347.612 546.074 346.788 520.519C346.646 516.061 348.123 514.613 352.469 513.989C368.319 511.717 368.177 511.49 368.404 527.135C368.83 554.45 367.239 581.68 366.643 608.967C367.328 612.869 368.277 616.72 369.483 620.495C369.284 617.456 368.915 614.418 369 611.409C370.137 580.402 371.131 549.396 370.591 518.39C370.591 513.705 372.04 511.604 376.641 511.234C385.162 510.553 393.371 506.521 402.205 507.628C405.045 507.997 405.812 508.991 405.869 511.887C406.125 524.068 405.5 536.221 404.79 548.374C404.165 558.823 406.579 569.215 405.159 579.607C405.017 580.573 405.159 581.85 404.704 582.447C400.728 586.45 403.512 590.681 404.392 594.599C405.333 598.724 405.903 602.924 406.096 607.149C406.459 604.791 406.639 602.409 406.636 600.023C406.331 596.32 406.264 592.603 406.437 588.892ZM372.125 479.802C372.885 474.576 373.057 469.28 372.636 464.015C372.636 461.375 373.744 460.58 375.931 460.324C384.225 459.444 392.491 458.45 400.785 457.74C405.187 457.343 406.096 458.564 404.648 462.709C404.136 464.384 404.136 466.173 404.648 467.848C405.174 469.194 405.282 470.667 404.958 472.076C404.634 473.484 403.892 474.762 402.83 475.742C401.722 476.651 401.978 476.991 402.83 477.871C404.96 479.859 403.029 480.853 401.523 481.108C392.831 482.613 384.111 483.948 375.363 485.254C371.67 485.765 372.068 482.784 372.125 479.802ZM351.73 460.58C356.531 460.58 361.36 460.58 366.188 460.58C368.574 460.58 369.739 461.658 369.71 464.072C369.71 470.177 369.71 476.281 369.54 482.386C369.571 482.911 369.497 483.436 369.323 483.932C369.15 484.428 368.879 484.884 368.528 485.275C368.177 485.666 367.751 485.983 367.277 486.208C366.802 486.434 366.287 486.563 365.762 486.588C360.82 487.298 355.878 487.923 350.964 488.548C348.492 488.86 347.924 487.355 347.924 485.311C347.924 481.619 347.924 477.928 347.924 474.237C347.924 471.029 347.924 467.792 347.924 464.611C347.924 461.431 348.833 460.551 351.73 460.58ZM398.115 109.8C400.614 110.68 404.932 108.692 405.159 113.519C405.386 118.346 405.159 122.463 405.159 126.95H405.415C405.415 129.505 405.415 132.061 405.415 134.588C405.415 137.115 404.96 139.188 401.836 138.96C398.711 138.733 395.217 139.727 395.246 135.411C395.246 127.773 395.502 120.107 395.075 112.469C395.047 110.538 396.183 109.147 398.115 109.8ZM87.0592 476.338C86.7621 477.198 86.291 477.987 85.6752 478.656C85.0594 479.325 84.3122 479.86 83.4802 480.228C82.7414 480.673 81.9218 480.967 81.0687 481.094C80.2155 481.221 79.3457 481.177 78.5095 480.966C77.7128 480.683 76.9999 480.205 76.436 479.575C75.5336 479.37 74.7023 478.927 74.0282 478.293C73.3541 477.659 72.8615 476.857 72.6014 475.969C72.6014 475.969 72.6014 475.799 72.6014 475.714C72.1672 474.829 72.0958 473.81 72.4025 472.874C72.5524 472.504 72.743 472.152 72.9707 471.824C73.1924 471.228 73.5089 470.672 73.908 470.177C74.1865 469.831 74.5115 469.525 74.8737 469.268C75.8404 468.027 77.2605 467.22 78.8219 467.025C79.3 466.902 79.8072 466.969 80.2365 467.213C80.6658 467.457 80.9836 467.858 81.1227 468.331C81.1379 468.463 81.1379 468.597 81.1227 468.729C81.6078 468.865 82.0824 469.035 82.5429 469.24C84.0087 469.706 85.264 470.672 86.0895 471.97C86.9149 473.267 87.2581 474.813 87.0592 476.338ZM253.168 424.718C253.622 421.878 254.474 421.282 256.803 423.327C267.117 431.77 278.131 439.321 289.724 445.9C299.277 451.145 309.544 454.972 320.202 457.257C324.093 458.308 325.883 459.529 325.456 463.504C325.229 466.06 325.456 468.643 325.456 471.227C325.456 474.067 325.314 476.679 325.456 479.405C325.712 483.352 324.434 484.516 320.372 483.465C304.013 478.846 287.897 473.406 272.085 467.167L258.536 462.084C256.69 461.375 255.866 460.579 256.604 458.138C259.306 450.507 259.012 442.135 255.781 434.713C253.887 431.737 252.992 428.236 253.224 424.718H253.168ZM251.492 442.606C248.651 448.654 239.931 451.124 229.762 449.591C223.229 448.597 219.196 445.729 218.713 441.328C220.217 437.651 222.898 434.575 226.336 432.582C229.774 430.588 233.776 429.79 237.716 430.311C240.933 430.882 243.93 432.333 246.372 434.503C248.814 436.673 250.606 439.478 251.549 442.606H251.492ZM230.813 466.23C226.354 465.548 223.599 463.589 223.258 460.551C226.522 462.802 230.359 464.08 234.321 464.236C238.284 464.391 242.209 463.419 245.64 461.431C243.851 465.577 237.801 467.28 230.87 466.23H230.813ZM237.375 500.757C237.375 501.864 237.119 503.171 235.813 503.426C234.506 503.682 234.023 502.262 233.654 501.297C231.733 496.018 231.272 490.319 232.319 484.8C232.887 481.364 233.909 478.013 234.762 474.635C235.197 482.59 236.079 490.515 237.403 498.372C237.512 499.163 237.521 499.964 237.432 500.757H237.375ZM229.081 457.115C222.548 456.15 218.514 453.254 218.031 448.853C228.541 455.213 239.249 456.406 250.81 450.13C248.197 456.207 239.335 458.649 229.081 457.115ZM194.711 433.634C203.62 432.738 212.286 430.206 220.275 426.166C220.674 425.874 221.167 425.739 221.659 425.786C222.151 425.833 222.609 426.059 222.945 426.422C223.712 427.529 222.463 428.012 221.838 428.636C217.609 432.152 214.761 437.051 213.799 442.464C213.544 444.679 212.351 446.155 209.936 445.559C206.215 444.622 201.955 444.253 199.086 442.095C197.774 440.843 196.217 439.876 194.513 439.256C191.871 438.659 189.173 438.177 186.559 437.467C185.082 437.069 182.924 436.899 183.236 434.627C183.549 432.356 185.622 434.031 186.815 433.662C191.161 432.384 194.314 436.104 199.711 436.643L194.711 433.634ZM249.929 427.103C240.3 423.099 239.874 422.134 243.112 412.594C251.009 414.837 248.964 421.509 250.015 427.103H249.929ZM348.748 333.034C348.748 335.873 347.697 338.372 347.441 341.069C347.441 341.665 346.93 342.659 346.589 342.687C342.732 342.75 338.891 342.164 335.228 340.955C332.614 340.331 333.097 337.605 333.268 335.589C333.807 328.065 334.404 320.54 334.205 312.874C333.949 301.516 334.603 290.414 334.887 279.198C335.057 273.065 338.977 274.371 342.471 274.116C345.964 273.86 348.862 274.684 348.521 279.255C348.35 281.498 348.521 283.742 348.521 285.985C349.969 301.743 348.748 317.388 348.833 333.034H348.748ZM366.7 336.98C366.416 340.87 365.081 342.659 361.019 342.915C351.276 343.568 351.333 343.766 351.702 334.113C352.384 315.997 353.179 297.91 353.548 279.823C353.548 275.223 355.395 274.144 359.57 274.144C367.58 274.144 367.608 274.144 367.637 281.726C367.637 288.143 367.637 294.56 367.637 300.352C368.111 312.558 367.827 324.781 366.785 336.952L366.7 336.98ZM405.471 282.066C406.582 288.072 406.716 294.218 405.869 300.267C404.676 308.132 405.869 315.969 405.471 324.856C405.276 327.228 405.276 329.611 405.471 331.983C406.21 336.696 404.222 338.968 399.791 339.479C391.042 340.473 382.265 341.495 373.488 342.318C371.102 342.574 369.029 342.546 369.455 338.883C371.239 319.543 371.647 300.101 370.676 280.703C370.676 276.132 371.642 273.889 376.698 273.832C384.217 273.846 391.729 274.301 399.194 275.195C403.228 275.734 404.932 278.29 405.557 282.066H405.471ZM377.607 261.026C384.253 260.004 390.162 263.468 396.581 263.383C400.16 263.383 400.785 266.648 402.12 268.693C403.455 270.737 400.898 270.907 399.563 270.936C395.876 271.205 392.173 271.205 388.486 270.936C378.152 270.155 367.774 270.155 357.44 270.936C355.843 271.116 354.239 270.657 352.98 269.658C352.526 269.289 350.14 265.967 349.004 269.999C348.805 270.822 347.612 270.623 346.845 270.311C339.517 267.216 331.847 269.175 324.462 269.573C308.909 270.439 293.319 270.439 277.766 269.573C261.774 268.664 246.066 271.844 230.217 272.725C224.28 273.065 218.344 273.236 212.407 273.406C211.669 273.406 210.447 273.236 210.249 272.781C208.686 269.147 208.204 270.765 206.073 272.781C203.034 275.621 198.574 274.031 194.456 273.889C194.788 271.904 195.842 270.111 197.414 268.854C198.986 267.596 200.967 266.963 202.977 267.074C218.031 266.336 233.086 265.456 248.168 264.888C251.435 264.888 252.287 263.525 252.23 260.572C252.23 256.54 252.23 252.536 252.457 248.505C252.457 247.085 252.457 245.665 254.275 245.04C256.093 244.416 258.224 241.804 260.325 242.741C262.427 243.678 261.433 246.772 261.604 248.902C261.959 252.895 262.101 256.904 262.03 260.913C262.03 263.752 263.194 264.206 265.523 264.093C291.513 263.042 317.503 263.156 343.436 260.458C351.356 260.078 359.292 260.277 367.182 261.055C370.678 261.398 374.199 261.388 377.692 261.026H377.607ZM331.024 323.323C330.521 327.134 330.312 330.979 330.399 334.822C330.995 340.189 328.609 340.501 324.462 339.649C313.182 337.896 301.792 336.947 290.377 336.81C285.946 336.81 285.122 334.993 285.321 330.932C286.06 315.06 286.656 299.159 286.94 283.259C287.111 274.457 286.798 274.457 295.888 274.4H308.442C314.72 274.4 320.969 274.4 327.246 274.4C330.086 274.4 332.018 275.308 331.734 278.574C330.342 293.424 331.62 308.388 331.024 323.323ZM282.538 331.841C282.538 334.68 281.004 335.731 278.277 335.816C265.381 336.129 252.713 333.942 239.789 333.488C237.091 333.488 236.21 332.04 236.352 329.03C236.977 312.845 237.432 296.632 237.574 280.419C237.574 276.785 238.823 275.422 242.118 275.394C247.799 275.394 253.707 275.394 262.001 275.394C265.893 275.195 272.312 275.11 278.703 274.485C282.367 274.116 283.56 275.308 283.674 278.858C284.299 296.661 282.878 314.237 282.538 331.955V331.841ZM210.135 280.419C210.135 278.091 211.328 277.296 213.373 277.154L230.16 276.132C233.256 275.933 234.534 277.438 234.449 280.448C234.364 283.458 234.449 287.177 234.449 290.556H234.733C234.137 303.021 233.427 315.486 232.972 327.951C232.83 331.756 231.381 333.176 227.66 332.608C223.059 331.926 218.458 331.302 213.828 330.762C213.264 330.793 212.701 330.696 212.181 330.478C211.661 330.259 211.197 329.925 210.825 329.501C210.452 329.077 210.182 328.574 210.033 328.03C209.884 327.486 209.86 326.915 209.965 326.361C210.618 311.17 210.334 295.837 210.135 280.533V280.419ZM198.518 298.336C197.405 294.779 197.648 290.936 199.199 287.546C199.824 286.155 198.802 283.912 198.29 282.123C197.41 278.971 198.092 277.523 201.727 277.04C205.363 276.558 205.732 277.381 205.931 281.129C206.641 295.582 206.414 310.006 206.755 324.43C206.755 328.547 205.676 329.939 201.528 328.973C199.114 328.405 198.262 327.355 198.688 324.97C198.944 323.238 198.972 321.449 199.143 319.291C198.887 312.703 200.676 305.718 198.518 298.45V298.336ZM212.72 256.341C213.552 255.867 214.468 255.558 215.418 255.433C225.436 253.281 235.334 250.608 245.072 247.426C247.913 246.545 248.651 246.943 248.396 250.095C247.629 259.663 247.771 259.749 237.914 260.856C230.132 261.736 222.32 262.418 214.14 263.213C213.089 263.213 211.442 263.411 211.101 261.481C210.804 260.579 210.801 259.607 211.092 258.704C211.383 257.801 211.953 257.014 212.72 256.455V256.341ZM289.695 260.43C283.276 260.43 276.857 260.43 270.437 260.43C267.228 260.43 265.665 259.323 265.609 256.029C265.609 253.956 265.041 251.912 264.955 249.839C264.615 239.504 264.955 238.623 274.698 235.244C283.159 232.754 291.925 231.454 300.745 231.383C305.176 231.156 308.954 234.506 313.044 236.068C318.128 237.999 323.241 240.213 328.297 242.315C332.472 244.047 333.154 249.669 332.387 255.064C331.847 258.755 328.269 258.187 325.741 258.3C313.726 258.925 301.711 259.351 289.695 259.834V260.43ZM336.25 246.233C338.437 244.359 342.414 245.211 345.254 246.233C348.521 247.539 348.095 251.145 347.811 253.786C347.413 256.909 344.203 256.143 341.931 256.398C341.448 256.398 340.994 256.398 340.312 256.398C338.807 255.915 336.137 257.733 335.512 255.149C334.802 252.508 333.864 248.448 336.25 246.432V246.233ZM351.617 251.912C351.617 249.072 353.179 247.823 355.849 248.107C358.716 248.376 361.562 248.832 364.37 249.47C365.054 249.561 365.712 249.792 366.302 250.148C366.893 250.504 367.404 250.978 367.804 251.54C368.203 252.102 368.483 252.74 368.625 253.414C368.768 254.089 368.77 254.786 368.631 255.461C368.12 258.925 365.308 258.3 362.95 257.96L360.564 257.733L355.281 257.392C351.617 257.449 351.617 254.751 351.617 252.054V251.912ZM399.308 244.898C385.702 244.898 372.068 245.949 358.462 243.933C344.035 241.804 329.907 237.992 316.367 232.575C310.087 230.21 304.257 226.791 299.126 222.467C304.322 222.363 309.422 223.87 313.725 226.783C337.614 240.015 363.405 241.86 389.821 240.157C393.059 239.958 396.212 240.696 399.393 240.384C402.574 240.072 400.756 242.343 401.211 243.223C402.091 245.126 400.245 245.04 399.308 245.04V244.898ZM332.898 197.367C354.202 200.831 375.817 200.547 397.206 203.046C399.148 203.139 400.988 203.943 402.376 205.304C403.764 206.665 404.603 208.489 404.733 210.428C405.187 215.039 404.574 219.692 402.943 224.029C402.296 225.317 401.846 226.695 401.608 228.118C400.813 234.733 399.251 236.21 392.547 236.636C389.991 236.636 387.435 237.033 384.339 237.26C373.545 236.068 362.183 234.932 350.878 233.484C337.512 231.675 324.486 227.905 312.22 222.297C311.321 221.951 310.456 221.524 309.635 221.019C306.994 219.06 302.904 218.18 302.25 214.772C302.023 213.438 306.255 213.722 307.931 211.933C309.607 210.144 311.112 209.094 313.811 210.57C315.401 211.45 317.248 209.69 318.412 208.526C321.253 205.686 325.315 203.727 326.934 199.667C328.183 196.998 330.74 197.14 332.898 197.509V197.367ZM335.597 132.912C335.369 133.751 334.927 134.517 334.315 135.134C333.702 135.751 332.94 136.199 332.103 136.433C329.035 137.512 324.548 136.433 324.292 132.572C324.249 132.232 324.249 131.889 324.292 131.55C324.292 131.408 324.292 131.266 324.292 131.124C324.393 130.045 324.877 129.038 325.655 128.284C326.335 127.575 327.202 127.073 328.155 126.836C328.335 126.822 328.515 126.822 328.695 126.836C329.783 126.388 330.984 126.289 332.132 126.552C333.083 126.814 333.93 127.364 334.555 128.127C335.181 128.889 335.555 129.827 335.625 130.811C335.625 130.982 335.625 131.152 335.625 131.351C335.729 131.915 335.719 132.494 335.597 133.054V132.912ZM340.681 128.767C333.807 122.804 329.177 122.151 323.639 125.558C322.74 126.071 321.967 126.778 321.377 127.628C320.787 128.478 320.395 129.449 320.23 130.471C320.179 130.791 320.064 131.097 319.893 131.372C319.721 131.648 319.497 131.886 319.233 132.074C318.968 132.261 318.669 132.394 318.353 132.465C318.036 132.536 317.709 132.543 317.39 132.487C315.884 132.259 316.168 130.783 316.083 129.647C316.14 125.969 315.883 122.293 315.316 118.659C314.776 116.472 316.566 115.819 318.157 115.564L336.705 110.68C338.324 110.254 340.426 109.913 340.539 112.071C340.88 117.636 340.681 122.975 340.681 128.909V128.767ZM351.446 119.794C351.446 122.236 351.759 125.104 351.787 128C351.787 129.562 352.81 131.862 349.998 132.117C347.186 132.373 344.516 132.345 344.317 129.278C343.518 123.094 343.271 116.851 343.578 110.623C343.834 107.301 348.123 107.159 350.651 106.96C353.179 106.762 351.787 109.658 351.873 111.163C351.873 114.03 351.588 116.756 351.446 119.936V119.794ZM352.213 98.6692C352.101 100.295 351.387 101.821 350.211 102.949C349.035 104.078 347.48 104.728 345.851 104.774C326.11 107.897 307.533 115.251 288.304 120.22C277.737 123.06 266.688 123.372 256.264 126.893C254.896 127.3 253.566 127.822 252.287 128.455C251.94 128.672 251.55 128.813 251.144 128.866C250.738 128.919 250.325 128.884 249.934 128.762C249.543 128.641 249.182 128.436 248.878 128.163C248.573 127.889 248.331 127.553 248.168 127.177C247.146 124.99 249.134 124.337 250.668 124.025C261.064 121.328 271.545 118.886 281.913 115.961C300.461 110.765 318.838 105.342 337.415 99.8618C341.079 98.7828 344.544 97.0224 348.123 95.6311C350.964 94.6657 352.526 95.6027 352.213 98.8112V98.6692ZM311.283 129.108C312.334 132.969 310.8 135.184 307.164 135.638C299.325 136.575 292.138 139.755 284.583 141.658C277.908 143.361 277.595 143.134 277.482 136.235C277.482 135.269 277.482 134.304 277.482 133.395C277.112 126.013 277.141 126.126 284.526 124.252C291.201 122.549 297.762 120.476 304.409 118.573C309.806 117.125 310.942 118.119 311.055 123.77C310.912 125.599 310.988 127.439 311.283 129.25V129.108ZM256.122 139.244C256.122 131.209 256.122 131.209 263.706 129.761C273.477 127.858 273.306 127.887 274.726 137.484C275.351 141.544 274.726 143.901 270.04 144.327C267.178 144.684 264.372 145.399 261.689 146.456C257.4 147.961 255.639 146.456 256.008 142.112C256.097 141.206 256.135 140.296 256.122 139.386V139.244ZM283.503 107.187C284.213 111.163 282.623 112.611 279.64 113.321C273.079 114.911 266.574 116.756 260.013 118.29C258.99 118.545 257.513 119.425 256.491 118.999C255.187 119.295 253.849 119.41 252.514 119.34C250.64 119.17 248.822 118.204 248.737 116.075C248.651 113.945 250.64 112.327 252.656 111.532C254.183 110.969 255.763 110.56 257.371 110.311C264.953 106.949 272.919 104.527 281.089 103.099C285.037 102.758 283.049 106.336 283.503 107.329V107.187ZM302.335 95.2903C313.271 92.0534 325.059 92.025 335.228 85.6932C336.449 84.9265 338.608 83.8192 339.687 86.3746C340.766 88.9301 339.687 94.3818 337.159 95.1768C326.962 98.5841 316.964 102.616 306.482 105.03C305.071 105.354 303.677 105.752 302.307 106.222C296.825 108.068 296.825 108.096 296.91 101.509C296.314 98.073 297.876 96.7668 302.335 95.4323V95.2903ZM367.324 108.948C367.324 106.478 369.313 106.279 371.187 106.478C377.067 107.131 382.975 107.869 388.855 108.607C389.3 108.642 389.733 108.767 390.129 108.973C390.525 109.179 390.875 109.463 391.159 109.808C391.442 110.152 391.654 110.55 391.78 110.978C391.906 111.406 391.945 111.855 391.894 112.298V122.407H392.263C392.008 126.24 391.894 130.101 391.525 133.935C391.241 136.774 389.821 138.08 386.611 137.427C381.271 136.348 375.874 135.638 370.477 134.843C369.687 134.837 368.924 134.547 368.33 134.026C367.735 133.504 367.348 132.787 367.239 132.004C365.563 124.394 366.984 116.728 367.324 109.09V108.948ZM355.167 107.812C355.167 105.171 356.474 104.234 358.775 104.632C361.076 105.029 364.882 104.178 364.456 108.068C363.746 114.797 364.228 121.555 363.66 128.256C363.49 130.613 363.121 133.14 359.599 133.083C356.076 133.026 355.309 130.868 355.423 128C355.423 124.621 354.514 121.271 355.196 118.488C355.196 114.683 355.281 111.305 355.167 107.954V107.812ZM352.157 76.7207C350.452 78.8502 351.872 81.3773 352.157 83.7056C352.611 89.3844 351.39 91.23 346.476 92.5361C343.635 93.3028 343.181 92.1954 342.954 89.6967C342.045 79.9008 342.045 80.0711 332.416 82.5414C320.614 85.5827 308.989 89.27 297.592 93.5867C293.899 94.978 293.445 95.7162 293.587 99.4075C294.111 101.84 294.111 104.357 293.587 106.79C293.535 107.686 293.135 108.527 292.472 109.132C291.808 109.737 290.934 110.058 290.036 110.027C287.452 110.169 288.19 107.982 287.963 106.534C287.963 105.739 287.963 104.916 287.963 104.121C287.537 98.1298 286.883 97.6755 281.288 99.4359L261.064 105.796C260.072 106.321 258.982 106.636 257.862 106.719C256.743 106.802 255.618 106.652 254.559 106.279C254.364 106.137 254.138 106.044 253.899 106.009C253.661 105.973 253.417 105.995 253.189 106.073C252.96 106.15 252.754 106.282 252.587 106.456C252.42 106.631 252.298 106.842 252.23 107.074C251.747 108.153 252.003 109.913 250.1 109.658C249.049 109.487 248.765 108.38 248.737 107.358C248.737 105.654 249.106 103.837 251.009 103.667C253.169 103.117 255.264 102.336 257.258 101.338C277.453 94.978 297.024 87.1413 317.361 80.8946C326.678 78.0552 335.71 74.1652 344.885 70.7579C345.451 70.4639 346.04 70.217 346.646 70.0197C349.259 69.5938 352.469 67.379 354.258 69.6789C355.423 71.6381 354.06 74.7047 352.157 76.8626V76.7207ZM170.369 82.3995H169.858H169.119C168.04 82.3995 166.989 82.3995 165.938 82.1723C163.836 82.1598 161.813 81.371 160.257 79.9576C159.582 79.2961 159.151 78.4252 159.036 77.4873C159.027 76.918 159.241 76.368 159.632 75.954C160.314 73.1146 164.717 73.9097 166.733 74.1368C170.397 74.6195 174.033 75.3577 177.641 76.1244C182.859 77.3742 188.209 77.9938 193.575 77.97C200.288 78.0677 206.968 77.0014 213.316 74.8182C213.618 74.6711 213.961 74.6332 214.287 74.7108C214.614 74.7885 214.903 74.977 215.106 75.2442C228.128 71.382 240.826 66.5021 253.082 60.6496C266.725 54.0788 279.085 45.1268 289.582 34.2148C293.299 30.9583 296.591 27.2475 299.381 23.1695C299.807 22.4029 300.29 21.1819 301.512 22.1189C301.721 22.2825 301.896 22.4859 302.027 22.7174C302.158 22.9489 302.241 23.2039 302.273 23.4677C302.305 23.7316 302.284 23.9992 302.212 24.255C302.139 24.5108 302.017 24.7498 301.853 24.9583C296.314 33.4765 290.718 42.1367 281.97 48.0995C270.295 56.1066 258.905 64.4828 245.64 69.7925C228.106 77.0328 209.708 81.9765 190.905 84.5006C184.912 85.2389 179.117 83.3932 173.295 82.1439C173.055 82.4068 172.75 82.6009 172.41 82.7057C172.071 82.8106 171.709 82.8225 171.363 82.7402C171.016 82.6797 170.665 82.6418 170.312 82.6266L170.369 82.3995ZM231.921 101.821C220.247 103.723 209.851 100.458 199.427 96.994C197.381 96.6533 195.365 96.2841 193.32 96.1138C189.225 95.9013 185.147 95.4463 181.106 94.7509C177.925 94.0978 173.493 92.8485 171.874 89.6683C171.707 89.3838 171.6 89.068 171.559 88.7403C171.519 88.4127 171.546 88.0803 171.639 87.7636C171.732 87.4469 171.89 87.1526 172.101 86.8991C172.312 86.6455 172.574 86.438 172.869 86.2894C174.168 85.7987 175.589 85.7291 176.93 86.0907C180.538 86.6018 184.031 87.5104 187.639 87.7659C188.789 87.3748 190.01 87.2392 191.218 87.3684C212.123 86.6586 231.381 79.4181 250.469 71.8369C266.51 65.3933 281.024 55.663 293.076 43.2725C295.032 41.7245 297.18 40.4361 299.467 39.4393C299.31 39.0422 299.298 38.6027 299.433 38.1977C299.568 37.7928 299.841 37.4482 300.205 37.2246C301.189 36.4472 302.223 35.7358 303.301 35.095C303.476 34.8927 303.708 34.7489 303.967 34.6829C304.226 34.6169 304.5 34.6319 304.75 34.7259C305.568 34.6544 306.391 34.7609 307.164 35.0382C309.498 36.23 311.581 37.8591 313.299 39.8368C315.478 41.6568 317.764 43.3446 320.145 44.8909C321.75 46.0019 323.295 47.196 324.775 48.4686C325.06 48.5664 325.336 48.69 325.599 48.8377C334.404 54.0054 343.238 59.1164 351.958 64.1989C351.958 65.8174 350.822 65.7606 350.055 66.0445C321.025 76.5219 292.11 87.198 262.797 96.8236C252.77 100.117 242.317 100.146 231.921 101.821ZM239.647 127.376C239.979 124.987 241.018 122.753 242.63 120.959C244.021 118.971 247.259 120.959 245.868 122.833C245.046 123.894 244.332 125.036 243.737 126.24C243.583 126.482 243.481 126.753 243.437 127.036C243.393 127.32 243.408 127.609 243.482 127.887C243.839 128.664 244.351 129.359 244.987 129.931C245.442 130.385 245.868 130.811 246.265 131.294C246.452 131.325 246.634 131.382 246.805 131.464C247.417 131.551 248.039 131.551 248.651 131.464C249.346 131.451 250.041 131.508 250.725 131.635C251.364 131.749 251.952 132.055 252.414 132.511C252.875 132.968 253.188 133.553 253.31 134.19C253.509 136.38 253.566 138.58 253.48 140.778C254.041 143.024 253.922 145.385 253.139 147.564C251.634 149.949 248.424 148.643 246.208 148.841C245.961 148.845 245.716 148.799 245.487 148.707C245.257 148.614 245.049 148.476 244.874 148.301C244.7 148.126 244.562 147.918 244.469 147.689C244.376 147.46 244.33 147.215 244.334 146.967C244.788 142.538 246.493 136.632 242.914 133.054C242.039 132.357 241.31 131.493 240.769 130.514C240.228 129.535 239.886 128.459 239.761 127.347L239.647 127.376ZM241.863 155.287C242.908 154.902 244.056 154.902 245.101 155.287C246.919 156.565 247.941 157.275 248.282 154.208C248.424 152.93 250.015 153.072 251.122 152.817C269.528 148.501 288.048 144.298 306.198 139.102C308.67 138.393 311.084 137.569 313.583 136.944C321.934 134.9 326.678 139.188 326.394 147.848C325.996 159.461 325.911 171.074 325.968 182.687C325.684 184.885 325.276 187.066 324.746 189.218C324.664 189.792 324.389 190.322 323.966 190.72C323.542 191.117 322.996 191.358 322.417 191.404C317.049 191.575 312.021 193.562 306.766 194.244C301.086 195.01 295.405 196.799 289.724 197.594C267.966 200.433 246.549 206.112 224.394 206.765H223.428C221.326 206.765 219.594 209.605 217.236 207.617C215.622 205.076 214.81 202.108 214.907 199.099C213.828 190.354 214.907 181.239 214.566 172.096C214.603 169.251 215.533 166.49 217.225 164.202C218.917 161.914 221.286 160.216 223.996 159.347C230.075 157.814 236.04 156.565 241.976 155.23L241.863 155.287ZM207.777 163.805C206.648 162.736 205.863 161.354 205.524 159.837C205.185 158.319 205.307 156.735 205.874 155.287C206.456 153.584 207.637 152.151 209.198 151.255C210.835 150.271 212.792 149.966 214.651 150.403C214.947 150.465 215.219 150.611 215.436 150.822C215.652 151.033 215.804 151.301 215.873 151.596C216.412 151.673 216.938 151.826 217.435 152.05C218.052 152.415 218.588 152.904 219.008 153.485C219.428 154.067 219.724 154.728 219.878 155.429C220.251 156.929 220.101 158.512 219.452 159.915C217.492 163.975 211.783 166.787 207.976 163.748L207.777 163.805ZM209.709 220.167C215.049 215.17 220.361 211.195 228.115 210.087C254.985 206.283 281.742 201.768 308.556 197.566C311.851 197.055 315.288 198.134 318.583 196.799C319.044 196.623 319.555 196.627 320.013 196.812C320.471 196.996 320.843 197.346 321.054 197.793C321.452 198.616 320.656 199.269 320.088 199.809C315.023 205.038 308.393 208.477 301.199 209.605C299.449 209.907 297.65 209.761 295.971 209.18C294.292 208.599 292.788 207.602 291.599 206.283C291.154 205.644 290.561 205.123 289.871 204.763C289.181 204.402 288.414 204.214 287.636 204.214C286.858 204.214 286.091 204.402 285.401 204.763C284.711 205.123 284.119 205.644 283.674 206.283C273.42 218.719 260.269 227.039 245.839 233.711C224.565 243.576 200.884 247.058 177.669 243.734C170.764 243.001 163.932 241.691 157.246 239.816C177.214 238.737 195.223 233.796 209.908 220.025L209.709 220.167ZM175.936 252.962C161.99 248.959 147.532 245.892 135.744 236.579C134.788 236.016 133.955 235.265 133.296 234.372C132.637 233.479 132.166 232.463 131.91 231.383C147.788 241.837 165.965 248.287 184.884 250.18C194.655 251.145 204.085 249.101 213.544 247.34C223.659 245.186 233.599 242.282 243.283 238.652C245.158 238.027 247.004 238.056 248.964 237.544C260.369 234.009 270.638 227.524 278.731 218.748C281.004 216.419 283.617 214.772 286.173 212.189C286.941 213.922 287.194 215.839 286.902 217.712C286.61 219.585 285.785 221.334 284.526 222.751C278.703 229.793 270.863 233.484 262.91 236.749C244.727 244.576 225.646 250.127 206.102 253.275C203.006 253.701 199.767 254.78 196.842 252.423C196.567 252.29 196.266 252.221 195.961 252.221C195.656 252.221 195.355 252.29 195.081 252.423C189.041 254.934 182.275 255.076 176.135 252.82L175.936 252.962ZM189.996 334.822C190.196 333.211 190.961 331.722 192.155 330.62C192.9 330.176 193.764 329.974 194.628 330.04C195.492 330.106 196.315 330.437 196.984 330.989C197.483 331.378 198.052 331.667 198.66 331.841C199.341 331.841 200.108 331.841 200.79 331.841C201.608 331.879 202.418 332.012 203.204 332.238L204.539 332.522C213.287 334.62 222.244 335.715 231.239 335.788C265.694 337.804 299.978 341.467 334.29 345.044C335.557 345.144 336.83 345.144 338.096 345.044C346.248 344.817 347.243 345.782 347.299 353.79C347.129 355.692 347.072 357.623 346.817 359.468C346.021 365.829 345.254 366.34 339.289 364.466C330.768 361.825 321.65 362.365 313.555 358.787C303.642 354.499 293.218 357.736 283.219 355.72C260.496 351.12 237.091 350.042 214.055 346.748C213.327 346.65 212.606 346.507 211.896 346.322C209.638 346.535 207.365 346.535 205.107 346.322C202.872 346.066 200.659 345.639 198.489 345.044C196.349 344.664 194.267 344.005 192.297 343.085C189.087 341.438 189.315 338.003 190.195 334.68L189.996 334.822ZM129.722 370.372C145.24 367.645 160.459 363.433 175.169 357.793C179.155 356.518 182.878 354.537 186.162 351.944C191.587 346.748 197.524 347.145 204.057 348.054C245.072 353.903 286.259 358.389 327.132 365.346C329.831 365.8 333.04 365.346 334.858 368.185C335.881 369.917 336.165 368.043 336.79 367.731C337.509 367.202 338.396 366.953 339.285 367.032C340.174 367.11 341.004 367.51 341.619 368.157C342.84 369.605 341.164 370.798 340.34 371.848C334.976 378.035 328.691 383.359 321.707 387.635C312.858 394.201 303.021 399.319 292.564 402.798C281.203 406.177 269.841 409.3 258.025 406.148C256.427 405.976 254.911 405.356 253.65 404.359C249.276 399.021 243.254 400.299 237.659 399.958C236.767 399.971 235.888 400.164 235.072 400.525C234.257 400.886 233.524 401.408 232.915 402.059C221.554 412.366 207.55 416.114 192.638 416.739C188.043 416.942 183.442 416.551 178.947 415.575C174.772 414.666 170.426 415.092 166.052 414.496C146.552 411.887 128.106 404.113 112.623 391.98C105.778 386.613 99.5855 380.168 93.1377 374.176C91.6607 372.785 92.2856 369.974 89.8428 369.35C103.25 373.552 116.316 372.927 129.921 370.23L129.722 370.372ZM79.9013 410.123C74.5045 409.584 70.8971 404.445 69.5337 400.697C68.7706 398.921 68.4033 397 68.4573 395.069C68.5112 393.137 68.9851 391.24 69.8462 389.509C72.2037 385.506 77.913 381.871 81.5203 384.114C83.9347 385.619 84.9004 389.481 84.0199 393.541C80.5707 394.142 77.0203 393.666 73.8512 392.178C75.7543 395.216 79.248 395.756 82.3725 397.232C79.9865 398.51 77.7142 397.232 75.2714 397.971C76.6174 398.929 78.1511 399.591 79.7716 399.914C81.392 400.237 83.0626 400.214 84.6732 399.845C87.9964 399.316 91.199 398.2 94.1318 396.551C93.0241 405.098 86.207 410.464 80.1001 409.868L79.9013 410.123ZM91.263 472.278L161.876 465.406C161.876 465.804 161.876 466.202 161.876 466.627C138.499 470.603 114.839 472.306 91.2062 474.209L91.263 472.278ZM105.21 488.32C101.176 485.68 97.1427 483.039 93.1377 480.342C92.3708 479.831 91.4334 479.234 91.6322 478.099C91.8311 476.963 92.8253 476.707 93.8194 476.594L144.351 471.256C147.3 471.033 150.253 471.643 152.872 473.016C154.259 473.832 155.875 474.172 157.473 473.982C162.927 472.619 163.325 475.486 163.154 479.66C162.984 482.5 162.132 483.124 159.092 483.181C153.38 483.548 147.691 484.221 142.05 485.197L110.55 489.258C108.747 489.518 106.912 489.092 105.408 488.065L105.21 488.32ZM159.689 525.233L119.042 502.12L119.895 500.587C134.551 506.266 146.793 516.374 160.598 523.586L159.689 525.233ZM162.984 489.286C162.359 496.47 163.921 503.738 161.848 510.837C161.569 512.106 161.618 513.425 161.99 514.67C163.24 519.526 160.854 519.27 157.814 517.51C143.612 509.616 129.24 501.609 114.981 493.63C114.025 492.89 113.141 492.063 112.339 491.16L140.743 487.696C146.793 486.929 152.9 486.333 158.894 485.339C162.529 484.601 163.438 486.134 163.183 489.115L162.984 489.286ZM160.342 423.696C153.724 421.793 147.106 419.834 140.459 418.216C122.877 413.928 108.703 404.019 96.7166 391.014C91.7983 385.656 87.7014 379.599 84.5596 373.041C84.2171 372.56 84.0331 371.984 84.0331 371.394C84.0331 370.804 84.2171 370.228 84.5596 369.747C86.9476 372.546 89.1399 375.506 91.121 378.606C97.1995 389.651 106.829 396.665 117.679 402.258C127.393 407.284 137.278 412.48 147.873 414.78C160.484 417.619 173.238 420.459 186.332 420.459C189.191 420.709 192.036 421.107 194.854 421.651C203.716 422.475 211.413 418.812 219.338 415.972C221.128 415.319 222.889 414.496 224.678 413.758C227.518 412.565 230.842 411.969 231.552 408.079C231.653 407.745 231.83 407.438 232.067 407.183C232.305 406.927 232.598 406.729 232.924 406.603C233.249 406.477 233.599 406.427 233.947 406.456C234.295 406.486 234.632 406.594 234.932 406.773C232.355 411.414 228.818 415.453 224.557 418.62C220.296 421.788 215.408 424.012 210.22 425.144C199.455 427.983 188.235 427.415 177.129 426.649C174.686 426.478 172.641 424.661 169.773 425.712C167.926 426.365 168.494 423.298 167.273 421.594C165.796 424.973 163.268 424.32 160.541 423.525L160.342 423.696ZM179.458 458.166C179.146 479.178 178.691 500.189 178.265 521.172C178.265 523.217 177.811 525.233 177.498 527.845L168.352 522.507C166.165 521.258 166.194 519.156 166.108 517.055C165.711 506.975 166.108 496.867 165.739 486.816C165.285 474.805 166.819 462.965 166.989 451.039C166.989 447.007 168.239 445.957 172.215 447.575C179.572 450.329 179.771 450.159 179.657 457.996L179.458 458.166ZM181.589 526.312C181.986 507.401 180.765 488.434 182.64 469.524C183.25 465.426 183.393 461.273 183.066 457.144C182.696 454.106 184.202 451.976 187.667 453.339C195.592 456.462 203.432 459.785 211.3 462.993C211.914 463.184 212.437 463.592 212.772 464.14C213.106 464.689 213.229 465.341 213.117 465.974C212.975 468.53 213.117 471.085 213.117 473.669H212.975C212.464 496.612 211.896 519.554 211.47 542.496C211.47 546.188 210.533 547.295 207.096 545.137C199.521 540.48 191.947 535.909 184.372 531.423C183.454 530.897 182.715 530.106 182.254 529.153C181.793 528.201 181.63 527.131 181.788 526.084L181.589 526.312ZM267.625 588.381C242.342 575.381 218.123 560.409 195.194 543.604C218.855 557.006 243.311 569.158 266.205 583.639C267.796 584.235 268.25 585.684 267.824 588.154L267.625 588.381ZM324.235 511.178C323.866 521.087 322.957 531.053 323.127 540.935C323.298 550.816 321.139 560.015 321.508 569.641C321.821 578.159 320.031 586.677 320.798 595.338C321.025 598.177 318.895 601.016 319.861 604.196C321.025 603.259 320.06 601.783 321.508 599.767C320.969 603.288 322.815 606.695 320.77 607.973C318.725 609.251 316.424 606.213 314.265 604.963C302.449 598.149 291.116 590.454 278.703 584.747C277.107 584.31 275.706 583.345 274.731 582.009C273.756 580.673 273.263 579.045 273.335 577.393C272.965 555.245 274.982 533.155 275.124 511.036C275.323 504.612 275.123 498.183 274.528 491.785C273.988 487.27 274.755 486.816 278.817 488.633C281.524 489.644 284.13 490.908 286.599 492.409C292.28 496.441 299.325 494.34 305.034 497.69C306.965 498.826 309.266 499.224 310.26 501.609C310.715 502.688 311.51 503.682 312.788 503.455C317.134 502.688 318.469 508.622 322.957 507.856C324.178 507.458 324.462 509.673 324.434 510.951L324.235 511.178ZM344.289 502.347C344.262 502.825 344.156 503.295 343.976 503.738C343.096 505.243 345.851 507.77 343.266 508.281C342.067 508.439 340.848 508.256 339.748 507.754C338.648 507.252 337.712 506.451 337.046 505.442C334.972 502.347 332.359 502.603 328.979 502.035C323.511 501.72 318.134 500.491 313.072 498.4C301.711 492.863 289.837 488.945 278.135 484.459C276.147 483.692 273.477 483.664 273.193 480.626C273.134 480.335 273.008 480.063 272.823 479.831C264.472 482.67 259.132 474.947 251.889 473.982C250.98 473.982 250.043 473.272 248.651 474.493C251.993 477.859 256.168 480.279 260.751 481.506C262.74 482.187 264.671 482.926 266.66 483.522C268.15 483.869 269.454 484.768 270.308 486.038C271.162 487.308 271.502 488.854 271.261 490.365C270.949 500.161 270.579 509.985 270.863 519.781C271.375 538.095 268.023 556.154 267.37 574.354C267.37 576.399 267.37 578.471 264.075 576.683C248.926 568.24 233.72 559.902 218.458 551.668C217.171 551.064 216.103 550.076 215.401 548.84C214.699 547.605 214.397 546.182 214.538 544.768C214.225 520.349 215.333 495.93 216.27 471.54C216.137 470.419 216.263 469.282 216.64 468.218C219.48 463.533 216.072 462.539 212.89 461.204C204.369 457.74 195.706 454.759 187.554 450.67C181.873 447.831 175.737 447.007 170.511 443.515C168.892 442.436 166.336 441.527 167.33 438.972C168.324 436.416 170.994 437.069 173.011 437.751C184.06 441.186 194.967 445.332 206.215 447.745C208.781 448.061 211.173 449.205 213.029 451.004C214.885 452.803 216.103 455.158 216.498 457.712C217.119 460.072 218.52 462.154 220.474 463.618C220.985 463.987 221.866 464.469 221.838 464.867C221.554 470.546 225.814 471.909 229.677 473.811C230.014 473.962 230.313 474.185 230.553 474.465C230.793 474.745 230.969 475.074 231.066 475.43C231.164 475.785 231.182 476.158 231.119 476.521C231.055 476.885 230.912 477.229 230.7 477.531C226.581 484.771 227.859 492.523 229.166 499.962C230.23 503.371 231.679 506.648 233.483 509.73C234.25 511.376 235.699 510.809 236.693 509.73C237.723 508.951 238.563 507.948 239.149 506.797C239.734 505.646 240.05 504.377 240.073 503.085C239.647 495.731 240.613 488.32 238.852 481.023C237.772 476.565 238.852 473.044 243.709 471.625C244.714 471.351 245.625 470.806 246.341 470.05C247.057 469.294 247.552 468.356 247.771 467.337C248.964 463.816 251.208 462.596 254.843 464.753C257.62 466.396 260.722 467.414 263.933 467.735C264.909 467.774 265.871 467.986 266.773 468.359C287.792 479.234 310.999 483.834 333.211 491.217C334.432 491.614 335.767 491.614 337.017 491.926C344.999 493.545 345.538 494.51 344.487 502.12L344.289 502.347ZM345.169 479.632C344.885 485.14 341.136 487.554 336.108 485.765C333.495 484.8 328.78 488.292 328.524 482.301C328.524 479.121 328.524 475.884 328.524 472.704C328.524 469.154 328.524 465.634 328.524 462.113C328.524 459.728 329.462 458.706 331.734 460.466C332.592 461.277 333.715 461.75 334.896 461.797C336.076 461.844 337.233 461.462 338.153 460.721C338.914 460.379 339.747 460.231 340.579 460.288C341.411 460.346 342.216 460.609 342.922 461.053C343.627 461.497 344.212 462.109 344.624 462.834C345.036 463.559 345.262 464.374 345.283 465.208C345.538 469.722 345.538 474.549 345.368 479.348L345.169 479.632Z" fill="white"/>
<path d="M408.028 155.23C407.34 153.82 406.304 152.608 405.017 151.71C403.284 150.46 401.126 150.148 399.336 148.87C399.092 148.715 398.887 148.506 398.734 148.26C398.582 148.015 398.487 147.738 398.456 147.45C397.506 147.451 396.558 147.394 395.615 147.28C381.432 145.52 367.23 143.693 353.009 141.8C349.401 141.317 345.68 142.056 342.13 140.352C341.306 139.954 337.954 139.5 338.295 142.936C339.46 155.287 338.636 167.667 338.693 180.018C338.693 183.085 338.892 184.76 343.01 184.959C360.923 185.976 378.757 188.091 396.41 191.291C397.368 191.38 398.318 191.542 399.251 191.774C400.699 192.245 402.076 192.913 403.341 193.761C404.366 193.753 405.382 193.58 406.352 193.25C406.891 192.966 407.358 192.562 407.717 192.07C408.076 191.578 408.319 191.01 408.425 190.411C408.996 188.054 409.339 185.649 409.448 183.227V165.878C409.211 165.603 409.089 165.247 409.107 164.884C409.589 161.627 409.217 158.301 408.028 155.23ZM400.131 189.303C382.634 186.918 365.166 184.419 347.669 182.063C343.266 181.495 341.107 180.388 341.988 174.936C343.209 166.077 343.124 157.019 343.607 148.047C343.607 145.69 343.607 143.135 346.817 144.157C363.603 146.23 379.851 148.104 396.07 150.29C400.245 150.858 403.966 151.88 404.278 157.928C404.795 163.126 405.013 168.35 404.932 173.573C404.762 177.099 404.991 180.633 405.613 184.107C406.039 188.565 404.364 190.042 399.989 189.303H400.131Z" fill="white"/>
<path d="M230.387 586.819C230.104 586.817 229.824 586.76 229.563 586.649C221.884 582.885 215.013 577.657 209.34 571.259C186.389 557.478 163.476 543.66 140.601 529.804C133.301 525.374 126.087 520.774 118.219 515.891C121.059 515.351 122.11 517.651 124.07 517.055C123.331 515.067 121.229 514.84 119.951 513.903C111.572 508.224 101.488 505.669 93.308 499.706C90.0984 497.321 88.7633 498.826 88.8485 502.546C89.3882 523.586 90.1835 544.625 89.8143 565.694C89.7136 566.491 89.8719 567.299 90.2656 568C90.6594 568.7 91.2679 569.255 92.0014 569.584C97.1519 572.485 101.922 576.014 106.204 580.09C118.474 589.971 130.489 600.136 142.476 610.329C144.386 611.886 146.408 613.3 148.526 614.56C146.509 612.26 144.493 609.988 142.447 607.717C137.391 602.038 132.279 596.161 126.854 590.681C116.031 582.361 105.039 574.212 94.4442 565.523C93.9521 565.115 93.5641 564.596 93.3122 564.009C93.0603 563.421 92.9518 562.782 92.9956 562.145L91.973 507.259C91.973 504.107 93.024 504.136 95.2963 505.669C118.417 521.058 142.646 534.716 165.909 549.878C193.206 567.653 222.065 582.986 249.077 601.272C256.008 605.957 263.279 609.79 270.437 614.39C257.684 604.281 243.51 596.161 230.387 586.819Z" fill="white"/>
<path d="M318.612 141.63C318.385 155.827 317.646 169.683 318.157 183.568C318.157 185.868 317.589 186.947 315.033 187.344C293.815 190.695 272.597 194.131 251.407 197.793C241.806 199.469 231.95 199.923 222.605 203.018C220.304 203.756 220.162 202.166 220.134 200.718C219.964 189.36 219.85 178.003 219.708 166.645C219.708 165.14 220.532 164.941 221.81 164.629C246.096 158.695 270.353 152.647 294.638 146.741C302.421 144.838 310.318 143.362 318.612 141.63ZM315.487 165.595C315.487 160.285 315.487 154.975 315.487 149.694C315.487 146.854 314.436 145.35 310.943 145.974C282.538 151.17 254.759 159.518 226.695 166.503C225.736 166.631 224.867 167.132 224.276 167.898C223.685 168.664 223.422 169.632 223.543 170.592C223.543 178.627 223.543 186.663 223.344 194.698C223.344 198.021 224.622 198.901 227.775 198.361C235.359 197.084 243.028 196.09 250.64 194.84C270.268 191.603 289.867 188.196 309.522 185.073C313.868 184.391 316.226 183.028 315.715 178.088C315.411 173.931 315.336 169.76 315.487 165.595Z" fill="white"/>
</g>
</mask>
<g mask="url(#mask0_93_7883)">
<rect x="37" y="-43" width="590" height="580" fill="#756939"/>
<rect x="37" y="-43" width="590" height="580" fill="url(#paint0_linear_93_7883)"/>
</g>
<defs>
<linearGradient id="paint0_linear_93_7883" x1="13" y1="481" x2="399" y2="9" gradientUnits="userSpaceOnUse">
<stop stop-color="#F9F4BF"/>
<stop offset="0.2279" stop-color="#BA9B57"/>
<stop offset="0.414" stop-color="#F9C46E"/>
<stop offset="0.586" stop-color="#F0B963"/>
<stop offset="0.7721" stop-color="#F9F3BB"/>
<stop offset="1" stop-color="#C1A059"/>
</linearGradient>
</defs>
</svg>
